<svg width="36" height="36" viewBox="0 0 36 36" fill="none" xmlns="http://www.w3.org/2000/svg">
<path d="M32.3042 8.28727C32.0952 8.50024 31.8103 8.62159 31.5119 8.62468C31.2135 8.62778 30.9261 8.51236 30.7127 8.30377L27.7127 5.36377C27.4987 5.15491 27.3764 4.86958 27.3728 4.57056C27.3691 4.27153 27.4844 3.9833 27.6932 3.76927C27.9021 3.55524 28.1874 3.43294 28.4864 3.42929C28.7855 3.42563 29.0737 3.54091 29.2877 3.74977L32.2877 6.68977C32.3939 6.79347 32.4786 6.9171 32.5369 7.05357C32.5952 7.19005 32.626 7.33669 32.6275 7.4851C32.6291 7.6335 32.6013 7.78075 32.5458 7.9184C32.4903 8.05605 32.4082 8.1814 32.3042 8.28727ZM8.29523 5.29477C8.49395 5.08151 8.60214 4.79944 8.59699 4.50799C8.59185 4.21653 8.47378 3.93846 8.26766 3.73234C8.06154 3.52622 7.78347 3.40815 7.49201 3.40301C7.20056 3.39786 6.91849 3.50605 6.70523 3.70477L3.70523 6.70477C3.5947 6.80776 3.50605 6.93196 3.44456 7.06996C3.38307 7.20796 3.35001 7.35693 3.34734 7.50799C3.34468 7.65904 3.37246 7.80908 3.42905 7.94917C3.48563 8.08925 3.56984 8.2165 3.67667 8.32333C3.7835 8.43016 3.91075 8.51437 4.05083 8.57095C4.19092 8.62754 4.34096 8.65532 4.49201 8.65266C4.64307 8.64999 4.79204 8.61693 4.93004 8.55544C5.06804 8.49395 5.19224 8.4053 5.29523 8.29477L8.29523 5.29477ZM25.7042 28.6033L27.7967 30.7033C27.9071 30.8065 27.9955 30.9308 28.0567 31.069C28.1179 31.2071 28.1507 31.3561 28.1531 31.5071C28.1554 31.6582 28.1274 31.8082 28.0705 31.9482C28.0137 32.0881 27.9292 32.2152 27.8222 32.3218C27.7152 32.4285 27.5878 32.5124 27.4476 32.5688C27.3074 32.6251 27.1573 32.6526 27.0063 32.6496C26.8552 32.6467 26.7063 32.6133 26.5684 32.5516C26.4305 32.4899 26.3065 32.401 26.2037 32.2903L23.7182 29.7928C21.9389 30.6671 19.9828 31.1217 18.0002 31.1217C16.0177 31.1217 14.0616 30.6671 12.2822 29.7928L9.79673 32.2933C9.69394 32.404 9.56991 32.4929 9.43203 32.5546C9.29415 32.6163 9.14525 32.6497 8.9942 32.6526C8.84316 32.6556 8.69307 32.6281 8.55288 32.5718C8.4127 32.5154 8.2853 32.4315 8.17827 32.3248C8.07124 32.2182 7.98679 32.0911 7.92994 31.9512C7.8731 31.8112 7.84502 31.6612 7.8474 31.5102C7.84978 31.3591 7.88255 31.2101 7.94377 31.072C8.00499 30.9338 8.0934 30.8095 8.20373 30.7063L10.2962 28.6063C8.05131 26.9787 6.37952 24.6819 5.52068 22.0454C4.66183 19.4089 4.66004 16.5682 5.51558 13.9306C6.37111 11.293 8.04 8.99417 10.2829 7.36376C12.5258 5.73335 15.2274 4.85517 18.0002 4.85517C20.7731 4.85517 23.4747 5.73335 25.7176 7.36376C27.9605 8.99417 29.6294 11.293 30.4849 13.9306C31.3404 16.5682 31.3386 19.4089 30.4798 22.0454C29.6209 24.6819 27.9492 26.9787 25.7042 28.6063V28.6033ZM18.0002 28.8748C20.1511 28.8748 22.2537 28.237 24.0421 27.042C25.8304 25.847 27.2243 24.1486 28.0474 22.1615C28.8705 20.1743 29.0859 17.9877 28.6663 15.8782C28.2467 13.7686 27.2109 11.8309 25.69 10.31C24.1691 8.78909 22.2314 7.75334 20.1218 7.33373C18.0123 6.91412 15.8257 7.12948 13.8385 7.95258C11.8514 8.77568 10.153 10.1696 8.958 11.9579C7.76304 13.7463 7.12523 15.8489 7.12523 17.9998C7.12841 20.883 8.27518 23.6473 10.314 25.686C12.3527 27.7248 15.117 28.8716 18.0002 28.8748ZM20.9552 15.2638L16.7552 19.4638L15.0452 17.7643C14.9438 17.6487 14.8198 17.5551 14.6808 17.4893C14.5418 17.4235 14.3907 17.387 14.2371 17.3818C14.0834 17.3767 13.9302 17.4032 13.7872 17.4595C13.6441 17.5159 13.5141 17.601 13.4052 17.7096C13.2963 17.8182 13.2108 17.9479 13.1541 18.0909C13.0973 18.2338 13.0704 18.3868 13.0751 18.5405C13.0798 18.6942 13.1159 18.8453 13.1813 18.9845C13.2467 19.1237 13.3399 19.248 13.4552 19.3498L15.9557 21.8488C16.06 21.9534 16.1839 22.0365 16.3203 22.0932C16.4567 22.1499 16.603 22.179 16.7507 22.179C16.8985 22.179 17.0447 22.1499 17.1812 22.0932C17.3176 22.0365 17.4415 21.9534 17.5457 21.8488L22.5452 16.8493C22.7503 16.6372 22.8638 16.3531 22.8614 16.0581C22.8589 15.7631 22.7408 15.4809 22.5323 15.2722C22.3238 15.0635 22.0417 14.9451 21.7467 14.9424C21.4517 14.9397 21.1675 15.0529 20.9552 15.2578V15.2638Z" fill="black"/>
</svg>
