<svg width="25" height="24" viewBox="0 0 25 24" fill="none" xmlns="http://www.w3.org/2000/svg">
<g clip-path="url(#clip0_98_3941)">
<path d="M10.9488 18.4113C10.8344 17.9698 10.5387 17.5918 10.1375 17.3744C9.73585 17.1566 9.25704 17.1151 8.82376 17.2605L5.92752 18.2325C5.49447 18.3779 5.13775 18.6997 4.94877 19.1157C4.75983 19.5316 4.75205 20.0121 4.92748 20.4338C5.08519 20.813 5.23451 21.1701 5.37202 21.4974C5.86156 22.6631 7.00848 23.3806 8.21706 23.3805C8.56089 23.3815 8.91485 23.3199 9.25193 23.2001C10.8199 22.6739 11.6885 21.0191 11.2296 19.433C11.1275 19.0804 11.0331 18.7367 10.9488 18.4113ZM8.8043 21.8668L8.73918 21.8887C7.91481 22.1653 7.00534 21.7542 6.66878 20.9528C6.53188 20.6268 6.38317 20.2713 6.22612 19.8936C6.19034 19.8077 6.21275 19.7338 6.2293 19.6974C6.24585 19.661 6.28678 19.5955 6.37501 19.5659L9.27125 18.5939C9.33285 18.5688 9.42633 18.5846 9.46731 18.6108C9.50223 18.6297 9.56421 18.6748 9.58737 18.7641C9.67495 19.102 9.77288 19.4585 9.87851 19.8238C10.1273 20.6837 9.65554 21.5812 8.8043 21.8668Z" fill="black"/>
<path d="M9.79119 13.6586C9.7737 13.2103 9.77455 12.7894 9.77534 12.3823C9.77731 11.3709 9.77938 10.325 9.50155 8.85181C9.06489 6.53659 7.96584 4.71124 6.48619 3.84368C5.54757 3.29333 4.53426 3.17599 3.55597 3.5043C2.24351 3.94476 1.2813 4.95629 0.846657 6.35258C0.402918 7.77812 0.517873 9.573 1.17905 11.5432C1.52396 12.5709 2.03666 13.9493 2.703 15.6404C2.95837 16.2885 3.57899 16.6881 4.24026 16.6881C4.4148 16.6881 4.59225 16.6602 4.76647 16.6018L8.66579 15.2932C9.35692 15.0613 9.81969 14.3891 9.79119 13.6586ZM8.21834 13.9598L4.31898 15.2685C4.19455 15.31 4.05967 15.247 4.01152 15.1249C3.35405 13.4562 2.84965 12.1007 2.51242 11.0958C1.9459 9.40769 1.83423 7.91206 2.1895 6.77067C2.49062 5.80331 3.11786 5.13491 4.00337 4.83777C4.21846 4.76557 4.43431 4.72952 4.65029 4.72952C5.02638 4.72952 5.40266 4.8389 5.77476 5.05704C6.88694 5.70912 7.7634 7.22519 8.11938 9.11252C8.37263 10.4552 8.3708 11.3899 8.36884 12.3795C8.36799 12.8008 8.36715 13.2364 8.38571 13.7134C8.39017 13.8257 8.32289 13.9247 8.21834 13.9598Z" fill="black"/>
<path d="M19.2355 15.5294C19.2355 15.5294 19.2355 15.5294 19.2355 15.5294L16.3392 14.5574C15.9059 14.412 15.4271 14.4535 15.0255 14.6712C14.6243 14.8887 14.3286 15.2666 14.2142 15.7082C14.1299 16.0333 14.0355 16.377 13.9335 16.7298C13.4745 18.316 14.3431 19.9708 15.911 20.497C16.2482 20.6169 16.602 20.6784 16.946 20.6775C18.1544 20.6775 19.3015 19.9599 19.791 18.7944C19.9285 18.467 20.0777 18.11 20.2356 17.7307C20.411 17.309 20.4032 16.8286 20.2143 16.4127C20.0253 15.9967 19.6686 15.6748 19.2355 15.5294ZM18.937 17.1905C18.7798 17.5681 18.6312 17.9237 18.4942 18.2497C18.1576 19.0512 17.2483 19.4622 16.4239 19.1856L16.3585 19.1637C15.5074 18.8781 15.0357 17.9807 15.2846 17.1206C15.3902 16.7552 15.4882 16.3987 15.5757 16.0611C15.5988 15.9717 15.6608 15.9267 15.6957 15.9078C15.7367 15.8815 15.8301 15.8657 15.8918 15.8908L18.788 16.8628C18.8763 16.8924 18.9172 16.9579 18.9337 16.9943C18.9502 17.0308 18.9727 17.1046 18.937 17.1905Z" fill="black"/>
<path d="M24.3164 3.64974C23.8817 2.25345 22.9196 1.24193 21.6071 0.801423C20.6287 0.473108 19.6156 0.590454 18.6768 1.1408C17.1972 2.00831 16.0981 3.83371 15.6615 6.14893C15.3836 7.6221 15.3857 8.66786 15.3877 9.67924C15.3885 10.0864 15.3893 10.5075 15.3718 10.9558C15.3434 11.6863 15.8062 12.3584 16.4972 12.5903L20.3966 13.899C20.5709 13.9574 20.7482 13.9853 20.9228 13.9853C21.584 13.9853 22.2048 13.5856 22.4601 12.9376C23.1262 11.2471 23.6389 9.8686 23.984 8.84038C24.6452 6.87012 24.7601 5.07524 24.3164 3.64974ZM22.6506 8.39285C22.3132 9.39818 21.8088 10.7538 21.1515 12.4219C21.1034 12.5441 20.9685 12.6073 20.844 12.5655L16.9446 11.2568C16.8401 11.2218 16.7728 11.1227 16.7772 11.0105C16.7958 10.5334 16.7949 10.0977 16.7941 9.67638C16.7921 8.6868 16.7903 7.75211 17.0435 6.4095C17.3995 4.52212 18.276 3.00605 19.3882 2.35402C19.9739 2.0106 20.5699 1.93686 21.1596 2.13475C22.0451 2.43193 22.6723 3.10033 22.9734 4.0677C23.3288 5.20913 23.2171 6.70476 22.6506 8.39285Z" fill="black"/>
</g>
<defs>
<clipPath id="clip0_98_3941">
<rect width="24" height="24" fill="white" transform="translate(0.581543)"/>
</clipPath>
</defs>
</svg>
