<svg width="6" height="6" viewBox="0 0 6 6" fill="none" xmlns="http://www.w3.org/2000/svg">
<path d="M5.85748 1.53142L5.5687 1.24255C5.46863 1.14759 5.35175 1.1001 5.21833 1.1001C5.08216 1.1001 4.96667 1.14759 4.87167 1.24255L3.00001 3.11427L1.12837 1.24261C1.03338 1.14765 0.917863 1.10015 0.781749 1.10015C0.648265 1.10015 0.531413 1.14765 0.431327 1.24261L0.146339 1.53148C0.0487615 1.62899 0 1.74584 0 1.88193C0 2.02055 0.0488155 2.13608 0.146325 2.22849L2.65338 4.73556C2.74585 4.83308 2.86132 4.88189 3 4.88189C3.13607 4.88189 3.25291 4.8331 3.35039 4.73556L5.85747 2.22849C5.95247 2.13348 6 2.01796 6 1.88193C6.00001 1.74838 5.95248 1.63159 5.85748 1.53142Z" fill="black"/>
</svg>
