<svg width="40" height="40" viewBox="0 0 40 40" fill="none" xmlns="http://www.w3.org/2000/svg">
<path d="M35.397 18.3069C35.7798 17.3507 35.8999 16.3095 35.7447 15.2913C35.5896 14.273 35.165 13.3148 34.5149 12.516C33.8647 11.7171 33.0128 11.1067 32.0473 10.748C31.0818 10.3893 30.0379 10.2954 29.0239 10.4759C28.6491 9.44875 28.0246 8.531 27.2067 7.8054C26.3887 7.0798 25.4031 6.56917 24.3386 6.31953C23.274 6.06989 22.1641 6.0891 21.1089 6.37543C20.0536 6.66176 19.0862 7.2062 18.2939 7.95967C17.0543 7.39539 15.7046 7.11409 14.3427 7.13617C12.9809 7.15826 11.641 7.48317 10.4204 8.08735C9.19968 8.69153 8.12878 9.55982 7.28532 10.6293C6.44186 11.6987 5.84701 12.9424 5.5439 14.2703C4.36252 14.8951 3.39878 15.864 2.78027 17.0487C2.16176 18.2334 1.91765 19.578 2.08028 20.9045C2.2429 22.231 2.80458 23.4769 3.69095 24.4771C4.57732 25.4773 5.74657 26.1847 7.0439 26.5056C7.69876 27.6624 8.59718 28.6631 9.67696 29.4384C10.7567 30.2138 11.9921 30.7452 13.2976 30.996C14.603 31.2467 15.9473 31.2108 17.2375 30.8907C18.5277 30.5706 19.733 29.974 20.7698 29.1422C21.4048 30.283 22.2758 31.2753 23.3247 32.0528C24.3736 32.8302 25.5764 33.3749 26.8526 33.6505C28.1288 33.9261 29.4492 33.9263 30.7254 33.651C32.0017 33.3757 33.2046 32.8313 34.2537 32.0542C35.3029 31.277 36.1742 30.285 36.8094 29.1443C37.4446 28.0036 37.8291 26.7405 37.9374 25.4393C38.0456 24.1382 37.8749 22.8289 37.4369 21.599C36.9988 20.369 36.3034 19.2467 35.397 18.3069Z" fill="#AEBBCB"/>
<path d="M36.0597 24.5153C35.9237 24.5151 35.7927 24.4644 35.6922 24.3729C35.5916 24.2815 35.5287 24.1559 35.5156 24.0206C35.4536 23.3715 35.2973 22.7349 35.0516 22.1309C34.9969 21.9966 34.9978 21.846 35.0542 21.7123C35.1105 21.5787 35.2177 21.4729 35.352 21.4182C35.4864 21.3636 35.6369 21.3645 35.7706 21.4209C35.9042 21.4772 36.01 21.5844 36.0647 21.7187C36.3503 22.421 36.5322 23.1612 36.6047 23.9159C36.6185 24.0603 36.5745 24.2042 36.4823 24.3161C36.39 24.4281 36.2571 24.4988 36.1128 24.5128C36.094 24.5143 36.0769 24.5153 36.0597 24.5153Z" fill="#D8D8D8"/>
<path d="M8.11823 12.9731C7.12819 13.0421 6.16379 13.3189 5.28792 13.7856C5.22445 13.8192 5.16823 13.865 5.12247 13.9204C5.0767 13.9757 5.04229 14.0396 5.02119 14.1082C5.0001 14.1769 4.99273 14.249 4.99952 14.3205C5.0063 14.392 5.0271 14.4615 5.06073 14.525C5.09436 14.5884 5.14016 14.6447 5.19552 14.6904C5.25088 14.7362 5.31471 14.7706 5.38337 14.7917C5.45202 14.8128 5.52416 14.8202 5.59567 14.8134C5.66717 14.8066 5.73664 14.7858 5.80011 14.7522C6.54107 14.3573 7.35692 14.1231 8.19448 14.0647C8.26696 14.0608 8.33795 14.0426 8.4033 14.011C8.46866 13.9794 8.52707 13.9351 8.57515 13.8808C8.62322 13.8264 8.65999 13.763 8.68331 13.6943C8.70662 13.6255 8.71603 13.5528 8.71097 13.4804C8.70591 13.408 8.68648 13.3373 8.65383 13.2725C8.62118 13.2077 8.57595 13.15 8.52078 13.1029C8.46561 13.0557 8.4016 13.02 8.33249 12.9978C8.26338 12.9757 8.19054 12.9675 8.11823 12.9737V12.9731Z" fill="#D8D8D8"/>
<path d="M28.9304 9.9297C27.972 10.0953 27.0643 10.4785 26.2773 11.05C26.16 11.1354 26.0815 11.2638 26.0589 11.4071C26.0363 11.5504 26.0716 11.6968 26.157 11.8141C26.2424 11.9314 26.3708 12.0099 26.5141 12.0325C26.6574 12.055 26.8038 12.0198 26.9211 11.9344C27.5718 11.4618 28.3223 11.1448 29.1148 11.0078C29.2578 10.9834 29.3852 10.9031 29.469 10.7848C29.5528 10.6664 29.5861 10.5195 29.5617 10.3766C29.5372 10.2336 29.457 10.1062 29.3386 10.0224C29.2202 9.9386 29.0734 9.90525 28.9304 9.9297Z" fill="#D8D8D8"/>
<path d="M35.7904 17.9261C35.1624 17.2747 34.4473 16.7134 33.6654 16.2582C33.6032 16.2205 33.5342 16.1955 33.4624 16.1847C33.3905 16.174 33.3172 16.1776 33.2467 16.1955C33.1763 16.2134 33.1101 16.2452 33.0521 16.2889C32.9941 16.3327 32.9453 16.3876 32.9088 16.4504C32.8722 16.5132 32.8485 16.5827 32.8391 16.6547C32.8297 16.7268 32.8347 16.8 32.8539 16.8701C32.8731 16.9402 32.9061 17.0058 32.9509 17.063C32.9958 17.1202 33.0516 17.1679 33.115 17.2032C33.8099 17.6083 34.4453 18.1077 35.0032 18.687C35.053 18.7387 35.1126 18.78 35.1784 18.8087C35.2443 18.8374 35.3151 18.8528 35.3869 18.8541C35.4587 18.8554 35.5301 18.8425 35.5969 18.8162C35.6638 18.79 35.7248 18.7508 35.7765 18.7009C35.8281 18.651 35.8695 18.5915 35.8982 18.5256C35.9268 18.4598 35.9423 18.3889 35.9436 18.3171C35.9449 18.2453 35.932 18.174 35.9057 18.1071C35.8794 18.0403 35.8402 17.9793 35.7904 17.9276V17.9261Z" fill="#D8D8D8"/>
<path d="M21.1344 10.5247C21.2416 10.5249 21.3464 10.4935 21.4359 10.4346C21.5255 10.3757 21.5957 10.2918 21.638 10.1933C21.6802 10.0949 21.6927 9.98613 21.6737 9.88065C21.6547 9.77518 21.6052 9.6776 21.5313 9.60002C20.6744 8.70037 19.6524 7.97413 18.521 7.46095C18.3888 7.40103 18.2383 7.39605 18.1026 7.44709C17.9668 7.49814 17.8568 7.60103 17.7969 7.73314C17.737 7.86525 17.732 8.01576 17.783 8.15154C17.8341 8.28733 17.937 8.39728 18.0691 8.4572C19.0731 8.91251 19.98 9.55708 20.74 10.3556C20.7909 10.409 20.8521 10.4515 20.9199 10.4806C20.9877 10.5096 21.0606 10.5246 21.1344 10.5247Z" fill="#D8D8D8"/>
<path d="M6.47063 23.1041C6.46134 23.0329 6.43811 22.9642 6.40226 22.9019C6.36642 22.8397 6.31867 22.7851 6.26174 22.7413C6.2048 22.6975 6.1398 22.6654 6.07044 22.6467C6.00109 22.6281 5.92873 22.6232 5.85751 22.6325C5.78629 22.6418 5.71759 22.6651 5.65535 22.7009C5.59311 22.7367 5.53853 22.7845 5.49475 22.8414C5.45096 22.8984 5.41881 22.9634 5.40014 23.0327C5.38148 23.1021 5.37665 23.1744 5.38595 23.2457C5.52794 24.3456 5.85918 25.4127 6.36501 26.3997C6.39784 26.4636 6.44293 26.5204 6.49771 26.5668C6.55248 26.6133 6.61587 26.6485 6.68425 26.6704C6.75263 26.6924 6.82467 26.7007 6.89625 26.6948C6.96782 26.6889 7.03754 26.669 7.10142 26.6361C7.16529 26.6033 7.22208 26.5582 7.26853 26.5034C7.31498 26.4487 7.35018 26.3853 7.37213 26.3169C7.39409 26.2485 7.40235 26.1765 7.39647 26.1049C7.39058 26.0333 7.37065 25.9636 7.33782 25.8997C6.89005 25.0247 6.59668 24.0789 6.47063 23.1041Z" fill="#D8D8D8"/>
<path d="M23.5864 25.3566C23.4548 25.2955 23.3045 25.2891 23.1682 25.3387C23.032 25.3883 22.9209 25.49 22.8595 25.6213C22.2965 26.8244 21.4656 27.8827 20.4304 28.715C20.3195 28.8065 20.249 28.938 20.2343 29.0811C20.2196 29.2241 20.2618 29.3672 20.3519 29.4794C20.4419 29.5915 20.5725 29.6637 20.7153 29.6802C20.8582 29.6968 21.0018 29.6564 21.1151 29.5679C22.2809 28.6301 23.2166 27.438 23.8507 26.0829C23.9119 25.9515 23.9184 25.8012 23.8688 25.665C23.8192 25.5289 23.7177 25.4179 23.5864 25.3566Z" fill="#D8D8D8"/>
<path d="M30.5635 36.0342C31.9442 36.0342 33.0635 34.9149 33.0635 33.5342C33.0635 32.1535 31.9442 31.0342 30.5635 31.0342C29.1828 31.0342 28.0635 32.1535 28.0635 33.5342C28.0635 34.9149 29.1828 36.0342 30.5635 36.0342Z" fill="#537980"/>
<path d="M10.4873 37.9688C11.5228 37.9688 12.3623 37.1293 12.3623 36.0938C12.3623 35.0582 11.5228 34.2188 10.4873 34.2188C9.45177 34.2188 8.6123 35.0582 8.6123 36.0938C8.6123 37.1293 9.45177 37.9688 10.4873 37.9688Z" fill="#537980"/>
<path d="M34.4189 13.8545C35.4545 13.8545 36.2939 13.015 36.2939 11.9795C36.2939 10.944 35.4545 10.1045 34.4189 10.1045C33.3834 10.1045 32.5439 10.944 32.5439 11.9795C32.5439 13.015 33.3834 13.8545 34.4189 13.8545Z" fill="#537980"/>
<path d="M11.5811 9.43457C12.6166 9.43457 13.4561 8.5951 13.4561 7.55957C13.4561 6.52404 12.6166 5.68457 11.5811 5.68457C10.5455 5.68457 9.70605 6.52404 9.70605 7.55957C9.70605 8.5951 10.5455 9.43457 11.5811 9.43457Z" fill="#537980"/>
<path d="M3.98438 31.6982C4.50214 31.6982 4.92188 31.2785 4.92188 30.7607C4.92188 30.243 4.50214 29.8232 3.98438 29.8232C3.46661 29.8232 3.04688 30.243 3.04688 30.7607C3.04688 31.2785 3.46661 31.6982 3.98438 31.6982Z" fill="#537980"/>
<path d="M30.5635 3.90625C31.0812 3.90625 31.501 3.48652 31.501 2.96875C31.501 2.45098 31.0812 2.03125 30.5635 2.03125C30.0457 2.03125 29.626 2.45098 29.626 2.96875C29.626 3.48652 30.0457 3.90625 30.5635 3.90625Z" fill="#537980"/>
<path d="M4.92188 6.40625C5.43964 6.40625 5.85938 5.98652 5.85938 5.46875C5.85938 4.95098 5.43964 4.53125 4.92188 4.53125C4.40411 4.53125 3.98438 4.95098 3.98438 5.46875C3.98438 5.98652 4.40411 6.40625 4.92188 6.40625Z" fill="#537980"/>
<path d="M35.9023 6.74512C36.4201 6.74512 36.8398 6.32538 36.8398 5.80762C36.8398 5.28985 36.4201 4.87012 35.9023 4.87012C35.3846 4.87012 34.9648 5.28985 34.9648 5.80762C34.9648 6.32538 35.3846 6.74512 35.9023 6.74512Z" fill="#537980"/>
</svg>
