<svg width="20" height="20" viewBox="0 0 20 20" fill="none" xmlns="http://www.w3.org/2000/svg">
<g clip-path="url(#clip0_158_1829)">
<path d="M17.0719 17.0715C20.9773 13.166 20.9773 6.83399 17.0719 2.92852C13.1664 -0.976954 6.83438 -0.976954 2.9289 2.92852C-0.976568 6.83399 -0.976568 13.166 2.9289 17.0715C6.83438 20.977 13.1664 20.977 17.0719 17.0715Z" fill="#78B744"/>
<path d="M7.05219 8.21022C7.05219 8.89656 6.72251 9.45267 6.3154 9.45267C5.90829 9.45267 5.57861 8.89656 5.57861 8.21022C5.57861 7.52388 5.90829 6.96777 6.3154 6.96777C6.72251 6.96777 7.05219 7.52388 7.05219 8.21022Z" fill="#303030"/>
<path d="M14.4213 8.21022C14.4213 8.89656 14.0917 9.45267 13.6845 9.45267C13.2774 9.45267 12.9478 8.89656 12.9478 8.21022C12.9478 7.52388 13.2774 6.96777 13.6845 6.96777C14.0917 6.96777 14.4213 7.52388 14.4213 8.21022Z" fill="#303030"/>
<path d="M14.1855 13.7241C13.708 13.2513 13.0545 12.904 12.2955 12.7186C11.6021 12.552 10.8571 12.5391 10.1391 12.6787C9.43748 12.8148 8.75349 13.0988 8.15867 13.5C7.52747 13.9306 7.03824 14.4456 6.70387 15.0299C6.65224 15.1191 6.66632 15.2317 6.73672 15.3068C6.78247 15.3549 6.84465 15.3807 6.90801 15.3807C6.9432 15.3807 6.9784 15.3725 7.01125 15.3561L7.23065 15.2481C7.74569 14.9935 8.23141 14.753 8.72534 14.5594C9.28966 14.3342 9.85515 14.1664 10.4066 14.0608C10.9803 13.9505 11.5634 13.9001 12.1383 13.9118C12.6721 13.92 13.2399 13.9845 13.979 14.1206C14.0799 14.1394 14.182 14.0901 14.2301 13.9986C14.2782 13.9071 14.2606 13.7957 14.1867 13.7229L14.1855 13.7241Z" fill="#303030"/>
</g>
<defs>
<clipPath id="clip0_158_1829">
<rect width="20" height="20" fill="white"/>
</clipPath>
</defs>
</svg>
