<svg width="21" height="20" viewBox="0 0 21 20" fill="none" xmlns="http://www.w3.org/2000/svg">
<g clip-path="url(#clip0_158_1838)">
<path d="M17.8849 17.0715C21.7903 13.166 21.7903 6.83399 17.8849 2.92852C13.9794 -0.976954 7.64736 -0.976954 3.74189 2.92852C-0.163579 6.83399 -0.163579 13.166 3.74189 17.0715C7.64736 20.977 13.9794 20.977 17.8849 17.0715Z" fill="#FCCD3A"/>
<path d="M7.12839 9.38138C7.5353 9.38138 7.86517 8.82512 7.86517 8.13893C7.86517 7.45275 7.5353 6.89648 7.12839 6.89648C6.72147 6.89648 6.3916 7.45275 6.3916 8.13893C6.3916 8.82512 6.72147 9.38138 7.12839 9.38138Z" fill="#303030"/>
<path d="M15.2343 8.13893C15.2343 8.82527 14.9046 9.38138 14.4975 9.38138C14.0904 9.38138 13.7607 8.82527 13.7607 8.13893C13.7607 7.45259 14.0904 6.89648 14.4975 6.89648C14.9046 6.89648 15.2343 7.45259 15.2343 8.13893Z" fill="#303030"/>
<path d="M6.96865 4.17344L6.29834 4.84375L8.53576 7.08117L9.20608 6.41086L6.96865 4.17344Z" fill="#303030"/>
<path d="M15.328 4.84414L14.6577 4.17383L12.4203 6.41125L13.0906 7.08156L15.328 4.84414Z" fill="#303030"/>
<path d="M14.9936 13.8423C14.5161 13.3694 13.8626 13.0222 13.1036 12.8368C12.4102 12.6702 11.6652 12.6573 10.9472 12.7969C10.2456 12.933 9.5616 13.2169 8.96677 13.6182C8.33558 14.0487 7.84634 14.5638 7.51197 15.1481C7.46035 15.2372 7.47443 15.3499 7.54482 15.4249C7.59058 15.473 7.65276 15.4989 7.71611 15.4989C7.75131 15.4989 7.78651 15.4906 7.81936 15.4742L8.03875 15.3663C8.5538 15.1117 9.03951 14.8712 9.53344 14.6776C10.0978 14.4523 10.6633 14.2846 11.2147 14.179C11.7884 14.0687 12.3715 14.0182 12.9464 14.03C13.4802 14.0382 14.048 14.1027 14.7872 14.2388C14.888 14.2576 14.9901 14.2083 15.0382 14.1168C15.0863 14.0253 15.0687 13.9138 14.9948 13.8411L14.9936 13.8423Z" fill="#303030"/>
</g>
<defs>
<clipPath id="clip0_158_1838">
<rect width="20" height="20" fill="white" transform="translate(0.812988)"/>
</clipPath>
</defs>
</svg>
