<svg width="20" height="20" viewBox="0 0 20 20" fill="none" xmlns="http://www.w3.org/2000/svg">
<g clip-path="url(#clip0_158_1811)">
<path d="M19.8729 11.6029C20.7579 6.15104 17.0557 1.01407 11.6039 0.129117C6.1521 -0.755837 1.01514 2.94633 0.130183 8.39815C-0.754771 13.85 2.9474 18.9869 8.39921 19.8719C13.851 20.7568 18.988 17.0547 19.8729 11.6029Z" fill="#29B783"/>
<path d="M5.90137 11.5125C5.64326 11.2626 5.23146 11.5395 5.36403 11.8727C6.10316 13.7193 7.90759 15.0228 10.0182 15.0228C12.1289 15.0228 13.8734 13.7616 14.6337 11.9642C14.7721 11.6368 14.3568 11.3529 14.1011 11.6005C12.638 13.0189 9.53016 15.038 5.90137 11.5125Z" fill="#303030"/>
<path d="M7.41874 8.56638C7.13599 7.85893 6.46022 7.40137 5.69879 7.40137C4.93737 7.40137 4.28388 7.84485 3.99292 8.53236C3.93778 8.66376 3.98119 8.81276 4.09968 8.89371C4.21818 8.97466 4.37187 8.96176 4.47512 8.86203C5.03005 8.32352 5.90763 7.89178 6.93537 8.89137C6.99286 8.94768 7.06795 8.97701 7.14303 8.97701C7.20052 8.97701 7.25801 8.96059 7.30963 8.92539C7.42813 8.84678 7.47271 8.69896 7.41992 8.56638H7.41874Z" fill="#303030"/>
<path d="M16.0101 8.56638C15.7274 7.85893 15.0516 7.40137 14.2902 7.40137C13.5287 7.40137 12.8752 7.84485 12.5843 8.53118C12.528 8.66259 12.5726 8.81159 12.6899 8.89254C12.8084 8.97349 12.9621 8.96059 13.0653 8.86086C13.6202 8.32235 14.4966 7.8906 15.5256 8.89019C15.5831 8.94651 15.6581 8.97584 15.7332 8.97584C15.7907 8.97584 15.8482 8.95941 15.8998 8.92422C16.0183 8.84561 16.0629 8.69778 16.0101 8.56521V8.56638Z" fill="#303030"/>
</g>
<defs>
<clipPath id="clip0_158_1811">
<rect width="20" height="20" fill="white"/>
</clipPath>
</defs>
</svg>
