<svg width="36" height="35" viewBox="0 0 36 35" fill="none" xmlns="http://www.w3.org/2000/svg">
<g clip-path="url(#clip0_128_2160)">
<path d="M35.4317 17.5C35.4317 20.9543 34.4063 24.3135 32.4666 27.2148C32.203 27.6092 31.7699 27.8223 31.3288 27.8223C31.0676 27.8223 30.8035 27.7478 30.5701 27.5916C29.9423 27.1721 29.7738 26.3229 30.1934 25.6951C31.8316 23.2451 32.6973 20.4114 32.6973 17.5C32.6973 16.249 32.5408 15.0065 32.2321 13.8075C32.0439 13.0764 32.4842 12.3309 33.2153 12.1426C33.947 11.9546 34.692 12.3947 34.8802 13.1258C35.2461 14.5475 35.4317 16.0191 35.4317 17.5ZM25.5697 30.1393C23.2733 31.5302 20.6321 32.2656 17.9317 32.2656C9.78994 32.2656 3.16602 25.6417 3.16602 17.5C3.16602 9.3583 9.78994 2.73438 17.9317 2.73438C20.9461 2.73438 23.8447 3.6364 26.3145 5.34298C26.9356 5.7721 27.7872 5.61642 28.2165 4.99531C28.6457 4.3742 28.4902 3.52265 27.8689 3.09326C24.9401 1.06972 21.504 0 17.9317 0C13.2573 0 8.86255 1.82034 5.55726 5.12562C2.25198 8.4309 0.431641 12.8257 0.431641 17.5C0.431641 22.1743 2.25198 26.5691 5.55726 29.8744C8.86255 33.1797 13.2573 35 17.9317 35C21.1317 35 24.2629 34.1279 26.9866 32.4779C27.6325 32.0867 27.839 31.2461 27.4478 30.6002C27.0563 29.9542 26.2157 29.7481 25.5697 30.1393ZM18.0636 21.4643C17.847 21.4729 17.6449 21.396 17.4878 21.2464L10.3275 14.4572C9.77952 13.9376 8.91408 13.9605 8.39471 14.5085C7.87507 15.0564 7.89804 15.9219 8.44598 16.4412L15.605 23.2294C16.2662 23.858 17.1215 24.1992 18.0278 24.1992C18.0764 24.1992 18.125 24.1982 18.1736 24.1963C19.1335 24.1576 20.0153 23.7421 20.6561 23.0262C20.6724 23.0083 20.6879 22.9899 20.7031 22.9709L35.1299 5.02655C35.6031 4.43802 35.5096 3.57739 34.9211 3.10448C34.3328 2.6313 33.4719 2.72476 32.9988 3.31329L18.6003 21.2227C18.4588 21.3703 18.2692 21.456 18.0636 21.4643Z" fill="black"/>
</g>
<defs>
<clipPath id="clip0_128_2160">
<rect width="35" height="35" fill="white" transform="translate(0.5)"/>
</clipPath>
</defs>
</svg>
