<svg width="125" height="303" viewBox="0 0 125 303" fill="none" xmlns="http://www.w3.org/2000/svg">
<g clip-path="url(#clip0_291_10774)">
<path d="M117.277 130.597C115.982 137.343 113.734 148.85 113.777 155.422C113.819 161.995 112.443 212.977 112.223 220.472C112.001 228.02 108.67 260.656 108.004 287.298C107.86 293.09 107.751 298.268 107.763 303.003H14.2218C15.5534 281.839 15.2692 272.21 17.4243 260.434C21.9836 235.529 21.6429 230.463 20.3113 212.923C20.3016 212.79 14.7611 180.731 11.2082 169.852C8.84087 162.6 -2.00857 136.646 0.329522 100.805C0.995323 90.5924 0.329522 74.4029 0.329522 73.7196C0.329522 67.5035 3.21661 63.0629 4.54821 60.3997C5.34639 58.8014 10.0985 56.6249 12.5398 59.9558C14.5956 62.7572 15.7792 69.3043 15.8707 70.8345C16.0927 74.6093 18.3957 84.865 18.7578 80.1596C19.2017 74.3874 18.8493 71.1654 18.9797 69.7248C19.2017 67.2835 19.1121 64.6923 18.7578 63.0648C17.4768 57.1816 15.2049 41.5295 24.9739 38.8663C34.1919 36.353 35.8525 62.8429 36.9622 60.8455C37.4061 60.0454 36.9622 51.9642 36.0745 47.0817C35.5099 43.9766 34.0537 32.3542 34.299 28.4334C34.6183 23.3134 39.6274 18.2206 46.5092 20.4419C51.4074 22.0226 51.1718 35.7611 53.1692 41.0895C53.9051 43.0499 55.0985 54.717 55.6105 49.0811C56.0543 44.1966 55.6105 39.9779 55.6105 38.6463C55.6105 31.4354 50.6092 21.0162 50.9479 16.889C51.6643 8.20045 66.5378 9.08624 69.1523 10.8948C77.981 13.9104 72.3976 42.828 79.7545 54.8942C80.1789 55.5911 80.9284 56.0291 81.7422 56.0875C82.9667 56.1751 84.1192 56.1674 85.1452 56.1129C87.2496 56.0019 88.7643 54.0415 88.3262 51.9798C86.4028 42.8942 78.1757 27.6605 85.0011 8.70467C88.6883 -1.53543 107.716 -2.13699 111.999 3.79293C117.771 11.7845 118.207 17.0778 119.325 20.6657C120.442 24.2537 122.303 31.3088 122.878 36.6508C123.612 43.4724 118.984 61.1648 121.102 67.9552C131.023 99.7559 118.733 123.006 117.277 130.603V130.597Z" fill="#DCC1B2"/>
<path d="M105.399 128.186C104.916 132.279 106.838 138.168 105.284 141.736C102.551 148.02 97.0026 145.99 95.3556 144.421C90.8079 140.089 80.7898 148.17 80.4958 136.122C80.3926 131.905 82.5905 130.963 87.1655 127.299C90.3894 124.717 94.4796 110.92 94.6314 105.574C94.8689 97.1293 92.0714 82.5401 97.9779 78.8431C101.313 76.7562 107.309 76.8399 108.144 76.8185C112.805 76.7056 115.18 78.5239 116.221 80.1747C117.413 82.0651 117.983 91.544 116.124 94.3902C115.297 95.6517 105.709 125.556 105.399 128.184V128.186Z" fill="#FFFBF5"/>
<path d="M72.9267 92.1468C72.6113 96.2545 71.0714 127.434 71.5951 134.774C72.0389 140.99 76.7015 141.212 75.5918 146.984C74.673 151.765 71.3731 150.981 66.2667 150.093C62.5873 149.452 59.1376 153.922 56.7197 147.206C55.2907 143.236 58.3647 141.434 59.3829 135.661C60.7145 128.114 62.27 95.0339 61.6022 87.4843C61.133 82.1676 59.3829 81.934 61.1583 80.3804C64.9468 77.0651 57.8216 74.1157 62.268 69.9457C65.8209 66.6147 71.1084 68.4155 71.8151 68.836C78.9189 73.0547 71.5931 74.8301 75.8118 81.0462C77.27 83.1974 73.3705 86.3746 72.9247 92.1468H72.9267Z" fill="#FFFBF5"/>
<path d="M53.1668 97.2533C52.8514 101.361 53.3089 116.78 53.8326 124.117C54.2764 130.333 56.7197 136.771 55.608 142.543C54.6892 147.325 50.9455 145.874 49.17 146.762C45.8293 148.432 42.7592 141.109 43.8416 138.325C45.3952 134.328 45.1733 129.887 45.1733 126.336C45.1733 118.672 46.7268 100.36 44.0636 93.9223C42.0233 88.9911 40.0668 87.4337 41.4004 85.4849C44.2875 81.2663 38.0636 79.2202 42.51 75.0502C46.0629 71.7192 51.3816 73.4713 52.0571 73.9405C57.8293 77.9373 53.1668 79.4908 56.0538 86.1508C57.0876 88.5356 53.6126 91.4791 53.1668 97.2513V97.2533Z" fill="#FFFBF5"/>
<path d="M111.111 41.5272C117.327 45.302 112.427 50.5233 111.777 53.9593C111.255 56.6732 111.757 58.2501 112.443 63.7283C112.886 67.2812 117.946 65.716 116.103 73.0924C115.114 77.0521 111.409 74.0989 105.339 74.8289C99.9734 75.4752 97.7443 77.1514 95.1259 73.9412C90.95 68.8192 93.3504 68.8347 95.5697 64.6161C97.4348 61.0749 96.9013 60.3974 96.4575 55.9567C96.1908 53.2877 89.5756 47.5194 95.3478 43.3026C97.7599 41.5408 101.12 39.9717 103.339 39.9717C106.234 39.9717 109.156 40.3396 111.109 41.5252L111.111 41.5272Z" fill="#FFFBF5"/>
<path d="M105.561 20.2159C107.558 29.0971 117.771 29.9849 112.719 37.9453C110.807 40.9589 107.009 38.358 102.452 38.6422C98.8987 38.8642 94.6177 43.0751 91.1291 39.9738C85.1349 34.6455 94.1894 28.8908 93.3484 21.3256C92.9045 17.3288 90.2394 18.4385 91.5729 13.9998C92.7157 10.1938 103.984 9.3898 105.783 12.4463C108.002 16.2211 104.887 17.2217 105.561 20.2159Z" fill="#FFFBF5"/>
<path d="M37.0902 109.355C37.2888 113.471 42.6483 135.261 43.3238 142.585C44.5075 155.418 48.22 155.991 47.8384 161.856C47.523 166.715 44.1609 164.305 42.5101 165.409C39.4049 167.483 37.1467 164.171 36.9598 161.191C36.7359 157.638 36.5159 156.084 34.2966 146.981C32.4802 139.534 31.6256 123.946 28.3024 110.126C27.0545 104.936 23.4179 102.579 23.6399 101.023C24.7612 93.1775 21.4205 92.1418 23.745 88.6551C26.4471 84.6039 32.3615 85.9608 33.0779 86.3618C37.8475 89.0347 34.3744 90.7791 38.0694 97.0263C39.3913 99.2632 36.8099 103.569 37.0883 109.351L37.0902 109.355Z" fill="#FFFBF5"/>
<path d="M21.66 128.352C22.2635 132.428 27.4127 151.423 33.4069 160.748C36.7768 165.991 37.8709 163.754 38.0695 169.63C38.233 174.497 34.2771 176.584 32.7411 177.843C29.854 180.212 28.2674 188.805 25.6373 187.39C22.7502 185.837 21.514 181.6 21.8624 178.065C23.416 162.302 17.6554 143.412 12.9909 129.985C11.2388 124.943 7.38807 122.953 7.45621 121.384C7.80079 113.467 4.37444 112.766 6.34654 109.065C8.63596 104.768 14.6554 105.535 15.4088 105.866C20.4179 108.059 17.1337 110.136 21.4244 115.99C22.9604 118.086 20.8131 122.624 21.66 128.352Z" fill="#FFFBF5"/>
<path d="M71.5931 38.1358C73.9916 40.4583 72.6989 45.1345 72.0448 48.2883C71.5172 50.7783 72.3933 53.1183 73.5827 58.0592C74.4646 61.7231 76.9059 61.9236 76.9001 65.9944C76.8942 69.738 72.7651 65.7004 68.0208 65.8036C62.6184 65.9204 62.2447 68.459 60.9131 67.4428C58.8339 65.8542 59.5873 63.5764 61.1467 60.1131C62.6768 56.716 62.048 51.3565 61.6119 47.2857C61.3491 44.8386 59.3809 41.7529 60.7145 39.6309C62.379 36.9814 64.2927 36.8977 66.512 36.8957C69.4069 36.8918 70.024 36.6173 71.5931 38.1378V38.1358Z" fill="#FFFBF5"/>
<path d="M51.6113 46.8221C53.7878 48.9655 51.5529 52.2614 50.9611 55.1699C50.4841 57.4671 51.2784 59.6261 52.3589 64.1855C53.159 67.567 55.3744 67.752 55.3705 71.5093C55.3666 74.9629 51.6191 71.2387 47.3167 71.3302C42.4166 71.4373 42.0779 73.7792 40.8728 72.8409C38.9864 71.375 39.6697 69.2724 41.0831 66.0777C42.4692 62.9434 41.8988 57.9986 41.5016 54.2413C41.2622 51.983 38.7683 48.3016 40.3024 46.7286C42.3193 44.6592 43.9293 44.6572 45.9422 44.6553C48.5665 44.6514 50.1901 45.4204 51.6132 46.8221H51.6113Z" fill="#FFFBF5"/>
<path d="M31.5049 61.7341C32.7722 63.2916 30.9014 67.1481 30.6541 69.7607C30.3465 73.0119 31.2771 74.9937 32.6846 77.0943C34.4172 79.6816 36.9033 79.0859 35.926 83.2637C35.3283 85.8217 30.4516 83.3941 28.9273 83.6511C26.6398 84.0365 25.4036 85.9366 23.8988 85.4947C21.8176 84.8853 23.7566 81.6089 24.767 78.6829C25.7579 75.8133 24.9208 72.2468 24.2784 68.9664C23.891 66.9944 21.1733 63.7685 22.4172 62.2598C24.0506 60.2799 24.5062 60.4239 26.2972 60.2643C28.6314 60.056 30.403 60.3753 31.5068 61.7302L31.5049 61.7341Z" fill="#FFFBF5"/>
<path d="M12.2025 82.6254C13.5711 84.0349 11.963 87.9032 11.891 90.4457C11.8014 93.6112 12.8624 95.4548 14.4043 97.3801C16.3044 99.7494 18.7417 98.9843 18.0487 103.096C17.6243 105.613 12.6094 103.041 11.1804 103.62C7.14667 105.255 7.80468 106.474 6.27451 106.162C4.1603 105.732 5.80728 102.42 6.61909 99.5158C7.41533 96.6676 6.34265 93.2841 5.48217 90.1634C4.96432 88.2886 2.04025 85.3743 3.17717 83.8247C4.6723 81.7864 5.13759 81.8915 6.91111 81.6014C9.22389 81.2237 11.011 81.397 12.2025 82.6235V82.6254Z" fill="#FFFBF5"/>
<path d="M67.8553 24.3734C69.7981 25.2086 67.9857 27.7336 68.1862 29.2891C68.6126 32.5928 71.815 32.6473 70.4834 34.8666C69.8682 35.8926 70.2615 35.7544 66.9305 35.5324C62.8092 35.2579 63.3776 37.3079 61.3588 37.1074C59.6242 36.9361 59.1959 35.0029 60.1869 33.2294C61.1583 31.4909 60.8235 31.3877 60.2686 29.5383C59.9357 28.4267 57.6054 28.2067 58.4464 26.0574C59.1823 24.1827 61.17 25.7187 62.8501 25.4889C65.0421 25.1891 66.5801 23.8264 67.8514 24.3715L67.8553 24.3734Z" fill="#FFFBF5"/>
<path d="M64.9331 17.5504C66.0448 20.8969 68.2641 19.5478 67.3335 22.503C66.9189 23.821 65.5678 24.148 63.8215 24.4323C62.4607 24.6542 60.5529 25.1759 59.0889 24.1149C56.5736 22.2908 59.7761 21.5432 59.159 18.6581C58.8339 17.1338 57.9247 17.0325 58.4932 15.3272C58.7151 14.6614 59.9416 14.8969 61.1564 14.6614C62.3712 14.4258 63.6366 13.6626 64.0435 14.2175C65.0441 15.5861 64.5555 16.4193 64.9312 17.5484L64.9331 17.5504Z" fill="#FFFBF5"/>
<path d="M47.3498 34.7798C49.4756 36.4132 47.3283 38.064 47.4705 38.7707C48.0019 41.4164 50.1006 40.3846 49.2284 43.3437C48.95 44.2899 47.745 43.5871 46.4581 43.4372C43.3978 43.0829 42.8741 44.7727 41.1745 44.5624C39.7164 44.3814 39.7534 42.6254 40.5886 41.7746C41.3303 41.0173 41.4627 40.0576 40.9546 39.1932C40.4718 38.3736 39.5003 38.3755 39.6638 36.5884C39.8137 34.9687 41.6632 35.7123 43.0902 35.5663C44.9494 35.3755 46.4328 34.0751 47.3498 34.7798Z" fill="#FFFBF5"/>
<path d="M45.1207 28.4176C46.1155 31.4099 48.0973 30.2028 47.268 32.8446C46.8981 34.0244 45.6891 34.3145 44.1298 34.5695C42.913 34.7681 41.2076 35.2353 39.8994 34.2872C37.6509 32.6577 40.5126 31.988 39.9637 29.4105C39.6736 28.0477 38.8598 27.9562 39.3679 26.4339C39.5665 25.8381 40.6625 26.0503 41.7489 25.8381C42.8371 25.6259 43.9662 24.9446 44.3283 25.441C45.2239 26.6655 44.7878 27.4092 45.1226 28.4176H45.1207Z" fill="#FFFBF5"/>
<path d="M29.1161 50.5095C31.0571 52.0007 29.0967 53.5076 29.2252 54.1519C29.7099 56.566 31.6256 55.6257 30.8293 58.3259C30.5743 59.1883 29.4763 58.5478 28.3024 58.4115C25.5107 58.0883 25.0298 59.6302 23.4802 59.4394C22.1486 59.2739 22.1836 57.6717 22.9448 56.895C23.6204 56.2039 23.743 55.3278 23.2797 54.5393C22.8397 53.7918 21.952 53.7937 22.1019 52.1623C22.2381 50.6828 23.926 51.3641 25.2284 51.2298C26.926 51.0546 28.279 49.869 29.1161 50.5114V50.5095Z" fill="#FFFBF5"/>
<path d="M26.891 45.3953C27.6911 47.7996 29.2836 46.8321 28.6158 48.9541C28.318 49.9021 27.3465 50.1358 26.0928 50.3421C25.1155 50.5018 23.743 50.8775 22.6918 50.1143C20.8832 48.8042 23.1843 48.2668 22.7424 46.1935C22.5088 45.0994 21.8546 45.0254 22.2635 43.8009C22.4231 43.322 23.303 43.4914 24.1791 43.322C25.0532 43.1526 25.9624 42.6036 26.2544 43.0027C26.9747 43.9878 26.6223 44.5855 26.8929 45.3953H26.891Z" fill="#FFFBF5"/>
<path d="M11.4062 71.8755C13.1116 73.7152 10.9546 74.9962 10.9896 75.6873C11.122 78.2746 13.1525 77.5776 11.9766 80.2739C11.6009 81.1344 10.6042 80.3031 9.46334 79.9877C6.74563 79.2363 6.05062 80.7723 4.54381 80.344C3.25114 79.9761 3.51591 78.3096 4.38028 77.6127C5.14926 76.9936 5.3965 76.098 5.04997 75.2084C4.72291 74.3654 3.84297 74.233 4.22648 72.5568C4.57496 71.0364 6.14796 71.9942 7.4562 72.0487C9.16159 72.1188 10.6723 71.0831 11.4082 71.8774L11.4062 71.8755Z" fill="#FFFBF5"/>
<path d="M10.209 65.9142C10.3316 68.445 12.1285 67.9408 10.9137 69.8058C10.3725 70.6391 9.3738 70.604 8.11033 70.4639C7.12526 70.3548 5.7041 70.347 4.89424 69.3308C3.50424 67.5826 5.86569 67.6838 5.99807 65.5677C6.06815 64.4502 5.45881 64.203 6.18107 63.1342C6.46335 62.7156 7.26543 63.1167 8.15316 63.1887C9.0409 63.2607 10.063 62.9765 10.2362 63.4398C10.6645 64.5807 10.1661 65.0635 10.207 65.9162L10.209 65.9142Z" fill="#FFFBF5"/>
<path d="M101.65 158.013C102.278 156.358 102.522 154.575 102.255 152.825C101.961 150.907 101.435 149.885 99.8176 149.766C95.3829 149.441 95.4997 145.429 92.1298 145.012C87.5023 144.44 88.3297 144.989 85.9604 144.249C83.5912 143.51 81.5295 145.713 81.146 148.799C80.7644 151.883 82.8086 157.057 82.4231 158.354C82.0396 159.648 84.8546 165.814 83.6184 168.569C82.7943 170.405 83.4478 171.753 85.5788 172.614C88.9293 173.967 86.7683 177.46 96.2433 178.632C105.041 179.72 104.005 175.565 104.387 172.482C104.716 169.828 102.477 164.416 101.455 161.829C100.943 160.532 101.233 159.111 101.65 158.015V158.013Z" fill="#FFFBF5"/>
<path d="M80.4743 168.074C80.8948 166.355 78.0681 162.674 77.5873 160.971C77.0616 159.104 76.9876 154.007 75.3679 154.089C70.9273 154.311 69.218 152.535 65.8209 152.535C61.1583 152.535 61.6275 153.725 59.1862 153.281C56.7449 152.837 58.939 157.198 58.939 160.307C58.939 163.416 60.7144 166.967 60.4925 168.298C60.2706 169.63 62.4023 177.283 71.3712 174.292C72.7028 173.849 79.5847 175.402 80.0305 171.629C80.194 170.245 80.196 169.215 80.4743 168.076V168.074Z" fill="#FFFBF5"/>
<path d="M58.2732 169.629C58.6937 167.91 57.6444 165.561 57.1635 163.857C56.6379 161.99 57.1168 149.363 55.61 148.76C53.3907 147.872 52.2791 147.872 50.9474 148.094C46.3491 148.861 48.1441 151.777 48.2842 153.866C48.5062 157.197 48.95 159.86 48.95 162.969C48.95 166.078 49.8378 171.183 49.6158 172.516C49.3939 173.85 45.5315 181.945 54.5003 178.954C55.8319 178.511 59.3848 179.62 59.8287 175.845C59.9922 174.461 57.9968 170.768 58.2752 169.629H58.2732Z" fill="#FFFBF5"/>
<path d="M44.2855 170.961C41.8442 169.851 40.6119 171.613 39.623 172.958C39.4224 173.233 38.2914 174.734 37.1817 176.511C36.072 178.289 34.2946 178.952 33.6288 180.064C32.963 181.176 31.6314 184.505 32.5191 186.28C33.4069 188.056 35.7372 195.486 35.8501 197.381C36.072 201.155 35.4062 206.484 37.6256 208.481C39.8449 210.479 41.4004 206.484 46.7287 207.15C59.6223 208.762 59.34 199.756 59.8267 198.046C60.2706 196.493 60.9364 193.828 59.8267 189.609C58.7171 185.39 57.3855 182.505 54.2764 182.505C51.1674 182.505 46.2849 180.286 46.2849 175.845C46.2849 173.614 44.9688 171.272 44.2875 170.961H44.2855Z" fill="#FFFBF5"/>
<path d="M104.229 186.281C102.01 184.061 103.341 181.618 98.9007 180.508C94.4601 179.399 90.9091 179.843 88.6878 178.955C86.4685 178.067 85.8007 176.068 82.2498 175.846C78.6969 175.624 76.4776 176.068 72.9247 176.734C69.3718 177.399 67.3744 175.846 65.1551 177.177C62.9357 178.509 60.0487 184.281 60.9364 187.168C61.8241 190.055 62.0461 192.177 62.0461 194.494C62.0461 197.381 58.937 205.595 62.268 207.148C65.5989 208.702 68.0402 210.257 75.5879 212.699C83.0558 215.114 89.5756 213.142 92.4607 212.699C97.0434 211.994 104.671 206.039 105.337 202.264C106.003 198.489 106.446 188.5 104.227 186.279L104.229 186.281Z" fill="#FFFBF5"/>
<path d="M94.4601 240.45C95.1259 233.346 99.7885 229.349 96.4575 225.352C93.1266 221.356 96.0837 215.385 90.6853 215.583C84.6911 215.805 82.9156 216.471 76.0318 214.474C73.1875 213.648 73.4367 214.353 72.8488 213.911C70.1661 211.9 67.3939 211.538 65.819 210.921C60.7125 208.923 54.4964 210.033 49.6119 210.033C44.7274 210.033 42.0642 209.811 38.7333 212.92C35.4023 216.029 38.9552 225.796 38.7333 233.79C38.5114 241.783 36.037 242.72 39.843 247.11C45.6152 253.77 45.3933 252.882 50.2777 261.541C54.4925 269.013 55.828 268.423 67.3725 264.872C78.917 261.319 84.0234 267.091 88.2421 258.878C92.4608 250.664 94.4582 240.452 94.4582 240.452L94.4601 240.45Z" fill="#FFF5E8"/>
<path d="M44.7839 302.844H27.7845C27.8683 302.7 27.9656 302.55 28.0805 302.392C29.8559 299.951 29.4121 281.967 28.0805 274.197C26.7489 266.427 24.9714 257.102 28.0805 249.777C31.1895 242.451 37.2187 248.334 38.7372 249.777C41.6976 252.589 44.732 256.659 47.8404 261.987C52.5029 269.978 50.7274 271.756 49.8378 278.86C49.8378 278.86 47.1103 296.285 44.7839 302.844Z" fill="#FFF5E8"/>
<path d="M89.3985 302.845H46.8572C46.5477 299.136 48.3777 294.02 49.6158 289.073C50.2972 286.349 52.0571 279.748 52.279 275.975C52.501 272.2 56.0305 270.896 58.0513 269.759C61.6042 267.762 64.0454 268.427 69.1519 266.65C72.8196 265.375 75.5315 265.106 78.9208 265.318C82.4737 265.54 84.0273 265.318 86.2466 263.765C88.8689 261.929 88.6879 261.323 91.7969 255.551C94.2518 250.994 94.7949 247.678 95.7937 245.56C96.1596 244.782 96.2375 243.119 98.4569 244.895C100.271 246.347 104.784 250.76 105.783 254.885C107.558 262.211 103.341 268.205 95.7917 280.64C89.2953 291.339 88.5769 298.39 89.3965 302.848L89.3985 302.845Z" fill="#FFF5E8"/>
</g>
<defs>
<clipPath id="clip0_291_10774">
<rect width="124.937" height="303" fill="white"/>
</clipPath>
</defs>
</svg>
