<svg width="125" height="303" viewBox="0 0 125 303" fill="none" xmlns="http://www.w3.org/2000/svg">
<g clip-path="url(#clip0_291_10874)">
<path d="M7.66016 130.597C8.95478 137.343 11.2033 148.85 11.1605 155.422C11.1176 161.995 12.494 212.977 12.714 220.472C12.9359 228.02 16.2669 260.656 16.9327 287.298C17.0768 293.09 17.1858 298.268 17.1741 303.003H110.715C109.384 281.839 109.668 272.21 107.513 260.434C102.953 235.529 103.294 230.463 104.626 212.923C104.635 212.79 110.176 180.731 113.729 169.852C116.096 162.6 126.946 136.646 124.608 100.805C123.942 90.5924 124.608 74.4029 124.608 73.7196C124.608 67.5035 121.72 63.0629 120.389 60.3997C119.591 58.8014 114.839 56.6249 112.397 59.9558C110.341 62.7572 109.158 69.3043 109.066 70.8345C108.844 74.6093 106.541 84.865 106.179 80.1596C105.735 74.3874 106.088 71.1654 105.957 69.7248C105.735 67.2835 105.825 64.6923 106.179 63.0648C107.46 57.1816 109.732 41.5295 99.9631 38.8663C90.7451 36.353 89.0845 62.8429 87.9748 60.8455C87.531 60.0454 87.9748 51.9642 88.8626 47.0817C89.4271 43.9766 90.8833 32.3542 90.638 28.4334C90.3188 23.3134 85.3097 18.2206 78.4278 20.4419C73.5297 22.0226 73.7652 35.7611 71.7678 41.0895C71.032 43.0499 69.8386 54.717 69.3266 49.0811C68.8827 44.1966 69.3266 39.9779 69.3266 38.6463C69.3266 31.4354 74.3279 21.0162 73.9891 16.889C73.2727 8.20045 58.3993 9.08624 55.7847 10.8948C46.956 13.9104 52.5394 42.828 45.1825 54.8942C44.7581 55.5911 44.0086 56.0291 43.1949 56.0875C41.9703 56.1751 40.8178 56.1674 39.7919 56.1129C37.6874 56.0019 36.1728 54.0415 36.6108 51.9798C38.5342 42.8942 46.7614 27.6605 39.9359 8.70467C36.2487 -1.53543 17.2208 -2.13699 12.9379 3.79293C7.16568 11.7845 6.7296 17.0778 5.61214 20.6657C4.49469 24.2537 2.63356 31.3088 2.05925 36.6508C1.32531 43.4724 5.95282 61.1648 3.83472 67.9552C-6.08611 99.7559 6.20397 123.006 7.66016 130.603V130.597Z" fill="#DCC1B2"/>
<path d="M19.5379 128.186C20.0207 132.279 18.0993 138.168 19.6528 141.736C22.3861 148.02 27.9344 145.99 29.5814 144.421C34.1291 140.089 44.1473 148.17 44.4412 136.122C44.5444 131.905 42.3465 130.963 37.7716 127.299C34.5477 124.717 30.4575 110.92 30.3056 105.574C30.0681 97.1293 32.8656 82.5401 26.9591 78.8431C23.6242 76.7562 17.6281 76.8399 16.793 76.8185C12.1324 76.7056 9.75727 78.5239 8.71574 80.1747C7.52431 82.0651 6.9539 91.544 8.81308 94.3902C9.64047 95.6517 19.2284 125.556 19.5379 128.184V128.186Z" fill="#FFFBF5"/>
<path d="M52.0104 92.1468C52.3257 96.2545 53.8656 127.434 53.342 134.774C52.8981 140.99 48.2355 141.212 49.3452 146.984C50.2641 151.765 53.5639 150.981 58.6703 150.093C62.3498 149.452 65.7995 153.922 68.2174 147.206C69.6463 143.236 66.5723 141.434 65.5542 135.661C64.2226 128.114 62.6671 95.0339 63.3348 87.4843C63.804 82.1676 65.5542 81.934 63.7787 80.3804C59.9902 77.0651 67.1155 74.1157 62.669 69.9457C59.1161 66.6147 53.8287 68.4155 53.122 68.836C46.0181 73.0547 53.3439 74.8301 49.1252 81.0462C47.6671 83.1974 51.5665 86.3746 52.0123 92.1468H52.0104Z" fill="#FFFBF5"/>
<path d="M71.7703 97.2533C72.0856 101.361 71.6282 116.78 71.1045 124.117C70.6606 130.333 68.2174 136.771 69.329 142.543C70.2479 147.325 73.9915 145.874 75.767 146.762C79.1077 148.432 82.1778 141.109 81.0954 138.325C79.5418 134.328 79.7638 129.887 79.7638 126.336C79.7638 118.672 78.2102 100.36 80.8734 93.9223C82.9137 88.9911 84.8702 87.4337 83.5366 85.4849C80.6496 81.2663 86.8734 79.2202 82.427 75.0502C78.8741 71.7192 73.5555 73.4713 72.8799 73.9405C67.1077 77.9373 71.7703 79.4908 68.8832 86.1508C67.8494 88.5356 71.3245 91.4791 71.7703 97.2513V97.2533Z" fill="#FFFBF5"/>
<path d="M13.8261 41.5272C7.61 45.302 12.5101 50.5233 13.1603 53.9593C13.682 56.6732 13.1798 58.2501 12.4945 63.7283C12.0506 67.2812 6.99092 65.716 8.83453 73.0924C9.82349 77.0521 13.5282 74.0989 19.5983 74.8289C24.9637 75.4752 27.1927 77.1514 29.8112 73.9412C33.987 68.8192 31.5866 68.8347 29.3673 64.6161C27.5023 61.0749 28.0357 60.3974 28.4796 55.9567C28.7463 53.2877 35.3615 47.5194 29.5892 43.3026C27.1772 41.5408 23.817 39.9717 21.5977 39.9717C18.7028 39.9717 15.7807 40.3396 13.828 41.5252L13.8261 41.5272Z" fill="#FFFBF5"/>
<path d="M19.3764 20.2159C17.379 29.0971 7.16618 29.9849 12.2181 37.9453C14.1298 40.9589 17.928 38.358 22.4854 38.6422C26.0383 38.8642 30.3193 43.0751 33.808 39.9738C39.8021 34.6455 30.7476 28.8908 31.5886 21.3256C32.0325 17.3288 34.6976 18.4385 33.3641 13.9998C32.2213 10.1938 20.9533 9.3898 19.1545 12.4463C16.9352 16.2211 20.05 17.2217 19.3764 20.2159Z" fill="#FFFBF5"/>
<path d="M87.8468 109.355C87.6483 113.471 82.2888 135.261 81.6132 142.585C80.4296 155.418 76.7171 155.991 77.0986 161.856C77.414 166.715 80.7761 164.305 82.427 165.409C85.5321 167.483 87.7904 164.171 87.9773 161.191C88.2012 157.638 88.4211 156.084 90.6405 146.981C92.4568 139.534 93.3115 123.946 96.6346 110.126C97.8825 104.936 101.519 102.579 101.297 101.023C100.176 93.1775 103.517 92.1418 101.192 88.6551C98.4899 84.6039 92.5756 85.9608 91.8592 86.3618C87.0895 89.0347 90.5626 90.7791 86.8676 97.0263C85.5457 99.2632 88.1272 103.569 87.8488 109.351L87.8468 109.355Z" fill="#FFFBF5"/>
<path d="M103.277 128.352C102.674 132.428 97.5243 151.423 91.5301 160.748C88.1603 165.991 87.0662 163.754 86.8676 169.63C86.7041 174.497 90.6599 176.584 92.196 177.843C95.083 180.212 96.6697 188.805 99.2998 187.39C102.187 185.837 103.423 181.6 103.075 178.065C101.521 162.302 107.282 143.412 111.946 129.985C113.698 124.943 117.549 122.953 117.481 121.384C117.136 113.467 120.563 112.766 118.591 109.065C116.301 104.768 110.282 105.535 109.528 105.866C104.519 108.059 107.803 110.136 103.513 115.99C101.977 118.086 104.124 122.624 103.277 128.352Z" fill="#FFFBF5"/>
<path d="M53.3439 38.1358C50.9455 40.4583 52.2381 45.1345 52.8923 48.2883C53.4198 50.7783 52.5438 53.1183 51.3543 58.0592C50.4724 61.7231 48.0311 61.9236 48.037 65.9944C48.0428 69.738 52.172 65.7004 56.9163 65.8036C62.3186 65.9204 62.6924 68.459 64.024 67.4428C66.1032 65.8542 65.3498 63.5764 63.7904 60.1131C62.2602 56.716 62.889 51.3565 63.3251 47.2857C63.5879 44.8386 65.5561 41.7529 64.2226 39.6309C62.5581 36.9814 60.6444 36.8977 58.425 36.8957C55.5302 36.8918 54.913 36.6173 53.3439 38.1378V38.1358Z" fill="#FFFBF5"/>
<path d="M73.3257 46.8221C71.1492 48.9655 73.3842 52.2614 73.976 55.1699C74.4529 57.4671 73.6586 59.6261 72.5782 64.1855C71.778 67.567 69.5626 67.752 69.5665 71.5093C69.5704 74.9629 73.318 71.2387 77.6204 71.3302C82.5204 71.4373 82.8592 73.7792 84.0642 72.8409C85.9507 71.375 85.2673 69.2724 83.854 66.0777C82.4679 62.9434 83.0383 57.9986 83.4354 54.2413C83.6749 51.983 86.1687 48.3016 84.6346 46.7286C82.6178 44.6592 81.0078 44.6572 78.9948 44.6553C76.3705 44.6514 74.7469 45.4204 73.3238 46.8221H73.3257Z" fill="#FFFBF5"/>
<path d="M93.4322 61.7341C92.1648 63.2916 94.0357 67.1481 94.2829 69.7607C94.5905 73.0119 93.66 74.9937 92.2524 77.0943C90.5198 79.6816 88.0337 79.0859 89.011 83.2637C89.6087 85.8217 94.4854 83.3941 96.0097 83.6511C98.2972 84.0365 99.5334 85.9366 101.038 85.4947C103.119 84.8853 101.18 81.6089 100.17 78.6829C99.1791 75.8133 100.016 72.2468 100.659 68.9664C101.046 66.9944 103.764 63.7685 102.52 62.2598C100.886 60.2799 100.431 60.4239 98.6398 60.2643C96.3056 60.056 94.5341 60.3753 93.4302 61.7302L93.4322 61.7341Z" fill="#FFFBF5"/>
<path d="M112.735 82.6254C111.366 84.0349 112.974 87.9032 113.046 90.4457C113.136 93.6112 112.075 95.4548 110.533 97.3801C108.633 99.7494 106.195 98.9843 106.888 103.096C107.313 105.613 112.328 103.041 113.757 103.62C117.79 105.255 117.132 106.474 118.663 106.162C120.777 105.732 119.13 102.42 118.318 99.5158C117.522 96.6676 118.594 93.2841 119.455 90.1634C119.973 88.2886 122.897 85.3743 121.76 83.8247C120.265 81.7864 119.799 81.8915 118.026 81.6014C115.713 81.2237 113.926 81.397 112.735 82.6235V82.6254Z" fill="#FFFBF5"/>
<path d="M57.0818 24.3734C55.1389 25.2086 56.9514 27.7336 56.7508 29.2891C56.3245 32.5928 53.122 32.6473 54.4536 34.8666C55.0688 35.8926 54.6756 35.7544 58.0065 35.5324C62.1279 35.2579 61.5594 37.3079 63.5782 37.1074C65.3128 36.9361 65.7411 35.0029 64.7502 33.2294C63.7787 31.4909 64.1136 31.3877 64.6684 29.5383C65.0013 28.4267 67.3316 28.2067 66.4906 26.0574C65.7547 24.1827 63.7671 25.7187 62.087 25.4889C59.8949 25.1891 58.3569 23.8264 57.0857 24.3715L57.0818 24.3734Z" fill="#FFFBF5"/>
<path d="M60.0039 17.5504C58.8923 20.8969 56.6729 19.5478 57.6035 22.503C58.0182 23.821 59.3692 24.148 61.1155 24.4323C62.4763 24.6542 64.3842 25.1759 65.8481 24.1149C68.3634 22.2908 65.1609 21.5432 65.7781 18.6581C66.1032 17.1338 67.0123 17.0325 66.4439 15.3272C66.2219 14.6614 64.9954 14.8969 63.7807 14.6614C62.5659 14.4258 61.3004 13.6626 60.8936 14.2175C59.8929 15.5861 60.3816 16.4193 60.0058 17.5484L60.0039 17.5504Z" fill="#FFFBF5"/>
<path d="M77.5873 34.7798C75.4614 36.4132 77.6087 38.064 77.4666 38.7707C76.9351 41.4164 74.8365 40.3846 75.7086 43.3437C75.987 44.2899 77.1921 43.5871 78.4789 43.4372C81.5393 43.0829 82.063 44.7727 83.7625 44.5624C85.2206 44.3814 85.1837 42.6254 84.3485 41.7746C83.6068 41.0173 83.4744 40.0576 83.9825 39.1932C84.4653 38.3736 85.4367 38.3755 85.2732 36.5884C85.1233 34.9687 83.2739 35.7123 81.8469 35.5663C79.9877 35.3755 78.5042 34.0751 77.5873 34.7798Z" fill="#FFFBF5"/>
<path d="M79.8163 28.4176C78.8215 31.4099 76.8397 30.2028 77.669 32.8446C78.0389 34.0244 79.2479 34.3145 80.8073 34.5695C82.024 34.7681 83.7294 35.2353 85.0376 34.2872C87.2862 32.6577 84.4244 31.988 84.9734 29.4105C85.2634 28.0477 86.0772 27.9562 85.5691 26.4339C85.3705 25.8381 84.2745 26.0503 83.1882 25.8381C82.0999 25.6259 80.9708 24.9446 80.6087 25.441C79.7132 26.6655 80.1492 27.4092 79.8144 28.4176H79.8163Z" fill="#FFFBF5"/>
<path d="M95.8209 50.5095C93.88 52.0007 95.8404 53.5076 95.7119 54.1519C95.2271 56.566 93.3115 55.6257 94.1077 58.3259C94.3628 59.1883 95.4607 58.5478 96.6347 58.4115C99.4263 58.0883 99.9072 59.6302 101.457 59.4394C102.788 59.2739 102.753 57.6717 101.992 56.895C101.317 56.2039 101.194 55.3278 101.657 54.5393C102.097 53.7918 102.985 53.7937 102.835 52.1623C102.699 50.6828 101.011 51.3641 99.7086 51.2298C98.011 51.0546 96.658 49.869 95.8209 50.5114V50.5095Z" fill="#FFFBF5"/>
<path d="M98.0461 45.3953C97.2459 47.7996 95.6535 46.8321 96.3212 48.9541C96.6191 49.9021 97.5905 50.1358 98.8442 50.3421C99.8215 50.5018 101.194 50.8775 102.245 50.1143C104.054 48.8042 101.753 48.2668 102.195 46.1935C102.428 45.0994 103.082 45.0254 102.674 43.8009C102.514 43.322 101.634 43.4914 100.758 43.322C99.8838 43.1526 98.9747 42.6036 98.6827 43.0027C97.9623 43.9878 98.3147 44.5855 98.0441 45.3953H98.0461Z" fill="#FFFBF5"/>
<path d="M113.531 71.8755C111.825 73.7152 113.982 74.9962 113.947 75.6873C113.815 78.2746 111.785 77.5776 112.96 80.2739C113.336 81.1344 114.333 80.3031 115.474 79.9877C118.191 79.2363 118.886 80.7723 120.393 80.344C121.686 79.9761 121.421 78.3096 120.557 77.6127C119.788 76.9936 119.541 76.098 119.887 75.2084C120.214 74.3654 121.094 74.233 120.711 72.5568C120.362 71.0364 118.789 71.9942 117.481 72.0487C115.775 72.1188 114.265 71.0831 113.529 71.8774L113.531 71.8755Z" fill="#FFFBF5"/>
<path d="M114.728 65.9142C114.605 68.445 112.809 67.9408 114.023 69.8058C114.565 70.6391 115.563 70.604 116.827 70.4639C117.812 70.3548 119.233 70.347 120.043 69.3308C121.433 67.5826 119.071 67.6838 118.939 65.5677C118.869 64.4502 119.478 64.203 118.756 63.1342C118.474 62.7156 117.672 63.1167 116.784 63.1887C115.896 63.2607 114.874 62.9765 114.701 63.4398C114.273 64.5807 114.771 65.0635 114.73 65.9162L114.728 65.9142Z" fill="#FFFBF5"/>
<path d="M23.2875 158.013C22.6587 156.358 22.4153 154.575 22.682 152.825C22.976 150.907 23.5016 149.885 25.1194 149.766C29.5542 149.441 29.4374 145.429 32.8073 145.012C37.4348 144.44 36.6074 144.989 38.9766 144.249C41.3459 143.51 43.4075 145.713 43.791 148.799C44.1726 151.883 42.1285 157.057 42.5139 158.354C42.8975 159.648 40.0824 165.814 41.3186 168.569C42.1428 170.405 41.4893 171.753 39.3582 172.614C36.0078 173.967 38.1687 177.46 28.6937 178.632C19.8962 179.72 20.9319 175.565 20.5503 172.482C20.2213 169.828 22.4601 164.416 23.4821 161.829C23.9942 160.532 23.7041 159.111 23.2875 158.015V158.013Z" fill="#FFFBF5"/>
<path d="M44.4627 168.074C44.0422 166.355 46.8689 162.674 47.3498 160.971C47.8754 159.104 47.9494 154.007 49.5691 154.089C54.0098 154.311 55.719 152.535 59.1162 152.535C63.7787 152.535 63.3096 153.725 65.7508 153.281C68.1921 152.837 65.9981 157.198 65.9981 160.307C65.9981 163.416 64.2226 166.967 64.4445 168.298C64.6665 169.63 62.5348 177.283 53.5659 174.292C52.2343 173.849 45.3524 175.402 44.9066 171.629C44.7431 170.245 44.7411 169.215 44.4627 168.076V168.074Z" fill="#FFFBF5"/>
<path d="M66.6638 169.629C66.2433 167.91 67.2926 165.561 67.7735 163.857C68.2991 161.99 67.8202 149.363 69.327 148.76C71.5464 147.872 72.658 147.872 73.9896 148.094C78.5879 148.861 76.793 151.777 76.6528 153.866C76.4309 157.197 75.987 159.86 75.987 162.969C75.987 166.078 75.0993 171.183 75.3212 172.516C75.5431 173.85 79.4056 181.945 70.4367 178.954C69.1051 178.511 65.5522 179.62 65.1083 175.845C64.9448 174.461 66.9403 170.768 66.6619 169.629H66.6638Z" fill="#FFFBF5"/>
<path d="M80.6515 170.961C83.0928 169.851 84.3251 171.613 85.3141 172.958C85.5146 173.233 86.6457 174.734 87.7553 176.511C88.865 178.289 90.6424 178.952 91.3082 180.064C91.974 181.176 93.3056 184.505 92.4179 186.28C91.5302 188.056 89.1999 195.486 89.087 197.381C88.865 201.155 89.5308 206.484 87.3115 208.481C85.0921 210.479 83.5367 206.484 78.2083 207.15C65.3147 208.762 65.597 199.756 65.1103 198.046C64.6664 196.493 64.0006 193.828 65.1103 189.609C66.22 185.39 67.5516 182.505 70.6606 182.505C73.7696 182.505 78.6522 180.286 78.6522 175.845C78.6522 173.614 79.9682 171.272 80.6496 170.961H80.6515Z" fill="#FFFBF5"/>
<path d="M20.708 186.281C22.9273 184.061 21.5957 181.618 26.0364 180.508C30.477 179.399 34.0279 179.843 36.2492 178.955C38.4685 178.067 39.1363 176.068 42.6872 175.846C46.2401 175.624 48.4595 176.068 52.0123 176.734C55.5652 177.399 57.5626 175.846 59.782 177.177C62.0013 178.509 64.8884 184.281 64.0007 187.168C63.1129 190.055 62.891 192.177 62.891 194.494C62.891 197.381 66 205.595 62.6691 207.148C59.3381 208.702 56.8968 210.257 49.3491 212.699C41.8813 215.114 35.3615 213.142 32.4763 212.699C27.8936 211.994 20.2661 206.039 19.6003 202.264C18.9345 198.489 18.4906 188.5 20.71 186.279L20.708 186.281Z" fill="#FFFBF5"/>
<path d="M30.4769 240.45C29.8111 233.346 25.1486 229.349 28.4795 225.352C31.8105 221.356 28.8533 215.385 34.2518 215.583C40.2459 215.805 42.0214 216.471 48.9052 214.474C51.7495 213.648 51.5003 214.353 52.0882 213.911C54.7709 211.9 57.5431 211.538 59.1181 210.921C64.2245 208.923 70.4406 210.033 75.3251 210.033C80.2096 210.033 82.8728 209.811 86.2038 212.92C89.5347 216.029 85.9818 225.796 86.2038 233.79C86.4257 241.783 88.9001 242.72 85.0941 247.11C79.3219 253.77 79.5438 252.882 74.6593 261.541C70.4445 269.013 69.109 268.423 57.5645 264.872C46.0201 261.319 40.9137 267.091 36.695 258.878C32.4763 250.664 30.4789 240.452 30.4789 240.452L30.4769 240.45Z" fill="#FFF5E8"/>
<path d="M80.1531 302.844H97.1525C97.0688 302.7 96.9714 302.55 96.8566 302.392C95.0811 299.951 95.525 281.967 96.8566 274.197C98.1882 266.427 99.9656 257.102 96.8566 249.777C93.7476 242.451 87.7184 248.334 86.1999 249.777C83.2394 252.589 80.2051 256.659 77.0967 261.987C72.4341 269.978 74.2096 271.756 75.0993 278.86C75.0993 278.86 77.8267 296.285 80.1531 302.844Z" fill="#FFF5E8"/>
<path d="M35.5386 302.845H78.0798C78.3893 299.136 76.5594 294.02 75.3212 289.073C74.6398 286.349 72.8799 279.748 72.658 275.975C72.4361 272.2 68.9065 270.896 66.8858 269.759C63.3329 267.762 60.8916 268.427 55.7852 266.65C52.1174 265.375 49.4056 265.106 46.0162 265.318C42.4633 265.54 40.9098 265.318 38.6904 263.765C36.0681 261.929 36.2492 261.323 33.1402 255.551C30.6853 250.994 30.1421 247.678 29.1434 245.56C28.7774 244.782 28.6995 243.119 26.4802 244.895C24.6658 246.347 20.1531 250.76 19.1544 254.885C17.379 262.211 21.5957 268.205 29.1453 280.64C35.6418 291.339 36.3601 298.39 35.5405 302.848L35.5386 302.845Z" fill="#FFF5E8"/>
</g>
<defs>
<clipPath id="clip0_291_10874">
<rect width="124.937" height="303" fill="white" transform="matrix(-1 0 0 1 124.937 0)"/>
</clipPath>
</defs>
</svg>
