<svg width="40" height="40" viewBox="0 0 40 40" fill="none" xmlns="http://www.w3.org/2000/svg">
<path d="M20 40C31.0457 40 40 31.0457 40 20C40 8.9543 31.0457 0 20 0C8.9543 0 0 8.9543 0 20C0 31.0457 8.9543 40 20 40Z" fill="#F5F8FC"/>
<path d="M18.609 36.2658H25.4829C25.038 32.9361 24.851 29.5659 25.182 27.5158C25.3704 26.3501 26.1724 24.3641 26.3411 22.5664C26.9246 16.3559 27.8876 15.5617 27.3904 13.3088C26.9024 11.0991 27.0463 10.598 26.9024 9.89019C26.3673 7.26178 25.2513 8.19984 25.2513 10.1689C25.2513 11.1684 25.6294 11.7545 25.5077 12.8431C25.25 15.1391 24.4611 15.9124 23.9495 15.8901C23.54 15.8718 24.6181 13.0916 24.4611 11.1462C24.2805 8.91549 23.4589 8.0664 23.7167 6.14579C23.9181 4.64515 22.8034 4.47376 22.2513 6.09869C21.8327 7.33112 21.7162 7.33112 22.0891 9.49377C22.4227 11.4353 21.6469 14.6328 21.2099 14.6027C20.9286 14.5831 20.6709 11.4693 20.438 9.09735C20.3268 7.96566 21.1013 7.06161 20.3948 5.06251C19.5392 2.64212 18.1982 3.02677 18.4847 5.07428C18.6247 6.07383 18.2963 7.51167 18.0896 9.23734C17.7638 11.9586 18.9269 14.4693 18.3369 14.8513C17.9234 15.1182 17.1685 12.3341 16.9278 11.3777C16.7276 10.5849 16.9815 9.30799 16.3495 7.16497C15.486 4.23827 13.992 5.55312 14.5087 7.16889C14.9038 8.40133 14.2248 10.5326 14.6945 12.2622C15.155 13.9551 16.2318 16.8426 16.0656 17.8251C15.9269 18.6467 16.3077 20.6393 15.804 20.6916C15.3003 20.744 14.2772 18.7736 13.695 17.7283C12.5437 15.6559 11.7181 15.8208 10.695 15.9608C9.43117 16.1335 8.8843 17.0349 9.6248 17.3332C10.6165 17.7322 11.5088 17.3096 12.7425 21.3759C12.9989 22.2211 13.4778 23.3004 14.1764 24.2751C15.1367 25.6135 16.9147 26.9872 17.4838 28.4669C17.8122 29.3213 18.2636 32.6797 18.6103 36.2658H18.609Z" fill="#DCC1B2" stroke="#E6BCA5" stroke-width="0.75" stroke-miterlimit="10"/>
<path d="M22.978 32.7994C22.9871 32.9027 23.152 34.228 23.3993 36.2677H24.8279C24.544 34.126 24.3609 32.6855 24.3504 32.4657C24.2968 31.4439 24.7089 30.1082 24.2222 29.7484C23.7551 29.403 23.8127 30.3934 23.4804 30.2599C22.5907 29.9041 22.1106 30.3476 22.1878 30.7283C22.3225 31.3955 22.9178 32.1086 22.9793 32.798L22.978 32.7994Z" fill="#FFFBF5"/>
<path d="M19.2619 36.2662H21.3408C21.3133 35.353 21.3133 34.7132 21.3408 34.4398C21.588 32.0168 22.182 30.8 21.8628 30.2924C21.5436 29.7848 20.6578 30.1014 20.1005 29.8397C19.2305 29.4328 18.8471 28.5968 18.3382 28.8703C17.3779 29.3844 18.592 31.4424 18.872 33.1053C18.9204 33.3918 19.0643 34.5575 19.2619 36.2675V36.2662Z" fill="#FFFBF5"/>
<path d="M14.4088 22.9762C14.5213 23.1241 14.7464 23.4878 15.3115 24.2701C15.7524 24.8798 15.8623 25.3417 15.9265 25.483C16.0481 25.7512 16.1541 26.2863 16.6172 26.1332C16.8645 26.0508 17.1759 25.9029 17.2374 25.691C17.2989 25.4803 17.868 25.4686 17.8104 25.1271C17.6835 24.3774 16.7533 24.6967 16.4105 24.2492C16.0717 23.8083 15.8087 23.4394 15.3979 22.78C15.1559 22.3914 15.4293 21.2793 14.9151 21.0936C14.6495 20.9967 14.3879 21.0831 14.2139 21.1668C14.0412 21.2506 13.8279 21.4703 13.6696 21.8602C13.544 22.1703 14.1903 22.6897 14.4088 22.9762Z" fill="#FFFBF5"/>
<path d="M17.9062 23.693C17.9468 24.1614 17.5412 25.0681 18.1168 25.2198C18.4635 25.3127 18.7998 25.1531 18.9803 25.021C19.2655 24.8116 19.3637 25.1793 19.5638 24.9752C20.2023 24.3263 19.1504 23.7166 19.0549 23.1802C18.8783 22.1924 18.6977 20.0638 18.5551 18.864C18.3706 17.3111 18.72 16.5863 18.2843 16.3953C17.9258 16.237 17.6458 16.6504 17.3855 16.7066C17.1251 16.7629 16.5534 16.5287 16.471 16.9683C16.3833 17.4354 16.8007 17.8815 17.2416 18.8418C17.6825 19.7995 17.8787 23.3699 17.9075 23.6943L17.9062 23.693Z" fill="#FFFBF5"/>
<path d="M20.1612 23.1144C20.1769 23.5737 19.927 24.377 20.3601 24.6295C20.5079 24.7158 20.8036 24.5719 21.0849 24.5039C21.3819 24.4332 21.3897 24.6792 21.6579 24.4607C22.0373 24.1519 21.4813 23.5894 21.3125 23.0948C21.111 22.51 20.8572 18.5851 20.8337 17.7111C20.814 16.9444 21.3531 16.5964 20.9462 16.1869C20.5419 15.7787 20.2868 16.2772 20.0421 16.2811C19.7975 16.285 19.1224 15.992 18.9222 16.5271C18.7822 16.9 19.3566 17.2833 19.4769 17.575C19.6523 17.9989 20.1455 22.6552 20.1612 23.1144Z" fill="#FFFBF5"/>
<path d="M22.0443 23.0069C21.9828 23.4439 21.7119 23.6074 22.0443 24.327C22.1306 24.5154 22.408 24.361 22.5951 24.4539C22.7782 24.5442 22.8135 24.7849 23.0451 24.6371C23.541 24.3231 23.1472 23.856 23.0739 23.3641C22.9862 22.7793 23.0176 19.587 23.1406 18.7562C23.2479 18.0288 23.7267 17.4269 23.503 17.147C23.2021 16.7715 23.0412 17.0946 22.8175 17.0619C22.5937 17.0279 22.1555 16.7466 21.8899 17.0253C21.6243 17.3027 21.9671 18.0719 22.0914 18.5639C22.3556 19.6184 22.107 22.5686 22.0456 23.0056L22.0443 23.0069Z" fill="#FFFBF5"/>
<path d="M23.9116 24.8972C23.9614 25.2832 24.3525 25.2976 24.5069 25.2479C25.1781 25.0294 24.8353 23.8153 24.906 23.3089C24.9988 22.6312 25.2736 20.9501 25.4136 19.9099C25.5143 19.159 25.8898 18.8463 25.7511 18.5061C25.6203 18.1843 25.3743 18.3727 25.131 18.2301C24.9321 18.1136 24.7673 17.9069 24.4624 18.1476C24.1576 18.3897 24.5383 18.9889 24.5279 19.299C24.5122 19.7896 24.0098 22.749 23.8829 23.1847C23.7559 23.619 23.3216 23.6857 23.4642 24.1384C23.5532 24.4223 23.8449 24.3674 23.9129 24.8985L23.9116 24.8972Z" fill="#FFFBF5"/>
<path d="M16.5298 15.2741C16.5363 15.5907 16.2236 16.254 16.5952 16.4058C17.1251 16.6217 17.1591 16.2161 17.4521 16.08C17.6837 15.9714 18.1809 16.2501 18.2136 15.7647C18.2554 15.1419 17.8773 15.2505 17.5372 15.0307C17.1591 14.7874 16.4552 12.4141 16.3636 12.0321C16.272 11.6501 16.3636 11.1228 16.1059 10.9894C15.8612 10.8625 15.805 11.1084 15.5171 11.2484C15.3144 11.3478 14.9493 11.2785 14.9035 11.531C14.8407 11.8751 15.228 12.0517 15.4138 12.2545C15.6009 12.4586 16.5232 14.9549 16.5311 15.2741H16.5298Z" fill="#FFFBF5"/>
<path d="M19.2329 14.671C19.2094 15.1591 18.8784 15.4338 19.0825 15.7857C19.2525 16.0801 19.6202 15.9938 19.9603 15.9388C20.3005 15.8825 20.6616 15.842 20.7113 15.5228C20.7846 15.0478 20.4326 15.0936 20.2848 14.4709C20.1697 13.9816 19.7575 11.552 19.7484 11.1111C19.7379 10.6715 19.9525 10.122 19.7131 9.91009C19.4867 9.71123 19.3729 9.96635 19.0406 10.0475C18.8077 10.1037 18.4427 9.93757 18.3367 10.2018C18.1941 10.5603 18.5578 10.8495 18.707 11.119C18.8561 11.3885 19.2499 14.3191 19.2329 14.6724V14.671Z" fill="#FFFBF5"/>
<path d="M21.6541 16.2369C21.7038 16.5417 22.0047 16.4789 22.3737 16.6516C22.6628 16.7864 22.7884 16.929 23.0095 16.683C23.3078 16.3507 22.9663 16.0197 23.0435 15.4467C23.105 14.9966 23.5472 12.813 23.6833 12.4402C23.8193 12.0673 24.1844 11.6748 24.047 11.4184C23.9175 11.175 23.7356 11.3529 23.4216 11.3111C23.2018 11.281 22.9415 11.0206 22.7635 11.2077C22.5228 11.4615 22.7413 11.8252 22.7819 12.1013C22.8224 12.376 22.218 15.0084 22.0871 15.3001C21.9066 15.7031 21.5939 15.8732 21.6528 16.2369H21.6541Z" fill="#FFFBF5"/>
<path d="M24.984 17.7134C25.226 17.996 25.6512 18.0875 25.8618 17.8272C26.0306 17.6192 25.816 17.2162 25.9076 16.7779C25.9796 16.4338 26.4532 14.7736 26.5853 14.4936C26.7175 14.2136 26.932 14.0998 26.8732 13.8735C26.813 13.6445 26.6194 13.7374 26.4192 13.672C26.2386 13.6144 26.1536 13.3763 25.9103 13.46C25.6656 13.5451 25.8121 13.9559 25.8344 14.1718C25.8566 14.3876 25.2103 16.358 25.086 16.5764C24.9146 16.876 24.3952 16.7858 24.4148 17.2411C24.4319 17.6336 24.8414 17.5498 24.984 17.7147V17.7134Z" fill="#FFFBF5"/>
<path d="M15.14 10.0833C15.0981 10.2403 14.8731 10.4548 14.9869 10.7256C15.1439 11.0998 15.8622 10.9781 16.0662 10.7767C16.2429 10.6014 16.0924 10.2926 16.0362 10.1173C15.9799 9.94327 15.9668 9.04969 16.0126 8.75925C16.0584 8.47011 16.2717 8.32358 16.1225 8.08285C16.0218 7.91931 15.836 8.0436 15.6188 8.03052C15.4343 8.01874 15.2551 7.87875 15.1216 7.98472C14.9202 8.14303 15.1321 8.44394 15.14 8.64411C15.1478 8.84298 15.2041 9.83861 15.14 10.0859V10.0833Z" fill="#FFFBF5"/>
<path d="M12.172 18.6969C12.2924 18.8997 12.9675 20.3572 13.0368 20.6529C13.0813 20.8386 12.9047 21.1723 13.1755 21.3934C13.5497 21.6982 14.2391 21.1788 14.3399 20.8543C14.4262 20.5744 14.0965 20.3363 13.9395 20.1845C13.7812 20.0327 13.1755 18.5988 13.0617 18.2691C12.9478 17.942 13.1061 17.4488 12.745 17.3899C12.52 17.3546 12.4742 17.6202 12.2387 17.7235C12.0386 17.8125 11.7703 17.7667 11.6892 17.9473C11.5663 18.222 12.0516 18.4928 12.1707 18.6969H12.172Z" fill="#FFFBF5"/>
<path d="M18.7629 8.54091C18.691 8.73847 18.4123 8.99489 18.4856 9.34945C18.5863 9.84007 19.3765 9.74194 19.629 9.49598C19.8488 9.28403 19.7428 8.87845 19.7127 8.65081C19.6827 8.42316 19.8527 7.7363 19.9535 7.36866C20.0542 7.00102 20.308 6.83094 20.1916 6.51041C20.1131 6.29453 19.892 6.43845 19.663 6.40443C19.4681 6.37565 19.3006 6.18333 19.1397 6.30631C18.8977 6.4934 19.0691 6.89505 19.0429 7.15148C19.0167 7.4066 18.8754 8.22692 18.7616 8.5396L18.7629 8.54091Z" fill="#FFFBF5"/>
<path d="M22.77 10.8835C22.9859 11.1988 23.5851 10.9122 23.7185 10.6715C23.8337 10.4622 23.6387 10.2071 23.5524 10.0566C23.466 9.90484 23.2946 8.63578 23.2737 8.34926C23.2528 8.06404 23.4072 7.87434 23.2253 7.68333C23.1036 7.5538 22.9676 7.71473 22.7766 7.75398C22.6143 7.78799 22.4285 7.69903 22.3343 7.82986C22.193 8.02741 22.4403 8.2616 22.49 8.44869C22.5397 8.63578 22.77 9.98988 22.7661 10.2411C22.7635 10.3981 22.613 10.6558 22.7687 10.8835H22.77Z" fill="#FFFBF5"/>
<path d="M26.8494 13.1949C26.9933 12.9934 26.7474 12.8416 26.6702 12.6349C26.6218 12.508 26.4792 11.5582 26.4687 11.3331C26.4569 11.1068 26.6218 10.8621 26.4726 10.7143C26.3719 10.6149 26.2541 10.7457 26.0919 10.7823C25.9545 10.8137 25.7988 10.7483 25.7164 10.8543C25.5921 11.0152 25.7962 11.1932 25.8342 11.3397C25.8708 11.4862 26.0749 12.5342 26.0958 12.7383C26.1168 12.9437 25.9297 13.0693 26.0566 13.2472C26.2319 13.4919 26.716 13.3807 26.8507 13.1936L26.8494 13.1949Z" fill="#FFFBF5"/>
<path d="M15.8779 7.5311C16.0139 7.36887 15.7732 7.13599 15.6908 6.95806C15.6097 6.78013 15.4003 6.10112 15.1413 6.16653C14.8508 6.2398 15.1112 6.89788 15.0955 7.10983C15.0785 7.32308 14.9738 7.51017 15.1387 7.68418C15.2617 7.8137 15.7418 7.69464 15.8779 7.5311Z" fill="#FFFBF5"/>
<path d="M20.0207 5.77434C20.1686 5.55585 19.8546 5.30988 19.7316 5.10448C19.6086 4.89777 19.2933 3.90868 18.9793 4.02512C18.6287 4.15464 19.067 5.0927 19.0735 5.35698C19.0801 5.61995 18.9741 5.86461 19.2017 6.05432C19.3705 6.19692 19.8729 5.99282 20.022 5.77564L20.0207 5.77434Z" fill="#FFFBF5"/>
<path d="M11.861 17.615C12.0612 17.5522 12.1318 16.9359 12.0075 16.6861C11.8819 16.4349 11.513 16.5722 11.2762 16.5605C11.0394 16.5487 10.1798 16.3865 10.1419 16.7201C10.1 17.0929 10.9569 17.1832 11.1911 17.3271C11.4253 17.471 11.5928 17.7013 11.861 17.6163V17.615Z" fill="#FFFBF5"/>
<path d="M23.0125 7.42938C23.2114 7.34173 23.1564 6.9597 23.1944 6.72944C23.2323 6.49917 23.4574 5.67755 23.2179 5.59513C22.9497 5.50224 22.777 6.3304 22.6423 6.53973C22.5075 6.74906 22.3178 6.88251 22.3479 7.15725C22.3702 7.36135 22.8137 7.51704 23.0125 7.42808V7.42938Z" fill="#FFFBF5"/>
<path d="M26.3319 10.3787C26.4798 10.2609 26.3176 9.98228 26.2822 9.79519C26.2469 9.6081 26.1985 8.92123 25.963 8.91992C25.7013 8.91862 25.7982 9.59763 25.7432 9.79257C25.6883 9.99012 25.5627 10.1393 25.6699 10.3434C25.7497 10.4951 26.1841 10.4978 26.3319 10.3787Z" fill="#FFFBF5"/>
<path d="M22.394 28.081C22.4581 27.7971 22.8467 27.6925 22.9592 27.5158C23.0717 27.3392 23.315 26.6746 23.6382 26.7884C23.9614 26.9009 24.3499 27.3536 24.2688 27.9528C24.1877 28.5507 23.5087 29.2951 23.1044 29.0204C22.8768 28.866 22.3129 28.4382 22.3927 28.0823L22.394 28.081Z" fill="#FFFBF5"/>
<path d="M21.7675 28.1112C22.0461 28.0798 22.8952 28.9616 22.9109 29.3632C22.9266 29.7649 22.1377 29.7806 21.9062 29.7806C21.6746 29.7806 21.3959 29.8264 21.1029 29.7034C20.921 29.6262 20.6554 28.8805 20.8098 28.6489C20.9642 28.4173 21.5438 28.136 21.7675 28.1112Z" fill="#FFFBF5"/>
<path d="M21.9587 25.2092C22.0255 24.941 22.2806 24.9044 22.503 24.9148C22.7267 24.9253 22.6796 24.7618 22.9216 24.801C23.0629 24.8246 23.9604 25.0601 23.6713 25.7286C23.3822 26.3972 23.1768 26.5843 23.1454 26.7556C23.1127 26.927 22.8654 27.6989 22.3617 27.7447C21.858 27.7905 22.1053 26.4547 22.0726 26.3017C22.0163 26.0308 21.8541 25.6331 21.9587 25.2105V25.2092Z" fill="#FFFBF5"/>
<path d="M20.184 25.0797C20.4064 24.9672 20.8944 25.0234 21.0318 24.7618C21.1692 24.5001 21.8089 24.7526 21.7618 24.9083C21.7147 25.064 21.5747 25.743 21.686 26.1774C21.7972 26.6117 22.0928 28.0051 21.6454 28.0064C21.198 28.0077 20.9468 28.5768 20.5726 28.1987C20.1971 27.8193 19.5482 26.8812 19.6895 26.7125C19.8255 26.5502 19.7797 25.9353 19.7209 25.7273C19.6463 25.4669 20.095 25.1255 20.184 25.081V25.0797Z" fill="#FFFBF5"/>
<path d="M19.2285 25.5308C18.972 25.3451 18.6633 25.2129 18.2354 25.5976C18.1269 25.6944 18.0353 25.472 17.8142 25.4903C17.5931 25.5086 17.3733 26.0973 17.0828 26.2321C16.7924 26.3669 16.7518 26.3499 16.8787 26.8352C17.041 27.4554 17.3092 27.4344 17.9332 27.509C18.5521 27.5836 18.085 27.0367 18.7679 27.059C19.5608 27.0851 19.6131 26.3551 19.477 26.0489C19.3632 25.7938 19.3462 25.6159 19.2285 25.5308Z" fill="#FFFBF5"/>
<path d="M19.3893 27.2328C19.6641 27.289 19.7125 28.0125 20.0801 28.2624C20.4477 28.5123 20.5799 28.7334 20.419 29.1743C20.258 29.6152 19.8747 29.6309 19.2572 29.1599C18.6396 28.6889 18.3571 28.2075 18.5075 27.9392C18.7129 27.5716 18.8163 27.115 19.3906 27.2328H19.3893Z" fill="#FFFBF5"/>
<path style="mix-blend-mode:multiply" d="M25.3909 22.6155C28.3682 19.6382 28.3682 14.811 25.3909 11.8337C22.4136 8.85642 17.5864 8.85642 14.6091 11.8337C11.6318 14.811 11.6318 19.6382 14.6091 22.6155C17.5864 25.5928 22.4136 25.5928 25.3909 22.6155Z" fill="url(#paint0_radial_286_2662)"/>
<defs>
<radialGradient id="paint0_radial_286_2662" cx="0" cy="0" r="1" gradientUnits="userSpaceOnUse" gradientTransform="translate(19.9998 17.2246) scale(7.62386)">
<stop stop-color="#FF3030"/>
<stop offset="0.11" stop-color="#FF5959"/>
<stop offset="0.27" stop-color="#FF8B8B"/>
<stop offset="0.42" stop-color="#FFB5B5"/>
<stop offset="0.57" stop-color="#FFD5D5"/>
<stop offset="0.71" stop-color="#FFECEC"/>
<stop offset="0.85" stop-color="#FFFAFA"/>
<stop offset="0.96" stop-color="white"/>
</radialGradient>
</defs>
</svg>
