<svg width="169" height="261" viewBox="0 0 169 261" fill="none" xmlns="http://www.w3.org/2000/svg">
<path d="M7.82953 83.8357C8.79315 82.7027 9.79915 81.5167 10.7734 80.3095L11.8005 79.0282C17.1799 72.3357 20.7379 67.92 21.1297 64.5631C21.3098 63.0065 21.4051 60.8251 21.5215 58.3048C21.8392 51.1359 22.284 41.3301 25.1325 35.1036C29.3047 26.0074 41.3977 15.6192 55.9263 8.66202C73.3034 0.338798 91.5912 -2.08616 107.422 1.8213C126.218 6.47002 140.747 17.0276 149.462 32.3821C158.272 47.9167 160.157 66.734 154.767 85.3712C149.07 105.036 142.304 112.342 136.321 118.781C132.222 123.207 128.675 127.019 126.24 134.146C122.067 146.334 122.671 167.576 133.853 185.398C135.357 187.802 137.168 190.428 139.254 193.457C148.223 206.471 161.47 225.722 168.745 254.907C165.039 254.599 161.28 254.504 157.457 254.652C145.597 254.695 134.192 256.421 123.232 259.831C112.579 255.934 101.344 254.197 89.5263 254.652C80.3665 254.684 71.482 255.722 62.8623 257.766C62.4811 257.766 62.1105 257.776 61.7398 257.787C54.0414 257.808 46.5336 258.56 39.2269 260C31.5708 258.21 23.6394 257.469 15.4221 257.787C13.5478 257.787 11.6841 257.861 9.82033 257.946C21.1086 239.944 33.1063 223.043 41.3342 211.458C47.1689 203.241 51.3835 197.311 52.1036 195.574C55.2909 187.865 56.7629 170.52 53.7978 166.771C52.4001 164.992 46.3535 164.728 39.9576 164.452C32.8945 164.145 24.8784 163.796 19.9755 161.35C9.9368 156.362 10.6569 144.703 10.9216 140.319C10.9534 139.779 10.9852 139.356 10.9852 139.049C10.9852 137.577 9.88387 136.221 8.80376 134.908C8.00955 133.934 7.25771 133.013 6.90825 132.017C6.09288 129.698 6.52704 127.834 8.08366 126.723C7.25771 126.119 6.61176 125.282 6.29407 124.361C5.93404 123.313 6.01875 122.233 6.53764 121.333C7.08829 120.369 7.74481 119.924 8.31664 119.532C9.59795 118.653 10.9216 117.743 11.0805 109.229C7.31065 108.223 1.3912 105.787 0.236969 100.345C-1.04434 94.2874 3.06432 89.4375 7.82953 83.8251V83.8357Z" fill="#DCC1B2"/>
<g opacity="0.69">
<path d="M86.9328 111.649C93.1593 84.8369 108.44 86.2982 105.559 114.805V114.826C105.422 116.118 104.352 117.103 103.071 117.092C98.7293 117.081 93.9005 117.314 88.6906 117.907C87.1657 118.077 85.895 116.7 86.1915 115.165C86.4245 113.979 86.668 112.803 86.9433 111.649H86.9328Z" fill="#FFFBF5"/>
</g>
<path d="M106.575 219.434C113.256 216.532 119.409 214.488 124.693 213.165C125.371 212.995 126.08 213.355 126.355 214.022C126.535 214.457 126.715 214.891 126.896 215.335C127.234 216.172 126.758 217.104 125.89 217.326C120.087 218.766 114.029 220.958 108.248 223.489C107.125 223.976 105.844 223.405 105.41 222.25C105.41 222.24 105.41 222.219 105.399 222.208C104.986 221.117 105.516 219.899 106.575 219.444V219.434Z" fill="#FFFBF5" stroke="#E6BCA5" stroke-width="0.69" stroke-miterlimit="10"/>
<path d="M112.537 235.843C119.251 232.794 125.477 230.581 130.899 229.109C131.609 228.918 132.35 229.31 132.604 230.009C132.763 230.453 132.932 230.888 133.091 231.332C133.388 232.137 132.922 233.027 132.106 233.249C126.176 234.88 120.056 237.231 114.274 239.867C113.141 240.386 111.806 239.804 111.393 238.618C111.393 238.607 111.394 238.586 111.383 238.575C111.012 237.495 111.51 236.32 112.537 235.854V235.843Z" fill="#FFFBF5" stroke="#E6BCA5" stroke-width="0.69" stroke-miterlimit="10"/>
<path d="M138.674 253.274C132.85 254.619 126.783 256.695 121.011 259.056C119.963 258.707 118.915 258.378 117.856 258.071C117.845 258.039 117.824 258.018 117.813 257.997C117.813 257.987 117.803 257.965 117.803 257.955C117.379 256.843 117.919 255.593 118.999 255.149C125.861 252.321 132.194 250.341 137.658 249.081C138.388 248.911 139.119 249.356 139.341 250.076C139.479 250.532 139.617 250.976 139.744 251.432C139.987 252.247 139.49 253.084 138.674 253.274Z" fill="#FFFBF5" stroke="#E6BCA5" stroke-width="0.69" stroke-miterlimit="10"/>
<path d="M100.296 203.188C107.603 201.038 114.296 199.683 120.067 198.963C120.511 200.043 120.977 201.144 121.443 202.267C114.814 203.04 107.825 204.618 101.26 206.555C100.392 206.81 99.4705 206.344 99.1634 205.475C99.1634 205.465 99.1634 205.454 99.1528 205.444C98.8245 204.491 99.354 203.463 100.296 203.188Z" fill="#FFFBF5" stroke="#E6BCA5" stroke-width="0.69" stroke-miterlimit="10"/>
<path d="M95.532 188.23C102.299 186.239 108.525 184.947 113.979 184.195C114.413 185.265 114.858 186.366 115.313 187.499C109.108 188.315 102.627 189.808 96.5062 191.608C95.532 191.894 94.526 191.28 94.3354 190.274C94.3354 190.263 94.3354 190.252 94.3354 190.242C94.1766 189.363 94.6849 188.484 95.532 188.24V188.23Z" fill="#FFFBF5" stroke="#E6BCA5" stroke-width="0.69" stroke-miterlimit="10"/>
<path d="M92.059 175.41C97.7773 173.705 103.135 172.498 107.954 171.704C108.631 171.598 109.288 171.99 109.521 172.636C109.584 172.805 109.648 172.974 109.711 173.154C110.029 174.023 109.489 174.955 108.589 175.103C103.39 175.982 98.0843 177.274 93.0438 178.777C92.0908 179.063 91.1166 178.481 90.8836 177.507C90.8836 177.496 90.8836 177.486 90.8836 177.475C90.6718 176.585 91.2013 175.675 92.0696 175.41H92.059Z" fill="#FFFBF5" stroke="#E6BCA5" stroke-width="0.69" stroke-miterlimit="10"/>
<path d="M89.4189 163.863C95.2537 162.148 100.686 160.93 105.578 160.157C105.854 161.248 106.161 162.36 106.5 163.514C101.131 164.382 95.6349 165.695 90.4037 167.241C89.4719 167.517 88.5083 166.956 88.2647 166.013C88.2647 166.003 88.2647 165.992 88.2647 165.981C88.0317 165.071 88.5506 164.139 89.4401 163.874L89.4189 163.863Z" fill="#FFFBF5" stroke="#E6BCA5" stroke-width="0.69" stroke-miterlimit="10"/>
<path d="M87.9687 151.916C92.9774 150.73 97.6685 149.904 101.957 149.375C102.889 149.258 103.726 149.925 103.842 150.878C103.842 150.889 103.842 150.899 103.842 150.91C103.948 151.842 103.291 152.7 102.37 152.816C97.8379 153.398 93.2316 154.277 88.7734 155.347C87.8416 155.569 86.9097 154.987 86.6979 154.034C86.6979 154.023 86.6979 154.013 86.6979 154.002C86.4967 153.07 87.058 152.138 87.9792 151.927L87.9687 151.916Z" fill="#FFFBF5" stroke="#E6BCA5" stroke-width="0.69" stroke-miterlimit="10"/>
<path d="M87.1771 140.58C92.5141 139.606 97.4594 139.023 101.896 138.748C102.743 138.695 103.442 139.383 103.421 140.241C103.421 140.421 103.421 140.601 103.411 140.781C103.4 141.533 102.807 142.147 102.066 142.19C97.3535 142.507 92.5036 143.164 87.7807 144.032C86.8277 144.201 85.9276 143.556 85.7793 142.592C85.7793 142.581 85.7793 142.571 85.7793 142.56C85.6311 141.618 86.2558 140.739 87.1771 140.58Z" fill="#FFFBF5" stroke="#E6BCA5" stroke-width="0.69" stroke-miterlimit="10"/>
<path d="M87.1737 129.733C92.7861 128.727 97.9749 128.145 102.592 127.901C103.471 127.859 104.18 128.611 104.106 129.49C104.085 129.67 104.074 129.85 104.064 130.03C104 130.75 103.428 131.311 102.719 131.343C97.816 131.629 92.7437 132.285 87.8091 133.185C86.8137 133.365 85.8924 132.656 85.7865 131.629C85.7865 131.618 85.7865 131.607 85.7865 131.597C85.7018 130.697 86.316 129.881 87.1843 129.722L87.1737 129.733Z" fill="#FFFBF5" stroke="#E6BCA5" stroke-width="0.69" stroke-miterlimit="10"/>
<path d="M88.4668 117.929C94.0368 117.294 99.1727 117.05 103.747 117.093C104.594 117.093 105.251 117.844 105.166 118.702L105.113 119.242C105.039 119.994 104.414 120.545 103.673 120.545C98.9291 120.523 93.7191 120.841 88.8586 121.381C87.895 121.487 87.0373 120.767 86.9737 119.782C86.9737 119.772 86.9737 119.75 86.9737 119.74C86.9208 118.829 87.5667 118.024 88.4668 117.919V117.929Z" fill="#FFFBF5" stroke="#E6BCA5" stroke-width="0.69" stroke-miterlimit="10"/>
<path d="M86.6697 121.677C90.7361 121.148 94.9294 120.777 99.0699 120.619C99.4511 118.109 101.781 116.552 103.814 116.171C108.59 115.292 109.447 122.069 112.656 123.817C117.411 126.4 115.822 128.645 112.582 127.322C108.283 125.564 106.514 124.05 104.597 124.282C104.502 125.214 104.417 126.125 104.333 127.015C104.29 127.48 103.92 127.84 103.454 127.862C98.551 128.073 92.9916 128.677 86.9239 129.778C85.5684 130.022 84.3507 128.899 84.4777 127.502C84.5942 126.157 84.7213 124.823 84.8801 123.509C84.9966 122.556 85.7379 121.805 86.6697 121.677Z" fill="#FFFBF5" stroke="#E6BCA5" stroke-width="0.69" stroke-miterlimit="10"/>
<path d="M86.2018 133.49C89.9716 132.759 93.8473 132.166 97.6912 131.764C97.7336 129.36 99.6714 127.486 101.525 126.755C106.057 124.965 108.164 131.467 111.637 132.558C116.784 134.178 115.64 136.688 112.22 136.01C107.582 135.089 105.57 133.913 103.706 134.602C103.642 135.597 103.579 136.571 103.526 137.514C103.494 138.17 102.986 138.689 102.34 138.721C97.7654 138.986 92.6613 139.568 87.1336 140.585C85.5135 140.881 84.0098 139.621 84.0204 137.948C84.0204 137.323 84.0204 136.698 84.0416 136.084C84.0627 134.814 84.9628 133.733 86.1912 133.5L86.2018 133.49Z" fill="#FFFBF5" stroke="#E6BCA5" stroke-width="0.69" stroke-miterlimit="10"/>
<path d="M85.8829 144.399C89.6633 143.658 93.5707 143.033 97.4358 142.609C97.5311 140.587 98.9395 138.818 100.433 137.908C104.605 135.377 107.76 141.423 111.35 141.91C116.698 142.63 115.978 145.299 112.494 145.214C107.379 145.087 105.261 144.145 103.451 145.553C103.472 146.104 103.482 146.665 103.514 147.216C103.578 148.306 102.805 149.259 101.735 149.397C97.6582 149.905 93.2213 150.689 88.4879 151.79C86.4547 152.267 84.5063 150.763 84.358 148.656C84.3156 147.946 84.2627 147.247 84.2309 146.548C84.178 145.521 84.8769 144.6 85.8723 144.409L85.8829 144.399Z" fill="#FFFBF5" stroke="#E6BCA5" stroke-width="0.69" stroke-miterlimit="10"/>
<path d="M88.1607 155.477C91.2846 154.725 94.4931 154.047 97.6911 153.507C97.5323 151.357 98.9195 149.366 100.444 148.329C104.489 145.586 107.931 151.463 111.553 151.77C116.921 152.226 116.339 154.915 112.855 155.011C108.323 155.138 106.11 154.492 104.458 155.392C104.521 155.582 104.585 155.762 104.627 155.964C104.659 156.133 104.691 156.292 104.722 156.461C105.125 158.463 103.865 160.422 101.885 160.803C98.1994 161.512 94.2602 162.455 90.1197 163.652C88.0336 164.255 85.884 162.847 85.5875 160.665C85.5346 160.284 85.4816 159.892 85.4287 159.511C85.1851 157.658 86.3605 155.921 88.1501 155.487L88.1607 155.477Z" fill="#FFFBF5" stroke="#E6BCA5" stroke-width="0.69" stroke-miterlimit="10"/>
<path d="M89.792 167.414C92.9794 166.461 96.2621 165.603 99.566 164.862C99.6189 162.723 100.868 160.722 102.309 159.546C106.714 155.988 111.225 162.469 115.429 162.49C121.655 162.511 121.232 165.688 117.229 166.133C112.104 166.694 109.488 166.186 107.667 167.308C107.868 167.922 108.08 168.547 108.292 169.193C108.705 170.411 107.963 171.713 106.714 171.936C102.203 172.73 97.2681 173.874 92.0052 175.441C90.0673 176.013 88.0554 174.806 87.653 172.804C87.5577 172.359 87.4729 171.904 87.3882 171.459C87.0388 169.691 88.0871 167.944 89.7814 167.435L89.792 167.414Z" fill="#FFFBF5" stroke="#E6BCA5" stroke-width="0.69" stroke-miterlimit="10"/>
<path d="M92.5655 178.926C95.9011 177.92 99.3532 177.019 102.816 176.257C103.112 174.298 104.351 172.508 105.77 171.418C110.599 167.69 115.555 174.478 120.172 174.489C127.023 174.51 126.557 177.835 122.152 178.301C116.879 178.851 114.03 178.417 112.039 179.328C112.293 179.995 112.558 180.662 112.833 181.35C113.405 182.791 112.516 184.4 111.012 184.644C106.205 185.438 100.889 186.635 95.1916 188.318C93.222 188.901 91.1571 187.704 90.6382 185.692C90.437 184.93 90.2464 184.167 90.0558 183.415C89.5687 181.478 90.6805 179.497 92.5655 178.926Z" fill="#FFFBF5" stroke="#E6BCA5" stroke-width="0.69" stroke-miterlimit="10"/>
<path d="M96.7804 191.513C99.8831 190.613 103.081 189.798 106.279 189.099C106.66 187.118 107.973 185.339 109.445 184.228C114.698 180.288 120.088 187.468 125.096 187.478C132.541 187.5 132.032 191.015 127.246 191.502C122.343 192 119.367 191.735 117.26 192.254C117.62 193.123 117.98 194.001 118.361 194.902C119.209 196.935 117.948 199.233 115.799 199.593C111.055 200.376 105.803 201.562 100.19 203.214C97.977 203.871 95.6579 202.6 94.9379 200.376C94.5672 199.243 94.2178 198.11 93.8683 196.998C93.1483 194.658 94.4613 192.201 96.7804 191.524V191.513Z" fill="#FFFBF5" stroke="#E6BCA5" stroke-width="0.69" stroke-miterlimit="10"/>
<path d="M101.756 206.407C105.663 205.274 109.698 204.268 113.722 203.485C114.039 201.409 115.416 199.503 116.899 198.243C121.568 194.325 129.15 199.259 133.693 201.42C139.888 204.374 139.263 208.642 133.598 206.153C127.954 203.665 125.285 204.723 123.252 206.598C123.549 207.307 123.845 208.017 124.152 208.747C125.052 210.876 123.898 213.333 121.706 213.957C117.11 215.26 111.964 217.071 106.457 219.464C104.276 220.417 101.745 219.337 100.877 217.092L100.792 216.859C100.157 215.228 99.5532 213.597 98.9602 211.988C98.1025 209.658 99.405 207.085 101.756 206.397V206.407Z" fill="#FFFBF5" stroke="#E6BCA5" stroke-width="0.69" stroke-miterlimit="10"/>
<path d="M107.645 223.731C111.161 222.174 114.793 220.744 118.404 219.527C118.383 216.837 120.088 214.295 121.952 212.696C127.045 208.344 135.294 213.819 140.239 216.223C146.985 219.495 146.296 224.249 140.133 221.475C134.447 218.912 131.524 219.738 129.364 221.528C129.735 222.46 130.095 223.402 130.465 224.345C131.365 226.674 130.137 229.29 127.776 230.01C123.138 231.429 118.023 233.346 112.58 235.813C110.335 236.83 107.719 235.697 106.883 233.346C106.385 231.927 105.877 230.529 105.379 229.142C104.606 227.024 105.591 224.652 107.635 223.752L107.645 223.731Z" fill="#FFFBF5" stroke="#E6BCA5" stroke-width="0.69" stroke-miterlimit="10"/>
<path d="M113.618 240.144C116.763 238.693 120.024 237.317 123.307 236.099C122.926 232.234 125.901 229.11 128.771 227.606C135.093 224.292 142.294 232.255 146.836 236.088C153.01 241.319 151.146 246.18 145.449 241.648C140.991 238.1 138.005 237.634 135.58 238.386C136.194 240.197 136.819 242.018 137.412 243.861C138.248 246.476 136.755 249.261 134.14 249.96C129.607 251.178 124.588 252.851 119.241 255.033C116.657 256.091 113.755 254.673 112.95 251.962C112.347 249.928 111.733 247.917 111.108 245.926C110.388 243.628 111.457 241.139 113.618 240.144Z" fill="#FFFBF5" stroke="#E6BCA5" stroke-width="0.69" stroke-miterlimit="10"/>
<path d="M123.264 259.842C122.512 259.567 121.76 259.302 121.008 259.048C123.91 257.862 126.885 256.75 129.861 255.765C130.136 251.837 133.133 248.797 135.992 247.325C141.552 244.456 147.46 250.121 152.003 254.823C142.102 255.299 132.519 256.962 123.264 259.842Z" fill="#FFFBF5" stroke="#E6BCA5" stroke-width="0.69" stroke-miterlimit="10"/>
<path d="M23.7755 65.6796C26.0734 56.541 24.8344 42.1818 27.6194 37.0778C29.6632 33.3185 49.7829 13.4635 75.7162 7.21582C72.783 17.5934 65.2222 43.9291 62.5219 53.5865C60.5523 50.4733 52.2608 49.5944 48.7134 53.5018C47.2521 55.1114 46.9026 58.1823 47.3474 61.5497C45.0177 61.5497 39.1195 62.651 37.3722 64.0594C35.1379 58.9447 31.4634 55.0055 29.6738 57.0493C28.6043 58.2776 28.0007 61.1579 27.7253 64.3877C27.2912 69.6506 27.7465 75.803 28.4666 77.2008C28.5619 77.2855 28.6466 77.3702 28.7525 77.4761C29.2714 77.995 29.9703 78.4185 30.7539 78.715C30.7539 78.715 30.7751 78.7256 30.7962 78.7256C33.3059 79.6681 36.7263 79.2974 38.2723 76.3536C38.6959 75.5488 38.9712 74.6487 39.1195 73.6851C46.5532 81.4153 53.8492 90.9457 53.8492 90.9457C53.8492 90.9457 54.7705 97.3099 55.6494 104.098C56.4119 110.028 57.1319 116.286 57.1637 118.912C48.5652 122.036 25.7134 123.381 13.3238 119.378C14.1074 114.115 15.0923 114.179 15.1664 112.357C15.2405 110.536 13.6945 110.737 12.8897 108.302C16.1936 108.905 18.0784 105.94 18.2691 101.726C18.4597 97.5217 15.8229 89.8127 11.153 83.7026C15.9288 79.0857 19.8786 73.6004 23.7649 65.6796H23.7755Z" fill="#FFFBF5"/>
<path d="M23.4593 65.5654C24.4971 61.425 24.8041 56.2468 25.1006 51.2381C25.4501 45.3292 25.7784 39.7592 27.3244 36.9213C29.6858 32.5797 50.2503 13.0106 75.633 6.90051L76.1836 6.77344L76.0248 7.32408C74.7752 11.7292 72.6997 19.0147 70.5183 26.6708C67.5003 37.2284 64.3871 48.1354 62.8304 53.6948L62.6292 54.4043L62.2374 53.7795C61.4115 52.477 59.3042 51.524 56.7416 51.291C54.2531 51.0686 50.8857 51.5981 48.9478 53.7372C47.6665 55.1455 47.2006 57.9835 47.6665 61.5097L47.7195 61.8909H47.3383C45.0615 61.8909 39.2268 62.9922 37.5643 64.3265L37.236 64.5912L37.0666 64.1994C35.3299 60.2178 32.8097 57.1363 31.0624 56.861C30.5965 56.7869 30.2259 56.9245 29.9082 57.2846C29.0081 58.3223 28.341 60.8532 28.0445 64.4324C27.6209 69.6106 28.0657 75.6147 28.7328 77.0125C28.8175 77.0866 28.8916 77.1714 28.9763 77.2561C29.4634 77.7326 30.0988 78.135 30.8401 78.4103L30.9036 78.4315C33.2756 79.321 36.5053 79.0139 37.9773 76.2183C38.3691 75.4771 38.6444 74.6087 38.7927 73.6557L38.8986 72.9992L39.3539 73.4757C46.7135 81.1318 54.0413 90.6728 54.1154 90.7681L54.1684 90.8422V90.9269C54.1896 90.9904 55.1108 97.3652 55.9791 104.079C56.9745 111.873 57.4722 116.733 57.4934 118.925V119.169L57.271 119.253C52.4847 120.99 43.039 122.197 33.4662 122.197C26.096 122.197 18.6517 121.477 13.2194 119.719L12.9547 119.635L12.997 119.349C13.463 116.204 14.003 114.944 14.3948 114.033C14.649 113.44 14.8184 113.048 14.8396 112.36C14.8713 111.566 14.5537 111.237 14.0771 110.761C13.59 110.274 12.997 109.67 12.584 108.431L12.404 107.891L12.9547 107.986C14.0666 108.188 15.0302 107.965 15.8244 107.319C17.0739 106.303 17.8258 104.322 17.9422 101.728C18.1223 97.81 15.7079 90.228 10.9003 83.9274L10.7203 83.6838L10.9321 83.472C15.8456 78.728 19.7107 73.2004 23.4699 65.576L23.4593 65.5654ZM18.5988 101.749C18.4717 104.534 17.6352 106.694 16.2268 107.838C15.422 108.495 14.4689 108.791 13.3994 108.706C13.7383 109.469 14.1513 109.882 14.5325 110.263C15.0514 110.782 15.5385 111.28 15.4961 112.37C15.4643 113.175 15.2526 113.662 14.9984 114.276C14.6384 115.134 14.1407 116.299 13.6959 119.147C26.0113 123.002 48.3336 121.647 56.8263 118.671C56.7733 116.394 56.2756 111.64 55.3226 104.142C54.5072 97.8629 53.6495 91.88 53.533 91.0858C52.8659 90.228 46.1734 81.5765 39.3221 74.3864C39.1527 75.17 38.888 75.8795 38.5597 76.5254C36.9183 79.6599 33.3497 80.0411 30.7236 79.0668H30.6283L30.5859 79.0139C29.7811 78.7068 29.0716 78.2621 28.5316 77.722C28.4363 77.6267 28.341 77.542 28.2563 77.4573L28.1927 77.3726C27.3879 75.8159 26.9961 69.3776 27.4091 64.3794C27.6315 61.7533 28.161 58.3117 29.4317 56.8398C29.887 56.3104 30.5012 56.0986 31.1789 56.2045C33.0956 56.5116 35.6688 59.5083 37.5113 63.5641C39.5445 62.2933 44.5956 61.3297 46.9782 61.2344C46.5652 57.634 47.0841 54.8173 48.4713 53.2924C50.2609 51.3228 53.3742 50.3274 56.8157 50.6239C59.2301 50.8357 61.2844 51.6828 62.3857 52.8688C63.9953 47.14 66.992 36.6354 69.8935 26.4696C71.9902 19.1206 73.9916 12.1211 75.2517 7.67353C49.0749 14.186 29.5905 34.1575 27.9174 37.2284C26.4455 39.9287 26.1172 45.4351 25.7784 51.2593C25.4819 56.3104 25.1748 61.5415 24.1052 65.7561L24.0841 65.8196C20.3354 73.4333 16.4809 78.961 11.6098 83.7262C16.3962 90.1115 18.7894 97.7359 18.6094 101.728L18.5988 101.749Z" fill="#E6BCA5"/>
<path d="M62.5249 53.5878C62.5249 53.5878 62.5779 53.6619 62.599 53.6937C62.7685 53.9902 62.9167 54.4456 63.0332 55.028C64.071 60.1214 62.8426 74.7771 56.8596 75.6984C56.8384 75.6984 56.8173 75.6984 56.7961 75.6984C56.0866 75.7937 55.3771 75.6772 54.6994 75.3807C52.0732 74.5335 50.1566 71.1661 48.907 67.6399C48.907 67.6081 48.8964 67.5975 48.8858 67.5657C48.1446 65.6279 47.6151 63.5312 47.3504 61.551C46.9056 58.1836 47.2551 55.1233 48.7164 53.5031C52.2638 49.5956 60.5553 50.4746 62.5249 53.5878Z" fill="#FFFBF5"/>
<path d="M56.8061 50.6238C59.57 50.8673 61.8573 51.9369 62.7785 53.3876C62.8103 53.43 62.8527 53.4829 62.8739 53.5359C63.0539 53.8641 63.2127 54.3407 63.3504 54.9654C64.134 58.8517 63.6257 68.8481 60.4171 73.5285C59.4217 74.9899 58.2357 75.8264 56.8379 76.0382C56.6579 76.0594 56.4779 76.0806 56.2979 76.0806C55.726 76.0806 55.1542 75.9535 54.6036 75.7099C51.628 74.7569 49.7007 70.86 48.61 67.7573L48.5888 67.6938C47.837 65.7242 47.2969 63.6169 47.0322 61.6049C46.5345 57.8245 47.0534 54.8701 48.4829 53.2923C50.2725 51.3227 53.3858 50.3273 56.8273 50.6238H56.8061ZM47.6676 61.5096C47.9323 63.4687 48.4512 65.523 49.1712 67.4185C49.203 67.4714 49.2136 67.5244 49.2136 67.5244C50.2513 70.4788 52.0727 74.1851 54.8259 75.0746C55.4719 75.3605 56.1178 75.4558 56.7956 75.3605C57.9392 75.1805 58.977 74.4286 59.8665 73.1367C62.9691 68.6045 63.4669 58.8729 62.6938 55.0925C62.5774 54.5313 62.4503 54.1183 62.302 53.8641C62.2914 53.843 62.2703 53.8112 62.2385 53.7688C61.4125 52.4663 59.3052 51.5133 56.7426 51.2803C56.4038 51.2486 56.0437 51.238 55.6837 51.238C53.3646 51.238 50.622 51.8839 48.9489 53.7371C47.6675 55.1454 47.2016 57.9834 47.6676 61.5096Z" fill="#E6BCA5"/>
<path d="M32.5697 123.137C32.6015 124.292 32.6332 125.372 32.6121 125.742C32.5697 126.484 32.3791 127.204 30.4624 127.204C30.3777 127.204 30.293 127.204 30.1977 127.204C28.0057 127.14 27.9633 126.049 27.921 125.16C27.8998 124.525 27.8574 122.979 27.8363 121.697C29.3823 121.782 30.9601 121.835 32.5379 121.846C32.5485 122.258 32.5591 122.703 32.5697 123.137Z" fill="#FFFBF5"/>
<path d="M37.5975 122.652C37.6293 123.795 37.6611 124.886 37.6399 125.246C37.5975 125.987 37.4069 126.718 35.5009 126.718C35.4161 126.718 35.3208 126.718 35.2255 126.718C33.0335 126.654 32.9912 125.564 32.9488 124.674C32.9276 124.145 32.8959 122.98 32.8747 121.857C34.4525 121.868 36.0303 121.847 37.5764 121.783C37.5764 122.069 37.5869 122.366 37.5975 122.652Z" fill="#FFFBF5"/>
<path d="M43.2304 122.006C43.2728 123.192 43.294 124.314 43.2728 124.695C43.2304 125.437 43.0081 126.167 40.8584 126.167C40.7631 126.167 40.6678 126.167 40.5619 126.167C38.1052 126.093 38.0522 125.013 37.9993 124.113C37.9675 123.668 37.9464 122.736 37.9252 121.773C39.7254 121.709 41.4938 121.603 43.2093 121.455C43.2093 121.635 43.2093 121.826 43.2199 122.016L43.2304 122.006Z" fill="#FFFBF5"/>
<path d="M49.31 121.483C49.3417 122.659 49.3841 123.866 49.3523 124.258C49.3099 124.967 49.0664 125.719 46.7262 125.719C46.6203 125.719 46.5144 125.719 46.3979 125.719C43.7188 125.645 43.6658 124.554 43.6129 123.665C43.5917 123.241 43.5599 122.351 43.5388 121.409C45.5613 121.229 47.4992 120.996 49.2782 120.721C49.2782 120.975 49.2888 121.229 49.2994 121.483H49.31Z" fill="#FFFBF5"/>
<path d="M27.5279 123.143C27.5491 124.329 27.5809 125.451 27.5597 125.832C27.5279 126.574 27.3373 127.304 25.5901 127.304C25.516 127.304 25.4312 127.304 25.3571 127.304C23.3557 127.23 23.3028 126.15 23.271 125.25C23.2392 124.53 23.1969 122.656 23.1863 121.321C24.5947 121.48 26.0454 121.607 27.5067 121.681C27.5173 122.147 27.5279 122.645 27.5385 123.153L27.5279 123.143Z" fill="#FFFBF5"/>
<path d="M22.6991 121.274C22.6991 121.74 22.7203 122.259 22.7309 122.778C22.7626 123.974 22.7944 125.086 22.7732 125.467C22.7308 126.209 22.5508 126.939 20.7612 126.939C20.6871 126.939 20.5918 126.939 20.5177 126.939C18.4634 126.876 18.421 125.785 18.3786 124.895C18.3469 124.175 18.3574 122.057 18.3574 120.628C19.7447 120.893 21.206 121.115 22.7097 121.284L22.6991 121.274Z" fill="#FFFBF5"/>
<path d="M17.9434 122.197C17.9646 123.383 17.9964 124.505 17.9752 124.886C17.9328 125.628 17.7528 126.348 15.9632 126.348H15.7197C13.6653 126.273 13.6124 125.183 13.5806 124.293C13.5594 123.531 13.5594 121.169 13.5594 119.761V119.443C14.9043 119.867 16.3656 120.238 17.9117 120.534C17.9222 121.042 17.9328 121.625 17.954 122.197H17.9434Z" fill="#FFFBF5"/>
<path d="M30.0141 127.603H30.2682C32.1849 127.603 32.3755 128.323 32.4178 129.064C32.439 129.434 32.4178 130.515 32.3755 131.658C32.3649 132.357 32.3437 133.067 32.3331 133.649C30.7659 133.776 29.1881 133.871 27.6315 133.946C27.6315 132.59 27.695 130.43 27.7268 129.646C27.7691 128.767 27.8115 127.677 30.0035 127.603H30.0141Z" fill="#FFFBF5"/>
<path d="M35.0341 127.11H35.2988C37.2155 127.11 37.4061 127.83 37.4485 128.582C37.4697 128.963 37.4485 130.086 37.4061 131.272C37.3955 131.928 37.3744 132.596 37.3638 133.157C35.8389 133.347 34.2505 133.506 32.6621 133.644C32.6621 132.31 32.7256 129.991 32.7574 129.165C32.7998 128.286 32.8527 127.195 35.0341 127.121V127.11Z" fill="#FFFBF5"/>
<path d="M40.3611 126.553C40.467 126.553 40.5623 126.553 40.6576 126.553C42.8179 126.553 43.0297 127.283 43.072 128.014C43.0932 128.395 43.072 129.518 43.0296 130.704C43.0191 131.254 42.9979 131.805 42.9873 132.292C41.3565 132.589 39.5669 132.864 37.6926 133.086C37.6926 131.731 37.7562 129.391 37.8091 128.575C37.8515 127.707 37.915 126.616 40.3611 126.542V126.553Z" fill="#FFFBF5"/>
<path d="M46.1737 126.127C46.2901 126.127 46.396 126.127 46.4913 126.127C48.821 126.127 49.0645 126.847 49.1175 127.599C49.1387 127.98 49.1069 129.103 49.0645 130.289C49.0645 130.479 49.054 130.67 49.0434 130.86C47.5821 131.358 45.5912 131.835 43.2722 132.269C43.2828 130.903 43.3357 128.912 43.3887 128.192C43.431 127.313 43.4946 126.222 46.1737 126.148V126.127Z" fill="#FFFBF5"/>
<path d="M25.2077 127.852C25.2818 127.852 25.3771 127.852 25.4512 127.852C27.209 127.852 27.3891 128.572 27.4314 129.323C27.4526 129.705 27.4314 130.827 27.3891 132.013C27.3785 132.701 27.3573 133.411 27.3467 133.972C25.8642 134.025 24.4135 134.046 23.0263 134.036C23.0263 132.701 23.0792 130.668 23.111 129.895C23.1533 129.027 23.1957 127.936 25.2077 127.862V127.852Z" fill="#FFFBF5"/>
<path d="M20.5692 127.478H20.8021C22.5494 127.478 22.7294 128.198 22.7718 128.939C22.7929 129.331 22.7718 130.559 22.7294 131.734C22.7082 132.56 22.687 133.418 22.687 134.022C21.194 134.001 19.775 133.937 18.4513 133.831C18.4513 132.402 18.4513 130.252 18.4725 129.511C18.5148 128.632 18.5572 127.552 20.5586 127.478H20.5692Z" fill="#FFFBF5"/>
<path d="M15.9309 126.812C16.0156 126.812 16.1003 126.812 16.185 126.812C17.964 126.812 18.1546 127.532 18.1864 128.283C18.2076 128.675 18.1864 129.914 18.1652 131.238C18.1546 132.191 18.144 133.155 18.144 133.822C16.5027 133.673 15.0308 133.451 13.7918 133.133C13.7918 131.704 13.7918 129.586 13.813 128.855C13.8553 127.987 13.8977 126.896 15.9309 126.822V126.812Z" fill="#FFFBF5"/>
<path d="M63.031 55.0283C77.083 55.5154 98.3888 67.1108 101.47 83.9796C101.587 84.5938 101.682 85.1974 101.756 85.7904C103.927 102.077 94.2589 112.433 80.1857 113.09C76.6171 110.411 73.7898 92.4405 66.4196 92.4299C65.8478 92.4299 65.3289 92.5146 64.8418 92.684C62.3851 88.9036 58.7105 80.4957 56.8045 75.7093C56.8256 75.7093 56.8468 75.7093 56.868 75.7093C62.851 74.788 64.0793 60.1324 63.0416 55.0389L63.031 55.0283Z" fill="#FFFBF5"/>
<path d="M59.8744 73.1428C62.977 68.6105 63.4747 58.8789 62.7017 55.0985L62.617 54.6855H63.0406C70.3896 54.9503 79.1787 58.0847 86.5489 63.0829C94.9674 68.8011 100.389 76.1925 101.798 83.9227C101.914 84.5687 102.009 85.1828 102.094 85.7547C103.142 93.612 101.512 100.421 97.3924 105.44C93.432 110.258 87.3325 113.096 80.2059 113.435H80.0894L79.9941 113.372C78.6069 112.323 77.3891 109.263 75.9807 105.705C73.6934 99.9444 70.8555 92.786 66.4186 92.7754C65.8997 92.7754 65.402 92.8601 64.9467 93.0084L64.7031 93.0931L64.5654 92.8813C61.9499 88.8362 58.1377 79.9729 56.4964 75.843L56.3269 75.3771H56.814C57.9577 75.1971 58.9954 74.4453 59.8849 73.1534L59.8744 73.1428ZM64.9784 92.2883C65.4338 92.1612 65.9209 92.0977 66.4186 92.0977C71.3003 92.0977 74.2335 99.4996 76.5843 105.451C77.8657 108.691 79.0834 111.751 80.2906 112.757C87.1737 112.408 93.0719 109.655 96.8841 105.006C100.887 100.135 102.454 93.5061 101.438 85.8394C101.363 85.2781 101.268 84.6746 101.152 84.0392C98.1125 67.3928 76.9444 56.0622 63.4324 55.3844C64.1101 59.5249 63.5171 69.0023 60.425 73.524C59.5143 74.8476 58.466 75.663 57.2588 75.9595C58.9425 80.1317 62.4793 88.3279 64.989 92.2883H64.9784Z" fill="#E6BCA5"/>
<path d="M80.8123 6.16407C90.7346 4.53331 101.366 5.06278 112.051 9.29852C136.576 19.0195 147.959 41.0242 147.176 62.457C136.385 72.951 116.212 81.486 101.758 85.7747C101.684 85.1817 101.578 84.5675 101.472 83.9639C98.3906 67.0951 77.0849 55.4998 63.0328 55.0127C62.9164 54.4409 62.7681 53.9855 62.5987 53.6784C62.5775 53.6467 62.5563 53.6043 62.5245 53.5725C65.2248 43.9045 72.7856 17.5794 75.7189 7.20182C77.392 6.79943 79.0969 6.44998 80.8123 6.17466V6.16407Z" fill="#FFFBF5"/>
<path d="M69.8952 26.4553C72.0872 18.7992 74.1628 11.5138 75.4017 7.10859L75.4547 6.91798L75.6453 6.87562C77.3713 6.46264 79.0868 6.11319 80.7599 5.83787C91.7622 4.02709 102.33 5.09661 112.168 8.99349C139.277 19.7311 148.193 43.663 147.505 62.4697V62.6073L147.399 62.7026C140.336 69.5751 124.663 79.3279 101.843 86.105L101.473 86.211L101.42 85.8297C101.346 85.2685 101.25 84.6649 101.134 84.0295C98.0629 67.2137 76.4924 55.8195 63.0016 55.3536H62.7474L62.6945 55.0889C62.578 54.5276 62.451 54.1147 62.3027 53.8605C62.2921 53.8393 62.2709 53.8076 62.2497 53.7864L62.1439 53.6487L62.1862 53.4793C63.7428 47.9199 66.8561 37.0023 69.8741 26.4447L69.8952 26.4553ZM63.2981 54.6971C70.5942 55.0148 79.2668 58.128 86.5523 63.0732C94.9708 68.7915 100.393 76.1828 101.801 83.9131C101.896 84.4108 101.97 84.8979 102.044 85.3638C124.441 78.6608 139.848 69.0986 146.869 62.3214C147.505 43.7583 138.662 20.2182 111.946 9.62885C102.225 5.77433 91.7728 4.72599 80.8764 6.51559C79.2774 6.78032 77.6361 7.10859 75.9947 7.50039C74.7452 11.9267 72.6908 19.1063 70.5412 26.6565C67.555 37.1188 64.4629 47.9305 62.8957 53.5322C63.0545 53.8076 63.1922 54.1994 63.3087 54.7077L63.2981 54.6971Z" fill="#E6BCA5"/>
<path d="M101.757 85.7894C116.212 81.5007 136.385 72.9657 147.175 62.4717C146.805 72.7645 143.617 82.9409 137.729 91.5394C120.172 117.208 86.2229 115.514 80.8118 113.417C80.6318 113.353 80.4835 113.279 80.3776 113.216C80.3141 113.173 80.2505 113.131 80.187 113.089C94.2708 112.422 103.928 102.076 101.757 85.7894Z" fill="#FFFBF5"/>
<path d="M96.8871 104.997C100.89 100.126 102.457 93.4973 101.441 85.8306L101.398 85.5447L101.674 85.46C124.377 78.7146 139.943 69.0359 146.954 62.2164L147.536 61.6445L147.504 62.4705C147.112 73.081 143.83 83.1938 137.995 91.7183C128.592 105.463 114.741 110.991 104.776 113.204C99.4074 114.401 94.3563 114.824 90.237 114.824C85.6095 114.824 82.1468 114.295 80.6855 113.723C80.4949 113.649 80.3254 113.575 80.1984 113.501C80.1242 113.458 80.0607 113.416 79.9866 113.363L79.203 112.802L80.1666 112.759C87.1026 112.431 93.0432 109.678 96.8766 105.008L96.8871 104.997ZM104.649 112.558C114.497 110.366 128.179 104.913 137.465 91.3476C143.078 83.1515 146.297 73.4622 146.816 63.2753C139.52 70.0736 124.176 79.4452 102.129 86.0318C103.103 93.762 101.462 100.465 97.3954 105.431C93.6998 109.932 88.1404 112.706 81.6173 113.331C85.0377 114.274 94.1869 114.888 104.66 112.569L104.649 112.558Z" fill="#E6BCA5"/>
<path d="M50.2506 216.711C51.9343 216.308 53.6286 217.367 54.031 219.083C54.7723 222.27 62.2166 224.706 76.7981 222.493C98.0721 219.263 115.862 209.394 115.492 203.58C115.386 201.822 116.699 200.308 118.425 200.191C120.151 200.086 121.644 201.42 121.76 203.178C122.131 209.002 116.953 214.773 106.787 219.856C98.6545 223.933 87.7899 227.268 77.7194 228.804C73.6848 229.418 69.9998 229.715 66.7065 229.715C56.0007 229.715 49.3188 226.548 47.921 220.555C47.5186 218.839 48.5669 217.124 50.2506 216.711Z" fill="#FFFBF5" stroke="#E6BCA5" stroke-width="0.69" stroke-miterlimit="10"/>
<path d="M40.0119 236.784C41.6744 236.275 43.4217 237.228 43.9299 238.912C47.4244 250.592 70.6151 245.477 77.6464 243.624C88.617 240.744 100.53 235.746 109.52 230.282C119.178 224.405 122.28 219.851 121.963 218.369C121.603 216.643 122.683 214.948 124.377 214.578C126.071 214.207 127.745 215.308 128.105 217.024C129.269 222.541 124.102 228.842 112.75 235.756C103.273 241.528 90.7348 246.78 79.2242 249.808C71.7799 251.767 65.1616 252.731 59.4963 252.731C47.8586 252.731 40.2766 248.654 37.9152 240.776C37.4069 239.092 38.3494 237.302 40.0119 236.794V236.784Z" fill="#FFFBF5" stroke="#E6BCA5" stroke-width="0.69" stroke-miterlimit="10"/>
<path d="M133.917 257.109C135.061 255.34 135.008 254.525 134.997 254.419C134.764 252.672 135.971 251.062 137.687 250.829C139.402 250.596 140.991 251.814 141.224 253.561C141.319 254.303 141.298 255.065 141.16 255.849C138.724 256.188 136.31 256.611 133.917 257.109Z" fill="#FFFBF5" stroke="#E6BCA5" stroke-width="0.69" stroke-miterlimit="10"/>
<path d="M112.263 256.646C109.139 255.957 105.962 255.449 102.743 255.11C121.433 243.938 127.702 236.155 127.681 234.313C127.437 232.565 128.623 230.945 130.339 230.702C132.054 230.448 133.653 231.655 133.897 233.402C134.235 235.763 133.219 238.39 130.794 241.408C127.225 245.845 120.459 251.287 112.273 256.646H112.263Z" fill="#FFFBF5" stroke="#E6BCA5" stroke-width="0.69" stroke-miterlimit="10"/>
<path d="M29.1035 258.298C29.0505 256.721 30.1412 255.302 31.719 255.047C33.4345 254.762 35.0441 255.948 35.33 257.684C35.4041 258.161 35.5206 258.701 35.6583 259.273C33.498 258.86 31.306 258.542 29.1035 258.298Z" fill="#FFFBF5" stroke="#E6BCA5" stroke-width="0.69" stroke-miterlimit="10"/>
<path d="M13.6362 133.086C22.9124 135.522 46.5584 132.769 50.9212 130.026C56.1841 126.711 56.0147 117.308 54.7228 110.192C53.4415 103.076 54.9875 99.0204 56.9677 98.5121C60.7164 97.559 59.0221 105.279 64.1261 106.263C69.2302 107.248 74.2495 89.6276 78.8982 93.8528C82.5516 97.1778 75.0331 102.981 73.9636 109.726C72.8941 116.472 75.3826 129.242 69.2196 137.566C63.5225 145.264 52.4567 143.75 42.2485 146.852C32.0404 149.966 22.8171 154.498 17.5118 150.273C13.9115 147.403 15.8493 142.108 15.6269 140.043C15.4046 137.979 14.0174 134.95 13.6467 133.086H13.6362Z" fill="#FFFBF5"/>
<path d="M50.7387 129.731C56.5522 126.067 55.2286 114.885 54.392 110.236C53.1001 103.057 54.6673 98.7362 56.8805 98.175C58.9772 97.6455 59.6232 99.5093 60.2585 101.309C60.9362 103.247 61.7093 105.439 64.1766 105.916C66.3474 106.339 68.677 102.792 70.9326 99.361C73.0293 96.163 75.0095 93.1345 77.085 92.8697C77.8051 92.7744 78.4828 93.018 79.1075 93.5898C81.4266 95.7077 79.69 98.6303 77.678 102.008C76.2908 104.349 74.713 106.996 74.2682 109.76C73.9611 111.708 73.9505 114.239 73.9399 116.918C73.9188 123.536 73.887 131.775 69.4607 137.747C65.5108 143.084 59.0302 144.08 52.1789 145.149C48.9385 145.647 45.5817 146.166 42.3202 147.161C40.3717 147.754 38.4445 148.4 36.5913 149.036C31.5085 150.751 26.8597 152.318 23.0158 152.318C20.8238 152.318 18.886 151.81 17.287 150.529C14.449 148.263 14.8726 144.556 15.1585 142.089C15.2538 141.263 15.3385 140.554 15.2856 140.066C15.1691 138.912 14.6608 137.44 14.1737 136.011C13.8137 134.952 13.4748 133.956 13.3054 133.141L13.1995 132.612L13.7078 132.749C22.9946 135.195 46.4818 132.4 50.7387 129.731ZM14.7985 135.799C15.2962 137.26 15.8151 138.775 15.9421 140.003C16.0057 140.564 15.921 141.305 15.8151 142.174C15.5397 144.62 15.1585 147.977 17.7 150.01C21.851 153.314 28.5858 151.037 36.4007 148.411C38.2645 147.786 40.1917 147.13 42.1507 146.537C45.4546 145.531 48.8326 145.012 52.0941 144.503C58.8184 143.466 65.1614 142.481 68.9524 137.366C73.2516 131.574 73.2728 123.462 73.3046 116.939C73.3046 114.239 73.3258 111.676 73.6434 109.675C74.1094 106.784 75.719 104.073 77.1379 101.68C79.0758 98.4186 80.6006 95.8453 78.684 94.0981C78.2604 93.7169 77.8368 93.5263 77.3921 93.5263C77.3179 93.5263 77.2544 93.5263 77.1803 93.5369C75.4013 93.7698 73.4211 96.7984 71.4938 99.7316C69.1218 103.343 66.6757 107.081 64.0707 106.572C61.2327 106.022 60.3644 103.533 59.6549 101.532C58.956 99.5516 58.4901 98.4503 57.05 98.8209C55.1756 99.2975 53.8414 103.417 55.0486 110.12C55.9063 114.896 57.2511 126.417 51.0987 130.303C48.9703 131.648 42.1613 133.067 34.1664 133.829C25.8008 134.624 18.3671 134.518 14.089 133.543C14.269 134.211 14.5338 134.994 14.8091 135.81L14.7985 135.799Z" fill="#E6BCA5"/>
<path d="M28.4657 77.2007C28.561 77.2854 28.6457 77.3701 28.7516 77.476C29.2705 77.9949 29.9694 78.4185 30.753 78.715C30.753 78.715 30.7742 78.7256 30.7954 78.7256C33.305 79.668 36.7254 79.2974 38.2714 76.3535C38.695 75.5488 38.9703 74.6487 39.1186 73.685C39.4892 71.366 39.1186 68.6975 38.2185 66.2937C37.9749 65.5312 37.689 64.7794 37.3713 64.0487C39.1292 62.6509 45.0168 61.5391 47.3465 61.5391C47.6112 63.5193 48.1407 65.616 48.882 67.5538C48.8925 67.5856 48.9031 67.5962 48.9031 67.6279C50.1527 71.1542 52.0693 74.5216 54.6955 75.3687C55.3732 75.6652 56.0827 75.7923 56.7922 75.6864C58.7089 80.4728 62.3834 88.8807 64.8295 92.6611C60.7526 94.0483 59.0901 100.741 55.638 104.076C54.0072 105.644 51.9952 106.459 49.1361 105.633C39.4786 102.816 45.0486 94.4613 41.7553 89.7173C38.462 84.9733 30.2765 82.8554 27.2903 79.2656C27.0044 78.8209 26.6867 78.2914 26.602 77.6349C26.3796 76.0465 27.0997 75.93 28.4657 77.1901V77.2007Z" fill="#FFFBF5"/>
<path d="M26.6878 76.0996C27.1432 75.856 27.7997 76.1313 28.6892 76.9573C28.7845 77.0526 28.8798 77.1373 28.9751 77.2326C29.4622 77.7091 30.0976 78.1115 30.8389 78.3868L30.9024 78.408C33.2744 79.2975 36.5042 78.9904 37.9761 76.1949C38.3679 75.4536 38.6432 74.5853 38.7915 73.6216C39.1409 71.4614 38.8232 68.8247 37.902 66.3891C37.6796 65.6796 37.4042 64.9596 37.0654 64.176L36.9595 63.943L37.1607 63.7841C38.9927 62.3228 45.0286 61.2109 47.3476 61.2109H47.6336L47.6759 61.4969C47.9406 63.4559 48.4595 65.5102 49.1796 67.4057C49.2114 67.4587 49.222 67.5116 49.222 67.5116C50.2597 70.466 52.0811 74.1723 54.8343 75.0618C55.4802 75.3477 56.1262 75.4536 56.751 75.3583L57.0051 75.3265L57.1004 75.5701C58.7418 79.6788 62.5222 88.4891 65.1166 92.4919L65.3495 92.8519L64.9471 92.9896C62.6386 93.7732 61.1244 96.3781 59.5254 99.1314C58.4347 101.006 57.3122 102.944 55.8826 104.331C54.5166 105.654 53.0023 106.3 51.2975 106.3C50.588 106.3 49.8467 106.184 49.0631 105.961C42.7201 104.119 42.6989 99.7879 42.6777 95.9757C42.6672 93.7202 42.6566 91.5812 41.5023 89.9186C39.7339 87.3666 36.5253 85.5982 33.4121 83.8933C30.86 82.4849 28.4351 81.1507 27.0691 79.5093L27.0267 79.4564C26.7196 78.9799 26.3808 78.408 26.2854 77.688C26.2431 77.3703 26.1054 76.4066 26.6984 76.089L26.6878 76.0996ZM26.9314 77.6032C27.0055 78.1857 27.2914 78.6622 27.5456 79.0646C28.8481 80.6318 31.2095 81.9343 33.7086 83.3109C36.8854 85.0581 40.1681 86.8689 42.0212 89.548C43.2919 91.38 43.3025 93.7202 43.3131 95.9863C43.3343 99.915 43.3555 103.621 49.222 105.337C51.6575 106.046 53.6271 105.58 55.4061 103.865C56.7722 102.552 57.8734 100.646 58.9324 98.8137C60.4361 96.2193 61.9927 93.5402 64.3224 92.5236C61.7703 88.4255 58.2123 80.1659 56.571 76.0678C55.9038 76.1207 55.2261 75.9937 54.5907 75.7077C51.6151 74.7547 49.6879 70.8578 48.5972 67.7551L48.576 67.6916C47.8665 65.8173 47.337 63.8159 47.0617 61.8992C44.7109 61.9734 39.5963 62.9688 37.7749 64.176C38.0714 64.8854 38.3255 65.542 38.5267 66.1879C39.4904 68.7506 39.8186 71.4402 39.4374 73.7487C39.2786 74.7865 38.9821 75.7183 38.5479 76.5231C36.9066 79.6576 33.3379 80.0388 30.7118 79.0646H30.6165L30.5741 79.0116C29.7693 78.7045 29.0599 78.2598 28.5198 77.7197C28.4245 77.6244 28.3292 77.5397 28.2445 77.455C27.2914 76.5761 27.0055 76.6926 26.9949 76.6926C26.9526 76.7137 26.8361 76.9361 26.9314 77.6032Z" fill="#E6BCA5"/>
<path d="M35.671 259.264C32.8754 258.734 30.048 258.342 27.1783 258.088C37.5241 234.41 48.77 214.227 51.4914 213.094C54.4353 211.876 59.4017 213.761 57.6227 216.525C54.933 220.697 45.6144 235.544 35.671 259.264Z" fill="#FFFBF5" stroke="#E6BCA5" stroke-width="0.69" stroke-miterlimit="10"/>
<path d="M60.8118 207.955C64.6239 207.235 77.5217 201.951 86.7345 199.303C95.9472 196.656 114.404 195.883 116.967 194.962C118.788 194.316 123.278 193.363 121.605 195.862C120.726 197.164 120.599 198.329 117.719 199.494C110.571 202.364 99.5052 200.818 87.9628 203.772C76.431 206.727 66.4876 213.652 62.7602 216.543C61.373 217.623 54.8076 221.022 51.6731 215.272C48.5493 209.522 57.169 208.643 60.8329 207.955H60.8118Z" fill="#FFFBF5" stroke="#E6BCA5" stroke-width="0.69" stroke-miterlimit="10"/>
</svg>
