<svg width="7" height="22" viewBox="0 0 7 22" fill="none" xmlns="http://www.w3.org/2000/svg">
<path d="M3.49049 6.76923C7.96326 6.62792 7.96241 0.141308 3.49049 0C-0.982279 0.141308 -0.981433 6.62792 3.49049 6.76923ZM3.49049 1.69231C5.7218 1.75069 5.7218 5.01854 3.49049 5.07692C1.25918 5.01854 1.25918 1.75069 3.49049 1.69231Z" fill="black"/>
<path d="M4.44231 7.61523H2.53846C1.13892 7.61523 0 8.75416 0 10.1537V19.4614C0 20.8609 1.13892 21.9998 2.53846 21.9998H4.44231C5.84185 21.9998 6.98077 20.8609 6.98077 19.4614V10.1537C6.98077 8.75416 5.84185 7.61523 4.44231 7.61523ZM5.28846 19.4614C5.28846 19.9285 4.90938 20.3075 4.44231 20.3075H2.53846C2.07138 20.3075 1.69231 19.9285 1.69231 19.4614V10.1537C1.69231 9.68662 2.07138 9.30754 2.53846 9.30754H4.44231C4.90938 9.30754 5.28846 9.68662 5.28846 10.1537V19.4614Z" fill="black"/>
</svg>
