<svg width="27" height="27" viewBox="0 0 27 27" fill="none" xmlns="http://www.w3.org/2000/svg">
<rect width="27" height="27" rx="13.5" fill="#BCC9DB"/>
<path fill-rule="evenodd" clip-rule="evenodd" d="M11.0625 7H15.9375C18.1808 7 20 8.81919 20 11.0625V15.9375C20 18.1808 18.1808 20 15.9375 20H11.0625C8.81919 20 7 18.1808 7 15.9375V11.0625C7 8.81919 8.81919 7 11.0625 7ZM15.9375 18.7812C17.5056 18.7812 18.7812 17.5056 18.7812 15.9375V11.0625C18.7812 9.49437 17.5056 8.21875 15.9375 8.21875H11.0625C9.49437 8.21875 8.21875 9.49437 8.21875 11.0625V15.9375C8.21875 17.5056 9.49437 18.7812 11.0625 18.7812H15.9375Z" fill="white"/>
<path fill-rule="evenodd" clip-rule="evenodd" d="M10.25 13.5C10.25 11.7052 11.7052 10.25 13.5 10.25C15.2948 10.25 16.75 11.7052 16.75 13.5C16.75 15.2948 15.2948 16.75 13.5 16.75C11.7052 16.75 10.25 15.2948 10.25 13.5ZM11.4688 13.5C11.4688 14.6196 12.3804 15.5312 13.5 15.5312C14.6196 15.5312 15.5312 14.6196 15.5312 13.5C15.5312 12.3796 14.6196 11.4688 13.5 11.4688C12.3804 11.4688 11.4688 12.3796 11.4688 13.5Z" fill="white"/>
<circle cx="16.9936" cy="10.0063" r="0.433062" fill="white"/>
</svg>
