<svg width="164" height="33" viewBox="0 0 164 33" fill="none" xmlns="http://www.w3.org/2000/svg">
<path d="M150.542 21.894C150.57 23.182 150.906 24.12 151.55 24.708C152.222 25.268 153.174 25.548 154.406 25.548C157.01 25.548 159.334 25.464 161.378 25.296L162.554 25.17L162.638 29.328C159.418 30.112 156.506 30.504 153.902 30.504C150.738 30.504 148.442 29.664 147.014 27.984C145.586 26.304 144.872 23.574 144.872 19.794C144.872 12.262 147.966 8.49597 154.154 8.49597C160.258 8.49597 163.31 11.66 163.31 17.988L162.89 21.894H150.542ZM157.766 17.61C157.766 15.93 157.5 14.768 156.968 14.124C156.436 13.452 155.498 13.116 154.154 13.116C152.838 13.116 151.9 13.466 151.34 14.166C150.808 14.838 150.528 15.986 150.5 17.61H157.766Z" fill="#048AED"/>
<path d="M130.295 30V8.99997H135.881V11.226C138.233 9.82597 140.473 8.91597 142.601 8.49597V14.166C140.333 14.642 138.387 15.132 136.763 15.636L135.923 15.93V30H130.295Z" fill="#048AED"/>
<path d="M124.93 15.552V24.288C124.986 24.96 125.098 25.436 125.266 25.716C125.434 25.968 125.784 26.15 126.316 26.262L126.148 30.504C124.72 30.504 123.572 30.406 122.704 30.21C121.864 30.014 121.01 29.622 120.142 29.034C118.126 30.014 116.068 30.504 113.968 30.504C109.628 30.504 107.458 28.208 107.458 23.616C107.458 21.376 108.06 19.794 109.264 18.87C110.468 17.918 112.316 17.358 114.808 17.19L119.302 16.854V15.552C119.302 14.684 119.106 14.096 118.714 13.788C118.322 13.452 117.692 13.284 116.824 13.284L108.928 13.62L108.76 9.71397C111.756 8.90197 114.598 8.49597 117.286 8.49597C120.002 8.49597 121.948 9.05597 123.124 10.176C124.328 11.296 124.93 13.088 124.93 15.552ZM115.48 21.096C113.912 21.236 113.128 22.076 113.128 23.616C113.128 25.156 113.814 25.926 115.186 25.926C116.25 25.926 117.412 25.758 118.672 25.422L119.302 25.254V20.76L115.48 21.096Z" fill="#048AED"/>
<path d="M104.645 29.538C101.677 30.182 99.0032 30.504 96.6232 30.504C94.2432 30.504 92.3392 30.21 90.9112 29.622C89.4832 29.034 88.3632 28.096 87.5512 26.808C86.7392 25.52 86.1792 24.008 85.8712 22.272C85.5632 20.536 85.4092 18.352 85.4092 15.72C85.4092 10.204 86.1792 6.36804 87.7192 4.21204C89.2872 2.02804 92.1572 0.936035 96.3292 0.936035C98.7372 0.936035 101.523 1.31404 104.687 2.07004L104.519 6.69004C101.747 6.27003 99.4372 6.06003 97.5892 6.06003C95.7692 6.06003 94.4672 6.31203 93.6832 6.81603C92.8992 7.29203 92.3112 8.21603 91.9192 9.58803C91.5552 10.96 91.3732 13.298 91.3732 16.602C91.3732 19.906 91.7512 22.202 92.5072 23.49C93.2912 24.75 94.8312 25.38 97.1272 25.38C99.4512 25.38 101.915 25.184 104.519 24.792L104.645 29.538Z" fill="#048AED"/>
<path d="M82.3745 13.788H77.2085V22.398C77.2085 23.238 77.2225 23.84 77.2505 24.204C77.3065 24.54 77.4605 24.834 77.7125 25.086C77.9925 25.338 78.4125 25.464 78.9725 25.464L82.1645 25.38L82.4165 29.874C80.5405 30.294 79.1125 30.504 78.1325 30.504C75.6125 30.504 73.8905 29.944 72.9665 28.824C72.0425 27.676 71.5805 25.576 71.5805 22.524V13.788H69.1025V8.99999H71.5805V3.16199H77.2085V8.99999H82.3745V13.788Z" fill="black"/>
<path d="M53.1539 30H47.5259V8.99997H53.1119V10.176C55.0159 9.05597 56.7659 8.49597 58.3619 8.49597C61.1619 8.49597 63.0939 9.32197 64.1579 10.974C65.2219 12.626 65.7539 15.174 65.7539 18.618V30H60.1259V18.786C60.1259 16.994 59.9159 15.678 59.4959 14.838C59.0759 13.97 58.2359 13.536 56.9759 13.536C55.8279 13.536 54.7219 13.732 53.6579 14.124L53.1539 14.292V30Z" fill="black"/>
<path d="M36.6978 30V8.99998H42.3258V30H36.6978ZM36.6978 6.31198V0.599976H42.3258V6.31198H36.6978Z" fill="black"/>
<path d="M15.478 11.394C16.962 9.46197 19.44 8.49597 22.912 8.49597C26.384 8.49597 28.862 9.46197 30.346 11.394C31.83 13.298 32.572 15.986 32.572 19.458C32.572 26.822 29.352 30.504 22.912 30.504C16.472 30.504 13.252 26.822 13.252 19.458C13.252 15.986 13.994 13.298 15.478 11.394ZM19.804 24.204C20.392 25.212 21.428 25.716 22.912 25.716C24.396 25.716 25.418 25.212 25.978 24.204C26.566 23.196 26.86 21.614 26.86 19.458C26.86 17.302 26.566 15.734 25.978 14.754C25.418 13.774 24.396 13.284 22.912 13.284C21.428 13.284 20.392 13.774 19.804 14.754C19.244 15.734 18.964 17.302 18.964 19.458C18.964 21.614 19.244 23.196 19.804 24.204Z" fill="black"/>
<path d="M0.0693359 32.9399V27.8999C1.18934 27.8999 2.00134 27.6899 2.50534 27.2699C3.00934 26.8499 3.26134 26.0659 3.26134 24.9179V1.43994H9.01534L9.05734 25.1699C9.05734 28.2219 8.37134 30.2799 6.99934 31.3439C5.65534 32.4079 3.34534 32.9399 0.0693359 32.9399Z" fill="black"/>
</svg>
