<svg width="162" height="325" viewBox="0 0 162 325" fill="none" xmlns="http://www.w3.org/2000/svg">
<g clip-path="url(#clip0_291_9779)">
<path d="M11.4931 -0.000214612C11.5311 0.659549 11.5691 1.31931 11.6071 1.97908C12.18 12.0574 12.9674 22.1195 13.9584 32.1599C14.9168 41.8798 16.068 51.5781 17.3685 61.2519C18.7071 71.2216 20.2058 81.1697 21.7968 91.096C21.9977 92.3449 22.1987 93.5912 22.4023 94.8401C22.5625 101.622 22.929 108.391 23.2114 115.168C23.4069 119.83 23.5155 124.51 23.0105 129.153C22.758 131.475 22.3507 133.774 21.8294 136.041C21.2973 138.363 20.7732 140.679 20.3008 143.011C19.9723 144.64 19.6655 146.274 19.3994 147.92C18.1152 155.861 17.5532 163.92 17.7106 171.978C17.9631 184.818 19.8963 197.638 21.7072 210.31C23.4232 222.313 25.3237 234.284 27.1808 246.26C27.9112 250.965 28.6361 255.67 29.3013 260.386C29.7194 263.346 30.1756 266.33 30.3493 269.322C30.371 269.702 30.3873 270.082 30.3819 270.462C30.1403 272.916 29.5239 275.319 28.3809 277.467C27.846 278.472 27.1971 279.395 26.5346 280.307C25.9292 281.146 25.3047 281.971 24.6748 282.786C23.3417 284.51 21.9652 286.196 20.5642 287.86C19.3098 289.351 18.0364 290.822 16.7359 292.264C15.9133 293.179 15.0879 294.102 14.2 294.947C14.1403 295.004 14.0806 295.058 14.0209 295.112C10.7546 297.944 6.85848 300.111 3.84746 303.217C1.84645 305.28 0.287998 307.914 0.035496 310.789C-0.217006 313.664 1.03736 316.768 3.52708 318.193C3.36146 318.193 3.19584 318.193 3.03022 318.19C3.747 318.196 6.22315 320.881 6.97794 321.375C8.58255 322.429 10.2985 323.303 12.0904 323.979C15.9486 325.434 19.0465 325.239 22.6358 323.01C22.8829 322.858 23.1218 322.695 23.3607 322.526C23.4069 322.494 23.4394 322.456 23.4666 322.415C23.4775 322.404 23.4883 322.393 23.4965 322.38C24.4956 320.924 25.8233 319.928 27.2813 319.078C28.9809 318.09 30.6561 317.126 32.1711 315.82C34.6554 313.681 36.6456 310.925 38.3805 308.074C38.7416 307.479 39.0457 306.82 39.5046 306.306C39.8331 305.937 40.2105 305.622 40.5987 305.329C41.6196 304.555 42.7273 303.914 43.8324 303.295C46.2352 301.949 48.7412 300.779 51.0545 299.25C51.8581 298.718 52.7053 298.129 53.289 297.311C54.2583 295.948 54.6275 294.214 54.7551 292.533C54.8936 290.697 54.7388 288.849 54.5515 287.024C54.3397 284.985 54.1334 282.941 53.8727 280.907C53.3487 276.791 52.6021 272.713 51.9939 268.61C51.3776 264.445 50.9459 260.275 50.8834 256.056C50.821 251.915 50.9703 247.775 51.1767 243.643C51.2201 242.76 51.269 241.88 51.3151 241.001C52.3794 234.118 53.4275 227.23 54.4076 220.331C55.3144 213.953 56.1615 207.562 56.8919 201.157C57.5761 195.146 58.1544 189.118 58.559 183.077C58.9445 177.321 59.1726 171.555 59.1861 165.782C59.1997 160.149 59.0042 154.515 58.5617 148.903C58.5074 148.205 58.4476 147.51 58.3852 146.812C57.9616 142.818 59.0314 138.862 60.0903 135.078C61.7709 129.074 63.5194 123.115 64.7873 116.987C66.8644 106.944 67.9395 96.6809 68.3984 86.4098C68.7242 79.1442 68.545 71.8923 68.6509 64.624C68.7622 56.8861 69.365 49.1644 70.2392 41.4861C71.8248 27.5687 74.3037 13.8005 76.5599 -0.00292969H11.4931V-0.000214612Z" fill="#DCC1B2"/>
<path d="M159.356 306.858C157.54 305.243 155.628 303.752 153.714 302.272C151.683 300.706 149.633 299.164 147.619 297.573C146.606 296.774 145.601 295.963 144.624 295.115C143.804 294.38 143.06 293.535 142.316 292.718C141.051 291.328 139.813 289.908 138.594 288.472C137.19 286.818 135.811 285.14 134.467 283.43C133.812 282.596 133.166 281.752 132.536 280.897C131.912 280.049 131.279 279.197 130.731 278.29C129.463 276.199 128.708 273.84 128.369 271.375C128.328 271.073 128.293 270.769 128.263 270.465C128.222 268.057 128.643 265.594 128.955 263.221C129.534 258.845 130.199 254.484 130.867 250.124C132.672 238.343 134.559 226.579 136.286 214.787C138.078 202.561 139.968 190.24 140.698 177.876C141.173 169.809 140.999 161.707 140.049 153.687C139.566 149.598 138.892 145.539 138.053 141.521C137.424 138.51 136.62 135.542 136.101 132.504C135.341 128.049 135.194 123.536 135.3 119.016C135.444 112.95 135.849 106.893 136.063 100.83C136.134 98.8344 136.194 96.8388 136.24 94.8433C137.858 84.8952 139.392 74.9282 140.771 64.9367C142.107 55.2656 143.302 45.5728 144.309 35.8582C145.343 25.8749 146.18 15.8644 146.804 5.84034C146.926 3.89635 147.046 1.94964 147.163 0.00292969H82.0849C84.018 11.8488 86.1168 23.6648 87.6779 35.5759C88.6934 43.3247 89.4807 51.1142 89.8256 58.9337C90.1568 66.4381 89.8744 73.948 90.0699 81.4552C90.355 92.3698 91.2673 103.298 93.2683 114.012C94.4928 120.56 96.2196 126.946 98.0495 133.321C99.1763 137.242 100.469 141.336 100.346 145.493C100.333 145.936 100.303 146.378 100.257 146.818C99.7573 152.419 99.5021 158.045 99.4614 163.67C99.4206 169.416 99.5998 175.161 99.9446 180.892C100.303 186.892 100.843 192.882 101.492 198.855C102.185 205.206 103.002 211.543 103.884 217.866C104.84 224.722 105.872 231.564 106.922 238.403C107.055 239.269 107.188 240.138 107.324 241.004C107.544 245.003 107.731 249.008 107.767 253.013C107.802 257.229 107.596 261.402 107.064 265.584C106.54 269.702 105.796 273.783 105.187 277.886C104.862 280.085 104.582 282.292 104.359 284.508C104.177 286.308 103.941 288.102 103.862 289.911C103.732 292.873 103.979 296.362 106.314 298.319C107.224 299.082 108.242 299.69 109.255 300.274C110.498 300.988 111.766 301.651 113.029 302.329C114.234 302.976 115.44 303.627 116.604 304.358C117.508 304.922 118.451 305.528 119.173 306.356C119.629 306.88 119.933 307.548 120.297 308.145C120.843 309.041 121.415 309.918 122.018 310.771C122.971 312.12 123.995 313.41 125.138 314.577C126.683 316.152 128.426 317.403 130.296 318.476C131.719 319.293 133.166 320.078 134.309 321.332C134.611 321.663 134.89 322.016 135.146 322.388C135.154 322.402 135.165 322.413 135.175 322.424C135.203 322.464 135.235 322.502 135.281 322.535C137.242 323.936 139.533 324.78 141.876 324.968C144.309 325.163 146.785 324.593 148.9 323.268C149.408 322.95 149.897 322.611 150.32 322.168C150.727 321.742 151.089 321.267 151.496 320.841C151.952 320.36 152.462 320.002 153.043 319.719C153.643 319.429 154.281 319.236 154.914 319.052C155.582 318.859 156.253 318.677 156.907 318.432C157.442 318.232 157.947 317.919 158.398 317.55C159.264 316.839 159.945 315.899 160.412 314.838C160.909 313.711 161.251 312.446 161.205 311.189C161.156 309.869 160.722 308.604 159.964 307.569C159.777 307.314 159.57 307.078 159.35 306.861L159.356 306.858Z" fill="#DCC1B2"/>
<path d="M37.1069 183.824C37.0635 189.547 37.2155 195.268 37.3404 200.986C37.4653 206.652 37.6255 212.327 37.5821 218.001C37.5821 218.009 37.5821 218.017 37.5821 218.026C37.5821 218.034 37.5821 218.042 37.5821 218.05C37.5631 219.109 37.5414 220.168 37.5196 221.224C37.4219 225.535 37.278 229.847 37.0879 234.153C36.8979 238.462 36.659 242.768 36.3739 247.069C36.0888 251.372 35.7576 255.67 35.3802 259.963C35 264.274 34.5738 268.583 34.1014 272.881C34.0443 273.405 33.9846 273.932 33.9249 274.456C33.876 274.898 33.7728 275.376 33.8353 275.821C33.9276 276.487 34.3484 277.019 34.8779 277.165C35.1494 277.241 35.4317 277.206 35.6924 277.079C36.0671 276.894 36.4309 276.663 36.8056 276.478C37.5441 276.115 38.2989 275.808 39.0754 275.599C40.5551 275.202 42.0973 275.189 43.5498 275.699C43.9001 275.821 44.2422 275.976 44.5734 276.161C44.8721 276.326 45.1544 276.579 45.4775 276.669C46.0124 276.818 46.5934 276.519 46.9057 275.963C47.1039 275.61 47.1527 275.2 47.2152 274.787C47.2939 274.274 47.3618 273.758 47.4215 273.239C47.541 272.213 47.6279 271.179 47.6849 270.144C47.7989 268.062 47.7962 265.974 47.7175 263.891C47.5546 259.653 47.0713 255.453 46.5636 251.269C46.0721 247.215 45.6051 243.156 45.1409 239.095C44.6793 235.036 44.2177 230.976 43.7236 226.926C43.5905 225.918 43.4657 224.906 43.3543 223.893C42.4611 215.767 42.3063 207.526 42.6511 199.321C42.9959 191.068 43.8322 182.849 44.8612 174.674C44.9399 174.044 45.0241 173.411 45.1056 172.782C45.1056 172.76 45.1083 172.741 45.1137 172.722C46.0938 165.168 47.2233 157.642 48.2903 150.103C48.5836 148.023 48.8741 145.94 49.1537 143.855C49.4252 141.838 49.7511 139.807 49.9167 137.773C50.066 135.949 50.009 133.953 49.1402 132.411C48.7709 131.754 48.2686 131.181 47.6686 130.858C46.9925 130.497 46.2486 130.551 45.5237 130.524C44.7526 130.497 43.9707 130.502 43.2023 130.41C42.8683 130.369 42.5317 130.307 42.2059 130.196C41.842 130.071 41.5135 129.848 41.1578 129.696C40.3759 129.362 39.5369 129.169 38.7034 129.237C37.878 129.305 37.0581 129.674 36.2924 130.057C35.6327 130.388 34.9973 130.785 34.3158 131.037C33.7077 131.263 33.0832 131.385 32.4614 131.537C31.2424 131.835 29.9663 132.248 29.1273 133.467C29.1165 133.508 29.0975 133.549 29.0676 133.584C28.9563 133.714 28.8884 133.883 28.845 134.07C28.7119 134.646 28.8015 135.294 28.8966 135.862C29.0432 136.752 29.2767 137.619 29.5265 138.471C30.1944 140.744 31.017 142.943 31.818 145.145C33.5692 149.961 35.4453 154.832 36.154 160.097C37.2074 167.919 37.1667 175.896 37.1069 183.818V183.824Z" fill="#FFFBF5"/>
<path d="M45.5427 172.809C45.5427 172.809 45.5427 172.82 45.5427 172.825C45.5535 173.333 45.5617 173.841 45.5725 174.349C45.6513 178.427 45.7137 182.507 45.7626 186.588C45.8115 190.739 45.844 194.891 45.8549 199.042C45.8658 203.215 45.8603 207.388 45.8278 211.564C45.7979 215.71 45.7436 219.856 45.6594 224.002C45.578 228.072 45.4694 232.139 45.3282 236.206C45.3282 236.279 45.3037 236.334 45.2739 236.377C45.4992 238.362 45.7246 240.347 45.9526 242.331C46.1644 244.172 46.3843 246.013 46.607 247.854C47.1636 241.397 47.6822 234.938 48.1247 228.471C48.98 215.935 49.5474 203.373 49.58 190.805C49.5881 187.609 49.5637 184.413 49.5013 181.22C49.4388 178.079 49.2596 174.938 49.2352 171.799C49.2107 168.669 48.9365 165.533 48.7492 162.413C48.5917 159.741 48.4044 157.073 48.1166 154.42C47.2369 160.545 46.3409 166.668 45.5427 172.806V172.809Z" fill="#FFFBF5"/>
<path d="M132.36 131.556C131.983 130.972 131.497 130.538 130.951 130.228C129.764 129.555 128.448 129.463 127.22 128.968C125.781 128.39 124.481 127.234 122.944 127.044C122.108 126.94 121.274 127.114 120.479 127.421C120.093 127.57 119.74 127.806 119.349 127.934C119.023 128.04 118.687 128.097 118.35 128.13C117.604 128.206 116.846 128.181 116.099 128.192C115.374 128.203 114.62 128.121 113.93 128.461C112.613 129.107 111.834 130.771 111.581 132.449C111.277 134.45 111.565 136.503 111.777 138.498C112.225 142.726 112.719 146.945 113.224 151.162C114.022 157.832 114.85 164.501 115.564 171.188C115.564 171.193 115.564 171.199 115.564 171.207C115.744 172.888 115.917 174.568 116.078 176.252C116.884 184.598 117.46 192.99 117.506 201.396C117.555 209.78 117.061 218.17 115.817 226.402C115.679 227.393 115.54 228.386 115.404 229.377C114.837 233.526 114.291 237.683 113.74 241.834C113.189 245.969 112.597 250.093 112.048 254.231C111.486 258.464 111.017 262.729 110.935 267.03C110.895 269.161 110.954 271.301 111.15 273.421C111.199 273.948 111.256 274.478 111.324 275.002C111.378 275.425 111.413 275.86 111.598 276.229C111.891 276.813 112.458 277.144 112.999 277.019C113.316 276.946 113.596 276.704 113.889 276.544C114.229 276.356 114.576 276.202 114.935 276.079C115.651 275.838 116.398 275.718 117.142 275.713C118.7 275.705 120.229 276.231 121.663 276.986C122.029 277.179 122.385 277.399 122.743 277.608C123.007 277.763 123.3 277.825 123.588 277.757C124.122 277.632 124.562 277.111 124.679 276.441C124.755 276.012 124.674 275.558 124.633 275.129C124.584 274.573 124.532 274.019 124.484 273.462C124.388 272.371 124.296 271.276 124.207 270.185C123.848 265.814 123.536 261.434 123.27 257.055C123.004 252.654 122.784 248.247 122.61 243.838C122.439 239.45 122.314 235.057 122.235 230.667C122.157 226.274 122.127 221.881 122.14 217.491C122.14 217.483 122.14 217.475 122.14 217.466C122.14 217.458 122.14 217.45 122.14 217.442C122.149 216.866 122.159 216.291 122.17 215.715C122.301 209.728 122.586 203.747 122.835 197.769C123.085 191.736 123.275 185.708 123.37 179.667C123.433 175.608 123.533 171.549 123.81 167.506C124.063 163.808 124.388 160.026 125.135 156.431C125.654 153.934 126.447 151.528 127.275 149.174C128.173 146.622 129.151 144.119 130.098 141.599C130.875 139.533 131.676 137.453 132.246 135.276C132.439 134.543 132.623 133.774 132.661 132.998C132.683 132.55 132.672 132.009 132.409 131.678C132.379 131.64 132.36 131.599 132.352 131.556H132.36Z" fill="#FFFBF5"/>
<path d="M113.422 239.285C113.558 238.324 113.697 237.363 113.832 236.402C113.802 236.358 113.783 236.301 113.781 236.228C113.778 235.718 113.775 235.204 113.773 234.694C113.756 230.583 113.773 226.473 113.813 222.362C113.857 218.181 113.927 214 114.02 209.821C114.115 205.618 114.231 201.418 114.367 197.218C114.503 193.045 114.658 188.874 114.829 184.704C114.997 180.612 115.182 176.518 115.377 172.429C115.377 172.424 115.377 172.421 115.377 172.416C114.755 166.209 114.036 160.021 113.33 153.828C112.917 156.866 112.635 159.929 112.372 162.994C112.22 164.77 112.073 166.543 111.907 168.316C111.744 170.07 111.704 171.835 111.587 173.594C110.751 186.265 110.542 198.991 110.737 211.703C110.924 223.796 111.478 235.878 112.168 247.944C112.591 245.057 113.007 242.171 113.417 239.282L113.422 239.285Z" fill="#FFFBF5"/>
<path d="M52.2028 110.134C51.133 107.701 50.0959 105.277 49.4117 102.63C47.97 97.0502 47.7419 91.096 47.3156 85.2885C46.8595 79.0411 46.3925 72.7937 45.9201 66.549C44.9725 54.0026 44.0032 41.4563 43.0421 28.9099C42.3036 19.2741 41.5787 9.6383 40.8646 -0.00292969H31.2505C31.3238 0.469493 31.3944 0.939202 31.4623 1.41162C31.5356 1.93835 31.6524 2.40534 31.78 2.91306C31.9021 3.39634 31.9157 3.92307 31.9646 4.42536C32.0813 5.60913 32.2008 6.79019 32.3203 7.97125C33.2597 17.3844 33.7402 26.8655 34.3348 36.3275C34.9294 45.776 35.5186 55.2271 36.1186 64.6756C36.42 69.4351 36.7485 74.1865 36.8897 78.9623C37.0255 83.5861 37.0499 88.2153 36.5422 92.8255C36.2897 95.1225 35.9829 97.4303 35.5023 99.6784C35.0353 101.869 34.438 104.017 33.8407 106.165C33.2678 108.223 32.5429 110.245 31.7338 112.187C30.8894 114.215 29.8495 116.115 28.826 118.019C28.8205 118.03 28.8124 118.038 28.8069 118.049C28.1716 119.273 27.8159 120.636 27.8078 122.078C27.7997 124.272 28.587 126.805 30.0993 128.089C32.046 129.742 34.7503 128.963 36.8463 128.108C39.0292 127.217 41.2583 126.055 43.596 126.419C45.8386 126.767 48.0107 128.431 50.3294 127.869C53.916 127 55.2735 121.529 54.7115 117.712C54.3124 115 53.2535 112.526 52.1973 110.126L52.2028 110.134Z" fill="#FFFBF5"/>
<path d="M132.87 115.956C132.341 115.011 131.814 114.066 131.298 113.108C129.3 109.401 127.953 105.361 126.791 101.207C125.578 96.8741 124.828 92.3915 124.473 87.8628C124.112 83.2634 124.22 78.6179 124.348 74.0213C124.481 69.2699 124.798 64.5267 125.035 59.7862C125.504 50.4545 125.963 41.12 126.43 31.7883C126.666 27.0505 126.905 22.3127 127.147 17.5749C127.38 13.0081 127.785 8.46854 128.179 3.9235C128.228 3.3479 128.241 2.75059 128.38 2.19671C128.499 1.727 128.589 1.29259 128.651 0.806592C128.686 0.5378 128.724 0.271722 128.762 0.00292969H119.205C118.54 10.8877 117.856 21.7697 117.161 32.649C116.368 45.0922 115.567 57.5354 114.793 69.9813C114.413 76.0766 114.049 82.1747 113.68 88.2728C113.338 93.9147 112.868 99.6326 110.924 104.816C109.236 109.315 106.347 113.903 106.974 119.151C107.216 121.171 107.935 123.246 109.233 124.641C110.889 126.425 112.942 126.265 114.918 125.548C116.007 125.152 117.082 124.671 118.217 124.478C119.298 124.294 120.395 124.438 121.462 124.734C123.807 125.391 126.026 126.775 128.458 126.897C129.577 126.952 130.763 126.735 131.692 125.963C132.382 125.391 132.889 124.519 133.256 123.626C134.258 121.182 134.157 118.318 132.895 115.983C132.889 115.975 132.881 115.967 132.876 115.956H132.87Z" fill="#FFFBF5"/>
<path d="M126.436 303.16C126.018 303.225 125.564 303.252 125.173 303.143C124.961 303.084 124.774 302.991 124.655 302.853C124.535 302.714 124.497 302.541 124.478 302.375C124.437 302.003 124.508 301.623 124.497 301.251C124.489 301.061 124.475 300.874 124.451 300.686C124.399 300.306 124.302 299.929 124.12 299.579C123.924 299.204 123.674 298.843 123.411 298.493C123.153 298.15 122.89 297.798 122.586 297.477C122.298 297.173 121.844 296.983 121.535 296.698C121.269 296.454 121.166 296.098 121.491 295.821C121.82 295.541 122.404 295.609 122.808 295.677C123.047 295.718 123.308 295.734 123.558 295.72C123.688 295.712 123.816 295.699 123.943 295.669C124.055 295.644 124.16 295.601 124.269 295.571C124.492 295.509 124.608 295.587 124.766 295.682C124.967 295.805 125.157 295.938 125.333 296.079C125.684 296.359 126.012 296.668 126.267 296.999C126.392 297.162 126.476 297.341 126.593 297.507C126.713 297.678 126.846 297.844 126.976 298.009C127.101 298.169 127.237 298.33 127.326 298.503C127.421 298.685 127.495 298.875 127.584 299.06C127.674 299.245 127.788 299.427 127.964 299.573C128.135 299.717 128.342 299.823 128.57 299.918C128.781 300.008 129.001 300.086 129.197 300.192C129.39 300.295 129.569 300.415 129.715 300.553C129.982 300.798 130.207 301.102 130.207 301.43C130.207 301.574 130.153 301.721 130.033 301.843C129.881 302 129.648 302.109 129.425 302.207C128.942 302.421 128.439 302.611 127.923 302.777C127.443 302.932 126.949 303.084 126.441 303.165L126.436 303.16Z" fill="#FFFBF5"/>
<path d="M134.07 314.139C133.59 314.384 132.938 314.666 132.338 314.563C132.053 314.514 131.898 314.354 131.858 314.15C131.809 313.898 131.928 313.686 131.923 313.447C131.917 313.186 131.806 312.928 131.681 312.689C131.543 312.426 131.369 312.173 131.19 311.924C130.834 311.43 130.449 310.946 130.115 310.444C129.772 309.931 129.46 309.404 129.153 308.877C128.548 307.835 127.956 306.792 127.242 305.788C127.057 305.53 126.862 305.272 126.593 305.055C126.463 304.949 126.316 304.851 126.156 304.769C126.009 304.696 125.868 304.645 125.773 304.528C125.616 304.332 125.551 304.104 125.732 303.903C125.903 303.713 126.178 303.648 126.476 303.648C126.829 303.648 127.18 303.681 127.53 303.624C128.276 303.502 128.882 303.13 129.496 302.812C129.74 302.684 130.017 302.538 130.318 302.497C130.565 302.464 130.72 302.551 130.706 302.739C130.671 303.211 129.93 303.591 130.125 304.083C130.223 304.332 130.381 304.574 130.506 304.816C130.647 305.087 130.791 305.361 130.932 305.633C131.491 306.705 132.05 307.78 132.61 308.853C132.884 309.38 133.123 309.931 133.489 310.425C133.851 310.914 134.364 311.378 134.977 311.706C135.276 311.867 135.615 311.97 135.968 312.049C136.267 312.116 136.62 312.168 136.821 312.355C136.978 312.502 137.011 312.703 136.813 312.841C136.579 313.004 136.226 313.064 135.949 313.173C135.27 313.439 134.7 313.819 134.07 314.139Z" fill="#FFFBF5"/>
<path d="M138.55 319.217C138.887 319.217 139.186 319.081 139.411 318.916C139.539 318.823 139.639 318.715 139.726 318.598C139.799 318.497 139.84 318.392 139.954 318.31C140.144 318.174 140.44 318.047 140.722 318.079C141.309 318.147 140.983 318.804 140.926 319.049C140.874 319.277 140.899 319.51 141.024 319.733C141.146 319.953 141.336 320.14 141.553 320.314C141.977 320.656 142.566 320.944 142.797 321.394C143 321.788 142.84 322.19 142.346 322.356C141.822 322.532 141.23 322.41 140.701 322.236C140.432 322.149 140.139 322.043 140.008 321.829C139.878 321.612 139.886 321.365 139.794 321.139C139.593 320.653 139.006 320.336 138.472 320.061C138.216 319.931 137.942 319.803 137.717 319.641C137.554 319.521 137.483 319.369 137.671 319.258C137.942 319.117 138.241 319.209 138.553 319.212L138.55 319.217Z" fill="#FFFBF5"/>
<path d="M136.514 318.038C136.533 317.905 136.544 317.772 136.541 317.637C136.536 317.504 136.519 317.37 136.487 317.237C136.357 316.705 136.031 316.203 135.594 315.763C135.363 315.532 135.105 315.315 134.833 315.109C134.63 314.954 134.364 314.81 134.22 314.62C134.171 314.555 134.146 314.479 134.168 314.406C134.182 314.362 134.209 314.319 134.252 314.289C134.304 314.254 134.345 314.248 134.423 314.237C134.752 314.191 135.099 314.224 135.431 314.18C135.792 314.131 136.055 313.982 136.264 313.765C136.43 313.591 136.585 313.36 136.883 313.301C137.133 313.252 137.396 313.352 137.573 313.499C137.798 313.686 137.861 313.933 137.893 314.169C137.931 314.438 137.939 314.707 138.029 314.976C138.119 315.247 138.292 315.505 138.504 315.739C138.724 315.98 138.987 316.198 139.262 316.407C139.495 316.586 139.813 316.762 139.921 317.009C140.016 317.224 139.862 317.436 139.704 317.596C139.506 317.794 139.259 317.962 138.996 318.109C138.716 318.264 138.409 318.394 138.083 318.492C137.79 318.581 137.475 318.652 137.152 318.66C136.9 318.668 136.571 318.625 136.503 318.397C136.468 318.277 136.498 318.155 136.514 318.041V318.038Z" fill="#FFFBF5"/>
<path d="M125.358 294.26C125.727 293.815 126.121 293.372 126.517 292.946C126.903 292.53 127.294 292.12 127.714 291.738C128.426 291.089 129.254 290.494 130.025 290.258C130.22 290.198 130.389 290.179 130.573 290.152C130.668 290.138 130.763 290.125 130.842 290.138C130.888 290.147 130.943 290.163 131.002 290.174C131.355 290.225 131.616 290.413 131.836 290.624C132.303 291.075 132.637 291.659 132.946 292.251C133.098 292.539 133.283 292.813 133.378 293.144C133.457 293.418 133.441 293.768 133.112 294.149C132.781 294.534 132.338 294.808 131.958 295.126C131.507 295.506 131.173 295.913 130.902 296.394C130.671 296.801 130.516 297.217 130.218 297.616C129.941 297.982 129.561 298.218 129.227 298.243C128.83 298.27 128.665 298.031 128.505 297.779C128.415 297.637 128.328 297.494 128.23 297.361C128.13 297.225 127.978 297.157 127.818 297.086C127.674 297.021 127.565 296.921 127.435 296.837C126.865 296.465 126.289 296.095 125.727 295.712C125.583 295.615 125.445 295.514 125.298 295.422C125.173 295.343 125.005 295.294 124.934 295.159C124.815 294.936 125.124 294.542 125.358 294.26Z" fill="#FFFBF5"/>
<path d="M132.653 295.892C133.365 295.302 134.184 294.903 134.85 294.871C135.572 294.838 135.871 295.327 135.871 296.008C135.871 296.679 135.659 297.442 135.504 298.178C135.338 298.96 135.257 299.682 135.393 300.312C135.678 301.631 136.737 302.305 137.635 303.07C137.885 303.282 138.124 303.505 138.333 303.754C138.531 303.988 138.67 304.262 138.816 304.539C138.971 304.83 139.156 305.096 139.359 305.345C139.563 305.595 139.791 305.821 140.084 305.975C140.367 306.125 140.709 306.195 141.1 306.174C141.428 306.157 141.898 306.04 142.074 306.258C142.227 306.442 142.118 306.841 141.893 307.17C141.751 307.376 141.569 307.55 141.382 307.724C141.189 307.906 141.007 308.09 140.847 308.297C140.831 308.316 140.812 308.337 140.798 308.362C140.521 308.766 140.386 309.179 140.106 309.584C139.655 310.235 138.852 310.925 138.254 310.873C137.931 310.846 137.869 310.561 137.923 310.216C137.986 309.825 138.121 309.407 138.17 309.022C138.195 308.834 138.197 308.647 138.121 308.519C138.051 308.405 137.942 308.318 137.853 308.221C137.63 307.979 137.41 307.735 137.19 307.49C136.756 307.007 136.327 306.518 135.898 306.027C135.037 305.039 134.182 304.042 133.318 303.057C132.892 302.568 132.46 302.082 132.026 301.601C131.814 301.365 131.573 301.151 131.385 300.893C131.201 300.637 131.133 300.287 131.013 299.98C130.954 299.826 130.886 299.676 130.804 299.538C130.731 299.413 130.633 299.307 130.571 299.171C130.457 298.922 130.592 298.531 130.78 298.164C131.179 297.377 131.907 296.502 132.648 295.892H132.653Z" fill="#FFFBF5"/>
<path d="M147.258 316.654C147.486 316.529 147.708 316.366 147.915 316.187C148.352 315.81 148.686 315.402 148.908 314.916C148.987 314.745 149.06 314.561 149.196 314.4C149.248 314.338 149.416 314.178 149.484 314.21C149.525 314.229 149.506 314.343 149.503 314.392C149.497 314.485 149.495 314.574 149.514 314.656C149.554 314.824 149.669 314.935 149.81 315.011C150.057 315.144 150.478 315.123 150.624 315.372C150.746 315.587 150.624 315.953 150.412 316.249C149.913 316.955 149.063 317.284 148.55 317.08C148.27 316.969 148.037 316.784 147.638 316.893C147.467 316.939 147.29 317.042 147.119 317.099C147.01 317.135 146.926 317.094 146.94 316.98C146.956 316.912 147.01 316.833 147.059 316.768C147.106 316.706 147.176 316.697 147.258 316.654Z" fill="#FFFBF5"/>
<path d="M145.702 315.218C145.528 314.84 145.243 314.601 144.784 314.55C144.619 314.531 144.39 314.536 144.317 314.398C144.304 314.373 144.293 314.33 144.295 314.303C144.298 314.297 144.304 314.289 144.312 314.281C144.35 314.249 144.418 314.17 144.458 314.137C144.722 313.925 145.02 313.792 145.273 313.564C145.544 313.317 145.672 313.029 145.805 312.739C145.908 312.511 146.052 312.242 146.294 312.087C146.527 311.938 146.601 312.093 146.655 312.234C146.801 312.614 147.032 312.905 147.399 313.076C147.716 313.225 148.197 313.19 148.436 313.437C148.637 313.649 148.468 314.099 148.27 314.452C148.015 314.911 147.643 315.351 147.23 315.72C147.029 315.902 146.804 316.073 146.582 316.212C146.394 316.328 146.193 316.434 146.098 316.301C145.992 316.152 145.949 315.937 145.892 315.753C145.838 315.571 145.783 315.386 145.705 315.218H145.702Z" fill="#FFFBF5"/>
<path d="M141.358 309.217C141.542 309.133 141.732 309.016 141.906 308.88C142.251 308.612 142.55 308.324 142.791 307.965C143.041 307.596 143.177 307.213 143.397 306.841C143.484 306.695 143.883 306.114 143.972 306.383C144.01 306.499 143.94 306.681 143.894 306.825C143.842 306.993 143.796 307.154 143.785 307.311C143.761 307.68 143.915 307.96 144.046 308.234C144.187 308.53 144.325 308.826 144.477 309.114C144.773 309.679 145.104 310.219 145.523 310.681C145.628 310.797 145.737 310.906 145.854 311.009C145.938 311.085 146.049 311.145 146.112 311.243C146.169 311.335 146.087 311.405 145.968 311.49C145.786 311.617 145.615 311.729 145.449 311.889C145.118 312.212 144.895 312.597 144.648 312.961C144.439 313.268 144.146 313.654 143.799 313.765C143.492 313.863 143.313 313.7 143.239 313.488C143.15 313.225 143.199 312.866 143.215 312.549C143.25 311.726 142.911 311.12 142.55 310.556C142.36 310.26 142.129 309.991 141.776 309.869C141.613 309.812 141.428 309.787 141.238 309.779C141.056 309.771 140.855 309.804 140.676 309.795C140.595 309.793 140.502 309.768 140.538 309.679C140.578 309.57 140.731 309.475 140.826 309.429C141.005 309.339 141.184 309.299 141.366 309.214L141.358 309.217Z" fill="#FFFBF5"/>
<path d="M125.529 290.871C125.548 291.406 125.415 291.859 125.222 292.264C125.124 292.467 125.013 292.658 124.888 292.839C124.744 293.051 124.56 293.225 124.383 293.41C123.65 294.178 122.922 294.954 122.059 295.598C121.337 296.138 120.465 296.584 119.303 296.551C118.274 296.521 116.911 296.043 115.858 294.992C115.662 294.794 115.472 294.553 115.315 294.322C114.959 293.795 114.723 293.247 114.576 292.736C114.424 292.212 114.356 291.694 114.438 291.267C114.478 291.05 114.568 290.868 114.66 290.686C114.761 290.485 114.856 290.285 114.989 290.108C115.114 289.942 115.26 289.79 115.478 289.717C115.708 289.641 116.021 289.671 116.284 289.649C117.416 289.546 118.361 289.152 118.98 288.441C119.298 288.077 119.534 287.64 119.694 287.157C119.767 286.934 119.8 286.674 119.914 286.481C120.009 286.323 120.158 286.22 120.359 286.174C120.791 286.073 121.44 286.234 122.01 286.486C122.32 286.622 122.629 286.793 122.93 287.007C123.072 287.105 123.205 287.211 123.335 287.325C123.468 287.442 123.607 287.548 123.742 287.664C124.847 288.626 125.491 289.894 125.529 290.879V290.871Z" fill="#FFFBF5"/>
<path d="M137.804 289.49C137.728 289.71 137.633 289.853 137.586 290.076C137.543 290.282 137.565 290.489 137.559 290.711C137.551 290.95 137.527 291.187 137.489 291.417C137.451 291.648 137.405 291.876 137.342 292.099C137.318 292.191 137.285 292.281 137.25 292.368C137.212 292.465 137.13 292.541 137.076 292.631C136.957 292.829 136.897 293.06 136.832 293.285C136.777 293.47 136.737 293.66 136.701 293.853C136.5 293.885 136.234 293.655 136.104 293.508C135.854 293.231 135.585 292.965 135.328 292.696C134.852 292.197 134.375 291.697 133.899 291.197C133.43 290.703 132.974 290.158 132.42 289.748C131.434 289.017 130.226 289.063 129.455 289.672C129.409 289.636 129.368 289.593 129.33 289.544C129.265 289.457 129.229 289.365 129.183 289.275C129.181 289.262 129.178 289.245 129.172 289.232C129.001 288.132 128.298 286.986 127.239 286.354C127.519 285.689 127.907 285.086 128.415 284.578C128.695 284.298 129.007 284.046 129.346 283.831C129.645 283.641 129.973 283.438 130.329 283.329C130.353 283.337 130.381 283.343 130.411 283.343C130.481 283.343 130.546 283.321 130.592 283.28C131.127 283.28 131.32 284.005 131.461 284.404C131.556 284.673 131.678 284.945 131.863 285.181C132.072 285.45 132.338 285.675 132.631 285.854C133.18 286.185 133.796 286.348 134.388 286.457C134.983 286.568 135.575 286.642 136.166 286.829C136.452 286.918 136.731 287.033 136.995 287.187C137.13 287.266 137.258 287.356 137.377 287.459C137.443 287.516 137.5 287.584 137.559 287.649C137.543 288.062 137.703 288.474 137.806 288.895C137.855 289.11 137.874 289.294 137.806 289.487L137.804 289.49Z" fill="#FFFBF5"/>
<path d="M152.392 306.051C152.604 305.94 152.758 305.801 152.878 305.598C152.967 305.446 153.033 305.248 153.174 305.128C153.204 305.104 153.315 305.03 153.35 305.068C153.364 305.085 153.353 305.155 153.353 305.174C153.353 305.288 153.369 305.394 153.464 305.459C153.551 305.522 153.643 305.492 153.749 305.503C153.896 305.519 153.806 305.734 153.755 305.823C153.687 305.934 153.603 306.038 153.524 306.144C153.448 306.249 153.375 306.353 153.282 306.445C153.147 306.578 152.976 306.725 152.799 306.782C152.734 306.803 152.655 306.814 152.598 306.79C152.533 306.763 152.533 306.703 152.522 306.638C152.503 306.526 152.454 306.439 152.359 306.38C152.324 306.358 152.289 306.342 152.251 306.328C152.226 306.317 152.145 306.304 152.137 306.279C152.107 306.206 152.335 306.087 152.397 306.054L152.392 306.051Z" fill="#FFFBF5"/>
<path d="M147.882 302.907C147.901 302.888 147.939 302.872 147.961 302.861C148.023 302.828 148.083 302.798 148.14 302.755C148.382 302.57 148.487 302.332 148.626 302.082C148.743 301.873 148.895 301.691 149.139 301.645C149.66 301.544 149.707 302.239 149.791 302.573C149.91 303.04 150.111 303.496 150.472 303.809C150.654 303.966 150.866 304.08 151.108 304.148C151.344 304.213 151.594 304.208 151.849 304.183C152.071 304.161 152.321 304.11 152.528 304.175C152.685 304.224 152.845 304.373 152.802 304.561C152.726 304.808 152.411 304.924 152.223 305.085C152.104 305.188 152.023 305.307 151.966 305.446C151.936 305.516 151.906 305.647 151.819 305.674C151.634 305.731 151.48 305.432 151.406 305.326C151.246 305.098 151.089 304.867 150.917 304.647C150.613 304.257 150.266 303.898 149.812 303.662C149.609 303.556 149.381 303.48 149.145 303.439C148.911 303.401 148.667 303.409 148.43 303.382C148.219 303.358 148.004 303.295 147.904 303.111C147.877 303.062 147.836 302.972 147.887 302.913L147.882 302.907Z" fill="#FFFBF5"/>
<path d="M138.121 294.589C138.235 294.336 138.423 294.111 138.512 293.85C138.678 293.369 138.474 292.951 138.607 292.476C138.659 292.292 138.781 292.083 138.96 291.988C139.085 291.92 139.251 291.922 139.395 291.941C139.596 291.968 139.791 292.015 139.984 292.061C140.231 292.121 140.481 292.202 140.673 292.346C141.067 292.645 141.181 293.163 141.241 293.671C141.274 293.95 141.284 294.238 141.325 294.518C141.366 294.795 141.455 295.05 141.553 295.3C141.751 295.799 142.012 296.266 142.335 296.682C142.495 296.888 142.675 297.095 142.908 297.228C143.103 297.339 143.351 297.526 143.562 297.673C144.453 298.292 145.335 298.925 146.234 299.535C146.668 299.831 147.135 300.084 147.619 300.315C147.822 300.412 148.075 300.453 148.243 300.594C148.395 300.725 148.395 300.901 148.303 301.121C148.194 301.368 148.029 301.602 147.844 301.813C147.735 301.936 147.621 302.052 147.502 302.166C147.407 302.259 147.306 302.348 147.184 302.392C146.926 302.489 146.742 302.321 146.603 302.18C146.226 301.797 145.865 301.395 145.493 301.01C144.733 300.222 143.953 299.454 143.169 298.691C142.775 298.308 142.37 297.934 141.944 297.583C141.548 297.257 141.14 296.94 140.673 296.701C140.549 296.638 140.421 296.581 140.288 296.53C140.168 296.486 140.057 296.429 139.932 296.394C139.666 296.315 139.389 296.261 139.115 296.193C138.865 296.133 138.621 296.055 138.409 295.932C138.189 295.805 138.056 295.626 138.018 295.36C137.983 295.121 138.01 294.849 138.127 294.591L138.121 294.589Z" fill="#FFFBF5"/>
<path d="M154.395 305.808C154.395 305.808 154.401 305.802 154.401 305.799C154.41 305.779 154.416 305.816 154.395 305.808Z" fill="#FFF5F5"/>
<path d="M153.225 307.164C153.301 307.126 153.385 307.102 153.464 307.069C153.595 307.012 153.706 306.942 153.814 306.847C153.92 306.754 154.024 306.635 154.097 306.518C154.17 306.401 154.189 306.279 154.208 306.154C154.222 306.049 154.281 305.934 154.357 305.845C154.366 305.834 154.385 305.82 154.398 305.81C154.412 305.826 154.425 305.845 154.431 305.869C154.463 306.011 154.474 306.16 154.493 306.306C154.51 306.445 154.515 306.592 154.567 306.719C154.624 306.866 154.74 306.917 154.887 306.963C154.998 306.999 155.08 307.056 155.123 307.164C155.27 307.523 154.911 307.938 154.518 307.979C154.241 308.009 154.135 307.797 153.991 307.629C153.833 307.447 153.6 307.325 153.339 307.303C153.28 307.297 153.111 307.316 153.071 307.27C153.079 307.262 153.087 307.254 153.098 307.246C153.136 307.213 153.185 307.186 153.231 307.164H153.225Z" fill="#FFFBF5"/>
<path d="M154.013 309.393C154.064 309.285 154.203 309.214 154.333 309.369C154.423 309.478 154.48 309.6 154.564 309.711C154.645 309.817 154.743 309.917 154.846 310.007C155.161 310.287 155.794 310.713 155.539 311.066C155.327 311.359 154.849 311.24 154.45 311.041C154.203 310.917 153.961 310.775 153.717 310.64C153.679 310.618 153.562 310.561 153.562 310.528C153.562 310.496 153.624 310.474 153.665 310.463C153.787 310.433 153.907 310.412 153.991 310.327C154.064 310.257 154.102 310.151 154.102 310.037C154.102 309.825 153.92 309.575 154.007 309.391L154.013 309.393Z" fill="#FFFBF5"/>
<path d="M151.556 308.609C151.564 308.504 151.664 308.493 151.756 308.468C151.87 308.438 151.974 308.392 152.017 308.286C152.058 308.191 152.071 308.08 152.126 307.993C152.175 307.917 152.251 307.844 152.34 307.808C152.443 307.765 152.612 307.754 152.718 307.89C152.785 307.974 152.815 308.08 152.853 308.17C152.891 308.265 152.935 308.362 153 308.452C153.084 308.569 153.193 308.647 153.318 308.718C153.391 308.762 153.432 308.781 153.429 308.851C153.429 308.941 153.372 309.009 153.337 309.082C153.299 309.161 153.277 309.247 153.28 309.345C153.285 309.467 153.353 309.698 153.236 309.755C153.098 309.823 152.87 309.638 152.726 309.543C152.487 309.386 152.245 309.231 152.006 309.074C151.841 308.965 151.556 308.808 151.556 308.607V308.609Z" fill="#FFFBF5"/>
<path d="M147.529 304.251C147.621 304.051 147.515 303.779 147.554 303.556C147.581 303.396 147.716 303.198 147.906 303.195C148.126 303.195 148.289 303.453 148.365 303.63C148.463 303.855 148.525 304.078 148.642 304.303C148.767 304.542 148.925 304.778 149.109 304.995C149.484 305.435 149.937 305.777 150.445 306.024C150.831 306.212 151.414 306.413 151.575 306.858C151.64 307.04 151.607 307.205 151.553 307.347C151.488 307.52 151.393 307.683 151.273 307.816C151.175 307.925 151.037 308.036 150.841 307.998C150.624 307.958 150.453 307.724 150.328 307.55C150.011 307.108 149.75 306.638 149.397 306.209C149.05 305.786 148.607 305.403 148.105 305.229C147.904 305.158 147.7 305.142 147.502 305.055C147.382 305.004 147.214 304.881 147.211 304.751C147.22 304.648 147.29 304.575 147.347 304.507C147.415 304.428 147.486 304.347 147.532 304.249L147.529 304.251Z" fill="#FFFBF5"/>
<path d="M138.333 296.877C138.132 296.676 137.937 296.467 137.7 296.304C137.467 296.144 137.214 296.052 136.943 295.957C136.726 295.881 136.495 295.794 136.4 295.577C136.313 295.378 136.351 295.123 136.395 294.906C136.427 294.759 136.484 294.616 136.53 294.472C136.574 294.336 136.617 294.203 136.669 294.07C136.772 293.809 136.897 293.535 137.106 293.329C137.255 293.179 137.508 293.019 137.717 293.044C137.899 293.063 137.972 293.217 137.988 293.388C138.01 293.63 137.961 293.882 137.98 294.127C138.002 294.406 138.086 294.645 138.282 294.838C138.482 295.034 138.746 295.153 139.006 295.259C139.237 295.351 139.484 295.441 139.642 295.634C139.791 295.821 139.848 296.065 139.902 296.302C139.965 296.568 140.025 296.834 140.125 297.086C140.228 297.35 140.361 297.597 140.513 297.83C140.817 298.297 141.195 298.71 141.597 299.093C142.425 299.888 143.283 300.646 144.293 301.227C144.768 301.501 145.276 301.756 145.808 301.927C146.074 302.014 146.345 302.082 146.609 302.174C146.815 302.248 147.043 302.334 147.127 302.546C147.211 302.758 147.154 302.997 147.065 303.217C146.967 303.461 146.823 303.7 146.682 303.928C146.543 304.154 146.372 304.414 146.147 304.569C146.066 304.626 145.96 304.664 145.87 304.629C145.764 304.588 145.683 304.46 145.607 304.384C143.967 302.736 142.332 301.086 140.736 299.397C139.938 298.555 139.15 297.703 138.33 296.88L138.333 296.877Z" fill="#FFFBF5"/>
<path d="M147.038 308.115C147.133 308.104 147.203 308.055 147.266 308.009C147.361 307.939 147.434 307.854 147.491 307.751C147.54 307.662 147.572 307.564 147.591 307.458C147.602 307.406 147.608 307.352 147.611 307.298C147.611 307.246 147.63 307.2 147.638 307.151C147.649 307.089 147.689 307.002 147.768 306.996C147.852 306.988 147.904 307.119 147.931 307.178C148.02 307.377 148.107 307.569 148.213 307.765C148.33 307.974 148.463 308.183 148.612 308.381C148.908 308.775 149.294 309.122 149.728 309.378C149.932 309.497 150.152 309.581 150.372 309.644C150.535 309.69 150.76 309.701 150.89 309.839C151.045 310.002 150.85 310.119 150.755 310.195C150.605 310.317 150.469 310.445 150.372 310.608C150.274 310.768 150.239 310.966 150.136 311.123C150.057 311.246 149.918 311.308 149.747 311.186C149.647 311.115 149.576 311.004 149.514 310.906C149.454 310.814 149.402 310.719 149.348 310.627C149.226 310.417 149.093 310.219 148.935 310.026C148.626 309.644 148.246 309.277 147.833 308.989C147.627 308.845 147.412 308.715 147.195 308.593C147.076 308.525 146.953 308.46 146.831 308.397C146.758 308.359 146.666 308.324 146.639 308.24C146.592 308.053 146.929 308.129 147.04 308.115H147.038Z" fill="#FFFBF5"/>
<path d="M133.503 296.294C133.212 295.859 133.142 295.357 133.346 294.944C133.527 294.581 133.94 294.347 134.404 294.404C134.912 294.467 135.303 294.912 135.659 295.246C136.071 295.631 136.481 296.014 136.894 296.4C137.081 296.573 137.288 296.744 137.445 296.943C137.567 297.092 137.643 297.255 137.622 297.429C137.578 297.771 137.291 298.015 137.182 298.327C137.111 298.531 137.09 298.751 137.035 298.96C136.981 299.161 136.878 299.351 136.652 299.405C136.487 299.446 136.297 299.4 136.161 299.267C136.099 299.204 136.05 299.126 136.023 299.047C135.995 298.963 135.995 298.881 135.971 298.797C135.895 298.553 135.713 298.341 135.523 298.151C135.319 297.947 135.094 297.763 134.866 297.583C134.375 297.195 133.845 296.81 133.5 296.294H133.503Z" fill="#FFFBF5"/>
<path d="M150.839 311.484C150.945 311.381 150.977 311.207 151.004 311.061C151.021 310.963 150.996 310.781 151.108 310.74C151.222 310.7 151.325 310.881 151.374 310.96C151.737 311.544 152.346 312.003 153.014 312.177C153.168 312.217 153.32 312.217 153.472 312.261C153.524 312.274 153.557 312.291 153.562 312.342C153.567 312.388 153.543 312.434 153.524 312.472C153.47 312.581 153.383 312.676 153.312 312.774C153.231 312.888 153.147 312.999 153.065 313.113C153.005 313.195 152.94 313.317 152.823 313.341C152.753 313.355 152.688 313.317 152.625 313.271C152.536 313.2 152.484 313.138 152.408 313.056C152.291 312.929 152.169 312.804 152.036 312.69C151.767 312.456 151.461 312.255 151.14 312.103C150.977 312.024 150.812 311.973 150.649 311.905C150.584 311.878 150.434 311.799 150.483 311.723C150.57 311.614 150.736 311.585 150.836 311.487L150.839 311.484Z" fill="#FFFBF5"/>
<path d="M138.683 301.26C138.455 301.091 138.225 300.931 137.988 300.779C137.777 300.641 137.543 300.527 137.356 300.353C137.244 300.25 137.166 300.103 137.299 300.016C137.383 299.959 137.483 299.929 137.573 299.883C137.671 299.832 137.747 299.755 137.801 299.663C138.005 299.324 137.825 298.876 137.934 298.504C138.026 298.189 138.387 298.069 138.732 298.192C139.164 298.341 139.495 298.735 139.737 299.09C140.016 299.503 140.209 299.954 140.407 300.396C140.505 300.613 140.606 300.831 140.717 301.045C140.942 301.482 141.214 301.895 141.537 302.286C141.868 302.688 142.24 303.065 142.626 303.424C143 303.774 143.389 304.116 143.774 304.455C144.179 304.814 144.591 305.167 145.023 305.495C145.449 305.821 145.9 306.136 146.378 306.38C146.582 306.483 146.818 306.576 146.989 306.733C147.125 306.858 147.106 306.994 146.989 307.089C146.839 307.211 146.639 307.268 146.492 307.396C146.321 307.545 146.245 307.765 146.155 307.969C146.085 308.129 145.995 308.313 145.816 308.384C145.65 308.452 145.49 308.349 145.36 308.221C145.181 308.045 145.02 307.846 144.857 307.656C144.673 307.447 144.491 307.236 144.306 307.026C143.956 306.625 143.609 306.22 143.258 305.818C142.558 305.009 141.865 304.192 141.116 303.421C140.364 302.644 139.56 301.906 138.681 301.26H138.683Z" fill="#FFFBF5"/>
<path d="M153.421 313.727C153.524 313.681 153.63 313.635 153.695 313.545C153.76 313.458 153.779 313.336 153.828 313.238C153.874 313.151 153.929 313.07 153.986 312.991C154.045 312.91 154.1 312.82 154.173 312.752C154.208 312.72 154.271 312.663 154.338 312.709C154.415 312.76 154.447 312.883 154.474 312.953C154.51 313.045 154.545 313.14 154.613 313.225C154.689 313.322 154.797 313.39 154.914 313.415C154.998 313.431 155.08 313.423 155.156 313.48C155.327 313.605 155.302 313.806 155.243 313.928C155.161 314.093 154.982 314.188 154.805 314.262C154.735 314.292 154.662 314.327 154.577 314.332C154.488 314.34 154.425 314.267 154.357 314.207C154.257 314.115 154.151 314.039 154.024 314.007C153.92 313.979 153.82 313.979 153.722 313.988C153.622 313.996 153.293 314.055 153.247 313.882C153.233 313.792 153.35 313.757 153.415 313.727H153.421Z" fill="#FFFBF5"/>
<path d="M109.898 285.286C109.632 286.56 109.95 287.942 110.742 288.968C111.535 289.994 112.792 290.643 114.085 290.695C114.362 290.706 114.677 290.673 114.848 290.453C115.035 290.214 114.964 289.869 114.886 289.576C114.709 288.919 114.533 288.265 114.356 287.608C114.153 286.85 113.946 286.084 113.553 285.408C113.159 284.732 112.548 284.146 111.793 283.959C111.269 283.828 110.661 283.918 110.276 284.298C109.89 284.681 109.817 285.381 110.202 285.761" fill="#FFFBF5"/>
<path d="M128.486 290.413C129.058 289.291 129.118 287.918 128.643 286.75C128.168 285.583 127.166 284.649 125.977 284.26C125.722 284.176 125.42 284.125 125.203 284.285C124.967 284.459 124.945 284.798 124.942 285.094C124.94 285.754 124.934 286.413 124.931 287.07C124.926 287.831 124.923 288.602 125.116 289.338C125.309 290.073 125.727 290.779 126.381 291.154C126.837 291.415 127.424 291.491 127.88 291.233C128.339 290.977 128.586 290.339 128.323 289.883" fill="#FFFBF5"/>
<path d="M114.983 286.359C113.862 286.174 113.012 285.086 112.904 283.943C112.792 282.8 113.319 281.662 114.109 280.837C114.902 280.011 115.934 279.468 116.993 279.045C118.823 278.311 120.78 277.904 122.749 277.847C124.093 277.806 125.491 277.948 126.642 278.645C127.793 279.343 128.624 280.717 128.352 282.042C128.01 283.717 126.191 284.61 124.543 285.007C122.892 285.403 121.063 285.62 119.865 286.831C119.257 287.445 118.817 288.311 118 288.585C117.308 288.819 116.526 288.531 115.977 288.045C115.429 287.559 115.065 286.899 114.715 286.256" fill="#FFFBF5"/>
<path d="M34.3973 302.684C34.8154 302.749 35.2688 302.777 35.6598 302.668C35.8716 302.608 36.0589 302.516 36.1784 302.377C36.2978 302.239 36.3359 302.065 36.3549 301.9C36.3956 301.528 36.325 301.147 36.3359 300.776C36.344 300.585 36.3576 300.398 36.382 300.211C36.4336 299.831 36.5313 299.453 36.7133 299.103C36.9087 298.728 37.1585 298.367 37.4219 298.017C37.6798 297.675 37.9432 297.322 38.2473 297.002C38.5351 296.697 38.9885 296.507 39.298 296.222C39.5641 295.978 39.6673 295.622 39.3414 295.345C39.0129 295.066 38.4292 295.134 38.0246 295.201C37.7857 295.242 37.5251 295.258 37.2753 295.245C37.1449 295.237 37.0173 295.223 36.8897 295.193C36.7784 295.169 36.6725 295.125 36.5639 295.096C36.3413 295.033 36.2245 295.112 36.0671 295.207C35.8661 295.329 35.6761 295.462 35.4996 295.603C35.1494 295.883 34.8208 296.192 34.5656 296.524C34.4407 296.687 34.3566 296.866 34.2398 297.031C34.1204 297.202 33.9873 297.368 33.857 297.534C33.7321 297.694 33.5963 297.854 33.5067 298.028C33.4117 298.21 33.3384 298.4 33.2488 298.584C33.1592 298.769 33.0452 298.951 32.8687 299.098C32.6977 299.241 32.4913 299.347 32.2632 299.442C32.0515 299.532 31.8315 299.611 31.6361 299.717C31.4433 299.82 31.2641 299.939 31.1175 300.078C30.8514 300.322 30.6261 300.626 30.6261 300.955C30.6261 301.099 30.6804 301.245 30.7998 301.367C30.9519 301.525 31.1854 301.633 31.408 301.731C31.8913 301.946 32.3936 302.136 32.9094 302.301C33.39 302.456 33.8841 302.608 34.3919 302.69L34.3973 302.684Z" fill="#FFFBF5"/>
<path d="M26.7625 313.662C27.2431 313.906 27.8947 314.188 28.4947 314.085C28.7798 314.036 28.9346 313.876 28.9753 313.673C29.0242 313.42 28.9047 313.208 28.9101 312.969C28.9156 312.709 29.0269 312.451 29.1518 312.212C29.2902 311.948 29.464 311.696 29.6432 311.446C29.9989 310.952 30.3844 310.469 30.7184 309.966C31.0605 309.453 31.3727 308.927 31.6795 308.4C32.285 307.357 32.8769 306.315 33.5909 305.31C33.7755 305.052 33.971 304.794 34.2398 304.577C34.3702 304.471 34.5168 304.373 34.677 304.292C34.8236 304.219 34.9648 304.167 35.0598 304.05C35.2173 303.855 35.2824 303.627 35.1005 303.426C34.9295 303.236 34.6552 303.171 34.3566 303.171C34.0036 303.171 33.6534 303.203 33.3031 303.146C32.5565 303.024 31.951 302.652 31.3374 302.334C31.0931 302.207 30.8161 302.06 30.5147 302.019C30.2677 301.987 30.1129 302.074 30.1265 302.261C30.1618 302.733 30.903 303.114 30.7075 303.605C30.6098 303.855 30.4523 304.096 30.3274 304.338C30.1862 304.61 30.0423 304.884 29.9011 305.155C29.3418 306.228 28.7825 307.303 28.2232 308.375C27.949 308.902 27.7101 309.453 27.3435 309.947C26.9824 310.436 26.4693 310.9 25.8557 311.229C25.557 311.389 25.2176 311.492 24.8647 311.571C24.566 311.639 24.2131 311.69 24.0121 311.878C23.8547 312.024 23.8221 312.225 24.0203 312.364C24.2538 312.527 24.6067 312.586 24.8837 312.695C25.5624 312.961 26.1326 313.341 26.7625 313.662Z" fill="#FFFBF5"/>
<path d="M22.2853 318.741C21.9487 318.741 21.65 318.606 21.4247 318.44C21.2971 318.348 21.1966 318.239 21.1097 318.122C21.0364 318.022 20.9957 317.916 20.8816 317.835C20.6916 317.699 20.3957 317.571 20.1133 317.604C19.5268 317.672 19.8526 318.329 19.9097 318.573C19.9612 318.801 19.9368 319.035 19.8119 319.257C19.6897 319.477 19.4997 319.665 19.2825 319.838C18.8589 320.18 18.2697 320.468 18.039 320.919C17.8353 321.313 17.9955 321.714 18.4897 321.88C19.0137 322.056 19.6056 321.934 20.135 321.761C20.4038 321.674 20.697 321.568 20.8273 321.353C20.9577 321.136 20.9495 320.889 21.0418 320.664C21.2428 320.178 21.8292 319.86 22.3641 319.586C22.6193 319.455 22.8935 319.328 23.1189 319.165C23.2818 319.045 23.3524 318.893 23.165 318.782C22.8935 318.641 22.5949 318.733 22.2826 318.736L22.2853 318.741Z" fill="#FFFBF5"/>
<path d="M24.3216 317.56C24.3026 317.427 24.2918 317.294 24.2945 317.158C24.2999 317.025 24.3162 316.892 24.3488 316.759C24.4791 316.227 24.8049 315.724 25.2421 315.285C25.4728 315.054 25.7308 314.837 26.0023 314.63C26.2059 314.476 26.472 314.332 26.6159 314.142C26.6648 314.076 26.6892 314 26.6675 313.927C26.6539 313.884 26.6267 313.84 26.5833 313.81C26.5317 313.775 26.491 313.77 26.4123 313.759C26.0837 313.713 25.7362 313.745 25.405 313.702C25.0439 313.653 24.7805 313.504 24.5714 313.286C24.4058 313.113 24.2511 312.882 23.9524 312.822C23.7026 312.773 23.4392 312.874 23.2628 313.02C23.0374 313.208 22.975 313.455 22.9424 313.691C22.9044 313.96 22.8962 314.228 22.8066 314.497C22.717 314.769 22.5433 315.027 22.3315 315.26C22.1116 315.502 21.8482 315.719 21.574 315.928C21.3405 316.107 21.0228 316.284 20.9142 316.531C20.8192 316.745 20.974 316.957 21.1314 317.117C21.3296 317.315 21.5767 317.484 21.8401 317.63C22.1197 317.785 22.4265 317.916 22.7523 318.013C23.0456 318.103 23.3605 318.173 23.6836 318.182C23.9361 318.19 24.2646 318.146 24.3325 317.918C24.3678 317.799 24.3379 317.677 24.3216 317.563V317.56Z" fill="#FFFBF5"/>
<path d="M35.4752 293.784C35.1059 293.339 34.7123 292.896 34.3159 292.47C33.9303 292.055 33.5393 291.645 33.1185 291.262C32.4072 290.613 31.5791 290.019 30.808 289.782C30.6125 289.723 30.4442 289.704 30.2595 289.676C30.1645 289.663 30.0695 289.649 29.9907 289.663C29.9446 289.671 29.8903 289.687 29.8306 289.698C29.4776 289.75 29.2169 289.937 28.997 290.149C28.53 290.6 28.1961 291.183 27.8866 291.775C27.7345 292.063 27.5499 292.337 27.4549 292.668C27.3761 292.943 27.3924 293.293 27.7209 293.673C28.0522 294.059 28.4947 294.333 28.8748 294.65C29.3255 295.031 29.6595 295.438 29.931 295.918C30.1618 296.326 30.3166 296.741 30.6152 297.14C30.8921 297.507 31.2723 297.743 31.6062 297.767C32.0026 297.794 32.1682 297.556 32.3284 297.303C32.418 297.162 32.5049 297.018 32.6026 296.885C32.7031 296.749 32.8551 296.681 33.0153 296.611C33.1592 296.546 33.2678 296.445 33.3982 296.361C33.9683 295.989 34.5439 295.62 35.1059 295.237C35.2498 295.139 35.3883 295.039 35.5349 294.946C35.6598 294.868 35.8282 294.819 35.8987 294.683C36.0182 294.46 35.7087 294.067 35.4752 293.784Z" fill="#FFFBF5"/>
<path d="M28.1798 295.413C27.4684 294.824 26.6485 294.425 25.9833 294.392C25.2611 294.36 24.9624 294.848 24.9624 295.53C24.9624 296.2 25.1742 296.963 25.3289 297.699C25.4946 298.481 25.576 299.203 25.4403 299.833C25.1552 301.153 24.0963 301.826 23.1976 302.592C22.9478 302.803 22.7089 303.026 22.4998 303.276C22.3016 303.509 22.1632 303.784 22.0165 304.061C21.8618 304.351 21.6772 304.617 21.4735 304.867C21.2699 305.117 21.0418 305.342 20.7486 305.497C20.4662 305.646 20.1241 305.717 19.7332 305.695C19.4046 305.679 18.9349 305.562 18.7585 305.779C18.6064 305.964 18.715 306.363 18.9404 306.691C19.0816 306.898 19.2635 307.072 19.4508 307.245C19.6436 307.427 19.8255 307.612 19.9857 307.818C20.002 307.837 20.021 307.859 20.0345 307.883C20.3115 308.288 20.4472 308.701 20.7269 309.105C21.1776 309.757 21.9813 310.446 22.5786 310.395C22.9017 310.368 22.9641 310.083 22.9098 309.738C22.8474 309.347 22.7116 308.929 22.6627 308.543C22.6383 308.356 22.6356 308.168 22.7116 308.041C22.7822 307.927 22.8908 307.84 22.9804 307.742C23.203 307.501 23.423 307.256 23.6429 307.012C24.0773 306.529 24.5063 306.04 24.9353 305.548C25.7959 304.56 26.6512 303.564 27.5146 302.578C27.9408 302.089 28.3725 301.603 28.807 301.123C29.0187 300.887 29.2604 300.672 29.4477 300.414C29.6323 300.159 29.7002 299.809 29.8197 299.502C29.8794 299.347 29.9473 299.198 30.0287 299.059C30.102 298.934 30.1998 298.829 30.2622 298.693C30.3763 298.443 30.2405 298.052 30.0532 297.686C29.6541 296.898 28.9264 296.024 28.1852 295.413H28.1798Z" fill="#FFFBF5"/>
<path d="M13.5754 316.178C13.3473 316.053 13.1247 315.891 12.9183 315.711C12.4812 315.334 12.1473 314.927 11.9246 314.441C11.8459 314.27 11.7726 314.085 11.6368 313.925C11.5852 313.862 11.4169 313.702 11.349 313.735C11.3083 313.754 11.3273 313.868 11.33 313.917C11.3354 314.009 11.3382 314.099 11.3192 314.18C11.2784 314.348 11.1644 314.46 11.0232 314.536C10.7761 314.669 10.3553 314.647 10.2087 314.897C10.0865 315.111 10.2087 315.478 10.4205 315.774C10.92 316.48 11.7699 316.808 12.283 316.605C12.5627 316.493 12.7962 316.309 13.1953 316.417C13.3663 316.463 13.5428 316.567 13.7139 316.624C13.8225 316.659 13.9066 316.618 13.893 316.504C13.8768 316.436 13.8225 316.358 13.7736 316.292C13.7274 316.23 13.6568 316.222 13.5754 316.178Z" fill="#FFFBF5"/>
<path d="M15.1311 314.739C15.3049 314.362 15.59 314.123 16.0488 314.071C16.2144 314.052 16.4425 314.058 16.5158 313.919C16.5294 313.895 16.5402 313.851 16.5375 313.824C16.5348 313.819 16.5294 313.811 16.5212 313.803C16.4832 313.77 16.4154 313.691 16.3746 313.659C16.1113 313.447 15.8126 313.314 15.5601 313.086C15.2886 312.839 15.161 312.551 15.0279 312.26C14.9248 312.032 14.7809 311.764 14.5392 311.609C14.3057 311.459 14.2324 311.614 14.1781 311.755C14.0315 312.136 13.8007 312.426 13.4342 312.597C13.1165 312.746 12.636 312.711 12.397 312.958C12.1961 313.17 12.3645 313.621 12.5627 313.974C12.8179 314.432 13.1898 314.872 13.6025 315.242C13.8034 315.423 14.0288 315.595 14.2514 315.733C14.4388 315.85 14.6397 315.956 14.7347 315.823C14.8406 315.673 14.884 315.459 14.9411 315.274C14.9954 315.092 15.0497 314.908 15.1284 314.739H15.1311Z" fill="#FFFBF5"/>
<path d="M19.4752 308.742C19.2906 308.657 19.1006 308.541 18.9268 308.405C18.582 308.136 18.2833 307.848 18.0417 307.49C17.7919 307.121 17.6561 306.738 17.4362 306.366C17.3493 306.219 16.9502 305.638 16.8606 305.907C16.8226 306.024 16.8932 306.206 16.9394 306.35C16.9909 306.518 17.0371 306.678 17.048 306.836C17.0724 307.205 16.9176 307.484 16.7873 307.759C16.6461 308.055 16.5077 308.351 16.3556 308.638C16.0597 309.203 15.7284 309.743 15.3103 310.205C15.2044 310.322 15.0958 310.43 14.9791 310.533C14.8949 310.609 14.7836 310.669 14.7211 310.767C14.6641 310.859 14.7456 310.93 14.865 311.014C15.047 311.142 15.218 311.253 15.3836 311.413C15.7149 311.736 15.9375 312.122 16.1846 312.486C16.3936 312.792 16.6869 313.178 17.0344 313.289C17.3412 313.387 17.5204 313.224 17.5937 313.012C17.6833 312.749 17.6344 312.391 17.6181 312.073C17.5828 311.25 17.9222 310.645 18.2833 310.08C18.4734 309.784 18.7042 309.515 19.0571 309.393C19.22 309.336 19.4047 309.312 19.5947 309.304C19.7766 309.295 19.9775 309.328 20.1567 309.32C20.2382 309.317 20.3305 309.293 20.2952 309.203C20.2545 309.094 20.1024 308.999 20.0074 308.953C19.8282 308.864 19.649 308.823 19.4671 308.739L19.4752 308.742Z" fill="#FFFBF5"/>
<path d="M35.3041 290.395C35.2851 290.93 35.4182 291.384 35.6109 291.788C35.7087 291.992 35.82 292.182 35.9449 292.364C36.0888 292.576 36.2734 292.749 36.4499 292.934C37.183 293.702 37.9106 294.479 38.774 295.122C39.4962 295.663 40.3677 296.108 41.5298 296.075C42.5588 296.045 43.9218 295.568 44.9752 294.517C45.1707 294.319 45.3608 294.077 45.5182 293.846C45.8739 293.32 46.1101 292.771 46.2567 292.261C46.4088 291.737 46.4767 291.218 46.3952 290.792C46.3545 290.575 46.2649 290.393 46.1726 290.211C46.0721 290.01 45.9771 289.809 45.8441 289.632C45.7192 289.467 45.5725 289.315 45.3553 289.241C45.1246 289.165 44.8123 289.195 44.549 289.174C43.4168 289.07 42.4719 288.677 41.8529 287.965C41.5352 287.602 41.299 287.164 41.1388 286.681C41.0655 286.459 41.0329 286.198 40.9189 286.005C40.8239 285.848 40.6745 285.744 40.4736 285.698C40.0419 285.598 39.393 285.758 38.8229 286.011C38.5133 286.146 38.2038 286.317 37.9025 286.532C37.7613 286.63 37.6282 286.735 37.4979 286.85C37.3649 286.966 37.2264 287.072 37.0906 287.189C35.9856 288.15 35.3421 289.418 35.3041 290.404V290.395Z" fill="#FFFBF5"/>
<path d="M23.0293 289.014C23.1053 289.234 23.2003 289.378 23.2465 289.601C23.2899 289.807 23.2682 290.013 23.2736 290.236C23.2818 290.475 23.3062 290.711 23.3442 290.942C23.3822 291.173 23.4284 291.401 23.4908 291.623C23.5153 291.716 23.5478 291.805 23.5831 291.892C23.6212 291.99 23.7026 292.066 23.7569 292.155C23.8764 292.354 23.9361 292.584 24.0013 292.81C24.0556 292.994 24.0963 293.184 24.1316 293.377C24.3325 293.41 24.5986 293.179 24.7289 293.032C24.9787 292.755 25.2475 292.489 25.5054 292.221C25.9806 291.721 26.4584 291.221 26.9335 290.722C27.4033 290.228 27.8594 289.682 28.4133 289.272C29.3988 288.542 30.607 288.588 31.3781 289.196C31.4243 289.161 31.465 289.117 31.503 289.068C31.5682 288.982 31.6035 288.889 31.6496 288.8C31.6523 288.786 31.6551 288.77 31.6605 288.756C31.8315 287.657 32.5347 286.511 33.5936 285.878C33.314 285.213 32.9257 284.61 32.418 284.103C32.1383 283.823 31.8261 283.57 31.4867 283.356C31.1881 283.166 30.8595 282.962 30.5039 282.854C30.4794 282.862 30.4523 282.867 30.4224 282.867C30.3518 282.867 30.2867 282.845 30.2405 282.805C29.7056 282.805 29.5129 283.53 29.3717 283.929C29.2767 284.198 29.1545 284.469 28.9699 284.705C28.7608 284.974 28.4947 285.199 28.2015 285.379C27.653 285.71 27.0367 285.873 26.4448 285.981C25.8502 286.093 25.2583 286.166 24.6665 286.353C24.3814 286.443 24.1017 286.557 23.8384 286.712C23.7026 286.79 23.575 286.88 23.4555 286.983C23.3904 287.04 23.3334 287.108 23.2736 287.173C23.2899 287.586 23.1297 287.999 23.0265 288.419C22.9777 288.634 22.9587 288.819 23.0265 289.011L23.0293 289.014Z" fill="#FFFBF5"/>
<path d="M8.44117 305.573C8.22939 305.461 8.07463 305.323 7.95517 305.119C7.86557 304.967 7.80041 304.769 7.65922 304.65C7.62936 304.625 7.51804 304.552 7.48274 304.59C7.46917 304.606 7.48003 304.677 7.48003 304.696C7.48003 304.81 7.46374 304.916 7.36871 304.981C7.28183 305.043 7.18952 305.013 7.08363 305.024C6.93701 305.041 7.02661 305.255 7.0782 305.345C7.14608 305.456 7.23024 305.559 7.30898 305.665C7.385 305.771 7.45831 305.874 7.55062 305.966C7.68638 306.099 7.85743 306.246 8.03391 306.303C8.09907 306.325 8.1778 306.336 8.23482 306.311C8.29998 306.284 8.29998 306.224 8.31084 306.159C8.32985 306.048 8.37872 305.961 8.47375 305.901C8.50904 305.88 8.54434 305.863 8.58235 305.85C8.60679 305.839 8.68824 305.825 8.69638 305.801C8.72625 305.727 8.49818 305.608 8.43574 305.575L8.44117 305.573Z" fill="#FFFBF5"/>
<path d="M12.9536 302.429C12.9346 302.41 12.8966 302.393 12.8749 302.382C12.8124 302.35 12.7527 302.32 12.6957 302.277C12.4541 302.092 12.3482 301.853 12.2097 301.603C12.0929 301.394 11.9409 301.212 11.6965 301.166C11.1753 301.066 11.1291 301.761 11.0449 302.095C10.9255 302.562 10.7246 303.018 10.3634 303.33C10.1815 303.487 9.96976 303.601 9.72812 303.669C9.49191 303.735 9.24212 303.729 8.9869 303.705C8.76427 303.683 8.51448 303.631 8.30813 303.697C8.15066 303.745 7.99047 303.895 8.03391 304.082C8.10993 304.329 8.42488 304.446 8.61222 304.606C8.73169 304.709 8.81314 304.829 8.87015 304.967C8.90002 305.038 8.92989 305.168 9.01677 305.195C9.20139 305.252 9.35615 304.954 9.42946 304.848C9.58965 304.62 9.74712 304.389 9.91817 304.169C10.2223 303.778 10.5698 303.42 11.0232 303.183C11.2268 303.078 11.4549 303.001 11.6911 302.961C11.9246 302.923 12.169 302.931 12.4052 302.904C12.617 302.879 12.8314 302.817 12.9319 302.632C12.9591 302.583 12.9998 302.494 12.9482 302.434L12.9536 302.429Z" fill="#FFFBF5"/>
<path d="M22.7116 294.11C22.5976 293.858 22.4102 293.632 22.3206 293.372C22.155 292.891 22.3586 292.473 22.2256 291.998C22.174 291.813 22.0518 291.604 21.8726 291.509C21.7478 291.441 21.5821 291.444 21.4382 291.463C21.2373 291.49 21.0418 291.536 20.8491 291.582C20.602 291.642 20.3522 291.723 20.1594 291.867C19.7657 292.166 19.6517 292.685 19.592 293.192C19.5594 293.472 19.5485 293.76 19.5078 294.039C19.4671 294.316 19.3775 294.572 19.2797 294.821C19.0815 295.321 18.8209 295.788 18.4978 296.203C18.3376 296.41 18.1584 296.616 17.9249 296.749C17.7294 296.86 17.4824 297.048 17.2706 297.194C16.38 297.813 15.4976 298.446 14.599 299.057C14.1645 299.353 13.6976 299.605 13.2143 299.836C13.0106 299.934 12.7581 299.975 12.5898 300.116C12.4378 300.246 12.4378 300.423 12.5301 300.643C12.6387 300.89 12.8043 301.123 12.9889 301.335C13.0975 301.457 13.2116 301.574 13.331 301.688C13.426 301.78 13.5265 301.87 13.6487 301.913C13.9066 302.011 14.0912 301.843 14.2297 301.701C14.6071 301.319 14.9682 300.917 15.3402 300.531C16.1004 299.744 16.8796 298.975 17.6643 298.213C18.058 297.83 18.4625 297.455 18.8888 297.105C19.2852 296.779 19.6924 296.461 20.1594 296.222C20.2843 296.16 20.4119 296.103 20.545 296.051C20.6644 296.008 20.7758 295.951 20.9006 295.916C21.1667 295.837 21.4437 295.783 21.7179 295.715C21.9677 295.655 22.212 295.576 22.4238 295.454C22.6437 295.326 22.7768 295.147 22.8148 294.881C22.8501 294.642 22.8229 294.371 22.7062 294.113L22.7116 294.11Z" fill="#FFFBF5"/>
<path d="M6.43822 305.332C6.43822 305.332 6.43246 305.326 6.43246 305.323C6.42381 305.303 6.41804 305.341 6.43822 305.332Z" fill="#FFF5F5"/>
<path d="M7.61035 306.689C7.53433 306.651 7.45016 306.626 7.37143 306.594C7.2411 306.537 7.12978 306.466 7.02118 306.371C6.91529 306.279 6.81212 306.159 6.73881 306.043C6.66551 305.926 6.6465 305.804 6.6275 305.679C6.61392 305.573 6.55419 305.459 6.47817 305.369C6.47002 305.358 6.45102 305.345 6.43744 305.334C6.42386 305.35 6.41029 305.369 6.40486 305.394C6.37228 305.535 6.36142 305.684 6.34241 305.831C6.32612 305.969 6.32069 306.116 6.26911 306.244C6.21209 306.39 6.09534 306.442 5.94873 306.488C5.83741 306.523 5.75596 306.58 5.71252 306.689C5.5659 307.047 5.92429 307.463 6.31798 307.503C6.59491 307.533 6.7008 307.321 6.8447 307.153C7.00218 306.971 7.23567 306.849 7.49632 306.827C7.55605 306.822 7.72439 306.841 7.76511 306.795C7.75697 306.787 7.74882 306.778 7.73796 306.77C7.69995 306.738 7.65108 306.711 7.60492 306.689H7.61035Z" fill="#FFFBF5"/>
<path d="M6.82027 308.916C6.76868 308.807 6.63022 308.737 6.49989 308.891C6.41029 309 6.35328 309.122 6.26911 309.233C6.18766 309.339 6.08992 309.44 5.98674 309.529C5.67179 309.809 5.03918 310.235 5.2944 310.588C5.50617 310.882 5.98403 310.762 6.38314 310.564C6.63022 310.439 6.87186 310.298 7.11621 310.162C7.15422 310.14 7.27097 310.083 7.27097 310.051C7.27097 310.018 7.20853 309.996 7.1678 309.986C7.04562 309.956 6.92616 309.934 6.84199 309.85C6.76868 309.779 6.73067 309.673 6.73067 309.559C6.73067 309.348 6.91258 309.098 6.8257 308.913L6.82027 308.916Z" fill="#FFFBF5"/>
<path d="M9.27741 308.131C9.26927 308.025 9.16881 308.014 9.0765 307.99C8.96247 307.96 8.85929 307.914 8.81585 307.808C8.77513 307.713 8.76155 307.601 8.70725 307.515C8.65838 307.439 8.58236 307.365 8.49276 307.33C8.38959 307.287 8.22125 307.276 8.11536 307.411C8.04749 307.496 8.01762 307.602 7.97961 307.691C7.9416 307.786 7.89816 307.884 7.83299 307.973C7.74883 308.09 7.64022 308.169 7.51533 308.24C7.44202 308.283 7.4013 308.302 7.40401 308.373C7.40401 308.462 7.46103 308.53 7.49633 308.603C7.53434 308.682 7.55606 308.769 7.55334 308.867C7.54791 308.989 7.48003 309.22 7.59678 309.277C7.73525 309.345 7.96332 309.16 8.10722 309.065C8.34614 308.907 8.58779 308.753 8.82671 308.595C8.99233 308.487 9.27741 308.329 9.27741 308.128V308.131Z" fill="#FFFBF5"/>
<path d="M13.3039 303.776C13.2116 303.575 13.3174 303.303 13.2794 303.081C13.2523 302.921 13.1165 302.722 12.9265 302.72C12.7066 302.72 12.5437 302.978 12.4676 303.154C12.3699 303.38 12.3074 303.602 12.1907 303.827C12.0658 304.066 11.9083 304.303 11.7237 304.52C11.349 304.96 10.8956 305.302 10.3879 305.549C10.0023 305.736 9.4186 305.937 9.25841 306.382C9.19325 306.564 9.22583 306.73 9.28013 306.871C9.34529 307.045 9.44032 307.208 9.55978 307.341C9.65753 307.449 9.796 307.561 9.99148 307.523C10.2087 307.482 10.3797 307.248 10.5046 307.075C10.8223 306.632 11.0829 306.162 11.4359 305.733C11.7834 305.31 12.226 304.927 12.7283 304.753C12.9292 304.683 13.1328 304.666 13.331 304.58C13.4505 304.528 13.6188 304.406 13.6215 304.275C13.6134 304.172 13.5428 304.099 13.4858 304.031C13.4179 303.952 13.3473 303.871 13.3012 303.773L13.3039 303.776Z" fill="#FFFBF5"/>
<path d="M22.4998 296.402C22.7007 296.201 22.8962 295.992 23.1324 295.829C23.3659 295.669 23.6184 295.576 23.8899 295.481C24.1072 295.405 24.3379 295.318 24.433 295.101C24.5198 294.903 24.4818 294.648 24.4384 294.43C24.4058 294.284 24.3488 294.14 24.3026 293.996C24.2592 293.86 24.2158 293.727 24.1642 293.594C24.061 293.334 23.9361 293.059 23.727 292.853C23.5777 292.704 23.3252 292.543 23.1161 292.568C22.9342 292.587 22.8609 292.742 22.8446 292.913C22.8229 293.154 22.8718 293.407 22.8528 293.651C22.8311 293.931 22.7469 294.17 22.5514 294.363C22.3505 294.558 22.0871 294.678 21.8265 294.783C21.5957 294.876 21.3486 294.965 21.1912 295.158C21.0418 295.345 20.9848 295.59 20.9305 295.826C20.8681 296.092 20.8083 296.358 20.7079 296.611C20.6047 296.874 20.4717 297.121 20.3196 297.355C20.0155 297.822 19.6381 298.234 19.2363 298.617C18.4082 299.413 17.5502 300.17 16.5402 300.751C16.0651 301.025 15.5574 301.281 15.0252 301.452C14.7591 301.539 14.4876 301.606 14.2243 301.699C14.0179 301.772 13.7899 301.859 13.7057 302.071C13.6215 302.282 13.6785 302.521 13.7681 302.741C13.8659 302.986 14.0098 303.225 14.151 303.453C14.2894 303.678 14.4605 303.939 14.6858 304.093C14.7673 304.15 14.8732 304.188 14.9628 304.153C15.0687 304.112 15.1501 303.985 15.2261 303.909C16.866 302.261 18.5005 300.61 20.097 298.921C20.8952 298.08 21.6826 297.227 22.5025 296.404L22.4998 296.402Z" fill="#FFFBF5"/>
<path d="M13.7953 307.639C13.7003 307.629 13.6297 307.58 13.5672 307.534C13.4722 307.463 13.3989 307.379 13.3419 307.276C13.293 307.186 13.2604 307.088 13.2414 306.982C13.2306 306.931 13.2251 306.877 13.2224 306.822C13.2224 306.771 13.2034 306.725 13.1953 306.676C13.1844 306.613 13.1437 306.526 13.0649 306.521C12.9808 306.513 12.9292 306.643 12.902 306.703C12.8124 306.901 12.7256 307.094 12.6197 307.289C12.5029 307.498 12.3699 307.707 12.2205 307.906C11.9246 308.299 11.5391 308.647 11.1047 308.902C10.901 309.021 10.6811 309.106 10.4612 309.168C10.2983 309.214 10.0729 309.225 9.9426 309.364C9.78784 309.526 9.98333 309.643 10.0784 309.719C10.2277 309.841 10.3634 309.969 10.4612 310.132C10.5589 310.292 10.5942 310.49 10.6974 310.648C10.7761 310.77 10.9146 310.832 11.0856 310.71C11.1861 310.64 11.2567 310.528 11.3191 310.431C11.3789 310.338 11.4305 310.243 11.4848 310.151C11.6069 309.942 11.74 309.744 11.8975 309.551C12.207 309.168 12.5871 308.802 12.9998 308.514C13.2061 308.37 13.4206 308.24 13.6378 308.117C13.7573 308.049 13.8795 307.984 14.0016 307.922C14.0749 307.884 14.1673 307.849 14.1944 307.764C14.2406 307.577 13.9039 307.653 13.7926 307.639H13.7953Z" fill="#FFFBF5"/>
<path d="M27.33 295.815C27.6205 295.381 27.6911 294.879 27.4874 294.466C27.3055 294.102 26.8928 293.869 26.4285 293.926C25.9208 293.988 25.5299 294.433 25.1742 294.767C24.7615 295.153 24.3515 295.536 23.9388 295.921C23.7515 296.095 23.5451 296.266 23.3877 296.464C23.2655 296.613 23.1895 296.776 23.2112 296.95C23.2546 297.292 23.5424 297.537 23.651 297.849C23.7216 298.052 23.7433 298.272 23.7976 298.481C23.8519 298.682 23.9551 298.872 24.1805 298.927C24.3461 298.967 24.5361 298.921 24.6719 298.788C24.7343 298.726 24.7832 298.647 24.8104 298.568C24.8375 298.484 24.8375 298.403 24.8619 298.319C24.938 298.074 25.1199 297.862 25.3099 297.672C25.5136 297.469 25.7389 297.284 25.967 297.105C26.4584 296.717 26.9879 296.331 27.3327 295.815H27.33Z" fill="#FFFBF5"/>
<path d="M9.99419 311.009C9.8883 310.905 9.85572 310.732 9.82857 310.585C9.81228 310.487 9.83672 310.305 9.7254 310.265C9.61137 310.224 9.50819 310.406 9.45932 310.485C9.0955 311.068 8.48733 311.527 7.81942 311.701C7.66466 311.742 7.51261 311.742 7.36057 311.785C7.30898 311.799 7.2764 311.815 7.27097 311.867C7.26554 311.913 7.28998 311.959 7.30898 311.997C7.36328 312.105 7.45017 312.201 7.52076 312.298C7.60221 312.412 7.68638 312.524 7.76783 312.638C7.82756 312.719 7.89272 312.841 8.00947 312.866C8.08006 312.879 8.14523 312.841 8.20767 312.795C8.29727 312.724 8.34886 312.662 8.42488 312.581C8.54163 312.453 8.66381 312.328 8.79684 312.214C9.06564 311.981 9.37244 311.78 9.69282 311.628C9.85572 311.549 10.0213 311.497 10.1842 311.429C10.2494 311.402 10.3987 311.324 10.3499 311.248C10.263 311.139 10.0974 311.109 9.99691 311.011L9.99419 311.009Z" fill="#FFFBF5"/>
<path d="M22.1496 300.781C22.3776 300.613 22.6084 300.453 22.8446 300.301C23.0564 300.162 23.2899 300.048 23.4773 299.874C23.5886 299.771 23.6673 299.625 23.5343 299.538C23.4501 299.481 23.3496 299.451 23.26 299.405C23.1623 299.353 23.0863 299.277 23.032 299.185C22.8284 298.845 23.0075 298.397 22.8989 298.025C22.8066 297.71 22.4455 297.591 22.1007 297.713C21.669 297.862 21.3378 298.256 21.0961 298.612C20.8165 299.024 20.6237 299.475 20.4255 299.918C20.3278 300.135 20.2273 300.352 20.116 300.567C19.8906 301.004 19.6191 301.416 19.296 301.807C18.9648 302.209 18.5928 302.587 18.2073 302.945C17.8326 303.295 17.4444 303.637 17.0588 303.977C16.6543 304.335 16.2416 304.688 15.8099 305.017C15.3836 305.342 14.9329 305.657 14.4551 305.902C14.2514 306.005 14.0152 306.097 13.8442 306.255C13.7084 306.38 13.7274 306.515 13.8442 306.61C13.9935 306.733 14.1944 306.79 14.341 306.917C14.5121 307.067 14.5881 307.286 14.6777 307.49C14.7483 307.65 14.8379 307.835 15.0171 307.906C15.1827 307.973 15.3429 307.87 15.4732 307.743C15.6524 307.566 15.8126 307.368 15.9755 307.178C16.1601 306.969 16.342 306.757 16.5267 306.548C16.8769 306.146 17.2244 305.742 17.5747 305.34C18.2752 304.531 18.9675 303.713 19.7169 302.942C20.469 302.166 21.2726 301.427 22.1523 300.781H22.1496Z" fill="#FFFBF5"/>
<path d="M7.41215 313.248C7.30898 313.202 7.20309 313.156 7.13793 313.066C7.07276 312.98 7.05376 312.857 7.00489 312.76C6.95873 312.673 6.90443 312.591 6.84741 312.513C6.78768 312.431 6.73338 312.342 6.66007 312.274C6.62478 312.241 6.56233 312.184 6.49445 312.23C6.41843 312.282 6.38585 312.404 6.3587 312.475C6.3234 312.567 6.28811 312.662 6.22023 312.746C6.14421 312.844 6.0356 312.912 5.91886 312.936C5.83469 312.952 5.75324 312.944 5.67722 313.001C5.50617 313.126 5.5306 313.327 5.59033 313.449C5.67178 313.615 5.85098 313.71 6.02746 313.783C6.09805 313.813 6.17136 313.848 6.25553 313.854C6.34512 313.862 6.40757 313.789 6.47545 313.729C6.57591 313.637 6.68179 313.561 6.8094 313.528C6.91257 313.501 7.01303 313.501 7.11078 313.509C7.21123 313.517 7.53976 313.577 7.58591 313.403C7.59949 313.314 7.48274 313.278 7.41758 313.248H7.41215Z" fill="#FFFBF5"/>
<path d="M50.9348 284.809C51.2009 286.082 50.8832 287.464 50.0904 288.49C49.2976 289.517 48.0405 290.166 46.7482 290.217C46.4712 290.228 46.1563 290.195 45.9852 289.975C45.7979 289.737 45.8685 289.392 45.9472 289.099C46.1237 288.441 46.3002 287.787 46.4767 287.13C46.6803 286.373 46.8866 285.607 47.2803 284.931C47.674 284.255 48.2849 283.668 49.0397 283.481C49.5637 283.351 50.1719 283.44 50.5574 283.82C50.943 284.201 51.0163 284.904 50.6307 285.284" fill="#FFFBF5"/>
<path d="M32.3474 289.937C31.7745 288.816 31.7148 287.442 32.1899 286.274C32.6651 285.107 33.6669 284.173 34.8561 283.785C35.1114 283.701 35.4127 283.649 35.6299 283.809C35.8661 283.983 35.8879 284.322 35.8906 284.618C35.8933 285.278 35.8987 285.938 35.9014 286.595C35.9069 287.355 35.9096 288.126 35.7168 288.862C35.524 289.598 35.1059 290.304 34.4516 290.678C33.9955 290.939 33.409 291.015 32.9529 290.757C32.494 290.502 32.2469 289.864 32.5103 289.408" fill="#FFFBF5"/>
<path d="M45.8522 285.883C46.9735 285.699 47.8233 284.61 47.9319 283.467C48.0433 282.324 47.5165 281.186 46.7265 280.361C45.9337 279.536 44.9019 278.993 43.843 278.569C42.0131 277.836 40.0555 277.429 38.0871 277.372C36.7431 277.331 35.3449 277.472 34.1937 278.17C33.0425 278.868 32.2117 280.241 32.4832 281.566C32.8253 283.242 34.6444 284.135 36.2924 284.531C37.9432 284.928 39.7731 285.145 40.9705 286.356C41.5787 286.969 42.0185 287.836 42.8357 288.11C43.5281 288.343 44.31 288.055 44.8585 287.569C45.4069 287.083 45.7707 286.424 46.121 285.78" fill="#FFFBF5"/>
</g>
<defs>
<clipPath id="clip0_291_9779">
<rect width="161.216" height="325" fill="white"/>
</clipPath>
</defs>
</svg>
