<svg width="27" height="27" viewBox="0 0 27 27" fill="none" xmlns="http://www.w3.org/2000/svg">
<rect width="27" height="27" rx="13.5" fill="#BCC9DB"/>
<path d="M19.006 19.0079V15.2107C19.006 13.3444 18.6042 11.9188 16.4269 11.9188C15.3772 11.9188 14.6773 12.4891 14.3922 13.0334H14.3663V12.0873H12.3057V19.0079H14.457V15.5735C14.457 14.6663 14.6255 13.798 15.7401 13.798C16.8417 13.798 16.8546 14.8219 16.8546 15.6254V18.995H19.006V19.0079Z" fill="white"/>
<path d="M8.80811 12.0868H10.9595V19.0074H8.80811V12.0868Z" fill="white"/>
<path d="M9.88381 8.64038C9.19693 8.64038 8.63965 9.19766 8.63965 9.88454C8.63965 10.5714 9.19693 11.1417 9.88381 11.1417C10.5707 11.1417 11.128 10.5714 11.128 9.88454C11.128 9.19766 10.5707 8.64038 9.88381 8.64038Z" fill="white"/>
</svg>
