<svg width="169" height="261" viewBox="0 0 169 261" fill="none" xmlns="http://www.w3.org/2000/svg">
<path d="M160.916 83.8357C159.952 82.7027 158.946 81.5167 157.972 80.3095L156.945 79.0282C151.565 72.3357 148.007 67.92 147.615 64.5631C147.435 63.0065 147.34 60.8251 147.224 58.3048C146.906 51.1359 146.461 41.3301 143.613 35.1036C139.44 26.0074 127.347 15.6192 112.819 8.66202C95.4417 0.338798 77.1539 -2.08616 61.3229 1.8213C42.5268 6.47002 27.9982 17.0276 19.2832 32.3821C10.4729 47.9167 8.58795 66.734 13.9779 85.3712C19.675 105.036 26.4416 112.342 32.4246 118.781C36.5226 123.207 40.0701 127.019 42.5056 134.146C46.6778 146.334 46.0742 167.576 34.8919 185.398C33.3882 187.802 31.5774 190.428 29.4913 193.457C20.5221 206.471 7.27488 225.722 0 254.907C3.70627 254.599 7.46548 254.504 11.2882 254.652C23.1483 254.695 34.553 256.421 45.513 259.831C56.1659 255.934 67.4011 254.197 79.2188 254.652C88.3786 254.684 97.2631 255.722 105.883 257.766C106.264 257.766 106.635 257.776 107.005 257.787C114.704 257.808 122.212 258.56 129.518 260C137.174 258.21 145.106 257.469 153.323 257.787C155.197 257.787 157.061 257.861 158.925 257.946C147.637 239.944 135.639 223.043 127.411 211.458C121.576 203.241 117.362 197.311 116.642 195.574C113.454 187.865 111.982 170.52 114.947 166.771C116.345 164.992 122.392 164.728 128.788 164.452C135.851 164.145 143.867 163.796 148.77 161.35C158.808 156.362 158.088 144.703 157.824 140.319C157.792 139.779 157.76 139.356 157.76 139.049C157.76 137.577 158.861 136.221 159.941 134.908C160.736 133.934 161.487 133.013 161.837 132.017C162.652 129.698 162.218 127.834 160.661 126.723C161.487 126.119 162.133 125.282 162.451 124.361C162.811 123.313 162.726 122.233 162.207 121.333C161.657 120.369 161 119.924 160.428 119.532C159.147 118.653 157.824 117.743 157.665 109.229C161.434 108.223 167.354 105.787 168.508 100.345C169.789 94.2874 165.681 89.4375 160.916 83.8251V83.8357Z" fill="#DCC1B2"/>
<g opacity="0.69">
<path d="M81.8124 111.649C75.5858 84.8369 60.3054 86.2982 63.1857 114.805V114.826C63.3234 116.118 64.3929 117.103 65.6742 117.092C70.0158 117.081 74.8446 117.314 80.0545 117.907C81.5794 118.077 82.8501 116.7 82.5536 115.165C82.3207 113.979 82.0771 112.803 81.8018 111.649H81.8124Z" fill="#FFFBF5"/>
</g>
<path d="M62.1705 219.434C55.4887 216.532 49.3363 214.488 44.0522 213.165C43.3745 212.995 42.665 213.355 42.3897 214.022C42.2096 214.457 42.0296 214.891 41.8496 215.335C41.5107 216.172 41.9873 217.104 42.8556 217.326C48.6586 218.766 54.7156 220.958 60.4974 223.489C61.6199 223.976 62.9012 223.405 63.3354 222.25C63.3354 222.24 63.3354 222.219 63.346 222.208C63.7589 221.117 63.2295 219.899 62.1705 219.444V219.434Z" fill="#FFFBF5" stroke="#E6BCA5" stroke-width="0.69" stroke-miterlimit="10"/>
<path d="M56.208 235.843C49.4943 232.794 43.2678 230.581 37.846 229.109C37.1366 228.918 36.3953 229.31 36.1412 230.009C35.9823 230.453 35.8129 230.888 35.6541 231.332C35.3576 232.137 35.8235 233.027 36.6389 233.249C42.5689 234.88 48.6895 237.231 54.4713 239.867C55.6044 240.386 56.9386 239.804 57.3516 238.618C57.3516 238.607 57.3516 238.586 57.3622 238.575C57.7328 237.495 57.2351 236.32 56.208 235.854V235.843Z" fill="#FFFBF5" stroke="#E6BCA5" stroke-width="0.69" stroke-miterlimit="10"/>
<path d="M30.0708 253.274C35.8949 254.619 41.9626 256.695 47.7338 259.056C48.7821 258.707 49.8305 258.378 50.8894 258.071C50.9 258.039 50.9212 258.018 50.9318 257.997C50.9318 257.987 50.9423 257.965 50.9423 257.955C51.3659 256.843 50.8259 255.593 49.7458 255.149C42.8839 252.321 36.5514 250.341 31.0873 249.081C30.3567 248.911 29.626 249.356 29.4036 250.076C29.266 250.532 29.1283 250.976 29.0012 251.432C28.7577 252.247 29.2554 253.084 30.0708 253.274Z" fill="#FFFBF5" stroke="#E6BCA5" stroke-width="0.69" stroke-miterlimit="10"/>
<path d="M68.4487 203.188C61.1421 201.038 54.4496 199.683 48.6784 198.963C48.2337 200.043 47.7677 201.144 47.3018 202.267C53.9307 203.04 60.9197 204.618 67.4851 206.555C68.3534 206.81 69.2747 206.344 69.5818 205.475C69.5818 205.465 69.5818 205.454 69.5924 205.444C69.9206 204.491 69.3911 203.463 68.4487 203.188Z" fill="#FFFBF5" stroke="#E6BCA5" stroke-width="0.69" stroke-miterlimit="10"/>
<path d="M73.2131 188.23C66.4465 186.239 60.22 184.947 54.7665 184.195C54.3323 185.265 53.8876 186.366 53.4322 187.499C59.6376 188.315 66.1183 189.808 72.2389 191.608C73.2131 191.894 74.2191 191.28 74.4097 190.274C74.4097 190.263 74.4097 190.252 74.4097 190.242C74.5685 189.363 74.0603 188.484 73.2131 188.24V188.23Z" fill="#FFFBF5" stroke="#E6BCA5" stroke-width="0.69" stroke-miterlimit="10"/>
<path d="M76.6861 175.41C70.9679 173.705 65.6097 172.498 60.7915 171.704C60.1138 171.598 59.4573 171.99 59.2243 172.636C59.1608 172.805 59.0972 172.974 59.0337 173.154C58.716 174.023 59.2561 174.955 60.1561 175.103C65.3555 175.982 70.6608 177.274 75.7013 178.777C76.6543 179.063 77.6286 178.481 77.8615 177.507C77.8615 177.496 77.8615 177.486 77.8615 177.475C78.0733 176.585 77.5438 175.675 76.6755 175.41H76.6861Z" fill="#FFFBF5" stroke="#E6BCA5" stroke-width="0.69" stroke-miterlimit="10"/>
<path d="M79.3262 163.863C73.4915 162.148 68.0591 160.93 63.1669 160.157C62.8915 161.248 62.5844 162.36 62.2456 163.514C67.6144 164.382 73.1103 165.695 78.3414 167.241C79.2733 167.517 80.2369 166.956 80.4804 166.013C80.4804 166.003 80.4804 165.992 80.4804 165.981C80.7134 165.071 80.1945 164.139 79.305 163.874L79.3262 163.863Z" fill="#FFFBF5" stroke="#E6BCA5" stroke-width="0.69" stroke-miterlimit="10"/>
<path d="M80.7765 151.916C75.7677 150.73 71.0766 149.904 66.7879 149.375C65.8561 149.258 65.0195 149.925 64.903 150.878C64.903 150.889 64.903 150.899 64.903 150.91C64.7972 151.842 65.4537 152.7 66.375 152.816C70.9072 153.398 75.5136 154.277 79.9717 155.347C80.9035 155.569 81.8354 154.987 82.0472 154.034C82.0472 154.023 82.0472 154.013 82.0472 154.002C82.2484 153.07 81.6872 152.138 80.7659 151.927L80.7765 151.916Z" fill="#FFFBF5" stroke="#E6BCA5" stroke-width="0.69" stroke-miterlimit="10"/>
<path d="M81.568 140.58C76.231 139.606 71.2857 139.023 66.8488 138.748C66.0017 138.695 65.3028 139.383 65.324 140.241C65.324 140.421 65.3239 140.601 65.3345 140.781C65.3451 141.533 65.9381 142.147 66.6794 142.19C71.3916 142.507 76.2416 143.164 80.9644 144.032C81.9175 144.201 82.8175 143.556 82.9658 142.592C82.9658 142.581 82.9658 142.571 82.9658 142.56C83.114 141.618 82.4893 140.739 81.568 140.58Z" fill="#FFFBF5" stroke="#E6BCA5" stroke-width="0.69" stroke-miterlimit="10"/>
<path d="M81.5714 129.733C75.959 128.727 70.7703 128.145 66.1533 127.901C65.2744 127.859 64.5649 128.611 64.639 129.49C64.6602 129.67 64.6708 129.85 64.6814 130.03C64.7449 130.75 65.3168 131.311 66.0262 131.343C70.9291 131.629 76.0014 132.285 80.936 133.185C81.9314 133.365 82.8527 132.656 82.9586 131.629C82.9586 131.618 82.9586 131.607 82.9586 131.597C83.0433 130.697 82.4291 129.881 81.5608 129.722L81.5714 129.733Z" fill="#FFFBF5" stroke="#E6BCA5" stroke-width="0.69" stroke-miterlimit="10"/>
<path d="M80.2783 117.929C74.7083 117.294 69.5725 117.05 64.9979 117.093C64.1507 117.093 63.4942 117.844 63.5789 118.702L63.6318 119.242C63.706 119.994 64.3307 120.545 65.072 120.545C69.816 120.523 75.026 120.841 79.8865 121.381C80.8501 121.487 81.7078 120.767 81.7714 119.782C81.7714 119.772 81.7714 119.75 81.7714 119.74C81.8243 118.829 81.1784 118.024 80.2783 117.919V117.929Z" fill="#FFFBF5" stroke="#E6BCA5" stroke-width="0.69" stroke-miterlimit="10"/>
<path d="M82.0754 121.677C78.0091 121.148 73.8157 120.777 69.6753 120.619C69.294 118.109 66.9644 116.552 64.9312 116.171C60.1554 115.292 59.2977 122.069 56.0891 123.817C51.3345 126.4 52.9229 128.645 56.1633 127.322C60.4625 125.564 62.231 124.05 64.1476 124.282C64.2429 125.214 64.3276 126.125 64.4124 127.015C64.4547 127.48 64.8253 127.84 65.2913 127.862C70.1941 128.073 75.7535 128.677 81.8212 129.778C83.1767 130.022 84.3944 128.899 84.2674 127.502C84.1509 126.157 84.0238 124.823 83.865 123.509C83.7485 122.556 83.0072 121.805 82.0754 121.677Z" fill="#FFFBF5" stroke="#E6BCA5" stroke-width="0.69" stroke-miterlimit="10"/>
<path d="M82.5433 133.49C78.7735 132.759 74.8978 132.166 71.0539 131.764C71.0115 129.36 69.0737 127.486 67.2206 126.755C62.6883 124.965 60.581 131.467 57.1077 132.558C51.9613 134.178 53.105 136.688 56.5253 136.01C61.1634 135.089 63.1754 133.913 65.0391 134.602C65.1027 135.597 65.1662 136.571 65.2192 137.514C65.2509 138.17 65.7592 138.689 66.4052 138.721C70.9798 138.986 76.0838 139.568 81.6115 140.585C83.2316 140.881 84.7353 139.621 84.7247 137.948C84.7247 137.323 84.7247 136.698 84.7036 136.084C84.6824 134.814 83.7823 133.733 82.5539 133.5L82.5433 133.49Z" fill="#FFFBF5" stroke="#E6BCA5" stroke-width="0.69" stroke-miterlimit="10"/>
<path d="M82.8622 144.399C79.0819 143.658 75.1744 143.033 71.3093 142.609C71.214 140.587 69.8056 138.818 68.3125 137.908C64.1403 135.377 60.9847 141.423 57.3949 141.91C52.0473 142.63 52.7674 145.299 56.2512 145.214C61.3659 145.087 63.4838 144.145 65.2945 145.553C65.2734 146.104 65.2628 146.665 65.231 147.216C65.1675 148.306 65.9405 149.259 67.01 149.397C71.0869 149.905 75.5238 150.689 80.2573 151.79C82.2904 152.267 84.2389 150.763 84.3871 148.656C84.4295 147.946 84.4824 147.247 84.5142 146.548C84.5671 145.521 83.8682 144.6 82.8728 144.409L82.8622 144.399Z" fill="#FFFBF5" stroke="#E6BCA5" stroke-width="0.69" stroke-miterlimit="10"/>
<path d="M80.5844 155.477C77.4605 154.725 74.252 154.047 71.054 153.507C71.2128 151.357 69.8256 149.366 68.3008 148.329C64.2556 145.586 60.8141 151.463 57.1926 151.77C51.8238 152.226 52.4062 154.915 55.8901 155.011C60.4223 155.138 62.6355 154.492 64.2874 155.392C64.2239 155.582 64.1603 155.762 64.118 155.964C64.0862 156.133 64.0544 156.292 64.0227 156.461C63.6203 158.463 64.8804 160.422 66.8606 160.803C70.5457 161.512 74.4849 162.455 78.6254 163.652C80.7115 164.255 82.8611 162.847 83.1576 160.665C83.2106 160.284 83.2635 159.892 83.3164 159.511C83.56 157.658 82.3846 155.921 80.595 155.487L80.5844 155.477Z" fill="#FFFBF5" stroke="#E6BCA5" stroke-width="0.69" stroke-miterlimit="10"/>
<path d="M78.9531 167.414C75.7657 166.461 72.483 165.603 69.1791 164.862C69.1262 162.723 67.8767 160.722 66.4365 159.546C62.0313 155.988 57.5203 162.469 53.3163 162.49C47.0898 162.511 47.5134 165.688 51.5161 166.133C56.6414 166.694 59.2569 166.186 61.0783 167.308C60.8771 167.922 60.6653 168.547 60.4535 169.193C60.0405 170.411 60.7818 171.713 62.0313 171.936C66.5424 172.73 71.477 173.874 76.7399 175.441C78.6778 176.013 80.6898 174.806 81.0922 172.804C81.1875 172.359 81.2722 171.904 81.3569 171.459C81.7063 169.691 80.658 167.944 78.9637 167.435L78.9531 167.414Z" fill="#FFFBF5" stroke="#E6BCA5" stroke-width="0.69" stroke-miterlimit="10"/>
<path d="M76.1797 178.926C72.844 177.92 69.3919 177.019 65.9292 176.257C65.6327 174.298 64.3937 172.508 62.9748 171.418C58.146 167.69 53.1902 174.478 48.5733 174.489C41.7219 174.51 42.1879 177.835 46.593 178.301C51.8665 178.851 54.7151 178.417 56.7059 179.328C56.4517 179.995 56.187 180.662 55.9117 181.35C55.3398 182.791 56.2293 184.4 57.733 184.644C62.5406 185.438 67.8564 186.635 73.5535 188.318C75.5231 188.901 77.588 187.704 78.1069 185.692C78.3081 184.93 78.4987 184.167 78.6893 183.415C79.1764 181.478 78.0646 179.497 76.1797 178.926Z" fill="#FFFBF5" stroke="#E6BCA5" stroke-width="0.69" stroke-miterlimit="10"/>
<path d="M71.9647 191.513C68.862 190.613 65.6641 189.798 62.4661 189.099C62.0849 187.118 60.7718 185.339 59.2999 184.228C54.0476 180.288 48.6576 187.468 43.6488 187.478C36.2045 187.5 36.7128 191.015 41.4992 191.502C46.4021 192 49.3777 191.735 51.4849 192.254C51.1249 193.123 50.7649 194.001 50.3836 194.902C49.5365 196.935 50.7966 199.233 52.9463 199.593C57.6903 200.376 62.9426 201.562 68.5549 203.214C70.7681 203.871 73.0872 202.6 73.8073 200.376C74.1779 199.243 74.5273 198.11 74.8768 196.998C75.5969 194.658 74.2838 192.201 71.9647 191.524V191.513Z" fill="#FFFBF5" stroke="#E6BCA5" stroke-width="0.69" stroke-miterlimit="10"/>
<path d="M66.9893 206.407C63.0818 205.274 59.0473 204.268 55.0233 203.485C54.7057 201.409 53.3291 199.503 51.8465 198.243C47.1766 194.325 39.5947 199.259 35.0518 201.42C28.8571 204.374 29.4819 208.642 35.1472 206.153C40.7913 203.665 43.4598 204.723 45.4929 206.598C45.1964 207.307 44.8999 208.017 44.5928 208.747C43.6928 210.876 44.847 213.333 47.039 213.957C51.6348 215.26 56.7812 217.071 62.2876 219.464C64.469 220.417 66.9999 219.337 67.8682 217.092L67.9529 216.859C68.5883 215.228 69.1919 213.597 69.7849 211.988C70.6426 209.658 69.3401 207.085 66.9893 206.397V206.407Z" fill="#FFFBF5" stroke="#E6BCA5" stroke-width="0.69" stroke-miterlimit="10"/>
<path d="M61.0997 223.731C57.5841 222.174 53.9519 220.744 50.341 219.527C50.3622 216.837 48.6573 214.295 46.7936 212.696C41.7001 208.344 33.451 213.819 28.5058 216.223C21.7604 219.495 22.4487 224.249 28.6117 221.475C34.2981 218.912 37.2208 219.738 39.381 221.528C39.0104 222.46 38.6504 223.402 38.2797 224.345C37.3796 226.674 38.608 229.29 40.9694 230.01C45.6076 231.429 50.7222 233.346 56.1651 235.813C58.4101 236.83 61.0256 235.697 61.8622 233.346C62.3599 231.927 62.8682 230.529 63.3659 229.142C64.1389 227.024 63.1541 224.652 61.1103 223.752L61.0997 223.731Z" fill="#FFFBF5" stroke="#E6BCA5" stroke-width="0.69" stroke-miterlimit="10"/>
<path d="M55.1275 240.144C51.9825 238.693 48.721 237.317 45.4383 236.099C45.8195 232.234 42.8439 229.11 39.9742 227.606C33.6524 224.292 26.4516 232.255 21.9088 236.088C15.7352 241.319 17.5989 246.18 23.296 241.648C27.7541 238.1 30.7403 237.634 33.1652 238.386C32.5511 240.197 31.9263 242.018 31.3333 243.861C30.4967 246.476 31.9898 249.261 34.6054 249.96C39.1376 251.178 44.157 252.851 49.5046 255.033C52.0884 256.091 54.9899 254.673 55.7947 251.962C56.3983 249.928 57.0124 247.917 57.6372 245.926C58.3573 243.628 57.2878 241.139 55.1275 240.144Z" fill="#FFFBF5" stroke="#E6BCA5" stroke-width="0.69" stroke-miterlimit="10"/>
<path d="M45.4813 259.842C46.2331 259.567 46.985 259.302 47.7368 259.048C44.8353 257.862 41.8597 256.75 38.8841 255.765C38.6088 251.837 35.612 248.797 32.7529 247.325C27.1935 244.456 21.2846 250.121 16.7418 254.823C26.6429 255.299 36.2262 256.962 45.4813 259.842Z" fill="#FFFBF5" stroke="#E6BCA5" stroke-width="0.69" stroke-miterlimit="10"/>
<path d="M144.97 65.6796C142.672 56.541 143.911 42.1818 141.126 37.0778C139.082 33.3185 118.962 13.4635 93.0289 7.21582C95.9621 17.5934 103.523 43.9291 106.223 53.5865C108.193 50.4733 116.484 49.5944 120.032 53.5018C121.493 55.1114 121.842 58.1823 121.398 61.5497C123.727 61.5497 129.626 62.651 131.373 64.0594C133.607 58.9447 137.282 55.0055 139.071 57.0493C140.141 58.2776 140.744 61.1579 141.02 64.3877C141.454 69.6506 140.999 75.803 140.279 77.2008C140.183 77.2855 140.098 77.3702 139.993 77.4761C139.474 77.995 138.775 78.4185 137.991 78.715C137.991 78.715 137.97 78.7256 137.949 78.7256C135.439 79.6681 132.019 79.2974 130.473 76.3536C130.049 75.5488 129.774 74.6487 129.626 73.6851C122.192 81.4153 114.896 90.9457 114.896 90.9457C114.896 90.9457 113.975 97.3099 113.096 104.098C112.333 110.028 111.613 116.286 111.581 118.912C120.18 122.036 143.032 123.381 155.421 119.378C154.638 114.115 153.653 114.179 153.579 112.357C153.505 110.536 155.051 110.737 155.855 108.302C152.552 108.905 150.667 105.94 150.476 101.726C150.285 97.5217 152.922 89.8127 157.592 83.7026C152.816 79.0857 148.866 73.6004 144.98 65.6796H144.97Z" fill="#FFFBF5"/>
<path d="M145.286 65.5654C144.248 61.425 143.941 56.2468 143.644 51.2381C143.295 45.3292 142.967 39.7592 141.421 36.9213C139.059 32.5797 118.495 13.0106 93.1122 6.90051L92.5615 6.77344L92.7204 7.32408C93.9699 11.7292 96.0454 19.0147 98.2268 26.6708C101.245 37.2284 104.358 48.1354 105.915 53.6948L106.116 54.4043L106.508 53.7795C107.334 52.477 109.441 51.524 112.004 51.291C114.492 51.0686 117.859 51.5981 119.797 53.7372C121.079 55.1455 121.545 57.9835 121.079 61.5097L121.026 61.8909H121.407C123.684 61.8909 129.518 62.9922 131.181 64.3265L131.509 64.5912L131.679 64.1994C133.415 60.2178 135.935 57.1363 137.683 56.861C138.149 56.7869 138.519 56.9245 138.837 57.2846C139.737 58.3223 140.404 60.8532 140.701 64.4324C141.124 69.6106 140.679 75.6147 140.012 77.0125C139.928 77.0866 139.854 77.1714 139.769 77.2561C139.282 77.7326 138.646 78.135 137.905 78.4103L137.842 78.4315C135.47 79.321 132.24 79.0139 130.768 76.2183C130.376 75.4771 130.101 74.6087 129.952 73.6557L129.847 72.9992L129.391 73.4757C122.032 81.1318 114.704 90.6728 114.63 90.7681L114.577 90.8422V90.9269C114.556 90.9904 113.634 97.3652 112.766 104.079C111.771 111.873 111.273 116.733 111.252 118.925V119.169L111.474 119.253C116.26 120.99 125.706 122.197 135.279 122.197C142.649 122.197 150.093 121.477 155.526 119.719L155.79 119.635L155.748 119.349C155.282 116.204 154.742 114.944 154.35 114.033C154.096 113.44 153.927 113.048 153.906 112.36C153.874 111.566 154.191 111.237 154.668 110.761C155.155 110.274 155.748 109.67 156.161 108.431L156.341 107.891L155.79 107.986C154.679 108.188 153.715 107.965 152.921 107.319C151.671 106.303 150.919 104.322 150.803 101.728C150.623 97.81 153.037 90.228 157.845 83.9274L158.025 83.6838L157.813 83.472C152.9 78.728 149.034 73.2004 145.275 65.576L145.286 65.5654ZM150.146 101.749C150.273 104.534 151.11 106.694 152.518 107.838C153.323 108.495 154.276 108.791 155.346 108.706C155.007 109.469 154.594 109.882 154.213 110.263C153.694 110.782 153.207 111.28 153.249 112.37C153.281 113.175 153.493 113.662 153.747 114.276C154.107 115.134 154.604 116.299 155.049 119.147C142.734 123.002 120.411 121.647 111.919 118.671C111.972 116.394 112.469 111.64 113.423 104.142C114.238 97.8629 115.096 91.88 115.212 91.0858C115.879 90.228 122.572 81.5765 129.423 74.3864C129.592 75.17 129.857 75.8795 130.185 76.5254C131.827 79.6599 135.395 80.0411 138.022 79.0668H138.117L138.159 79.0139C138.964 78.7068 139.673 78.2621 140.214 77.722C140.309 77.6267 140.404 77.542 140.489 77.4573L140.552 77.3726C141.357 75.8159 141.749 69.3776 141.336 64.3794C141.114 61.7533 140.584 58.3117 139.313 56.8398C138.858 56.3104 138.244 56.0986 137.566 56.2045C135.65 56.5116 133.076 59.5083 131.234 63.5641C129.201 62.2933 124.15 61.3297 121.767 61.2344C122.18 57.634 121.661 54.8173 120.274 53.2924C118.484 51.3228 115.371 50.3274 111.929 50.6239C109.515 50.8357 107.461 51.6828 106.359 52.8688C104.75 47.14 101.753 36.6354 98.8516 26.4696C96.7549 19.1206 94.7535 12.1211 93.4934 7.67353C119.67 14.186 139.155 34.1575 140.828 37.2284C142.3 39.9287 142.628 45.4351 142.967 51.2593C143.263 56.3104 143.57 61.5415 144.64 65.7561L144.661 65.8196C148.41 73.4333 152.264 78.961 157.135 83.7262C152.349 90.1115 149.956 97.7359 150.136 101.728L150.146 101.749Z" fill="#E6BCA5"/>
<path d="M106.22 53.5878C106.22 53.5878 106.167 53.6619 106.146 53.6937C105.977 53.9902 105.828 54.4456 105.712 55.028C104.674 60.1214 105.903 74.7771 111.885 75.6984C111.907 75.6984 111.928 75.6984 111.949 75.6984C112.659 75.7937 113.368 75.6772 114.046 75.3807C116.672 74.5335 118.589 71.1661 119.838 67.6399C119.838 67.6081 119.849 67.5975 119.859 67.5657C120.601 65.6279 121.13 63.5312 121.395 61.551C121.839 58.1836 121.49 55.1233 120.029 53.5031C116.481 49.5956 108.19 50.4746 106.22 53.5878Z" fill="#FFFBF5"/>
<path d="M111.939 50.6238C109.175 50.8673 106.888 51.9369 105.967 53.3876C105.935 53.43 105.892 53.4829 105.871 53.5359C105.691 53.8641 105.532 54.3407 105.395 54.9654C104.611 58.8517 105.119 68.8481 108.328 73.5285C109.323 74.9899 110.509 75.8264 111.907 76.0382C112.087 76.0594 112.267 76.0806 112.447 76.0806C113.019 76.0806 113.591 75.9535 114.142 75.7099C117.117 74.7569 119.044 70.86 120.135 67.7573L120.156 67.6938C120.908 65.7242 121.448 63.6169 121.713 61.6049C122.211 57.8245 121.692 54.8701 120.262 53.2923C118.473 51.3227 115.359 50.3273 111.918 50.6238H111.939ZM121.078 61.5096C120.813 63.4687 120.294 65.523 119.574 67.4185C119.542 67.4714 119.532 67.5244 119.532 67.5244C118.494 70.4788 116.672 74.1851 113.919 75.0746C113.273 75.3605 112.627 75.4558 111.95 75.3605C110.806 75.1805 109.768 74.4286 108.879 73.1367C105.776 68.6045 105.278 58.8729 106.051 55.0925C106.168 54.5313 106.295 54.1183 106.443 53.8641C106.454 53.843 106.475 53.8112 106.507 53.7688C107.333 52.4663 109.44 51.5133 112.003 51.2803C112.341 51.2486 112.701 51.238 113.061 51.238C115.381 51.238 118.123 51.8839 119.796 53.7371C121.078 55.1454 121.543 57.9834 121.078 61.5096Z" fill="#E6BCA5"/>
<path d="M136.175 123.137C136.144 124.292 136.112 125.372 136.133 125.742C136.175 126.484 136.366 127.204 138.283 127.204C138.367 127.204 138.452 127.204 138.547 127.204C140.739 127.14 140.782 126.049 140.824 125.16C140.845 124.525 140.888 122.979 140.909 121.697C139.363 121.782 137.785 121.835 136.207 121.846C136.197 122.258 136.186 122.703 136.175 123.137Z" fill="#FFFBF5"/>
<path d="M131.148 122.652C131.116 123.795 131.084 124.886 131.105 125.246C131.148 125.987 131.338 126.718 133.244 126.718C133.329 126.718 133.424 126.718 133.52 126.718C135.712 126.654 135.754 125.564 135.796 124.674C135.817 124.145 135.849 122.98 135.87 121.857C134.293 121.868 132.715 121.847 131.169 121.783C131.169 122.069 131.158 122.366 131.148 122.652Z" fill="#FFFBF5"/>
<path d="M125.515 122.006C125.472 123.192 125.451 124.314 125.472 124.695C125.515 125.437 125.737 126.167 127.887 126.167C127.982 126.167 128.077 126.167 128.183 126.167C130.64 126.093 130.693 125.013 130.746 124.113C130.778 123.668 130.799 122.736 130.82 121.773C129.02 121.709 127.251 121.603 125.536 121.455C125.536 121.635 125.536 121.826 125.525 122.016L125.515 122.006Z" fill="#FFFBF5"/>
<path d="M119.435 121.483C119.403 122.659 119.361 123.866 119.393 124.258C119.435 124.967 119.679 125.719 122.019 125.719C122.125 125.719 122.231 125.719 122.347 125.719C125.026 125.645 125.079 124.554 125.132 123.665C125.153 123.241 125.185 122.351 125.206 121.409C123.184 121.229 121.246 120.996 119.467 120.721C119.467 120.975 119.456 121.229 119.446 121.483H119.435Z" fill="#FFFBF5"/>
<path d="M141.217 123.143C141.196 124.329 141.164 125.451 141.185 125.832C141.217 126.574 141.408 127.304 143.155 127.304C143.229 127.304 143.314 127.304 143.388 127.304C145.389 127.23 145.442 126.15 145.474 125.25C145.506 124.53 145.548 122.656 145.559 121.321C144.15 121.48 142.7 121.607 141.238 121.681C141.228 122.147 141.217 122.645 141.207 123.153L141.217 123.143Z" fill="#FFFBF5"/>
<path d="M146.046 121.274C146.046 121.74 146.025 122.259 146.014 122.778C145.982 123.974 145.951 125.086 145.972 125.467C146.014 126.209 146.194 126.939 147.984 126.939C148.058 126.939 148.153 126.939 148.227 126.939C150.282 126.876 150.324 125.785 150.366 124.895C150.398 124.175 150.388 122.057 150.388 120.628C149 120.893 147.539 121.115 146.035 121.284L146.046 121.274Z" fill="#FFFBF5"/>
<path d="M150.802 122.197C150.781 123.383 150.749 124.505 150.77 124.886C150.812 125.628 150.992 126.348 152.782 126.348H153.025C155.08 126.273 155.133 125.183 155.164 124.293C155.186 123.531 155.186 121.169 155.186 119.761V119.443C153.841 119.867 152.38 120.238 150.833 120.534C150.823 121.042 150.812 121.625 150.791 122.197H150.802Z" fill="#FFFBF5"/>
<path d="M138.731 127.603H138.477C136.56 127.603 136.37 128.323 136.327 129.064C136.306 129.434 136.327 130.515 136.37 131.658C136.38 132.357 136.401 133.067 136.412 133.649C137.979 133.776 139.557 133.871 141.114 133.946C141.114 132.59 141.05 130.43 141.018 129.646C140.976 128.767 140.934 127.677 138.742 127.603H138.731Z" fill="#FFFBF5"/>
<path d="M133.711 127.11H133.446C131.53 127.11 131.339 127.83 131.297 128.582C131.275 128.963 131.297 130.086 131.339 131.272C131.35 131.928 131.371 132.596 131.381 133.157C132.906 133.347 134.495 133.506 136.083 133.644C136.083 132.31 136.019 129.991 135.988 129.165C135.945 128.286 135.892 127.195 133.711 127.121V127.11Z" fill="#FFFBF5"/>
<path d="M128.384 126.553C128.278 126.553 128.183 126.553 128.087 126.553C125.927 126.553 125.715 127.283 125.673 128.014C125.652 128.395 125.673 129.518 125.715 130.704C125.726 131.254 125.747 131.805 125.758 132.292C127.389 132.589 129.178 132.864 131.052 133.086C131.052 131.731 130.989 129.391 130.936 128.575C130.894 127.707 130.83 126.616 128.384 126.542V126.553Z" fill="#FFFBF5"/>
<path d="M122.571 126.127C122.455 126.127 122.349 126.127 122.254 126.127C119.924 126.127 119.681 126.847 119.628 127.599C119.606 127.98 119.638 129.103 119.681 130.289C119.681 130.479 119.691 130.67 119.702 130.86C121.163 131.358 123.154 131.835 125.473 132.269C125.462 130.903 125.409 128.912 125.356 128.192C125.314 127.313 125.251 126.222 122.571 126.148V126.127Z" fill="#FFFBF5"/>
<path d="M143.537 127.852C143.463 127.852 143.368 127.852 143.294 127.852C141.536 127.852 141.356 128.572 141.314 129.323C141.293 129.705 141.314 130.827 141.356 132.013C141.367 132.701 141.388 133.411 141.398 133.972C142.881 134.025 144.332 134.046 145.719 134.036C145.719 132.701 145.666 130.668 145.634 129.895C145.592 129.027 145.549 127.936 143.537 127.862V127.852Z" fill="#FFFBF5"/>
<path d="M148.176 127.478H147.943C146.196 127.478 146.016 128.198 145.973 128.939C145.952 129.331 145.973 130.559 146.016 131.734C146.037 132.56 146.058 133.418 146.058 134.022C147.551 134.001 148.97 133.937 150.294 133.831C150.294 132.402 150.294 130.252 150.273 129.511C150.23 128.632 150.188 127.552 148.187 127.478H148.176Z" fill="#FFFBF5"/>
<path d="M152.814 126.812C152.73 126.812 152.645 126.812 152.56 126.812C150.781 126.812 150.59 127.532 150.559 128.283C150.538 128.675 150.559 129.914 150.58 131.238C150.59 132.191 150.601 133.155 150.601 133.822C152.242 133.673 153.714 133.451 154.953 133.133C154.953 131.704 154.953 129.586 154.932 128.855C154.89 127.987 154.847 126.896 152.814 126.822V126.812Z" fill="#FFFBF5"/>
<path d="M105.714 55.0283C91.6621 55.5154 70.3563 67.1108 67.2748 83.9796C67.1584 84.5938 67.0631 85.1974 66.9889 85.7904C64.8181 102.077 74.4862 112.433 88.5594 113.09C92.128 110.411 94.9554 92.4405 102.326 92.4299C102.897 92.4299 103.416 92.5146 103.903 92.684C106.36 88.9036 110.035 80.4957 111.941 75.7093C111.919 75.7093 111.898 75.7093 111.877 75.7093C105.894 74.788 104.666 60.1324 105.704 55.0389L105.714 55.0283Z" fill="#FFFBF5"/>
<path d="M108.871 73.1428C105.768 68.6105 105.27 58.8789 106.043 55.0985L106.128 54.6855H105.705C98.3555 54.9503 89.5664 58.0847 82.1962 63.0829C73.7777 68.8011 68.3559 76.1925 66.9476 83.9227C66.8311 84.5687 66.7358 85.1828 66.6511 85.7547C65.6027 93.612 67.2335 100.421 71.3527 105.44C75.3131 110.258 81.4126 113.096 88.5392 113.435H88.6557L88.751 113.372C90.1382 112.323 91.356 109.263 92.7644 105.705C95.0517 99.9444 97.8896 92.786 102.327 92.7754C102.845 92.7754 103.343 92.8601 103.798 93.0084L104.042 93.0931L104.18 92.8813C106.795 88.8362 110.607 79.9729 112.249 75.843L112.418 75.3771H111.931C110.787 75.1971 109.75 74.4453 108.86 73.1534L108.871 73.1428ZM103.767 92.2883C103.311 92.1612 102.824 92.0977 102.327 92.0977C97.4449 92.0977 94.5116 99.4996 92.1608 105.451C90.8795 108.691 89.6617 111.751 88.4545 112.757C81.5714 112.408 75.6732 109.655 71.861 105.006C67.8582 100.135 66.291 93.5061 67.3076 85.8394C67.3817 85.2781 67.477 84.6746 67.5935 84.0392C70.6326 67.3928 91.8007 56.0622 105.313 55.3844C104.635 59.5249 105.228 69.0023 108.32 73.524C109.231 74.8476 110.279 75.663 111.486 75.9595C109.803 80.1317 106.266 88.3279 103.756 92.2883H103.767Z" fill="#E6BCA5"/>
<path d="M87.9328 6.16407C78.0106 4.53331 67.3789 5.06278 56.6943 9.29852C32.1694 19.0195 20.7858 41.0242 21.5694 62.457C32.36 72.951 52.5327 81.486 66.9871 85.7747C67.0612 85.1817 67.1671 84.5675 67.273 83.9639C70.3545 67.0951 91.6603 55.4998 105.712 55.0127C105.829 54.4409 105.977 53.9855 106.146 53.6784C106.168 53.6467 106.189 53.6043 106.221 53.5725C103.52 43.9045 95.9595 17.5794 93.0263 7.20182C91.3532 6.79943 89.6483 6.44998 87.9328 6.17466V6.16407Z" fill="#FFFBF5"/>
<path d="M98.8499 26.4553C96.6579 18.7992 94.5824 11.5138 93.3434 7.10859L93.2905 6.91798L93.0999 6.87562C91.3738 6.46264 89.6583 6.11319 87.9852 5.83787C76.9829 4.02709 66.4147 5.09661 56.5772 8.99349C29.4685 19.7311 20.5523 43.663 21.2406 62.4697V62.6073L21.3465 62.7026C28.4096 69.5751 44.0818 79.3279 66.9018 86.105L67.2725 86.211L67.3254 85.8297C67.3995 85.2685 67.4948 84.6649 67.6113 84.0295C70.6822 67.2137 92.2527 55.8195 105.744 55.3536H105.998L106.051 55.0889C106.167 54.5276 106.294 54.1147 106.442 53.8605C106.453 53.8393 106.474 53.8076 106.495 53.7864L106.601 53.6487L106.559 53.4793C105.002 47.9199 101.889 37.0023 98.871 26.4447L98.8499 26.4553ZM105.447 54.6971C98.151 55.0148 89.4783 58.128 82.1928 63.0732C73.7743 68.7915 68.3526 76.1828 66.9442 83.9131C66.8489 84.4108 66.7748 84.8979 66.7006 85.3638C44.3042 78.6608 28.8967 69.0986 21.876 62.3214C21.2406 43.7583 30.0827 20.2182 56.7996 9.62885C66.5206 5.77433 76.9723 4.72599 87.8687 6.51559C89.4677 6.78032 91.1091 7.10859 92.7504 7.50039C94 11.9267 96.0543 19.1063 98.2039 26.6565C101.19 37.1188 104.282 47.9305 105.849 53.5322C105.691 53.8076 105.553 54.1994 105.436 54.7077L105.447 54.6971Z" fill="#E6BCA5"/>
<path d="M66.9877 85.7894C52.5332 81.5007 32.3605 72.9657 21.57 62.4717C21.9406 72.7645 25.128 82.9409 31.0157 91.5394C48.5728 117.208 82.5222 115.514 87.9334 113.417C88.1134 113.353 88.2616 113.279 88.3675 113.216C88.4311 113.173 88.4946 113.131 88.5581 113.089C74.4743 112.422 64.8168 102.076 66.9877 85.7894Z" fill="#FFFBF5"/>
<path d="M71.858 104.997C67.8552 100.126 66.288 93.4973 67.3046 85.8306L67.3469 85.5447L67.0716 85.46C44.368 78.7146 28.8017 69.0359 21.7916 62.2164L21.2092 61.6445L21.2409 62.4705C21.6327 73.081 24.9154 83.1938 30.7502 91.7183C40.1535 105.463 54.0043 110.991 63.9689 113.204C69.3377 114.401 74.3888 114.824 78.5081 114.824C83.1356 114.824 86.5983 114.295 88.0597 113.723C88.2503 113.649 88.4197 113.575 88.5468 113.501C88.6209 113.458 88.6844 113.416 88.7586 113.363L89.5422 112.802L88.5785 112.759C81.6425 112.431 75.7019 109.678 71.8686 105.008L71.858 104.997ZM64.096 112.558C54.2479 110.366 40.5665 104.913 31.2796 91.3476C25.6673 83.1515 22.4481 73.4622 21.9292 63.2753C29.2253 70.0736 44.5693 79.4452 66.6163 86.0318C65.642 93.762 67.2834 100.465 71.3497 105.431C75.0454 109.932 80.6048 112.706 87.1278 113.331C83.7074 114.274 74.5582 114.888 64.0854 112.569L64.096 112.558Z" fill="#E6BCA5"/>
<path d="M118.494 216.711C116.811 216.308 115.116 217.367 114.714 219.083C113.973 222.27 106.529 224.706 91.947 222.493C70.673 219.263 52.8829 209.394 53.2535 203.58C53.3594 201.822 52.0464 200.308 50.3203 200.191C48.5942 200.086 47.1011 201.42 46.9847 203.178C46.614 209.002 51.7922 214.773 61.958 219.856C70.0906 223.933 80.9553 227.268 91.0257 228.804C95.0603 229.418 98.7454 229.715 102.039 229.715C112.744 229.715 119.426 226.548 120.824 220.555C121.227 218.839 120.178 217.124 118.494 216.711Z" fill="#FFFBF5" stroke="#E6BCA5" stroke-width="0.69" stroke-miterlimit="10"/>
<path d="M128.733 236.784C127.071 236.275 125.323 237.228 124.815 238.912C121.321 250.592 98.13 245.477 91.0987 243.624C80.1282 240.744 68.2152 235.746 59.2248 230.282C49.5673 224.405 46.4647 219.851 46.7823 218.369C47.1424 216.643 46.0623 214.948 44.368 214.578C42.6737 214.207 41.0006 215.308 40.6405 217.024C39.4757 222.541 44.6433 228.842 55.9951 235.756C65.4725 241.528 78.0103 246.78 89.5209 249.808C96.9652 251.767 103.584 252.731 109.249 252.731C120.887 252.731 128.468 248.654 130.83 240.776C131.338 239.092 130.396 237.302 128.733 236.794V236.784Z" fill="#FFFBF5" stroke="#E6BCA5" stroke-width="0.69" stroke-miterlimit="10"/>
<path d="M34.8282 257.109C33.6846 255.34 33.7375 254.525 33.7481 254.419C33.9811 252.672 32.7739 251.062 31.0584 250.829C29.343 250.596 27.7546 251.814 27.5216 253.561C27.4263 254.303 27.4475 255.065 27.5851 255.849C30.0207 256.188 32.4351 256.611 34.8282 257.109Z" fill="#FFFBF5" stroke="#E6BCA5" stroke-width="0.69" stroke-miterlimit="10"/>
<path d="M56.4826 256.646C59.6065 255.957 62.7833 255.449 66.0024 255.11C47.3122 243.938 41.0433 236.155 41.0645 234.313C41.3081 232.565 40.1221 230.945 38.4066 230.702C36.6911 230.448 35.0921 231.655 34.8486 233.402C34.5097 235.763 35.5263 238.39 37.9513 241.408C41.5199 245.845 48.2865 251.287 56.472 256.646H56.4826Z" fill="#FFFBF5" stroke="#E6BCA5" stroke-width="0.69" stroke-miterlimit="10"/>
<path d="M139.642 258.298C139.695 256.721 138.604 255.302 137.026 255.047C135.311 254.762 133.701 255.948 133.415 257.684C133.341 258.161 133.224 258.701 133.087 259.273C135.247 258.86 137.439 258.542 139.642 258.298Z" fill="#FFFBF5" stroke="#E6BCA5" stroke-width="0.69" stroke-miterlimit="10"/>
<path d="M155.109 133.086C145.833 135.522 122.187 132.769 117.824 130.026C112.561 126.711 112.73 117.308 114.022 110.192C115.304 103.076 113.758 99.0204 111.777 98.5121C108.029 97.559 109.723 105.279 104.619 106.263C99.5149 107.248 94.4956 89.6276 89.8469 93.8528C86.1936 97.1778 93.712 102.981 94.7815 109.726C95.851 116.472 93.3625 129.242 99.5255 137.566C105.223 145.264 116.288 143.75 126.497 146.852C136.705 149.966 145.928 154.498 151.233 150.273C154.834 147.403 152.896 142.108 153.118 140.043C153.341 137.979 154.728 134.95 155.098 133.086H155.109Z" fill="#FFFBF5"/>
<path d="M118.006 129.731C112.193 126.067 113.517 114.885 114.353 110.236C115.645 103.057 114.078 98.7362 111.865 98.175C109.768 97.6455 109.122 99.5093 108.487 101.309C107.809 103.247 107.036 105.439 104.569 105.916C102.398 106.339 100.068 102.792 97.8125 99.361C95.7159 96.163 93.7356 93.1345 91.6601 92.8697C90.9401 92.7744 90.2623 93.018 89.6376 93.5898C87.3185 95.7077 89.0552 98.6303 91.0671 102.008C92.4543 104.349 94.0322 106.996 94.4769 109.76C94.784 111.708 94.7946 114.239 94.8052 116.918C94.8263 123.536 94.8581 131.775 99.2845 137.747C103.234 143.084 109.715 144.08 116.566 145.149C119.807 145.647 123.163 146.166 126.425 147.161C128.373 147.754 130.301 148.4 132.154 149.036C137.237 150.751 141.885 152.318 145.729 152.318C147.921 152.318 149.859 151.81 151.458 150.529C154.296 148.263 153.873 144.556 153.587 142.089C153.491 141.263 153.407 140.554 153.46 140.066C153.576 138.912 154.084 137.44 154.571 136.011C154.931 134.952 155.27 133.956 155.44 133.141L155.546 132.612L155.037 132.749C145.75 135.195 122.263 132.4 118.006 129.731ZM153.947 135.799C153.449 137.26 152.93 138.775 152.803 140.003C152.739 140.564 152.824 141.305 152.93 142.174C153.205 144.62 153.587 147.977 151.045 150.01C146.894 153.314 140.159 151.037 132.344 148.411C130.481 147.786 128.553 147.13 126.594 146.537C123.291 145.531 119.913 145.012 116.651 144.503C109.927 143.466 103.584 142.481 99.7928 137.366C95.4935 131.574 95.4723 123.462 95.4405 116.939C95.4405 114.239 95.4194 111.676 95.1017 109.675C94.6357 106.784 93.0262 104.073 91.6072 101.68C89.6693 98.4186 88.1445 95.8453 90.0612 94.0981C90.4847 93.7169 90.9083 93.5263 91.3531 93.5263C91.4272 93.5263 91.4907 93.5263 91.5648 93.5369C93.3438 93.7698 95.324 96.7984 97.2513 99.7316C99.6233 103.343 102.069 107.081 104.674 106.572C107.512 106.022 108.381 103.533 109.09 101.532C109.789 99.5516 110.255 98.4503 111.695 98.8209C113.569 99.2975 114.904 103.417 113.697 110.12C112.839 114.896 111.494 126.417 117.646 130.303C119.775 131.648 126.584 133.067 134.579 133.829C142.944 134.624 150.378 134.518 154.656 133.543C154.476 134.211 154.211 134.994 153.936 135.81L153.947 135.799Z" fill="#E6BCA5"/>
<path d="M140.279 77.2007C140.184 77.2854 140.099 77.3701 139.994 77.476C139.475 77.9949 138.776 78.4185 137.992 78.715C137.992 78.715 137.971 78.7256 137.95 78.7256C135.44 79.668 132.02 79.2974 130.474 76.3535C130.05 75.5488 129.775 74.6487 129.627 73.685C129.256 71.366 129.627 68.6975 130.527 66.2937C130.77 65.5312 131.056 64.7794 131.374 64.0487C129.616 62.6509 123.728 61.5391 121.399 61.5391C121.134 63.5193 120.604 65.616 119.863 67.5538C119.853 67.5856 119.842 67.5962 119.842 67.6279C118.592 71.1542 116.676 74.5216 114.05 75.3687C113.372 75.6652 112.662 75.7923 111.953 75.6864C110.036 80.4728 106.362 88.8807 103.916 92.6611C107.993 94.0483 109.655 100.741 113.107 104.076C114.738 105.644 116.75 106.459 119.609 105.633C129.267 102.816 123.697 94.4613 126.99 89.7173C130.283 84.9733 138.469 82.8554 141.455 79.2656C141.741 78.8209 142.058 78.2914 142.143 77.6349C142.366 76.0465 141.645 75.93 140.279 77.1901V77.2007Z" fill="#FFFBF5"/>
<path d="M142.057 76.0996C141.602 75.856 140.945 76.1313 140.056 76.9573C139.961 77.0526 139.865 77.1373 139.77 77.2326C139.283 77.7091 138.648 78.1115 137.906 78.3868L137.843 78.408C135.471 79.2975 132.241 78.9904 130.769 76.1949C130.377 75.4536 130.102 74.5853 129.954 73.6216C129.604 71.4614 129.922 68.8247 130.843 66.3891C131.066 65.6796 131.341 64.9596 131.68 64.176L131.786 63.943L131.584 63.7841C129.752 62.3228 123.717 61.2109 121.397 61.2109H121.112L121.069 61.4969C120.804 63.4559 120.286 65.5102 119.566 67.4057C119.534 67.4587 119.523 67.5116 119.523 67.5116C118.485 70.466 116.664 74.1723 113.911 75.0618C113.265 75.3477 112.619 75.4536 111.994 75.3583L111.74 75.3265L111.645 75.5701C110.003 79.6788 106.223 88.4891 103.629 92.4919L103.396 92.8519L103.798 92.9896C106.106 93.7732 107.621 96.3781 109.22 99.1314C110.31 101.006 111.433 102.944 112.862 104.331C114.228 105.654 115.743 106.3 117.448 106.3C118.157 106.3 118.898 106.184 119.682 105.961C126.025 104.119 126.046 99.7879 126.067 95.9757C126.078 93.7202 126.089 91.5812 127.243 89.9186C129.011 87.3666 132.22 85.5982 135.333 83.8933C137.885 82.4849 140.31 81.1507 141.676 79.5093L141.718 79.4564C142.026 78.9799 142.364 78.408 142.46 77.688C142.502 77.3703 142.64 76.4066 142.047 76.089L142.057 76.0996ZM141.814 77.6032C141.74 78.1857 141.454 78.6622 141.2 79.0646C139.897 80.6318 137.536 81.9343 135.037 83.3109C131.86 85.0581 128.577 86.8689 126.724 89.548C125.453 91.38 125.443 93.7202 125.432 95.9863C125.411 99.915 125.39 103.621 119.523 105.337C117.088 106.046 115.118 105.58 113.339 103.865C111.973 102.552 110.872 100.646 109.813 98.8137C108.309 96.2193 106.752 93.5402 104.423 92.5236C106.975 88.4255 110.533 80.1659 112.174 76.0678C112.841 76.1207 113.519 75.9937 114.154 75.7077C117.13 74.7547 119.057 70.8578 120.148 67.7551L120.169 67.6916C120.879 65.8173 121.408 63.8159 121.683 61.8992C124.034 61.9734 129.149 62.9688 130.97 64.176C130.674 64.8854 130.42 65.542 130.218 66.1879C129.255 68.7506 128.926 71.4402 129.308 73.7487C129.467 74.7865 129.763 75.7183 130.197 76.5231C131.839 79.6576 135.407 80.0388 138.033 79.0646H138.129L138.171 79.0116C138.976 78.7045 139.685 78.2598 140.225 77.7197C140.321 77.6244 140.416 77.5397 140.501 77.455C141.454 76.5761 141.74 76.6926 141.75 76.6926C141.793 76.7137 141.909 76.9361 141.814 77.6032Z" fill="#E6BCA5"/>
<path d="M133.074 259.264C135.87 258.734 138.697 258.342 141.567 258.088C131.221 234.41 119.975 214.227 117.254 213.094C114.31 211.876 109.343 213.761 111.122 216.525C113.812 220.697 123.131 235.544 133.074 259.264Z" fill="#FFFBF5" stroke="#E6BCA5" stroke-width="0.69" stroke-miterlimit="10"/>
<path d="M107.933 207.955C104.121 207.235 91.2234 201.951 82.0106 199.303C72.7979 196.656 54.3407 195.883 51.7781 194.962C49.9567 194.316 45.4668 193.363 47.1399 195.862C48.0189 197.164 48.1459 198.329 51.0262 199.494C58.174 202.364 69.2399 200.818 80.7823 203.772C92.3141 206.727 102.257 213.652 105.985 216.543C107.372 217.623 113.938 221.022 117.072 215.272C120.196 209.522 111.576 208.643 107.912 207.955H107.933Z" fill="#FFFBF5" stroke="#E6BCA5" stroke-width="0.69" stroke-miterlimit="10"/>
</svg>
