<svg width="18" height="20" viewBox="0 0 18 20" fill="none" xmlns="http://www.w3.org/2000/svg">
<path fill-rule="evenodd" clip-rule="evenodd" d="M7.65854 0C4.34577 0 1.78267 2.90344 2.19357 6.1906L2.27098 6.80996C2.38427 7.71625 2.05322 8.62156 1.38199 9.24088C-0.00891748 10.5244 -0.395347 12.5673 0.430653 14.2701L0.531482 14.478C1.25943 15.9787 2.73754 16.9616 4.38759 17.0643L4.57128 17.3791C5.55937 19.073 7.09893 20 8.71551 20C10.3321 20 11.8716 19.073 12.8597 17.3791L13.0463 17.0593C14.4323 16.9498 15.6961 16.1964 16.4499 15.012C17.6031 13.1999 17.2977 10.8226 15.7237 9.36098L15.6809 9.32117C14.9604 8.652 14.6057 7.67719 14.7276 6.70147L14.7906 6.19715C15.202 2.90652 12.6361 0 9.3199 0H7.65854ZM4.79894 15.6098C4.80774 15.6096 4.81654 15.6096 4.82532 15.6098H12.6052C12.614 15.6096 12.6228 15.6096 12.6316 15.6098H12.6947C13.716 15.6098 14.6666 15.0881 15.215 14.2264C15.9891 13.01 15.784 11.4144 14.7276 10.4333L14.6848 10.3935C13.6195 9.40417 13.0949 7.96274 13.2753 6.52003L13.3383 6.01571C13.6404 3.59852 11.7556 1.46348 9.31965 1.46348H7.65828C5.22577 1.46348 3.34372 3.59544 3.64542 6.00915L3.72285 6.62852C3.89471 8.00343 3.39248 9.37675 2.37417 10.3165C1.45735 11.1625 1.20261 12.5091 1.74708 13.6316L1.84792 13.8394C2.37316 14.9222 3.47087 15.6098 4.67435 15.6098H4.79894ZM8.71551 18.5366C7.81688 18.5366 6.85805 18.0856 6.1172 17.0732H11.3139C10.573 18.0856 9.61415 18.5366 8.71551 18.5366Z" fill="black"/>
</svg>
