<svg width="17" height="19" viewBox="0 0 17 19" fill="none" xmlns="http://www.w3.org/2000/svg">
<path fill-rule="evenodd" clip-rule="evenodd" d="M8.25294 0C10.187 0 11.7706 1.58356 11.7706 3.51765L11.7696 5.68137L14.8823 5.68235C15.7747 5.68235 16.5059 6.41356 16.5059 7.30588V16.7765C16.5059 17.6688 15.7747 18.4 14.8824 18.4H1.62353C0.731206 18.4 0 17.6688 0 16.7765V7.30588C0 6.41356 0.731206 5.68235 1.62353 5.68235L4.73529 5.68137V3.51765C4.73529 1.58356 6.31885 0 8.25294 0ZM15.1528 7.03514H1.35275V17.0469H15.1528V7.03514ZM8.25278 1.35275C7.06157 1.35275 6.08807 2.32625 6.08807 3.51746V5.68216H10.4175V3.51746C10.4175 2.32625 9.44398 1.35275 8.25278 1.35275Z" fill="black"/>
</svg>
