<svg id="extended" height="512" viewBox="0 0 24 24" width="512" xmlns="http://www.w3.org/2000/svg"><path d="m20.5444 3.4551a4.9733 4.9733 0 0 0 -7.0263 0l-1.8709 1.8709-8.4187 8.4191a.9975.9975 0 0 0 -.2827.5654l-.9358 6.5479a1 1 0 0 0 .99 1.1416.9818.9818 0 0 0 .1416-.01l6.5484-.9353a1.0028 1.0028 0 0 0 .5654-.2832l10.29-10.2891a4.9686 4.9686 0 0 0 0-7.0273zm-11.4677 15.667-4.898.6992.7-4.8975 7.4758-7.4764 4.1987 4.1984zm10.0533-10.0537-1.163 1.1634-4.1989-4.1986 1.164-1.1641a3.0407 3.0407 0 0 1 4.1983 0 2.97 2.97 0 0 1 0 4.1993z"/></svg>