<svg width="23" height="22" viewBox="0 0 23 22" fill="none" xmlns="http://www.w3.org/2000/svg">
<g clip-path="url(#clip0_98_3861)">
<path d="M8.13184 5.00478L9.43203 5.61176C9.85694 4.70159 10.9434 4.30688 11.8537 4.73176L12.4605 3.43148C10.8333 2.67196 8.89144 3.37768 8.13184 5.00478Z" fill="black"/>
<path d="M22.9585 14.9686C22.9585 13.2421 22.2862 11.6191 21.0653 10.3984C19.8049 9.13798 18.1491 8.50802 16.4933 8.50841C17.6082 5.67672 16.3366 2.41913 13.5425 1.11456C12.1354 0.457652 10.5568 0.388043 9.09726 0.918363C7.63765 1.44886 6.47208 2.51586 5.81517 3.92304L1.50369 13.1582C0.148112 16.0628 1.408 19.5291 4.31221 20.885C5.09446 21.2504 5.92977 21.4341 6.76818 21.4341C7.4378 21.4341 8.10936 21.3169 8.75742 21.0814C9.86249 20.6797 10.7987 19.9702 11.4736 19.0385C11.6145 19.2117 11.7648 19.3787 11.9248 19.5387C13.1457 20.7598 14.7689 21.4324 16.4953 21.4324C18.2216 21.4324 19.8447 20.7598 21.0656 19.5387L21.0654 19.5388C22.2862 18.3181 22.9585 16.6951 22.9585 14.9686ZM8.26719 19.7328C7.16796 20.1323 5.97901 20.0798 4.91928 19.5849C2.73187 18.5636 1.78294 15.9528 2.80392 13.7651L4.65622 9.79743L10.5064 12.529C10.1951 13.2933 10.0317 14.1183 10.0317 14.9685C10.0317 15.9239 10.2379 16.8475 10.6287 17.6889C10.1193 18.6401 9.28911 19.3614 8.26719 19.7328ZM5.2632 8.49732L7.11537 4.53006C7.61015 3.47023 8.48804 2.6665 9.5874 2.26707C10.6867 1.86746 11.8757 1.91996 12.9355 2.41479C15.123 3.43616 16.0718 6.0469 15.0505 8.23474L14.8205 8.72763C13.7592 9.01054 12.7563 9.56724 11.9252 10.3982C11.6543 10.669 11.4106 10.9598 11.195 11.267L5.2632 8.49732ZM11.4666 14.9686C11.4666 13.6253 11.9897 12.3626 12.9397 11.4128C13.92 10.4326 15.2074 9.94262 16.4951 9.94262C17.5564 9.94262 18.6178 10.2761 19.507 10.9421L12.4679 17.981C11.8182 17.1163 11.4666 16.0695 11.4666 14.9686ZM20.0506 18.5242C19.1009 19.4742 17.8382 19.9975 16.4952 19.9975C15.3943 19.9975 14.3474 19.6457 13.4825 18.9957L20.5222 11.9562C21.1719 12.8209 21.5236 13.8677 21.5236 14.9686C21.5236 16.3117 21.0005 17.5744 20.0508 18.5241L20.0506 18.5242Z" fill="black"/>
</g>
<defs>
<clipPath id="clip0_98_3861">
<rect width="22" height="22" fill="white" transform="translate(0.958496)"/>
</clipPath>
</defs>
</svg>
