<svg width="19" height="19" viewBox="0 0 19 19" fill="none" xmlns="http://www.w3.org/2000/svg">
<path d="M4.58494 12.3429C4.30832 12.6657 4.15626 13.0768 4.15625 13.5019V17.2188H2.96875C2.81128 17.2188 2.66026 17.2813 2.54891 17.3927C2.43756 17.504 2.375 17.655 2.375 17.8125C2.375 17.97 2.43756 18.121 2.54891 18.2323C2.66026 18.3437 2.81128 18.4062 2.96875 18.4062H16.0312C16.1887 18.4062 16.3397 18.3437 16.4511 18.2323C16.5624 18.121 16.625 17.97 16.625 17.8125C16.625 17.655 16.5624 17.504 16.4511 17.3927C16.3397 17.2813 16.1887 17.2188 16.0312 17.2188H14.8438V13.5019C14.8437 13.0768 14.6917 12.6657 14.4151 12.3429L12.3096 9.88653C12.2176 9.77898 12.1671 9.64212 12.1671 9.50059C12.1671 9.35907 12.2176 9.2222 12.3096 9.11466L14.4151 6.65831C14.6919 6.3352 14.844 5.92364 14.8438 5.49813V1.78125H16.0312C16.1887 1.78125 16.3397 1.71869 16.4511 1.60734C16.5624 1.49599 16.625 1.34497 16.625 1.1875C16.625 1.03003 16.5624 0.879005 16.4511 0.767655C16.3397 0.656306 16.1887 0.59375 16.0312 0.59375H2.96875C2.81128 0.59375 2.66026 0.656306 2.54891 0.767655C2.43756 0.879005 2.375 1.03003 2.375 1.1875C2.375 1.34497 2.43756 1.49599 2.54891 1.60734C2.66026 1.71869 2.81128 1.78125 2.96875 1.78125H4.15625V5.49813C4.15626 5.92324 4.30832 6.33432 4.58494 6.65712L6.69037 9.11347C6.78236 9.22102 6.83291 9.35788 6.83291 9.49941C6.83291 9.64093 6.78236 9.7778 6.69037 9.88534L4.58494 12.3429ZM7.59228 8.34041L5.48684 5.88466C5.39452 5.77703 5.34376 5.63992 5.34375 5.49813V1.78125H13.6562V5.49813C13.6562 5.63992 13.6055 5.77703 13.5132 5.88466L11.4077 8.34041C11.1294 8.6625 10.9762 9.07399 10.9762 9.4997C10.9762 9.92541 11.1294 10.3369 11.4077 10.659L13.5132 13.1153C13.6055 13.223 13.6562 13.3601 13.6562 13.5019V17.2188H5.34375V13.5019C5.34376 13.3601 5.39452 13.223 5.48684 13.1153L7.59228 10.659C7.87065 10.3369 8.02382 9.92541 8.02382 9.4997C8.02382 9.07399 7.87065 8.6625 7.59228 8.34041Z" fill="black"/>
<path d="M6.53125 15.4375C6.53125 15.595 6.59381 15.746 6.70516 15.8573C6.81651 15.9687 6.96753 16.0312 7.125 16.0312H11.875C12.0325 16.0312 12.1835 15.9687 12.2948 15.8573C12.4062 15.746 12.4688 15.595 12.4688 15.4375C12.4688 15.28 12.4062 15.129 12.2948 15.0177C12.1835 14.9063 12.0325 14.8438 11.875 14.8438H7.125C6.96753 14.8438 6.81651 14.9063 6.70516 15.0177C6.59381 15.129 6.53125 15.28 6.53125 15.4375Z" fill="black"/>
</svg>
