<svg width="29" height="29" viewBox="0 0 29 29" fill="none" xmlns="http://www.w3.org/2000/svg">
<g clip-path="url(#clip0_100_6637)">
<path d="M9.99072 4.52148C10.4912 4.52148 10.897 4.11574 10.897 3.61523C10.897 3.11473 10.4912 2.70898 9.99072 2.70898C9.49021 2.70898 9.08447 3.11473 9.08447 3.61523C9.08447 4.11574 9.49021 4.52148 9.99072 4.52148Z" fill="#FED402"/>
<path d="M19.0093 26.2939C19.5098 26.2939 19.9155 25.8882 19.9155 25.3877C19.9155 24.8872 19.5098 24.4814 19.0093 24.4814C18.5088 24.4814 18.103 24.8872 18.103 25.3877C18.103 25.8882 18.5088 26.2939 19.0093 26.2939Z" fill="#FED402"/>
<path d="M3.61377 10.8984C4.11428 10.8984 4.52002 10.4927 4.52002 9.99219C4.52002 9.49168 4.11428 9.08594 3.61377 9.08594C3.11326 9.08594 2.70752 9.49168 2.70752 9.99219C2.70752 10.4927 3.11326 10.8984 3.61377 10.8984Z" fill="#FED402"/>
<path d="M25.3857 19.917C25.8863 19.917 26.292 19.5113 26.292 19.0107C26.292 18.5102 25.8863 18.1045 25.3857 18.1045C24.8852 18.1045 24.4795 18.5102 24.4795 19.0107C24.4795 19.5113 24.8852 19.917 25.3857 19.917Z" fill="#FED402"/>
<path d="M3.61377 19.917C4.11428 19.917 4.52002 19.5113 4.52002 19.0107C4.52002 18.5102 4.11428 18.1045 3.61377 18.1045C3.11326 18.1045 2.70752 18.5102 2.70752 19.0107C2.70752 19.5113 3.11326 19.917 3.61377 19.917Z" fill="#FED402"/>
<path d="M25.3857 10.8984C25.8863 10.8984 26.292 10.4927 26.292 9.99219C26.292 9.49168 25.8863 9.08594 25.3857 9.08594C24.8852 9.08594 24.4795 9.49168 24.4795 9.99219C24.4795 10.4927 24.8852 10.8984 25.3857 10.8984Z" fill="#FED402"/>
<path d="M9.99072 26.2939C10.4912 26.2939 10.897 25.8882 10.897 25.3877C10.897 24.8872 10.4912 24.4814 9.99072 24.4814C9.49021 24.4814 9.08447 24.8872 9.08447 25.3877C9.08447 25.8882 9.49021 26.2939 9.99072 26.2939Z" fill="#FED402"/>
<path d="M19.0093 4.52148C19.5098 4.52148 19.9155 4.11574 19.9155 3.61523C19.9155 3.11473 19.5098 2.70898 19.0093 2.70898C18.5088 2.70898 18.103 3.11473 18.103 3.61523C18.103 4.11574 18.5088 4.52148 19.0093 4.52148Z" fill="#FED402"/>
<path d="M14.5001 23.5626C19.5052 23.5626 23.5626 19.5052 23.5626 14.5001C23.5626 9.49495 19.5052 5.4375 14.5001 5.4375C9.49495 5.4375 5.4375 9.49495 5.4375 14.5001C5.4375 19.5052 9.49495 23.5626 14.5001 23.5626Z" fill="#FED402"/>
<path d="M8.35506 14.5001C8.35506 9.99163 11.6477 6.25211 15.9592 5.55435C15.4842 5.47749 14.9967 5.4375 14.5001 5.4375C9.49495 5.4375 5.4375 9.49495 5.4375 14.5001C5.4375 19.5052 9.49495 23.5626 14.5001 23.5626C14.9967 23.5626 15.4839 23.5226 15.9588 23.4458C11.6474 22.748 8.35506 19.0085 8.35506 14.5001Z" fill="#FAC600"/>
<path d="M14.4734 0H14.5266C15.0124 0 15.4062 0.393879 15.4062 0.879686V2.74531C15.4062 3.23118 15.0124 3.625 14.5266 3.625H14.4734C13.9876 3.625 13.5938 3.23118 13.5938 2.74531V0.879686C13.5938 0.393879 13.9876 0 14.4734 0Z" fill="#FED402"/>
<path d="M14.4734 25.375H14.5266C15.0124 25.375 15.4062 25.7689 15.4062 26.2547V28.1203C15.4062 28.6062 15.0124 29 14.5266 29H14.4734C13.9876 29 13.5938 28.6061 13.5938 28.1203V26.2547C13.5938 25.7688 13.9876 25.375 14.4734 25.375Z" fill="#FED402"/>
<path d="M4.22835 4.2659L4.2659 4.22835C4.60942 3.88482 5.16643 3.88482 5.50995 4.22835L6.82917 5.54756C7.1727 5.89109 7.1727 6.44809 6.82917 6.79162L6.79162 6.82917C6.44809 7.1727 5.89109 7.1727 5.54756 6.82917L4.22835 5.51001C3.88482 5.16643 3.88482 4.60948 4.22835 4.2659Z" fill="#FED402"/>
<path d="M22.1712 22.2083L22.2088 22.1707C22.5523 21.8272 23.1093 21.8272 23.4528 22.1707L24.772 23.4899C25.1156 23.8335 25.1156 24.3905 24.772 24.734L24.7345 24.7716C24.391 25.1151 23.834 25.1151 23.4904 24.7716L22.1712 23.4523C21.8277 23.1088 21.8277 22.5518 22.1712 22.2083Z" fill="#FED402"/>
<path d="M0 14.5266V14.4734C0 13.9876 0.393879 13.5938 0.879686 13.5938H2.74531C3.23118 13.5938 3.625 13.9876 3.625 14.4734V14.5266C3.625 15.0124 3.23118 15.4062 2.74531 15.4062H0.879686C0.393879 15.4062 0 15.0124 0 14.5266Z" fill="#FED402"/>
<path d="M25.375 14.5266V14.4734C25.375 13.9876 25.7689 13.5938 26.2547 13.5938H28.1203C28.6062 13.5938 29 13.9876 29 14.4734V14.5266C29 15.0124 28.6061 15.4062 28.1203 15.4062H26.2547C25.7688 15.4062 25.375 15.0124 25.375 14.5266Z" fill="#FED402"/>
<path d="M4.2659 24.7716L4.22835 24.734C3.88482 24.3905 3.88482 23.8335 4.22835 23.4899L5.54756 22.1707C5.89109 21.8272 6.44809 21.8272 6.79162 22.1707L6.82917 22.2083C7.1727 22.5518 7.1727 23.1088 6.82917 23.4523L5.50995 24.7716C5.16643 25.1151 4.60948 25.1151 4.2659 24.7716Z" fill="#FED402"/>
<path d="M22.2088 6.82917L22.1712 6.79162C21.8277 6.44809 21.8277 5.89109 22.1712 5.54756L23.4904 4.22835C23.834 3.88482 24.391 3.88482 24.7345 4.22835L24.772 4.2659C25.1156 4.60942 25.1156 5.16643 24.772 5.50995L23.4528 6.82917C23.1093 7.1727 22.5523 7.1727 22.2088 6.82917Z" fill="#FED402"/>
</g>
<defs>
<clipPath id="clip0_100_6637">
<rect width="29" height="29" fill="white"/>
</clipPath>
</defs>
</svg>
