<svg width="20" height="24" viewBox="0 0 20 24" fill="none" xmlns="http://www.w3.org/2000/svg">
<path fill-rule="evenodd" clip-rule="evenodd" d="M3.90613 1.8457C3.05097 1.8457 2.35774 2.5345 2.35774 3.38416V20.615C2.35774 21.4646 3.05097 22.1534 3.90613 22.1534H16.2932C17.1484 22.1534 17.8416 21.4646 17.8416 20.615V8.56814C17.8416 8.16761 17.6844 7.78288 17.4034 7.49571L12.331 2.31174C12.0394 2.0138 11.6389 1.8457 11.2207 1.8457H3.90613ZM0.5 3.38461C0.5 1.51535 2.02512 0 3.90645 0H11.221C12.1412 0 13.0221 0.369804 13.6635 1.02527L18.7359 6.20924C19.3542 6.84102 19.7 7.68744 19.7 8.56859V20.6154C19.7 22.4846 18.1749 24 16.2936 24H3.90645C2.02512 24 0.5 22.4846 0.5 20.6154V3.38461ZM5.45491 15.6926C5.45491 16.2025 5.87086 16.6157 6.38395 16.6157H13.8162C14.3292 16.6157 14.7453 16.2025 14.7453 15.6926C14.7453 15.1828 14.3292 14.7695 13.8162 14.7695H6.38395C5.87086 14.7695 5.45491 15.1828 5.45491 15.6926ZM6.38395 11.6919C5.87086 11.6919 5.45491 11.2786 5.45491 10.7689C5.45491 10.259 5.87086 9.8457 6.38395 9.8457H10.1001C10.6132 9.8457 11.0291 10.259 11.0291 10.7689C11.0291 11.2786 10.6132 11.6919 10.1001 11.6919H6.38395Z" fill="black"/>
</svg>
