<svg width="21" height="24" viewBox="0 0 21 24" fill="none" xmlns="http://www.w3.org/2000/svg">
<path d="M7.71306 22.286H1.71401V5.14586H3.42803C3.42803 5.60044 3.60861 6.03641 3.93005 6.35785C4.25149 6.67929 4.68745 6.85987 5.14204 6.85987H11.9981C12.4527 6.85987 12.8886 6.67929 13.2101 6.35785C13.5315 6.03641 13.7121 5.60044 13.7121 5.14586H15.4261V12.0019C15.4261 12.2292 15.5164 12.4472 15.6771 12.6079C15.8378 12.7686 16.0558 12.8589 16.2831 12.8589C16.5104 12.8589 16.7284 12.7686 16.8891 12.6079C17.0498 12.4472 17.1401 12.2292 17.1401 12.0019V5.14586C17.1401 4.69128 16.9595 4.25531 16.6381 3.93387C16.3167 3.61243 15.8807 3.43185 15.4261 3.43185H13.7121C13.7121 2.97726 13.5315 2.5413 13.2101 2.21986C12.8886 1.89842 12.4527 1.71783 11.9981 1.71783H10.9954C10.8187 1.21564 10.4905 0.780665 10.0561 0.472961C9.62167 0.165258 9.10243 0 8.57006 0C8.0377 0 7.51846 0.165258 7.08403 0.472961C6.6496 0.780665 6.3214 1.21564 6.14474 1.71783H5.14204C4.68745 1.71783 4.25149 1.89842 3.93005 2.21986C3.60861 2.5413 3.42803 2.97726 3.42803 3.43185H1.71401C1.25943 3.43185 0.823462 3.61243 0.502023 3.93387C0.180583 4.25531 0 4.69128 0 5.14586V22.286C0 22.7406 0.180583 23.1765 0.502023 23.498C0.823462 23.8194 1.25943 24 1.71401 24H7.71306C7.94035 24 8.15833 23.9097 8.31905 23.749C8.47977 23.5883 8.57006 23.3703 8.57006 23.143C8.57006 22.9157 8.47977 22.6977 8.31905 22.537C8.15833 22.3763 7.94035 22.286 7.71306 22.286ZM5.14204 3.43185H6.85605C7.08334 3.43185 7.30133 3.34156 7.46205 3.18084C7.62277 3.02012 7.71306 2.80213 7.71306 2.57484C7.71306 2.34755 7.80335 2.12957 7.96407 1.96885C8.12479 1.80813 8.34277 1.71783 8.57006 1.71783C8.79736 1.71783 9.01534 1.80813 9.17606 1.96885C9.33678 2.12957 9.42707 2.34755 9.42707 2.57484C9.42707 2.80213 9.51736 3.02012 9.67808 3.18084C9.8388 3.34156 10.0568 3.43185 10.2841 3.43185H11.9981V5.14586H5.14204V3.43185Z" fill="black"/>
<path d="M20.5682 16.287C20.5695 15.8153 20.4411 15.3524 20.1969 14.9489C19.9528 14.5453 19.6023 14.2167 19.1839 13.999C18.7655 13.7813 18.2953 13.6829 17.8247 13.7145C17.3541 13.7462 16.9013 13.9067 16.5158 14.1785C16.1303 14.4502 15.827 14.8228 15.6391 15.2554C15.4511 15.688 15.3858 16.164 15.4503 16.6312C15.5148 17.0984 15.7065 17.5389 16.0046 17.9045C16.3026 18.27 16.6955 18.5465 17.1402 18.7037V18.858C17.1363 19.6994 16.823 20.51 16.2601 21.1354C15.6971 21.7608 14.9238 22.1574 14.0874 22.2495C13.2511 22.3416 12.41 22.1228 11.7245 21.6349C11.0389 21.147 10.5568 20.424 10.3698 19.6036C11.3176 19.3899 12.1645 18.8604 12.7718 18.1021C13.3791 17.3437 13.7107 16.4015 13.7122 15.43V13.716C13.7122 13.2614 13.5316 12.8254 13.2101 12.504C12.8887 12.1825 12.4527 12.002 11.9981 12.002H11.1411C10.9138 12.002 10.6959 12.0922 10.5351 12.253C10.3744 12.4137 10.2841 12.6317 10.2841 12.859C10.2841 13.0863 10.3744 13.3042 10.5351 13.465C10.6959 13.6257 10.9138 13.716 11.1411 13.716H11.9981V15.43C11.9981 16.1119 11.7273 16.7658 11.2451 17.248C10.7629 17.7301 10.109 18.001 9.42712 18.001C8.74524 18.001 8.0913 17.7301 7.60914 17.248C7.12698 16.7658 6.8561 16.1119 6.8561 15.43V13.716H7.71311C7.9404 13.716 8.15838 13.6257 8.3191 13.465C8.47982 13.3042 8.57012 13.0863 8.57012 12.859C8.57012 12.6317 8.47982 12.4137 8.3191 12.253C8.15838 12.0922 7.9404 12.002 7.71311 12.002H6.8561C6.40152 12.002 5.96555 12.1825 5.64411 12.504C5.32267 12.8254 5.14209 13.2614 5.14209 13.716V15.43C5.14302 16.429 5.49296 17.3962 6.13142 18.1646C6.76988 18.9329 7.65674 19.4541 8.63868 19.6379C8.8476 20.9073 9.52477 22.0522 10.5365 22.8468C11.5483 23.6414 12.8211 24.0278 14.1039 23.9299C15.3866 23.832 16.586 23.2568 17.4655 22.3178C18.3449 21.3789 18.8404 20.1444 18.8542 18.858V18.7037C19.3543 18.5269 19.7875 18.1998 20.0943 17.7671C20.4012 17.3344 20.5667 16.8174 20.5682 16.287ZM17.9972 17.144C17.8277 17.144 17.662 17.0937 17.5211 16.9996C17.3801 16.9054 17.2703 16.7715 17.2054 16.6149C17.1405 16.4583 17.1236 16.286 17.1566 16.1198C17.1897 15.9535 17.2713 15.8008 17.3912 15.681C17.511 15.5611 17.6637 15.4795 17.83 15.4464C17.9962 15.4134 18.1685 15.4303 18.3251 15.4952C18.4817 15.5601 18.6156 15.6699 18.7098 15.8109C18.8039 15.9518 18.8542 16.1175 18.8542 16.287C18.8542 16.5143 18.7639 16.7323 18.6032 16.893C18.4425 17.0537 18.2245 17.144 17.9972 17.144Z" fill="black"/>
</svg>
