<svg width="25" height="25" viewBox="0 0 25 25" fill="none" xmlns="http://www.w3.org/2000/svg">
<path d="M11.0279 2.80018L1.34764 20.8289C0.800761 21.8478 1.59627 23.0469 2.81971 23.0469H22.1803C23.4037 23.0469 24.1994 21.8478 23.6523 20.8289L13.9721 2.80018C13.3654 1.67069 11.6346 1.67069 11.0279 2.80018Z" fill="#FAD271"/>
<path d="M12.5 6.19647C12.3592 6.19434 12.2193 6.22034 12.0887 6.27296C11.958 6.32557 11.8392 6.40374 11.7391 6.50288C11.6391 6.60202 11.5598 6.72014 11.506 6.85031C11.4522 6.98048 11.425 7.12008 11.4258 7.26092L11.6244 15.9111C11.6326 16.1368 11.7289 16.3502 11.8925 16.5058C12.0562 16.6613 12.2743 16.7466 12.5 16.7433C12.7258 16.7466 12.9438 16.6613 13.1074 16.5057C13.271 16.3502 13.3672 16.1367 13.3754 15.9111L13.5742 7.26092C13.5751 7.12008 13.5478 6.98048 13.494 6.85031C13.4402 6.72014 13.3609 6.60202 13.2609 6.50288C13.1608 6.40374 13.042 6.32557 12.9114 6.27296C12.7807 6.22034 12.6409 6.19434 12.5 6.19647Z" fill="#423E4F"/>
<path d="M12.5 20.7465C13.1472 20.7465 13.6719 20.2218 13.6719 19.5746C13.6719 18.9274 13.1472 18.4027 12.5 18.4027C11.8528 18.4027 11.3281 18.9274 11.3281 19.5746C11.3281 20.2218 11.8528 20.7465 12.5 20.7465Z" fill="#423E4F"/>
</svg>
