<svg width="115" height="33" viewBox="0 0 164 33" fill="none" xmlns="http://www.w3.org/2000/svg">
<title>Joint Care logo</title>
<path d="M150.542 21.8941C150.57 23.1821 150.906 24.1201 151.55 24.7081C152.222 25.2681 153.174 25.5481 154.406 25.5481C157.01 25.5481 159.334 25.4641 161.378 25.2961L162.554 25.1701L162.638 29.3281C159.418 30.1121 156.506 30.5041 153.902 30.5041C150.738 30.5041 148.442 29.6641 147.014 27.9841C145.586 26.3041 144.872 23.5741 144.872 19.7941C144.872 12.2621 147.966 8.49609 154.154 8.49609C160.258 8.49609 163.31 11.6601 163.31 17.9881L162.89 21.8941H150.542ZM157.766 17.6101C157.766 15.9301 157.5 14.7681 156.968 14.1241C156.436 13.4521 155.498 13.1161 154.154 13.1161C152.838 13.1161 151.9 13.4661 151.34 14.1661C150.808 14.8381 150.528 15.9861 150.5 17.6101H157.766Z" fill="#048AED"/>
<path d="M130.295 30.0001V9.00009H135.881V11.2261C138.233 9.82609 140.473 8.91609 142.601 8.49609V14.1661C140.333 14.6421 138.387 15.1321 136.763 15.6361L135.923 15.9301V30.0001H130.295Z" fill="#048AED"/>
<path d="M124.93 15.5521V24.2881C124.986 24.9601 125.098 25.4361 125.266 25.7161C125.434 25.9681 125.784 26.1501 126.316 26.2621L126.148 30.5041C124.72 30.5041 123.572 30.4061 122.704 30.2101C121.864 30.0141 121.01 29.6221 120.142 29.0341C118.126 30.0141 116.068 30.5041 113.968 30.5041C109.628 30.5041 107.458 28.2081 107.458 23.6161C107.458 21.3761 108.06 19.7941 109.264 18.8701C110.468 17.9181 112.316 17.3581 114.808 17.1901L119.302 16.8541V15.5521C119.302 14.6841 119.106 14.0961 118.714 13.7881C118.322 13.4521 117.692 13.2841 116.824 13.2841L108.928 13.6201L108.76 9.71409C111.756 8.90209 114.598 8.49609 117.286 8.49609C120.002 8.49609 121.948 9.05609 123.124 10.1761C124.328 11.2961 124.93 13.0881 124.93 15.5521ZM115.48 21.0961C113.912 21.2361 113.128 22.0761 113.128 23.6161C113.128 25.1561 113.814 25.9261 115.186 25.9261C116.25 25.9261 117.412 25.7581 118.672 25.4221L119.302 25.2541V20.7601L115.48 21.0961Z" fill="#048AED"/>
<path d="M104.645 29.538C101.677 30.182 99.0032 30.504 96.6232 30.504C94.2432 30.504 92.3392 30.21 90.9112 29.622C89.4832 29.034 88.3632 28.096 87.5512 26.808C86.7392 25.52 86.1792 24.008 85.8712 22.272C85.5632 20.536 85.4092 18.352 85.4092 15.72C85.4092 10.204 86.1792 6.36804 87.7192 4.21204C89.2872 2.02804 92.1572 0.936035 96.3292 0.936035C98.7372 0.936035 101.523 1.31404 104.687 2.07004L104.519 6.69004C101.747 6.27003 99.4372 6.06003 97.5892 6.06003C95.7692 6.06003 94.4672 6.31203 93.6832 6.81603C92.8992 7.29204 92.3112 8.21603 91.9192 9.58803C91.5552 10.96 91.3732 13.298 91.3732 16.602C91.3732 19.906 91.7512 22.202 92.5072 23.49C93.2912 24.75 94.8312 25.38 97.1272 25.38C99.4512 25.38 101.915 25.184 104.519 24.792L104.645 29.538Z" fill="#048AED"/>
<path d="M82.3745 13.7881H77.2085V22.3981C77.2085 23.2381 77.2225 23.8401 77.2505 24.2041C77.3065 24.5401 77.4605 24.8341 77.7125 25.0861C77.9925 25.3381 78.4125 25.4641 78.9725 25.4641L82.1645 25.3801L82.4165 29.8741C80.5405 30.2941 79.1125 30.5041 78.1325 30.5041C75.6125 30.5041 73.8905 29.9441 72.9665 28.8241C72.0425 27.6761 71.5805 25.5761 71.5805 22.5241V13.7881H69.1025V9.00011H71.5805V3.16211H77.2085V9.00011H82.3745V13.7881Z" fill="black"/>
<path d="M53.1539 30.0001H47.5259V9.00009H53.1119V10.1761C55.0159 9.05609 56.7659 8.49609 58.3619 8.49609C61.1619 8.49609 63.0939 9.32209 64.1579 10.9741C65.2219 12.6261 65.7539 15.1741 65.7539 18.6181V30.0001H60.1259V18.7861C60.1259 16.9941 59.9159 15.6781 59.4959 14.8381C59.0759 13.9701 58.2359 13.5361 56.9759 13.5361C55.8279 13.5361 54.7219 13.7321 53.6579 14.1241L53.1539 14.2921V30.0001Z" fill="black"/>
<path d="M36.6978 30.0001V9.0001H42.3258V30.0001H36.6978ZM36.6978 6.3121V0.600098H42.3258V6.3121H36.6978Z" fill="black"/>
<path d="M15.478 11.3941C16.962 9.46209 19.44 8.49609 22.912 8.49609C26.384 8.49609 28.862 9.46209 30.346 11.3941C31.83 13.2981 32.572 15.9861 32.572 19.4581C32.572 26.8221 29.352 30.5041 22.912 30.5041C16.472 30.5041 13.252 26.8221 13.252 19.4581C13.252 15.9861 13.994 13.2981 15.478 11.3941ZM19.804 24.2041C20.392 25.2121 21.428 25.7161 22.912 25.7161C24.396 25.7161 25.418 25.2121 25.978 24.2041C26.566 23.1961 26.86 21.6141 26.86 19.4581C26.86 17.3021 26.566 15.7341 25.978 14.7541C25.418 13.7741 24.396 13.2841 22.912 13.2841C21.428 13.2841 20.392 13.7741 19.804 14.7541C19.244 15.7341 18.964 17.3021 18.964 19.4581C18.964 21.6141 19.244 23.1961 19.804 24.2041Z" fill="black"/>
<path d="M0.0693359 32.9402V27.9002C1.18934 27.9002 2.00134 27.6902 2.50534 27.2702C3.00934 26.8502 3.26134 26.0662 3.26134 24.9182V1.44019H9.01534L9.05734 25.1702C9.05734 28.2222 8.37134 30.2802 6.99934 31.3442C5.65534 32.4082 3.34534 32.9402 0.0693359 32.9402Z" fill="black"/>
</svg>
