<svg width="13" height="15" viewBox="0 0 24 26" fill="none" xmlns="http://www.w3.org/2000/svg">
<path fill-rule="evenodd" clip-rule="evenodd" d="M15.4186 0C15.9195 0 16.3256 0.406073 16.3256 0.906977V2.4955L16.4358 2.50267C18.2106 2.62232 19.5819 2.92335 20.7151 3.74661C21.3053 4.1755 21.8245 4.69463 22.2533 5.28494C22.9619 6.26003 23.2791 7.40208 23.4318 8.81157L23.4425 8.91374C23.5716 10.1819 23.5807 11.748 23.5813 13.7019L23.5812 14.9003C23.5804 16.0184 23.5755 17.0025 23.5458 17.8683L23.541 18.0035C23.4581 20.2003 23.2037 21.8257 22.2533 23.1337C21.8245 23.724 21.3053 24.2432 20.7151 24.672C19.3804 25.6417 17.7152 25.8868 15.4497 25.9645L15.2528 25.9708C14.369 25.9969 13.3658 25.9997 12.2271 26L10.9702 25.9998C9.13502 25.998 7.65238 25.9828 6.44314 25.8558L6.39291 25.8504C4.98342 25.6977 3.84138 25.3805 2.86629 24.672C2.27597 24.2432 1.75684 23.724 1.32795 23.1337C0.619502 22.1586 0.302289 21.0166 0.149578 19.607C0.0102701 18.3212 0.000662584 16.7234 0 14.7167L0.000281306 13.3112C0.0024881 11.4864 0.0194351 10.0129 0.149578 8.81157L0.161815 8.70228C0.319032 7.34286 0.637903 6.23471 1.32795 5.28494C1.75684 4.69463 2.27597 4.1755 2.86629 3.74661C4.02276 2.90638 5.4274 2.61012 7.25577 2.4955V0.906977C7.25577 0.406073 7.66185 0 8.16275 0C8.66366 0 9.06973 0.406073 9.06973 0.906977V2.43144L9.22749 2.42911C9.916 2.41969 10.6682 2.41872 11.49 2.41862L12.5577 2.41883C13.2612 2.41946 13.9112 2.42192 14.5116 2.43144V0.906977C14.5116 0.406073 14.9177 0 15.4186 0ZM12.5655 4.23177H11.0158C10.305 4.23242 9.65985 4.23494 9.06975 4.24459V4.53387C9.06975 5.03477 8.66367 5.44085 8.16277 5.44085C7.66186 5.44085 7.25579 5.03477 7.25579 4.53387V4.31287L7.15779 4.31984C5.57072 4.43665 4.64342 4.6966 3.93251 5.21311C3.4962 5.53012 3.1125 5.91382 2.79549 6.35013C2.3548 6.9567 2.09559 7.73089 1.95821 8.95848L1.95299 9.00592C1.8264 10.1744 1.81503 11.6555 1.81402 13.6618L1.81431 15.0917C1.81667 16.9062 1.83318 18.2753 1.94872 19.3708L1.95299 19.4107C2.08898 20.6659 2.34915 21.4522 2.79549 22.0665C3.1125 22.5028 3.4962 22.8865 3.93251 23.2035C4.53907 23.6442 5.31327 23.9033 6.54087 24.0408L6.58831 24.046C7.79618 24.1769 9.33817 24.1846 11.449 24.185L12.5711 24.1848C13.2806 24.1842 13.9247 24.1816 14.5138 24.172L14.5148 24.0751C14.5213 23.5498 14.5405 23.1537 14.5972 22.795C15.0685 19.8196 17.402 17.4861 20.3773 17.0149C20.7578 16.9546 21.1803 16.9367 21.7544 16.9314L21.7566 16.7888C21.7651 16.1902 21.7669 15.5355 21.7673 14.8146L21.767 13.3249C21.7647 11.5104 21.7482 10.1413 21.6326 9.04588L21.6284 9.00592C21.4923 7.75077 21.2322 6.96447 20.7858 6.35013C20.4689 5.91382 20.0852 5.53012 19.6489 5.21311C18.9234 4.68606 17.9728 4.42614 16.3256 4.31287V4.53387C16.3256 5.03477 15.9195 5.44085 15.4186 5.44085C14.9177 5.44085 14.5116 5.03477 14.5116 4.53387V4.24459L14.2968 4.24142C13.7657 4.23436 13.191 4.23235 12.5655 4.23177ZM21.5505 18.75L21.685 18.7482C21.5716 20.3932 21.3117 21.3431 20.7849 22.0681C20.468 22.5044 20.0843 22.8881 19.648 23.205C18.9375 23.7212 18.011 23.9812 16.4259 24.0981L16.3281 24.1051C16.3335 23.6387 16.3473 23.3561 16.3825 23.1161L16.3879 23.0804C16.7363 20.8811 18.461 19.1564 20.6603 18.808C20.8846 18.7726 21.1409 18.7569 21.5505 18.75ZM11.7892 17.8369C12.4571 17.8369 12.9985 18.3783 12.9985 19.0462C12.9985 19.7141 12.4571 20.2555 11.7892 20.2555C11.1213 20.2555 10.5799 19.7141 10.5799 19.0462C10.5799 18.3783 11.1213 17.8369 11.7892 17.8369ZM6.95271 19.0462C6.95271 18.3783 6.4113 17.8369 5.74341 17.8369C5.07554 17.8369 4.53411 18.3783 4.53411 19.0462C4.53411 19.7141 5.07554 20.2555 5.74341 20.2555C6.4113 20.2555 6.95271 19.7141 6.95271 19.0462ZM5.74341 13C6.4113 13 6.95271 13.5414 6.95271 14.2093C6.95271 14.8772 6.4113 15.4186 5.74341 15.4186C5.07554 15.4186 4.53411 14.8772 4.53411 14.2093C4.53411 13.5414 5.07554 13 5.74341 13ZM12.9985 14.2093C12.9985 13.5414 12.4571 13 11.7892 13C11.1213 13 10.5799 13.5414 10.5799 14.2093C10.5799 14.8772 11.1213 15.4186 11.7892 15.4186C12.4571 15.4186 12.9985 14.8772 12.9985 14.2093ZM17.8383 13C18.5062 13 19.0476 13.5414 19.0476 14.2093C19.0476 14.8772 18.5062 15.4186 17.8383 15.4186C17.1704 15.4186 16.629 14.8772 16.629 14.2093C16.629 13.5414 17.1704 13 17.8383 13ZM6.95271 9.37239C6.95271 8.70452 6.4113 8.16309 5.74341 8.16309C5.07554 8.16309 4.53411 8.70452 4.53411 9.37239C4.53411 10.0403 5.07554 10.5817 5.74341 10.5817C6.4113 10.5817 6.95271 10.0403 6.95271 9.37239ZM11.7892 8.16309C12.4571 8.16309 12.9985 8.70452 12.9985 9.37239C12.9985 10.0403 12.4571 10.5817 11.7892 10.5817C11.1213 10.5817 10.5799 10.0403 10.5799 9.37239C10.5799 8.70452 11.1213 8.16309 11.7892 8.16309ZM19.0476 9.37239C19.0476 8.70452 18.5062 8.16309 17.8383 8.16309C17.1704 8.16309 16.629 8.70452 16.629 9.37239C16.629 10.0403 17.1704 10.5817 17.8383 10.5817C18.5062 10.5817 19.0476 10.0403 19.0476 9.37239Z" fill="currentColor"/>
</svg>
