<svg width="8" height="8" viewBox="0 0 8 8" fill="none" xmlns="http://www.w3.org/2000/svg">
<path d="M1.28878 0.182214L3.998 2.87573L6.65379 0.220119C6.95937 -0.0658285 7.43889 -0.0499329 7.72483 0.255653C7.98341 0.531993 7.99848 0.956735 7.76012 1.25069L5.0696 3.94107L7.76012 6.61567C8.06563 6.90169 8.08143 7.38123 7.7954 7.68674C7.78403 7.69889 7.77227 7.71065 7.76012 7.72203C7.60166 7.85982 7.39312 7.92568 7.18423 7.90389C6.98545 7.90304 6.79493 7.82414 6.65379 7.68415L3.99013 5.02053L1.28878 7.72203C1.14173 7.84824 0.951931 7.91332 0.758363 7.90389C0.562225 7.91529 0.369331 7.85009 0.220356 7.72203C-0.073452 7.42647 -0.073452 6.94913 0.220356 6.65357L2.92173 3.95213L0.220331 1.25067C-0.0518668 0.932804 -0.0148601 0.454436 0.303003 0.182214C0.586705 -0.0607379 1.00511 -0.0607379 1.28878 0.182214Z" fill="#D97C7C"/>
</svg>
