<svg width="25" height="24" viewBox="0 0 25 24" fill="none" xmlns="http://www.w3.org/2000/svg">
<path d="M19.9585 2.25H5.9585C3.8885 2.25 2.2085 3.93 2.2085 6V18C2.2085 20.07 3.8885 21.75 5.9585 21.75H19.9585C22.0285 21.75 23.7085 20.07 23.7085 18V6C23.7085 3.93 22.0285 2.25 19.9585 2.25ZM5.9585 3.75H19.9585C21.1985 3.75 22.2085 4.76 22.2085 6V16.25H3.7085V6C3.7085 4.76 4.7185 3.75 5.9585 3.75ZM19.9585 20.25H5.9585C4.7185 20.25 3.7085 19.24 3.7085 18V17.75H22.2085V18C22.2085 19.24 21.1985 20.25 19.9585 20.25ZM6.2085 10C6.2085 9.59 6.5485 9.25 6.9585 9.25H8.5485L9.2685 8.12C9.4885 7.78 9.8785 7.59 10.2785 7.64C10.6785 7.69 11.0185 7.96 11.1485 8.34L12.0285 10.92L13.9085 6.53C14.0885 6.11 14.5185 5.86 14.9585 5.9C15.4085 5.94 15.7885 6.25 15.8885 6.69L16.5285 9.26H18.9385C19.3485 9.26 19.6885 9.6 19.6885 10.01C19.6885 10.42 19.3485 10.76 18.9385 10.76H16.3285C15.7485 10.76 15.2585 10.37 15.1185 9.81L14.7485 8.35L12.9285 12.59C12.7585 12.98 12.3885 13.23 11.9685 13.23C11.9585 13.23 11.9385 13.23 11.9285 13.23C11.4885 13.21 11.1185 12.94 10.9685 12.52L10.0085 9.72L9.7085 10.18C9.4785 10.54 9.0885 10.76 8.6585 10.76H6.9285C6.5185 10.76 6.1785 10.42 6.1785 10.01L6.2085 10Z" fill="currentColor"/>
</svg>
