<svg xmlns="http://www.w3.org/2000/svg" fill="none" viewBox="101.28358208955224 33.774 243.25373134328356 391.432" style="max-height: 500px" width="243.25373134328356" height="391.432">
<g clip-path="url(#clip0_287_6447)">
<path fill="#DCC1B2" d="M174.691 37.3365C202.165 42.5664 220.442 68.4955 214.304 95.7818C211.441 108.507 208.726 119.495 207.153 125.159C196.778 162.552 169.743 224.128 169.743 224.128C178.86 230.413 185.998 238.068 192.832 244.787C208.503 260.189 223.785 280.328 237.58 295.732C249.281 308.805 245.928 305.051 254.575 314.255C263.537 323.297 267.727 325.938 270.71 327.503C276.596 330.595 287.733 329.01 294.528 330.559C299.481 331.684 303.489 334.833 307.114 335.72C311.671 336.839 324.814 338.24 328.575 339.132C330.86 339.672 331.978 343.712 328.465 346.006C324.951 348.3 319.511 349.834 313.762 349.011C309.634 348.417 301.252 344.524 299.71 346.101C298.18 347.676 303.42 353.605 305.636 356.257C307.852 358.91 318.341 365.308 324.329 369.943C330.316 374.578 337.371 382.25 339.788 385.037C342.204 387.824 341.685 395.696 333.433 390.774C325.462 386.024 321.814 380.967 319.004 379.021C315.622 376.669 307.486 370.404 306.097 372.023C304.701 373.638 329.133 398.013 332.672 402.616C337.322 408.668 331.994 414.265 325.649 408.755C319.04 403.011 298.832 379.563 297.214 380.855C295.592 382.154 314.692 405.593 319.059 411.862C323.946 418.885 316.418 422.108 311.856 416.932C307.282 411.759 285.998 383.637 283.848 384.742C281.704 385.852 294.91 405.266 298.074 411.498C301.233 417.738 294.65 420.096 290.452 414.352C286.255 408.608 261.321 376.3 257.52 369.82C250.877 358.481 253.502 355.395 248.835 349.807C247.122 347.76 241.7 342.339 234.09 337.398C226.472 332.452 199.635 316.132 178.182 300.463C159.86 287.083 153.38 276.329 133.881 261.259C128.643 257.206 111.498 252.761 108.536 246.515C104.886 238.796 105.422 234.012 108.275 226.356C117.202 202.346 111.057 158.958 113.466 134.59C114.425 124.852 116.158 100.691 118.892 76.4146C121.969 49.0824 147.671 32.1931 174.691 37.3365Z"/>
<path fill="white" d="M259.135 338.425C262.415 335.635 267.333 336.035 270.123 339.315C272.906 342.592 272.514 347.513 269.237 350.297C265.957 353.087 261.039 352.687 258.252 349.418C255.461 346.137 255.861 341.22 259.135 338.425Z"/>
<path fill="white" d="M269.8 335.586C270.753 333.502 272.925 334.784 274.233 335.186C274.925 335.401 279.053 334.212 283.288 334.107C287.808 333.989 292.455 334.937 293.319 335C294.992 335.122 296.759 333.814 297.776 334.976C298.793 336.138 297.601 337.222 297.337 338.081C297.074 338.94 297.904 340.634 296.693 341.206C295.204 341.905 293.609 339.945 291.745 339.156C288.425 337.74 278.863 338.156 276.387 338.99C274.55 339.618 274.747 341.364 273.166 341.323C271.549 341.28 271.827 339.224 271.296 338.361C270.769 337.49 269.29 336.711 269.796 335.593L269.8 335.586Z"/>
<path fill="white" d="M273.413 344.879C273.573 343.96 272.725 342.923 274.032 342.184C276.197 340.958 277.619 344.005 279.084 345.259C280.101 346.133 293.207 354.424 297.283 355.961C301.365 357.501 302.064 356.467 303.14 358.09C304.157 359.623 302.259 360.42 301.649 361.348C301.025 362.268 301.274 364.053 299.742 364.634C297.879 365.34 298.297 363.763 293.274 359.722C289.405 356.607 277.902 348.769 276.551 348.731C275.2 348.693 273.812 349.089 272.988 347.528C272.591 346.769 273.143 346.328 273.402 344.882L273.413 344.879Z"/>
<path fill="white" d="M270.988 350.381C271.658 349.478 272.264 348.557 273.08 348.639C275.025 348.853 275.248 351.133 276.481 352.532C277.71 353.937 291.657 365.449 292.812 365.986C293.967 366.523 297.014 366.307 297.174 367.911C297.34 369.519 295.815 369.927 295.09 370.539C294.366 371.151 293.938 372.888 292.527 372.649C291.038 372.401 291.071 370.352 289.035 367.998C286.709 365.31 276.146 356.309 274.035 354.969C272.249 353.836 269.827 354.321 269.491 352.429C269.284 351.261 270.284 351.328 270.982 350.377L270.988 350.381Z"/>
<path fill="white" d="M263.566 354.239C263.919 353.163 265.276 353.817 266.099 353.596C266.94 353.377 267.718 352.221 268.458 352.611C270.122 353.488 269.62 354.887 270.566 356.398C271.512 357.909 282.191 369.584 283.672 371.005C285.152 372.425 288.163 373.106 288.043 374.679C287.924 376.252 286.321 376.329 285.514 376.827C284.714 377.33 284.311 378.396 282.99 377.986C281.591 377.549 281.542 375.192 279.987 372.662C278.207 369.77 269.352 359.964 267.538 358.397C266.015 357.082 262.801 356.544 263.559 354.235L263.566 354.239Z"/>
<path fill="white" d="M260.786 360.195C259.489 358.537 254.545 353.076 256.464 350.956C257.713 349.58 258.065 351.444 259.437 352.282C260.808 353.12 261.131 352.657 262.144 353.345C263.766 354.439 262.608 355.384 263.3 357.11C263.995 358.847 272.16 373.56 273.361 375.191C274.124 376.216 276.895 377.167 276.506 378.741C276.12 380.309 275.051 380.072 274.1 380.209C272.941 380.384 272.591 381.36 271.345 380.659C270.025 379.925 270.605 378.423 269.473 375.515C268.178 372.198 262.313 362.161 260.772 360.187L260.786 360.195Z"/>
<path fill="white" d="M302.367 361.744C303.139 360.631 303.862 359.426 305.103 359.687C306.726 360.04 306.932 361.838 307.688 362.905C308.441 363.98 317.408 370.233 318.519 370.494C319.63 370.755 321.379 370.457 321.94 371.783C322.353 372.754 320.931 373.371 320.454 374.181C319.78 375.331 320.146 376.304 319.008 376.444C317.811 376.588 316.925 374.573 315.731 373.476C314.537 372.379 306.99 367.344 305.39 366.42C303.79 365.496 302.494 366.808 301.55 365.214C300.932 364.18 301.605 362.853 302.371 361.737L302.367 361.744Z"/>
<path fill="white" d="M295.848 371.041C296.795 370.076 297.77 368.951 298.973 369.469C300.422 370.092 300.004 371.716 301.04 373.296C301.792 374.436 309.72 382.667 310.809 383.158C311.899 383.648 313.703 383.705 314.073 385.153C314.34 386.216 312.808 386.556 312.2 387.272C311.335 388.303 311.56 389.361 310.389 389.269C309.15 389.165 308.573 386.95 307.542 385.603C306.504 384.252 299.66 377.63 298.177 376.375C296.29 374.775 295.29 375.737 294.435 374.084C293.861 372.974 294.913 372.004 295.859 371.038L295.848 371.041Z"/>
<path fill="white" d="M288.191 382.778C286.555 381.064 284.61 381.333 284.319 379.523C284.108 378.186 284.884 378.142 286.072 377.548C287.582 376.796 288.172 375.662 289.272 376.279C290.592 377.013 290.321 378.462 291.146 380.069C291.735 381.235 298.593 389.888 299.581 390.459C300.569 391.029 302.309 391.245 302.493 392.678C302.628 393.729 301.116 393.905 300.452 394.542C299.501 395.449 299.597 396.488 298.486 396.292C297.3 396.08 296.999 393.903 296.157 392.517C295.309 391.127 289.473 384.14 288.19 382.796L288.191 382.778Z"/>
<path fill="white" d="M275.743 385.749C274.588 384.312 272.727 383.952 272.515 382.874C272.251 381.516 273.154 380.98 274.701 380.936C275.605 380.911 276.38 379.215 277.605 380.275C278.608 381.141 278.077 382.301 278.58 383.63C278.947 384.603 283.517 391.805 284.265 392.293C285.013 392.78 286.709 393.379 286.331 394.385C285.954 395.392 284.967 395.045 284.301 395.476C283.557 395.946 283.342 396.815 282.452 396.413C281.569 396.014 281.787 395.027 281.237 393.874C280.698 392.719 276.651 386.876 275.743 385.749Z"/>
<path fill="white" d="M323.495 373.284C324.654 373.638 324.721 374.919 325.105 375.475C325.712 376.336 329.96 380.337 330.61 380.833C331.264 381.34 332.783 381.457 332.737 382.516C332.713 383.216 331.78 383.419 331.253 383.978C330.623 384.635 330.511 385.553 329.729 385.445C328.562 385.281 328.683 384.219 327.896 383.301C327.102 382.379 323.292 378.519 322.593 378.236C321.887 377.949 320.51 377.618 320.428 376.587C320.341 375.405 321.898 372.788 323.506 373.281L323.495 373.284Z"/>
<path fill="white" d="M300.056 336.794C301.487 336.469 302.155 337.931 302.898 338.267C304.064 338.801 310.686 340.361 311.679 340.489C312.675 340.628 314.824 339.717 315.433 340.848C315.838 341.592 314.993 342.365 314.78 343.263C314.527 344.313 315.3 345.159 314.606 345.815C313.481 346.863 312.237 345.05 310.844 344.571C309.451 344.091 303.077 342.359 302.165 342.491C301.254 342.624 299.599 343.097 298.89 342.075C298.061 340.892 298.082 337.24 300.06 336.787L300.056 336.794Z"/>
<path fill="white" d="M311.984 390.393C311.808 388.947 313.446 386.061 315.327 386.916C316.687 387.534 316.841 389.098 317.316 389.817C318.068 390.956 323.229 396.478 324.007 397.187C324.792 397.899 326.553 398.304 326.57 399.575C326.577 400.414 325.521 400.509 324.946 401.087C324.265 401.769 324.192 402.859 323.276 402.599C321.924 402.208 321.986 400.945 321.02 399.71C320.047 398.471 315.408 393.187 314.579 392.727C313.75 392.266 312.14 391.634 311.981 390.382L311.984 390.393Z"/>
<path fill="white" d="M302.216 400.05C301.438 399.582 299.916 398.907 299.871 397.685C299.811 396.277 301.65 393.527 303.418 394.417C304.696 395.063 304.723 396.59 305.131 397.299C305.782 398.435 310.377 403.973 311.082 404.695C311.794 405.422 313.484 405.869 313.396 407.098C313.34 407.919 312.3 407.968 311.688 408.514C310.966 409.155 310.808 410.214 309.937 409.924C308.641 409.501 308.812 408.273 307.965 407.042C307.117 405.811 303.009 400.508 302.231 400.04L302.216 400.05Z"/>
<path fill="white" d="M285.471 399.908C284.648 399.1 283.204 398.887 283.385 397.656C283.555 396.511 285.466 395.017 286.807 395.81C287.784 396.383 287.237 397.347 287.801 398.267C288.362 399.175 291.674 403.656 292.177 404.263C292.688 404.873 294.001 405.297 293.815 406.294C293.693 406.956 292.847 406.959 292.303 407.387C291.658 407.877 291.434 408.731 290.759 408.471C289.76 408.08 289.931 406.611 289.356 405.583C288.787 404.559 285.977 400.414 285.467 399.915L285.471 399.908Z"/>
<path fill="white" d="M331.004 385.726C331.164 384.854 332.657 383.425 333.372 383.633C334.323 383.913 334.324 384.795 334.697 385.595C335.07 386.395 337.352 388.194 336.451 389.065C335.641 389.841 333.508 387.848 332.848 387.384C332.188 386.92 330.841 386.587 331.004 385.726Z"/>
<path fill="white" d="M327.194 400.39C328.385 400.642 328.467 401.737 329.003 402.687C329.533 403.633 332.501 405.643 331.467 406.79C330.549 407.819 327.74 405.566 326.897 405.051C326.049 404.543 324.36 404.255 324.483 403.175C324.605 402.096 326.309 400.204 327.201 400.394L327.194 400.39Z"/>
<path fill="white" d="M316.57 341.272C317.927 340.673 318.783 341.696 319.977 342.247C321.171 342.797 325.508 342.676 325.311 344.528C325.139 346.192 320.78 345.966 319.583 346.063C318.385 346.16 316.52 347.078 315.877 345.927C315.24 344.78 315.568 341.705 316.574 341.265L316.57 341.272Z"/>
<path fill="white" d="M311.091 410.545C311.392 409.606 313.253 408.166 314.013 408.456C315.025 408.855 314.912 409.838 315.217 410.756C315.522 411.674 317.804 413.892 316.679 414.764C315.678 415.549 313.577 413.131 312.917 412.555C312.257 411.979 310.801 411.481 311.102 410.542L311.091 410.545Z"/>
<path fill="white" d="M291.6 408.91C291.933 408.157 293.561 407.056 294.149 407.321C294.927 407.678 294.739 408.469 294.899 409.22C295.059 409.971 296.675 411.832 295.696 412.5C294.814 413.095 293.359 411.085 292.88 410.596C292.402 410.107 291.277 409.661 291.611 408.907L291.6 408.91Z"/>
<path fill="white" d="M162.785 44.3139C169.536 43.9165 172.114 50.4236 175.819 51.6069C179.523 52.7902 186.705 50.6659 187.804 55.9757C189.342 63.3848 180.19 65.1316 176.273 81.2829C170.651 104.483 164.297 127.539 159.92 150.993C157.814 162.272 151.625 194.987 152.046 198.838C152.919 206.837 162.146 210.392 160.233 219.343C159.137 224.471 154.517 228.649 149.308 229.222C144.094 229.802 138.674 226.737 136.484 221.967C134.664 218.003 135.011 213.417 135.526 209.086C138.538 183.562 144.011 158.385 148.637 132.893C151.947 114.676 160.065 95.3288 158.692 76.661C158.296 71.3215 154.495 66.5298 152.189 60.8848C148.459 51.7282 155.505 44.7299 162.789 44.307L162.785 44.3139Z"/>
<path fill="white" d="M125.563 227.387C125.919 223.204 129.638 220.602 132.762 222.276C136.504 224.279 137.721 229.304 144.586 231.311C148.905 232.57 154.911 229.285 158.067 228.334C162.051 227.137 158.793 237.101 159.666 241.631C161.791 252.635 168.813 260.844 176.872 268.382C186.854 277.716 197 286.876 207.081 296.101C220.776 308.627 235.33 320.082 248.852 332.796C250.927 334.745 252.314 335.908 254.564 337.587C255.845 338.549 254.168 340.763 253.858 342.216C253.547 343.669 254.243 346.288 252.719 346.744C250.303 347.473 247.024 341.907 244.062 338.907C236.306 331.053 208.236 309.912 181.521 287.948C167.63 276.534 155.245 263.957 142.139 251.631C138.17 247.902 124.912 235.071 125.557 227.383L125.563 227.387Z"/>
<path fill="white" d="M253.5 336.954C251.053 335.763 248.233 332.067 242.824 324.519C241.648 322.876 236.007 317.383 228.866 310.441C221.762 303.529 212.932 294.933 204.163 285.956C181.802 263.056 161.45 243.44 159.784 242.357C159.299 242.04 158.767 241.742 158.123 241.426C157.658 241.204 157.189 240.989 156.729 240.788C156.27 240.588 155.842 240.397 155.416 240.188C153.59 239.301 151.813 238.089 151.203 235.306C150.861 233.746 152.184 230.715 155.876 227.727C160.483 224.005 163.494 224.75 164.576 225.237C164.639 225.273 164.71 225.295 164.772 225.331C168.147 226.973 168.385 229.903 168.556 232.033C168.63 232.948 168.701 233.805 169.009 234.187C170.842 236.46 183.192 249.37 198.832 265.709C202.672 269.725 206.74 273.975 210.925 278.358C230.874 299.235 251.785 319.73 254.102 321.597C255.863 323.013 258.053 324.249 260.17 325.434C264.553 327.9 268.689 330.232 267.396 333.66C266.728 335.445 265.18 335.377 263.687 335.312C262.556 335.263 261.278 335.211 259.739 335.677C258.9 335.925 258.364 336.274 257.847 336.607C256.923 337.195 256.051 337.759 254.254 337.24C253.999 337.168 253.742 337.066 253.487 336.946L253.5 336.954Z"/>
<path fill="#DCC1B2" d="M164.462 225.996C169.015 228.216 167.121 233.022 168.441 234.656C170.746 237.508 188.874 256.35 210.4 278.88C230.065 299.463 251.167 320.19 253.649 322.189C259.06 326.537 268.314 329.162 266.717 333.406C265.873 335.656 263.374 333.814 259.54 334.977C257.08 335.718 256.864 337.217 254.472 336.54C254.263 336.485 254.045 336.396 253.828 336.289C251.562 335.185 248.752 331.522 243.432 324.091C241.055 320.77 222.645 303.815 204.702 285.441C183.141 263.356 162.025 242.927 160.199 241.734C159.621 241.354 159.032 241.041 158.455 240.755C157.522 240.299 156.598 239.923 155.747 239.516C153.936 238.637 152.47 237.577 151.943 235.149C151.243 231.943 159.589 223.785 164.283 225.92C164.339 225.952 164.41 225.975 164.465 226.007M203.643 286.472C212.418 295.453 221.252 304.059 228.355 310.971C235.473 317.891 241.09 323.36 242.222 324.95C247.708 332.607 250.571 336.357 253.169 337.625C253.466 337.769 253.761 337.883 254.055 337.969C256.175 338.572 257.279 337.864 258.252 337.239C258.75 336.923 259.221 336.62 259.955 336.394C261.37 335.968 262.583 336.02 263.653 336.062C264.479 336.094 265.265 336.13 265.997 335.922C267.004 335.641 267.71 334.963 268.1 333.918C268.811 332.028 268.188 330.184 266.23 328.45C264.781 327.168 262.723 326.008 260.548 324.78C258.455 323.6 256.294 322.38 254.58 321.01C252.266 319.154 231.399 298.694 211.474 277.84C207.282 273.453 203.222 269.207 199.374 265.187C183.749 248.856 171.412 235.954 169.599 233.711C169.432 233.503 169.361 232.581 169.308 231.966C169.134 229.778 168.867 226.48 165.108 224.653C165.039 224.612 164.961 224.586 164.891 224.546C162.341 223.389 158.887 224.326 155.411 227.133C152.555 229.445 149.925 232.908 150.478 235.453C151.152 238.542 153.091 239.875 155.092 240.844C155.525 241.058 155.985 241.258 156.426 241.457C156.875 241.66 157.341 241.865 157.8 242.083C158.422 242.387 158.92 242.665 159.384 242.97"/>
</g>
<defs>
<clipPath id="clip0_287_6447">
<rect transform="translate(142.955) rotate(30)" fill="white" height="285.91" width="369.986"/>
</clipPath>
</defs>
</svg>