<svg xmlns="http://www.w3.org/2000/svg" fill="none" viewBox="118.59701492537313 32.908 240.65671641791045 390.56600000000003" style="max-height: 500px" width="240.65671641791045" height="390.56600000000003">
<g clip-path="url(#clip0_287_6500)">
<path fill="#DCC1B2" d="M288.681 37.3365C261.206 42.5665 242.93 68.4955 249.068 95.7818C251.931 108.507 254.646 119.495 256.219 125.159C266.593 162.552 293.629 224.128 293.629 224.128C284.512 230.413 277.374 238.068 270.54 244.787C254.869 260.189 239.587 280.328 225.792 295.732C214.091 308.805 217.443 305.051 208.797 314.255C199.834 323.297 195.645 325.938 192.662 327.503C186.776 330.595 175.639 329.011 168.844 330.559C163.891 331.684 159.883 334.833 156.258 335.72C151.7 336.839 138.558 338.24 134.797 339.132C132.511 339.672 131.393 343.712 134.907 346.006C138.421 348.3 143.861 349.834 149.609 349.011C153.738 348.417 162.12 344.524 163.662 346.101C165.192 347.676 159.952 353.605 157.735 356.257C155.519 358.91 145.031 365.308 139.043 369.943C133.055 374.579 126.001 382.25 123.584 385.037C121.167 387.824 121.687 395.696 129.939 390.774C137.91 386.024 141.558 380.967 144.367 379.021C147.75 376.669 155.885 370.405 157.275 372.023C158.671 373.638 134.239 398.013 130.7 402.616C126.05 408.668 131.378 414.265 137.723 408.755C144.332 403.011 164.54 379.563 166.158 380.855C167.78 382.154 148.68 405.593 144.312 411.862C139.425 418.885 146.954 422.108 151.516 416.932C156.089 411.76 177.374 383.637 179.524 384.742C181.667 385.852 168.462 405.266 165.298 411.498C162.138 417.738 168.722 420.096 172.919 414.352C177.117 408.608 202.051 376.3 205.852 369.82C212.495 358.481 209.87 355.395 214.537 349.807C216.249 347.76 221.672 342.339 229.282 337.398C236.9 332.452 263.737 316.132 285.19 300.463C303.512 287.083 309.992 276.329 329.491 261.259C334.729 257.206 351.874 252.761 354.835 246.515C358.486 238.796 357.95 234.012 355.097 226.356C346.17 202.346 352.315 158.958 349.906 134.59C348.947 124.852 347.214 100.691 344.48 76.4146C341.403 49.0824 315.701 32.1931 288.681 37.3365Z"/>
<path fill="white" d="M204.237 338.425C200.957 335.635 196.039 336.035 193.249 339.315C190.465 342.592 190.858 347.513 194.135 350.297C197.415 353.087 202.333 352.687 205.12 349.418C207.91 346.137 207.511 341.22 204.237 338.425Z"/>
<path fill="white" d="M193.572 335.586C192.619 333.502 190.447 334.784 189.139 335.186C188.447 335.401 184.319 334.212 180.084 334.107C175.564 333.989 170.917 334.937 170.053 335C168.38 335.122 166.613 333.814 165.596 334.976C164.579 336.138 165.771 337.222 166.034 338.081C166.298 338.94 165.468 340.634 166.679 341.206C168.168 341.905 169.763 339.945 171.627 339.156C174.947 337.74 184.509 338.156 186.985 338.99C188.822 339.618 188.625 341.364 190.206 341.323C191.823 341.28 191.545 339.224 192.076 338.361C192.603 337.49 194.082 336.711 193.576 335.593L193.572 335.586Z"/>
<path fill="white" d="M189.959 344.879C189.799 343.96 190.647 342.923 189.34 342.184C187.175 340.958 185.753 344.005 184.288 345.259C183.271 346.133 170.165 354.424 166.089 355.961C162.007 357.501 161.308 356.467 160.232 358.09C159.215 359.623 161.113 360.42 161.723 361.348C162.347 362.268 162.098 364.053 163.63 364.634C165.493 365.34 165.075 363.763 170.097 359.722C173.967 356.607 185.47 348.769 186.821 348.731C188.172 348.693 189.56 349.089 190.384 347.528C190.781 346.769 190.229 346.328 189.969 344.882L189.959 344.879Z"/>
<path fill="white" d="M192.383 350.381C191.714 349.478 191.108 348.557 190.292 348.639C188.347 348.853 188.124 351.133 186.891 352.532C185.661 353.937 171.715 365.449 170.56 365.986C169.404 366.523 166.357 366.307 166.198 367.911C166.032 369.519 167.557 369.927 168.281 370.539C169.005 371.151 169.434 372.888 170.845 372.649C172.334 372.401 172.301 370.352 174.337 367.998C176.663 365.31 187.225 356.309 189.337 354.969C191.122 353.836 193.545 354.321 193.881 352.429C194.088 351.261 193.088 351.328 192.39 350.377L192.383 350.381Z"/>
<path fill="white" d="M199.806 354.239C199.453 353.163 198.096 353.817 197.273 353.596C196.432 353.377 195.654 352.221 194.914 352.611C193.25 353.488 193.752 354.887 192.806 356.398C191.86 357.909 181.181 369.584 179.7 371.005C178.22 372.425 175.209 373.106 175.328 374.679C175.448 376.252 177.051 376.329 177.858 376.827C178.658 377.33 179.061 378.396 180.382 377.986C181.781 377.549 181.83 375.192 183.384 372.662C185.165 369.77 194.02 359.964 195.834 358.397C197.356 357.082 200.57 356.544 199.813 354.235L199.806 354.239Z"/>
<path fill="white" d="M202.585 360.195C203.882 358.537 208.827 353.076 206.908 350.956C205.659 349.58 205.306 351.444 203.935 352.282C202.564 353.12 202.241 352.657 201.228 353.345C199.605 354.439 200.763 355.384 200.072 357.11C199.377 358.847 191.212 373.56 190.011 375.191C189.248 376.216 186.476 377.167 186.866 378.741C187.252 380.309 188.321 380.072 189.272 380.209C190.43 380.384 190.781 381.36 192.027 380.659C193.347 379.925 192.767 378.423 193.899 375.515C195.194 372.198 201.059 362.161 202.599 360.187L202.585 360.195Z"/>
<path fill="white" d="M161.005 361.744C160.233 360.631 159.509 359.426 158.269 359.687C156.645 360.04 156.44 361.838 155.684 362.905C154.931 363.98 145.964 370.233 144.853 370.494C143.742 370.755 141.993 370.457 141.432 371.783C141.019 372.754 142.441 373.371 142.918 374.181C143.592 375.331 143.225 376.304 144.364 376.444C145.56 376.588 146.447 374.573 147.641 373.476C148.835 372.379 156.382 367.344 157.982 366.42C159.582 365.496 160.877 366.808 161.822 365.214C162.44 364.18 161.767 362.853 161.001 361.737L161.005 361.744Z"/>
<path fill="white" d="M167.523 371.041C166.576 370.076 165.602 368.951 164.399 369.469C162.95 370.092 163.367 371.716 162.332 373.296C161.58 374.436 153.652 382.667 152.562 383.158C151.473 383.648 149.669 383.705 149.299 385.153C149.032 386.216 150.564 386.556 151.172 387.272C152.036 388.303 151.812 389.361 152.983 389.269C154.222 389.165 154.798 386.95 155.83 385.603C156.868 384.252 163.712 377.63 165.195 376.375C167.082 374.775 168.082 375.737 168.937 374.084C169.511 372.974 168.459 372.004 167.512 371.038L167.523 371.041Z"/>
<path fill="white" d="M175.181 382.778C176.817 381.064 178.762 381.333 179.053 379.523C179.264 378.186 178.488 378.142 177.3 377.548C175.79 376.796 175.2 375.662 174.1 376.279C172.78 377.013 173.051 378.462 172.226 380.069C171.637 381.235 164.778 389.888 163.791 390.459C162.803 391.029 161.063 391.245 160.879 392.678C160.744 393.729 162.256 393.905 162.92 394.542C163.871 395.449 163.775 396.488 164.886 396.292C166.071 396.08 166.373 393.903 167.214 392.517C168.063 391.127 173.899 384.14 175.182 382.796L175.181 382.778Z"/>
<path fill="white" d="M187.629 385.749C188.784 384.312 190.645 383.952 190.857 382.874C191.121 381.516 190.218 380.98 188.671 380.936C187.766 380.911 186.992 379.215 185.767 380.275C184.764 381.141 185.295 382.301 184.791 383.63C184.425 384.603 179.855 391.805 179.107 392.293C178.358 392.78 176.663 393.379 177.04 394.385C177.417 395.392 178.404 395.045 179.071 395.476C179.815 395.946 180.029 396.815 180.919 396.413C181.802 396.014 181.585 395.027 182.135 393.874C182.674 392.719 186.721 386.876 187.629 385.749Z"/>
<path fill="white" d="M139.877 373.284C138.718 373.638 138.651 374.919 138.267 375.475C137.66 376.336 133.412 380.337 132.761 380.833C132.108 381.34 130.589 381.457 130.635 382.516C130.659 383.216 131.592 383.419 132.119 383.978C132.748 384.635 132.861 385.553 133.643 385.445C134.81 385.281 134.689 384.219 135.476 383.301C136.27 382.379 140.08 378.519 140.779 378.236C141.485 377.949 142.862 377.618 142.944 376.587C143.031 375.405 141.474 372.788 139.866 373.281L139.877 373.284Z"/>
<path fill="white" d="M163.315 336.794C161.885 336.469 161.217 337.931 160.474 338.267C159.308 338.801 152.686 340.361 151.693 340.489C150.697 340.628 148.548 339.717 147.939 340.848C147.534 341.592 148.379 342.365 148.591 343.263C148.845 344.313 148.072 345.159 148.766 345.815C149.891 346.863 151.135 345.05 152.528 344.571C153.921 344.091 160.295 342.359 161.207 342.491C162.118 342.624 163.773 343.097 164.482 342.075C165.311 340.892 165.289 337.24 163.311 336.787L163.315 336.794Z"/>
<path fill="white" d="M151.388 390.393C151.564 388.947 149.926 386.061 148.045 386.916C146.685 387.534 146.531 389.098 146.056 389.817C145.303 390.956 140.143 396.478 139.365 397.187C138.58 397.899 136.819 398.304 136.802 399.575C136.794 400.414 137.851 400.509 138.426 401.087C139.107 401.769 139.18 402.859 140.096 402.599C141.448 402.208 141.386 400.945 142.352 399.71C143.325 398.471 147.964 393.187 148.793 392.727C149.622 392.266 151.232 391.634 151.391 390.382L151.388 390.393Z"/>
<path fill="white" d="M161.156 400.05C161.934 399.582 163.456 398.907 163.501 397.685C163.56 396.277 161.722 393.527 159.954 394.417C158.676 395.063 158.649 396.59 158.241 397.299C157.59 398.435 152.995 403.973 152.29 404.695C151.577 405.422 149.888 405.869 149.976 407.098C150.032 407.919 151.072 407.968 151.684 408.514C152.406 409.155 152.563 410.214 153.435 409.924C154.73 409.501 154.559 408.273 155.407 407.042C156.254 405.811 160.363 400.508 161.141 400.04L161.156 400.05Z"/>
<path fill="white" d="M177.901 399.908C178.723 399.1 180.168 398.887 179.986 397.656C179.817 396.511 177.906 395.017 176.564 395.81C175.588 396.383 176.135 397.347 175.571 398.267C175.01 399.175 171.698 403.656 171.195 404.263C170.684 404.873 169.371 405.297 169.557 406.294C169.679 406.956 170.525 406.959 171.069 407.387C171.714 407.877 171.938 408.731 172.613 408.471C173.612 408.08 173.441 406.611 174.016 405.583C174.585 404.559 177.395 400.414 177.905 399.915L177.901 399.908Z"/>
<path fill="white" d="M132.368 385.727C132.207 384.855 130.714 383.426 130 383.634C129.049 383.914 129.048 384.796 128.674 385.596C128.301 386.396 126.02 388.195 126.921 389.066C127.731 389.842 129.864 387.849 130.524 387.385C131.183 386.921 132.531 386.588 132.368 385.727Z"/>
<path fill="white" d="M136.178 400.39C134.987 400.642 134.905 401.737 134.368 402.687C133.838 403.633 130.871 405.643 131.905 406.79C132.823 407.819 135.632 405.566 136.475 405.051C137.323 404.543 139.012 404.255 138.889 403.175C138.767 402.096 137.062 400.204 136.171 400.394L136.178 400.39Z"/>
<path fill="white" d="M146.802 341.272C145.445 340.673 144.589 341.696 143.395 342.247C142.2 342.797 137.864 342.676 138.061 344.528C138.233 346.192 142.592 345.966 143.789 346.063C144.986 346.16 146.852 347.078 147.495 345.927C148.132 344.78 147.803 341.705 146.798 341.265L146.802 341.272Z"/>
<path fill="white" d="M152.281 410.545C151.98 409.606 150.119 408.166 149.359 408.456C148.346 408.855 148.459 409.838 148.155 410.756C147.85 411.674 145.568 413.892 146.693 414.764C147.694 415.549 149.794 413.131 150.454 412.555C151.114 411.979 152.571 411.481 152.27 410.542L152.281 410.545Z"/>
<path fill="white" d="M171.772 408.91C171.439 408.157 169.811 407.056 169.222 407.321C168.445 407.678 168.633 408.469 168.473 409.22C168.312 409.971 166.697 411.832 167.676 412.5C168.558 413.095 170.013 411.085 170.491 410.596C170.969 410.107 172.094 409.661 171.761 408.907L171.772 408.91Z"/>
<path fill="white" d="M300.586 44.3139C293.836 43.9165 291.257 50.4236 287.553 51.6069C283.849 52.7902 276.667 50.6659 275.568 55.9757C274.029 63.3848 283.182 65.1316 287.099 81.2829C292.721 104.483 299.075 127.539 303.452 150.993C305.558 162.272 311.746 194.987 311.326 198.838C310.453 206.837 301.226 210.392 303.138 219.343C304.234 224.471 308.854 228.649 314.064 229.222C319.278 229.802 324.698 226.737 326.887 221.967C328.708 218.003 328.361 213.417 327.845 209.086C324.834 183.562 319.36 158.385 314.735 132.893C311.425 114.676 303.307 95.3288 304.68 76.661C305.076 71.3215 308.877 66.5298 311.183 60.8848C314.913 51.7282 307.867 44.7299 300.582 44.307L300.586 44.3139Z"/>
<path fill="white" d="M337.808 227.387C337.453 223.204 333.734 220.602 330.609 222.276C326.868 224.279 325.651 229.304 318.785 231.311C314.467 232.57 308.461 229.285 305.305 228.334C301.321 227.137 304.579 237.101 303.706 241.631C301.581 252.635 294.559 260.844 286.5 268.382C276.518 277.716 266.372 286.876 256.29 296.101C242.596 308.627 228.041 320.082 214.52 332.796C212.445 334.745 211.057 335.908 208.808 337.587C207.527 338.549 209.204 340.763 209.514 342.216C209.824 343.669 209.129 346.288 210.653 346.744C213.069 347.473 216.348 341.907 219.31 338.907C227.066 331.053 255.136 309.912 281.851 287.948C295.742 276.534 308.127 263.957 321.232 251.631C325.201 247.902 338.46 235.071 337.815 227.383L337.808 227.387Z"/>
<path fill="white" d="M209.871 336.954C212.319 335.763 215.138 332.067 220.548 324.519C221.724 322.876 227.365 317.383 234.506 310.441C241.609 303.529 250.44 294.933 259.208 285.956C281.57 263.056 301.921 243.44 303.588 242.357C304.072 242.04 304.605 241.742 305.248 241.426C305.714 241.204 306.183 240.989 306.643 240.788C307.102 240.588 307.53 240.397 307.956 240.188C309.782 239.301 311.559 238.089 312.169 235.306C312.511 233.746 311.188 230.715 307.496 227.727C302.889 224.005 299.878 224.75 298.795 225.237C298.733 225.273 298.662 225.295 298.599 225.331C295.225 226.973 294.987 229.903 294.816 232.033C294.741 232.948 294.671 233.805 294.362 234.187C292.53 236.46 280.179 249.37 264.54 265.709C260.7 269.725 256.632 273.975 252.447 278.358C232.498 299.235 211.587 319.73 209.27 321.597C207.509 323.013 205.319 324.249 203.202 325.434C198.819 327.9 194.683 330.232 195.976 333.66C196.644 335.445 198.191 335.377 199.685 335.312C200.815 335.263 202.094 335.211 203.633 335.677C204.472 335.925 205.008 336.274 205.524 336.607C206.449 337.195 207.321 337.759 209.118 337.24C209.373 337.168 209.63 337.066 209.885 336.946L209.871 336.954Z"/>
<path fill="#DCC1B2" d="M298.909 225.996C294.357 228.216 296.25 233.022 294.93 234.656C292.625 237.508 274.498 256.35 252.971 278.88C233.307 299.463 212.205 320.19 209.723 322.189C204.312 326.537 195.058 329.162 196.655 333.406C197.499 335.656 199.998 333.814 203.832 334.977C206.292 335.718 206.508 337.217 208.9 336.54C209.109 336.485 209.327 336.396 209.543 336.289C211.809 335.185 214.62 331.522 219.939 324.091C222.317 320.77 240.727 303.815 258.67 285.441C280.231 263.356 301.347 242.927 303.172 241.734C303.751 241.354 304.34 241.041 304.917 240.755C305.85 240.299 306.774 239.923 307.624 239.516C309.436 238.637 310.902 237.577 311.429 235.149C312.129 231.943 303.783 223.785 299.088 225.92C299.033 225.952 298.962 225.975 298.906 226.007M259.729 286.472C250.954 295.453 242.12 304.059 235.016 310.971C227.899 317.891 222.282 323.36 221.15 324.95C215.664 332.607 212.801 336.357 210.203 337.625C209.906 337.769 209.61 337.883 209.317 337.969C207.197 338.572 206.093 337.864 205.12 337.239C204.622 336.923 204.15 336.62 203.417 336.394C202.002 335.968 200.789 336.02 199.719 336.062C198.893 336.094 198.107 336.13 197.375 335.922C196.368 335.641 195.662 334.963 195.271 333.918C194.56 332.028 195.184 330.184 197.142 328.45C198.591 327.168 200.649 326.008 202.824 324.78C204.916 323.6 207.078 322.38 208.792 321.01C211.106 319.154 231.973 298.694 251.898 277.84C256.09 273.453 260.15 269.207 263.997 265.187C279.623 248.856 291.96 235.954 293.772 233.711C293.94 233.503 294.01 232.581 294.064 231.966C294.238 229.778 294.504 226.48 298.264 224.653C298.333 224.612 298.411 224.586 298.48 224.546C301.031 223.389 304.485 224.326 307.961 227.133C310.817 229.445 313.447 232.908 312.894 235.453C312.219 238.542 310.28 239.875 308.28 240.844C307.846 241.058 307.387 241.258 306.945 241.457C306.497 241.66 306.031 241.865 305.572 242.083C304.95 242.387 304.452 242.665 303.988 242.97"/>
<!-- <circle fill="#DCDCDD" r="20" cy="230" cx="327" opacity="0.7"/>
<circle stroke="#A3A9AE" fill="white" transform="matrix(1 0 0 -1 316.524 240.476)" r="9.97619" cy="10.4762" cx="10.4762" opacity="0.8"/> -->
</g>
<defs>
<clipPath id="clip0_287_6500">
<rect transform="matrix(-0.866025 0.5 0.5 0.866025 320.417 0)" fill="white" height="285.91" width="369.986"/>
</clipPath>
</defs>
</svg>