<svg width="20" height="20" viewBox="0 0 20 20" fill="none" xmlns="http://www.w3.org/2000/svg">
<g clip-path="url(#clip0_162_2988)">
<path d="M17.0719 17.0715C20.9773 13.166 20.9773 6.83399 17.0719 2.92852C13.1664 -0.976954 6.83438 -0.976954 2.9289 2.92852C-0.976568 6.83399 -0.976568 13.166 2.9289 17.0715C6.83438 20.977 13.1664 20.977 17.0719 17.0715Z" fill="#EB0A0F"/>
<path d="M16.1939 13.0257C15.9276 12.1622 15.2823 11.6037 14.5491 11.6037C14.2722 11.6037 13.9965 11.687 13.7525 11.8431C13.5706 11.9592 13.4322 12.1235 13.2984 12.283C13.2327 12.3604 13.1717 12.4344 13.106 12.5001C12.977 12.6315 12.8033 12.7417 12.6179 12.8121C12.2425 12.9541 11.6747 12.8415 11.372 12.4085C11.0141 11.897 10.512 11.6037 9.99226 11.6037C9.60979 11.6037 9.23788 11.7727 8.91641 12.0906C8.84015 12.1657 8.77445 12.2502 8.7111 12.3299C8.65479 12.4015 8.60199 12.4696 8.54567 12.5259C8.44126 12.6315 8.30399 12.7007 8.14795 12.7734C7.95789 12.8626 7.75961 12.8943 7.57307 12.8649C7.32904 12.8262 7.07093 12.6878 6.88321 12.4954C6.82338 12.4332 6.76354 12.3651 6.70136 12.2924C6.55706 12.1258 6.40923 11.9533 6.22386 11.836C5.98217 11.6835 5.70999 11.6025 5.4378 11.6025C4.71978 11.6025 4.0792 12.1446 3.80584 12.9846C3.75539 13.1406 3.81874 13.3131 3.95366 13.3858C4.07333 13.4504 4.21295 13.4199 4.30094 13.3084C4.6447 12.8755 5.21488 12.4825 5.78625 12.6807C6.06782 12.7781 6.29895 13.0374 6.4937 13.272C6.77176 13.6064 7.13311 13.8199 7.51441 13.8727C7.57894 13.8821 7.64464 13.8856 7.70916 13.8856C8.17493 13.8856 8.62897 13.6475 8.95748 13.231L9.01731 13.1535C9.12994 13.0081 9.21911 12.8931 9.35403 12.8086C9.51593 12.7077 9.69192 12.642 9.86321 12.6186C10.0462 12.5939 10.2363 12.6291 10.4275 12.7218C10.5214 12.7676 10.6164 12.8274 10.7103 12.9013C10.8077 12.9776 10.8968 13.0832 10.9907 13.1946C11.0904 13.3131 11.1925 13.4351 11.318 13.536C11.5996 13.7636 11.9269 13.8833 12.2648 13.8833C12.6367 13.8833 12.9946 13.7319 13.2984 13.4457C13.3442 13.4023 13.424 13.319 13.5166 13.2216C13.6375 13.0949 13.8616 12.8602 13.9167 12.8227C14.3344 12.5411 14.7931 12.5529 15.2084 12.8555C15.3727 12.9752 15.5322 13.1348 15.6965 13.3424C15.7845 13.4527 15.9229 13.4844 16.0426 13.4222C16.1787 13.3506 16.242 13.1829 16.1928 13.0233L16.1939 13.0257Z" fill="#303030"/>
<path d="M4.16759 6.2201L3.52051 6.86719L6.43571 9.78239L7.0828 9.1353L4.16759 6.2201Z" fill="#303030"/>
<path d="M7.08263 6.86681L6.43555 6.21973L3.52034 9.13493L4.16743 9.78201L7.08263 6.86681Z" fill="#303030"/>
<path d="M13.5641 6.2201L12.917 6.86719L15.8322 9.78239L16.4793 9.13531L13.5641 6.2201Z" fill="#303030"/>
<path d="M16.4791 6.86681L15.832 6.21973L12.9168 9.13493L13.5639 9.78201L16.4791 6.86681Z" fill="#303030"/>
</g>
<defs>
<clipPath id="clip0_162_2988">
<rect width="20" height="20" fill="white"/>
</clipPath>
</defs>
</svg>
