<svg width="20" height="20" viewBox="0 0 20 20" fill="none" xmlns="http://www.w3.org/2000/svg">
<g clip-path="url(#clip0_158_1879)">
<path d="M19.8729 11.6029C20.7579 6.15104 17.0557 1.01407 11.6039 0.129117C6.1521 -0.755837 1.01514 2.94633 0.130183 8.39815C-0.754771 13.85 2.9474 18.9869 8.39921 19.8719C13.851 20.7568 18.988 17.0547 19.8729 11.6029Z" fill="#F0592A"/>
<path d="M14.2502 14.7942C14.0097 12.6601 12.1983 11 9.99963 11C7.801 11 5.99071 12.6589 5.74902 14.7942H14.2502Z" fill="#303030"/>
<path d="M4.60637 10.161C4.47966 10.161 4.3553 10.1047 4.272 9.99796C4.12769 9.81376 4.16172 9.54744 4.34591 9.40313L5.78781 8.27918L4.29664 7.40278C4.09484 7.28428 4.02797 7.02383 4.14647 6.82203C4.26496 6.62024 4.52542 6.55336 4.72721 6.67186L6.75572 7.86503C6.87657 7.9366 6.95517 8.06213 6.96338 8.20292C6.97277 8.34253 6.91176 8.47863 6.80148 8.56545L4.86683 10.073C4.78939 10.1329 4.69788 10.1622 4.60637 10.1622V10.161Z" fill="#303030"/>
<path d="M15.3941 10.1612C15.3026 10.1612 15.2111 10.1319 15.1336 10.0721L13.199 8.56447C13.0887 8.47765 13.0277 8.34273 13.0371 8.20194C13.0465 8.06233 13.1239 7.93562 13.2447 7.86405L15.2732 6.67088C15.475 6.55238 15.7343 6.61926 15.854 6.82105C15.9725 7.02285 15.9056 7.28213 15.7038 7.4018L14.2127 8.2782L15.6545 9.40215C15.8387 9.54646 15.8728 9.81278 15.7285 9.99698C15.6452 10.1037 15.5196 10.1601 15.3941 10.1601V10.1612Z" fill="#303030"/>
</g>
<defs>
<clipPath id="clip0_158_1879">
<rect width="20" height="20" fill="white"/>
</clipPath>
</defs>
</svg>
