<svg width="20" height="20" viewBox="0 0 20 20" fill="none" xmlns="http://www.w3.org/2000/svg">
<g clip-path="url(#clip0_158_1867)">
<path d="M17.0719 17.0715C20.9773 13.166 20.9773 6.83399 17.0719 2.92852C13.1664 -0.976954 6.83438 -0.976954 2.9289 2.92852C-0.976568 6.83399 -0.976568 13.166 2.9289 17.0715C6.83438 20.977 13.1664 20.977 17.0719 17.0715Z" fill="#F4712A"/>
<path d="M7.05219 7.57448C7.05219 8.26082 6.72251 8.81693 6.3154 8.81693C5.90829 8.81693 5.57861 8.26082 5.57861 7.57448C5.57861 6.88814 5.90829 6.33203 6.3154 6.33203C6.72251 6.33203 7.05219 6.88814 7.05219 7.57448Z" fill="#303030"/>
<path d="M14.4213 7.57448C14.4213 8.26082 14.0917 8.81693 13.6845 8.81693C13.2774 8.81693 12.9478 8.26082 12.9478 7.57448C12.9478 6.88814 13.2774 6.33203 13.6845 6.33203C14.0917 6.33203 14.4213 6.88814 14.4213 7.57448Z" fill="#303030"/>
<path d="M15.9064 5.47752C15.7985 5.44585 15.694 5.41651 15.592 5.38836C15.3667 5.325 15.1555 5.26634 14.9502 5.19477C14.644 5.09153 14.3683 4.97421 14.1078 4.83694C13.8333 4.69146 13.5846 4.53073 13.3464 4.34301C13.086 4.14122 12.8443 3.90423 12.6214 3.67897C12.6085 3.66606 12.5897 3.66254 12.5733 3.66958C12.5568 3.67662 12.5463 3.69304 12.5475 3.71182C12.5639 4.05323 12.6988 4.40637 12.9381 4.73252C13.1564 5.02818 13.4497 5.2769 13.784 5.45171C14.0996 5.61714 14.4516 5.71921 14.8059 5.74502C14.82 5.74502 14.8329 5.74736 14.847 5.74736C15.2447 5.76848 15.6025 5.70513 15.9134 5.55848C15.9299 5.55026 15.9393 5.53384 15.9381 5.51624C15.9369 5.49864 15.924 5.48339 15.9064 5.47752Z" fill="#303030"/>
<path d="M4.0933 5.47752C4.20124 5.44585 4.30565 5.41651 4.40772 5.38836C4.63298 5.325 4.84416 5.26634 5.04948 5.19477C5.35569 5.09153 5.6314 4.97421 5.89186 4.83694C6.16639 4.69146 6.41512 4.53073 6.65328 4.34301C6.91374 4.14122 7.15542 3.90423 7.37833 3.67897C7.39124 3.66606 7.41001 3.66254 7.42644 3.66958C7.44286 3.67662 7.45342 3.69304 7.45225 3.71182C7.43582 4.05323 7.3009 4.40637 7.06156 4.73252C6.84334 5.02818 6.55004 5.2769 6.21567 5.45171C5.90007 5.61714 5.5481 5.71921 5.19379 5.74502C5.17971 5.74502 5.1668 5.74736 5.15272 5.74736C4.755 5.76848 4.39717 5.70513 4.08626 5.55848C4.06983 5.55026 4.06045 5.53384 4.06162 5.51624C4.0628 5.49864 4.0757 5.48339 4.0933 5.47752Z" fill="#303030"/>
<path d="M6.21925 14.3034C6.11483 14.3151 6.055 14.186 6.05617 14.0898C6.06086 13.6452 6.17936 13.1911 6.40814 12.7406C6.62518 12.3265 6.93609 11.9416 7.308 11.6272C8.04596 11.0101 9.02678 10.6546 9.99939 10.6511C10.9896 10.6323 11.9786 10.989 12.7095 11.6214C13.4686 12.2701 13.9309 13.1923 13.9449 14.0875C13.9461 14.1895 13.8781 14.3221 13.7643 14.301C13.6704 14.2846 13.5942 14.1567 13.5249 14.0992C13.4182 14.01 13.3079 13.9267 13.1941 13.847C12.9676 13.6874 12.7307 13.5443 12.4855 13.414C11.5844 12.933 10.5637 12.6737 9.54065 12.7629C8.88951 12.8192 8.25714 13.0151 7.6764 13.3131C7.32795 13.4915 6.9971 13.705 6.68619 13.9432C6.5677 14.0335 6.37411 14.2752 6.22863 14.3034C6.22511 14.3034 6.22277 14.3034 6.21925 14.3045V14.3034Z" fill="#303030"/>
</g>
<defs>
<clipPath id="clip0_158_1867">
<rect width="20" height="20" fill="white"/>
</clipPath>
</defs>
</svg>
