<svg width="20" height="20" viewBox="0 0 20 20" fill="none" xmlns="http://www.w3.org/2000/svg">
<g clip-path="url(#clip0_158_1820)">
<path d="M17.0719 17.0715C20.9773 13.166 20.9773 6.83399 17.0719 2.92852C13.1664 -0.976954 6.83438 -0.976954 2.9289 2.92852C-0.976568 6.83399 -0.976568 13.166 2.9289 17.0715C6.83438 20.977 13.1664 20.977 17.0719 17.0715Z" fill="#37B54D"/>
<path d="M7.05219 8.21022C7.05219 8.89656 6.72251 9.45267 6.3154 9.45267C5.90829 9.45267 5.57861 8.89656 5.57861 8.21022C5.57861 7.52388 5.90829 6.96777 6.3154 6.96777C6.72251 6.96777 7.05219 7.52388 7.05219 8.21022Z" fill="#303030"/>
<path d="M14.4213 8.21022C14.4213 8.89656 14.0917 9.45267 13.6845 9.45267C13.2774 9.45267 12.9478 8.89656 12.9478 8.21022C12.9478 7.52388 13.2774 6.96777 13.6845 6.96777C14.0917 6.96777 14.4213 7.52388 14.4213 8.21022Z" fill="#303030"/>
<path d="M12.3551 13.0986H7.47217C7.1456 13.0986 6.88086 13.3634 6.88086 13.6899V13.8777C6.88086 14.2042 7.1456 14.469 7.47217 14.469H12.3551C12.6817 14.469 12.9464 14.2042 12.9464 13.8777V13.6899C12.9464 13.3634 12.6817 13.0986 12.3551 13.0986Z" fill="#303030"/>
</g>
<defs>
<clipPath id="clip0_158_1820">
<rect width="20" height="20" fill="white"/>
</clipPath>
</defs>
</svg>
