<svg width="27" height="27" viewBox="0 0 27 27" fill="none" xmlns="http://www.w3.org/2000/svg">
<rect width="27" height="27" rx="13.5" fill="#BCC9DB"/>
<path d="M10.974 14.3925H12.1579V19.2662C12.1579 19.3624 12.2358 19.4404 12.332 19.4404H14.3393C14.4355 19.4404 14.5135 19.3624 14.5135 19.2662V14.4154H15.8744C15.9629 14.4154 16.0374 14.349 16.0475 14.2611L16.2542 12.4669C16.2599 12.4175 16.2442 12.3681 16.2112 12.331C16.1781 12.294 16.1308 12.2727 16.0812 12.2727H14.5136V11.148C14.5136 10.809 14.6961 10.637 15.0562 10.637C15.1075 10.637 16.0812 10.637 16.0812 10.637C16.1774 10.637 16.2554 10.559 16.2554 10.4628V8.81586C16.2554 8.71964 16.1774 8.64167 16.0812 8.64167H14.6686C14.6587 8.64118 14.6366 8.64038 14.6039 8.64038C14.3589 8.64038 13.5069 8.68849 12.834 9.30758C12.0884 9.99362 12.192 10.815 12.2168 10.9575V12.2727H10.974C10.8778 12.2727 10.7998 12.3507 10.7998 12.4469V14.2182C10.7998 14.3145 10.8778 14.3925 10.974 14.3925Z" fill="white"/>
</svg>
