<svg width="40" height="40" viewBox="0 0 40 40" fill="none" xmlns="http://www.w3.org/2000/svg">
<mask id="mask0_291_10731" style="mask-type:luminance" maskUnits="userSpaceOnUse" x="0" y="0" width="40" height="40">
<path d="M20.0001 40C31.0458 40 40.0001 31.0457 40.0001 20C40.0001 8.9543 31.0458 0 20.0001 0C8.95437 0 6.10352e-05 8.9543 6.10352e-05 20C6.10352e-05 31.0457 8.95437 40 20.0001 40Z" fill="white"/>
</mask>
<g mask="url(#mask0_291_10731)">
<path d="M39.2154 1.65039H0.36969V40.4961H39.2154V1.65039Z" fill="black"/>
<path d="M39.2154 1.65039H0.36969V40.4961H39.2154V1.65039Z" fill="#F5F8FC"/>
<path d="M51.0338 -7.28809H-10.5617V40.4962H51.0338V-7.28809Z" fill="#F5F8FC"/>
<path d="M13.6934 20.5102C13.8434 21.2916 14.1034 22.6256 14.0989 23.3862C14.0945 24.1483 14.2534 30.0549 14.2787 30.9225C14.3039 31.7974 14.6902 35.5782 14.7674 38.6652C14.7838 39.3366 14.7971 39.9368 14.7956 40.485H25.6327C25.4782 38.0323 25.5109 36.9167 25.2614 35.5529C24.7325 32.668 24.7726 32.0812 24.9271 30.0489C24.9271 30.0341 25.5704 26.3187 25.9819 25.059C26.2567 24.2182 27.5135 21.2114 27.2416 17.0593C27.1644 15.8768 27.2416 14.0005 27.2416 13.9218C27.2416 13.2013 26.9074 12.6873 26.7529 12.3783C26.6608 12.1926 26.1096 11.9415 25.8274 12.3263C25.5897 12.6516 25.4515 13.4093 25.4411 13.586C25.4159 14.0228 25.1485 15.2112 25.1069 14.666C25.0549 13.9975 25.0965 13.6247 25.0816 13.4568C25.0564 13.1746 25.0668 12.8745 25.1069 12.6858C25.2554 12.0039 25.5184 10.1916 24.3864 9.88257C23.3183 9.5914 23.1266 12.6606 22.9974 12.4288C22.9454 12.3367 22.9974 11.3993 23.0999 10.8333C23.1652 10.4738 23.3346 9.12642 23.3064 8.67333C23.2692 8.08059 22.6884 7.49083 21.8921 7.74783C21.3246 7.93055 21.3514 9.52306 21.1211 10.1396C21.0364 10.3669 20.8968 11.7187 20.8389 11.0651C20.7869 10.4991 20.8389 10.0103 20.8389 9.85583C20.8389 9.02095 21.4182 7.81319 21.3796 7.33484C21.2964 6.32764 19.5732 6.43014 19.2701 6.64109C18.2466 6.99019 18.8943 10.3401 18.0416 11.738C17.9926 11.8182 17.9064 11.8702 17.8113 11.8762C17.6687 11.8866 17.5365 11.8851 17.4176 11.8791C17.174 11.8658 16.9987 11.6385 17.0492 11.4008C17.2721 10.3475 18.2258 8.58271 17.434 6.38706C17.0061 5.2001 14.8016 5.13028 14.3054 5.81809C13.6369 6.74359 13.5864 7.35713 13.4572 7.77308C13.3279 8.18904 13.1125 9.00609 13.0457 9.62557C12.961 10.4159 13.4973 12.4659 13.2522 13.2518C12.1023 16.936 13.527 19.6293 13.6948 20.5102H13.6934Z" fill="#E6BCA5"/>
<path d="M15.0692 20.231C15.1257 20.7049 14.9029 21.3868 15.0826 21.8013C15.399 22.5292 16.0423 22.2945 16.2324 22.1117C16.7598 21.6096 17.92 22.5455 17.9542 21.1506C17.9661 20.6618 17.712 20.5534 17.1817 20.1285C16.8088 19.8299 16.3349 18.2315 16.3171 17.612C16.2889 16.633 16.6142 14.9439 15.9294 14.5146C15.5431 14.2725 14.8479 14.2829 14.7513 14.2799C14.2106 14.2665 13.9358 14.4775 13.8154 14.6691C13.6773 14.8875 13.6119 15.9868 13.8273 16.3166C13.9239 16.4622 15.0336 19.928 15.0692 20.2325V20.231Z" fill="#FFFBF5"/>
<path d="M18.8309 16.0555C18.868 16.5309 19.0463 20.1437 18.9854 20.9935C18.9334 21.714 18.3941 21.7392 18.5219 22.4077C18.6288 22.9618 19.0106 22.8712 19.6019 22.7672C20.0282 22.693 20.4278 23.2114 20.7086 22.433C20.8735 21.9725 20.5185 21.7645 20.3996 21.096C20.2451 20.221 20.0654 16.3883 20.1426 15.5148C20.1976 14.8983 20.3996 14.8715 20.1946 14.6918C19.7564 14.3085 20.5808 13.9653 20.0654 13.4825C19.6539 13.0963 19.0418 13.3057 18.9586 13.3533C18.1356 13.842 18.9839 14.047 18.4951 14.7675C18.3258 15.0171 18.7774 15.3855 18.8294 16.054L18.8309 16.0555Z" fill="#FFFBF5"/>
<path d="M21.1201 16.6464C21.1572 17.1218 21.1038 18.9089 21.0428 19.7586C20.9909 20.4791 20.7086 21.2249 20.8364 21.8934C20.9433 22.4475 21.3771 22.2796 21.5821 22.3821C21.9698 22.5752 22.3249 21.727 22.2001 21.4046C22.0203 20.9411 22.0456 20.4271 22.0456 20.0156C22.0456 19.1273 21.8658 17.0059 22.1748 16.2602C22.411 15.6882 22.6383 15.5085 22.4838 15.2827C22.1496 14.7939 22.8701 14.5562 22.3546 14.0734C21.9431 13.6872 21.3266 13.8907 21.2479 13.9442C20.5794 14.4077 21.1186 14.5874 20.7844 15.3584C20.664 15.6347 21.0666 15.9764 21.1186 16.6449L21.1201 16.6464Z" fill="#FFFBF5"/>
<path d="M14.4077 10.1895C13.6872 10.6263 14.2547 11.2324 14.3305 11.6305C14.3914 11.9454 14.332 12.1282 14.2532 12.7625C14.2012 13.174 13.6159 12.9928 13.8299 13.8469C13.9442 14.306 14.3736 13.9628 15.0762 14.0475C15.6972 14.1218 15.9557 14.3164 16.2587 13.945C16.743 13.3523 16.4652 13.3537 16.2067 12.865C15.9913 12.455 16.0522 12.3763 16.1042 11.8623C16.1354 11.5533 16.902 10.8848 16.2335 10.396C15.9542 10.1925 15.565 10.0098 15.308 10.0098C14.9722 10.0098 14.6335 10.0528 14.4077 10.1895Z" fill="#FFFBF5"/>
<path d="M15.0497 7.71973C14.818 8.74922 13.6355 8.85172 14.2208 9.77425C14.4421 10.1234 14.8818 9.82179 15.4107 9.85447C15.8222 9.87972 16.3184 10.3685 16.7224 10.009C17.4162 9.39098 16.3674 8.72545 16.4654 7.84897C16.5174 7.38548 16.825 7.51472 16.6719 7.00072C16.5397 6.55951 15.2339 6.46592 15.0259 6.82097C14.7689 7.25772 15.1299 7.3736 15.0512 7.72122L15.0497 7.71973Z" fill="#FFFBF5"/>
<path d="M22.9828 18.0485C22.959 18.5253 22.3395 21.0493 22.2608 21.899C22.1241 23.3861 21.6933 23.4529 21.7379 24.1318C21.775 24.6948 22.1643 24.4156 22.3559 24.5433C22.7154 24.784 22.9768 24.4007 22.9991 24.0546C23.0244 23.6431 23.0511 23.4633 23.3081 22.4086C23.5191 21.5455 23.6171 19.7405 24.0019 18.1391C24.146 17.5374 24.5679 17.2641 24.5426 17.0843C24.4134 16.1752 24.7996 16.0549 24.5307 15.6508C24.2173 15.1814 23.5324 15.3388 23.4493 15.3849C22.8966 15.6939 23.2992 15.8974 22.8714 16.6209C22.7184 16.8793 23.017 17.3785 22.9843 18.0485H22.9828Z" fill="#FFFBF5"/>
<path d="M24.7715 20.2488C24.7017 20.7212 24.1045 22.9213 23.4108 24.0028C23.0201 24.6104 22.8938 24.3504 22.87 25.0323C22.8507 25.5968 23.3098 25.8375 23.488 25.9845C23.8223 26.2594 24.0065 27.2547 24.311 27.0913C24.6453 26.9115 24.7894 26.4198 24.7478 26.0113C24.568 24.1855 25.235 21.9958 25.7758 20.4405C25.9793 19.8566 26.425 19.6264 26.4175 19.4436C26.3774 18.5271 26.7741 18.4454 26.5468 18.016C26.2809 17.5184 25.5841 17.6075 25.4965 17.6461C24.9156 17.9002 25.2974 18.1408 24.7998 18.8182C24.6215 19.0604 24.8711 19.5863 24.773 20.2503L24.7715 20.2488Z" fill="#FFFBF5"/>
<path d="M18.9864 9.79539C18.7086 10.0643 18.8587 10.6065 18.9344 10.9719C18.9953 11.2601 18.8943 11.532 18.7562 12.1039C18.6537 12.5288 18.3714 12.5511 18.3714 13.0235C18.3714 13.4573 18.8512 12.9893 19.4009 13.0012C20.0263 13.0146 20.0694 13.3087 20.2239 13.1914C20.4645 13.0072 20.3769 12.7427 20.1971 12.3416C20.0204 11.948 20.0932 11.327 20.1437 10.8561C20.1749 10.5723 20.4022 10.2158 20.2477 9.96919C20.0545 9.66169 19.8332 9.65277 19.5762 9.65277C19.2404 9.65277 19.1691 9.62009 18.9879 9.79687L18.9864 9.79539Z" fill="#FFFBF5"/>
<path d="M21.3018 10.8038C21.0492 11.0519 21.3092 11.4337 21.3775 11.7709C21.4325 12.0368 21.3404 12.2879 21.2156 12.8152C21.1235 13.2074 20.8665 13.2282 20.8665 13.6635C20.8665 14.0631 21.3003 13.6323 21.7994 13.6427C22.3669 13.6546 22.4055 13.9264 22.5467 13.818C22.7651 13.6486 22.6863 13.405 22.5229 13.0351C22.3625 12.6726 22.4278 12.0992 22.4739 11.6639C22.5021 11.4025 22.7903 10.9761 22.612 10.7934C22.3788 10.5542 22.1916 10.5527 21.9584 10.5527C21.6539 10.5527 21.4667 10.6419 21.3018 10.8038Z" fill="#FFFBF5"/>
<path d="M23.631 12.5309C23.4839 12.7107 23.7008 13.1578 23.7291 13.4609C23.7647 13.8382 23.6563 14.067 23.4943 14.3106C23.2938 14.6107 23.0056 14.5409 23.1185 15.0252C23.1883 15.3223 23.7528 15.04 23.9296 15.0697C24.194 15.1143 24.3381 15.3342 24.5119 15.2837C24.7526 15.2138 24.5283 14.8335 24.4109 14.4948C24.2965 14.1621 24.3931 13.7491 24.4674 13.3688C24.5119 13.14 24.8269 12.7671 24.6828 12.5918C24.4941 12.3631 24.4406 12.3794 24.2327 12.3601C23.9623 12.3363 23.7573 12.3735 23.6295 12.5294L23.631 12.5309Z" fill="#FFFBF5"/>
<path d="M25.8662 14.9506C25.7073 15.114 25.8945 15.5627 25.9019 15.8568C25.9123 16.2237 25.789 16.4376 25.6107 16.6605C25.3909 16.9353 25.1086 16.8462 25.1888 17.323C25.2378 17.6142 25.8187 17.3171 25.9851 17.3839C26.453 17.5741 26.3758 17.7152 26.554 17.6781C26.7992 17.6276 26.6075 17.2443 26.5139 16.9086C26.4218 16.5788 26.5466 16.1866 26.6461 15.8256C26.7056 15.6087 27.0443 15.2715 26.9135 15.0917C26.7397 14.8555 26.6863 14.8674 26.4813 14.8347C26.2139 14.7917 26.0059 14.811 25.8677 14.9536L25.8662 14.9506Z" fill="#FFFBF5"/>
<path d="M19.4186 8.20295C19.1928 8.29951 19.4038 8.59216 19.38 8.77192C19.331 9.15519 18.9596 9.16113 19.1141 9.41813C19.1854 9.53698 19.1393 9.52064 19.5256 9.49538C20.0024 9.46418 19.9371 9.70187 20.1718 9.6781C20.3724 9.65879 20.4229 9.43447 20.307 9.22947C20.1941 9.02743 20.2327 9.01555 20.2981 8.80163C20.3367 8.67238 20.6071 8.64713 20.509 8.39904C20.4243 8.18215 20.1941 8.36042 19.9995 8.33368C19.7454 8.29951 19.5672 8.14056 19.4201 8.20443L19.4186 8.20295Z" fill="#FFFBF5"/>
<path d="M19.7574 7.41176C19.6282 7.79949 19.3712 7.64351 19.4796 7.98519C19.5271 8.1382 19.6846 8.17534 19.8866 8.20951C20.0441 8.23476 20.2655 8.29567 20.4348 8.17237C20.726 7.96142 20.3546 7.87377 20.4259 7.54101C20.463 7.36423 20.5685 7.35234 20.5032 7.15476C20.4779 7.07751 20.3353 7.10425 20.1942 7.07751C20.053 7.05077 19.9074 6.96164 19.8599 7.02552C19.744 7.18447 19.8005 7.28103 19.7574 7.41176Z" fill="#FFFBF5"/>
<path d="M21.7951 9.4084C21.5485 9.59707 21.798 9.7887 21.7817 9.87041C21.7208 10.1764 21.4772 10.0576 21.5782 10.4007C21.6109 10.5107 21.7505 10.429 21.8991 10.4111C22.2541 10.3696 22.315 10.5656 22.5111 10.5419C22.6805 10.5211 22.676 10.3176 22.5794 10.2195C22.4933 10.1319 22.4784 10.0204 22.5364 9.92092C22.5928 9.82584 22.7042 9.82584 22.6864 9.61935C22.6686 9.43217 22.4547 9.51833 22.2898 9.5005C22.0744 9.47822 21.902 9.32818 21.7966 9.40989L21.7951 9.4084Z" fill="#FFFBF5"/>
<path d="M22.053 8.67138C21.9371 9.01751 21.7083 8.87787 21.8049 9.18389C21.848 9.32056 21.9876 9.35473 22.1688 9.38444C22.31 9.40821 22.5075 9.46169 22.6591 9.35176C22.919 9.1631 22.5878 9.08585 22.6516 8.78725C22.6858 8.62978 22.7794 8.61938 22.72 8.4426C22.6977 8.37427 22.5699 8.39804 22.4437 8.37427C22.3174 8.3505 22.1867 8.27028 22.1451 8.32821C22.0411 8.46934 22.0916 8.5555 22.053 8.67286V8.67138Z" fill="#FFFBF5"/>
<path d="M23.9073 11.2299C23.683 11.4022 23.9103 11.5775 23.8939 11.6518C23.8375 11.9311 23.6161 11.8227 23.7082 12.1361C23.738 12.2356 23.8657 12.1614 24.0009 12.1465C24.3247 12.1094 24.3797 12.2876 24.5595 12.2654C24.714 12.246 24.7095 12.0603 24.6219 11.9697C24.5431 11.8895 24.5298 11.7885 24.5832 11.6964C24.6337 11.6102 24.7377 11.6102 24.7199 11.4216C24.7036 11.2507 24.509 11.3295 24.3574 11.3131C24.1613 11.2923 24.0039 11.1556 23.9073 11.2299Z" fill="#FFFBF5"/>
<path d="M24.1653 10.6398C24.0732 10.9191 23.8875 10.8062 23.9647 11.0528C23.9989 11.1628 24.1118 11.1895 24.2574 11.2133C24.3703 11.2311 24.5292 11.2757 24.651 11.1865C24.8605 11.035 24.5946 10.9726 24.6451 10.732C24.6718 10.6057 24.7476 10.5968 24.7001 10.4542C24.6822 10.3992 24.5797 10.4185 24.4787 10.3992C24.3777 10.3799 24.2722 10.316 24.2381 10.3621C24.1549 10.4764 24.195 10.5448 24.1638 10.6398H24.1653Z" fill="#FFFBF5"/>
<path d="M25.9596 13.7051C25.762 13.919 26.0116 14.0661 26.0087 14.1463C25.9938 14.4464 25.7576 14.3647 25.8943 14.6781C25.9373 14.7776 26.0532 14.6811 26.1854 14.6454C26.5004 14.5578 26.5806 14.7361 26.7559 14.687C26.9059 14.6439 26.8747 14.4508 26.7752 14.3706C26.6861 14.2993 26.6578 14.1953 26.6979 14.0913C26.7366 13.9933 26.8376 13.9784 26.793 13.7838C26.7529 13.607 26.5702 13.7184 26.4187 13.7244C26.2211 13.7318 26.0458 13.613 25.9611 13.7051H25.9596Z" fill="#FFFBF5"/>
<path d="M26.0986 13.0166C26.0838 13.3093 25.8758 13.2513 26.0169 13.4682C26.0793 13.5648 26.1952 13.5603 26.3423 13.544C26.4567 13.5306 26.6216 13.5306 26.7151 13.4132C26.8756 13.2112 26.6022 13.2216 26.5874 12.978C26.58 12.8487 26.6498 12.8205 26.5666 12.6957C26.5339 12.6467 26.4403 12.6942 26.3378 12.7017C26.2353 12.7106 26.1165 12.6764 26.0957 12.7314C26.0467 12.8636 26.1031 12.92 26.0986 13.0181V13.0166Z" fill="#FFFBF5"/>
<path d="M15.5037 23.6846C15.4309 23.4929 15.4027 23.2864 15.4339 23.0829C15.4681 22.8601 15.529 22.7427 15.7162 22.7294C16.2302 22.6922 16.2168 22.2272 16.6075 22.1782C17.1438 22.1114 17.0472 22.1752 17.322 22.0891C17.5969 22.0029 17.836 22.2584 17.8791 22.6164C17.9222 22.9745 17.686 23.5731 17.7306 23.7232C17.7751 23.8732 17.4483 24.5878 17.5924 24.9072C17.6875 25.1201 17.6117 25.2766 17.3651 25.3766C16.9774 25.5341 17.227 25.9381 16.1291 26.0733C15.1101 26.1996 15.2304 25.7183 15.1858 25.3603C15.1472 25.0528 15.4072 24.4259 15.526 24.1258C15.5854 23.9757 15.5513 23.8108 15.5037 23.6846Z" fill="#FFFBF5"/>
<path d="M17.9574 24.8503C17.9083 24.6512 18.2366 24.2249 18.2916 24.0273C18.3525 23.8104 18.3614 23.2206 18.5486 23.2296C19.0626 23.2548 19.2617 23.0498 19.6554 23.0498C20.1961 23.0498 20.1411 23.188 20.4234 23.136C20.7056 23.084 20.4516 23.5891 20.4516 23.95C20.4516 24.311 20.2451 24.7211 20.2719 24.8756C20.2971 25.03 20.0505 25.9169 19.0121 25.5693C18.8576 25.5173 18.0599 25.6985 18.0094 25.2603C17.99 25.0999 17.99 24.981 17.9574 24.8488V24.8503Z" fill="#FFFBF5"/>
<path d="M20.5284 25.0317C20.4793 24.8326 20.6012 24.5607 20.6576 24.3632C20.7185 24.1463 20.6636 22.6845 20.8374 22.6147C21.0944 22.5122 21.2236 22.5122 21.3781 22.5374C21.9114 22.6265 21.7034 22.9638 21.6871 23.2059C21.6618 23.5922 21.6099 23.8997 21.6099 24.2607C21.6099 24.6216 21.5073 25.2129 21.5326 25.3674C21.5579 25.5219 22.005 26.4593 20.9666 26.1131C20.8121 26.0611 20.4006 26.1904 20.3486 25.7536C20.3293 25.5932 20.5611 25.1654 20.5284 25.0331V25.0317Z" fill="#FFFBF5"/>
<path d="M22.1495 25.1873C22.4317 25.0581 22.5758 25.2631 22.6902 25.4191C22.714 25.4503 22.8447 25.6256 22.9725 25.8306C23.1017 26.0371 23.3067 26.1128 23.384 26.2421C23.4612 26.3713 23.6157 26.7561 23.5132 26.9626C23.4107 27.1691 23.1403 28.0292 23.127 28.2491C23.1017 28.6858 23.179 29.3038 22.9205 29.5355C22.6635 29.7673 22.4837 29.3038 21.8657 29.381C20.3727 29.5682 20.4054 28.5239 20.3475 28.3263C20.2955 28.1466 20.2182 27.8376 20.3475 27.3488C20.4767 26.8601 20.6297 26.5258 20.9907 26.5258C21.3517 26.5258 21.9162 26.2688 21.9162 25.7548C21.9162 25.4963 22.0692 25.2245 22.148 25.1888L22.1495 25.1873Z" fill="#FFFBF5"/>
<path d="M15.2052 26.9604C15.4622 26.7034 15.3078 26.4197 15.8232 26.2919C16.3372 26.1627 16.7487 26.2147 17.0057 26.1122C17.2627 26.0097 17.34 25.7779 17.7515 25.7527C18.163 25.7274 18.42 25.7779 18.8315 25.8552C19.243 25.9324 19.4747 25.7527 19.7317 25.9072C19.9887 26.0617 20.323 26.7301 20.2205 27.0644C20.118 27.3986 20.0912 27.6453 20.0912 27.9126C20.0912 28.2469 20.4507 29.1991 20.066 29.3789C19.6812 29.5586 19.3975 29.7384 18.5225 30.0221C17.6579 30.3014 16.9017 30.0741 16.5675 30.0221C16.0372 29.9404 15.1533 29.2511 15.076 28.8129C14.9988 28.3761 14.9468 27.2189 15.2052 26.9604Z" fill="#FFFBF5"/>
<path d="M16.3374 33.2384C16.2601 32.4154 15.7194 31.9519 16.1056 31.4899C16.4919 31.0264 16.1487 30.3356 16.7741 30.3579C17.4679 30.3831 17.6744 30.4604 18.4721 30.2286C18.8019 30.1336 18.7722 30.2153 18.8405 30.1633C19.151 29.93 19.4719 29.8885 19.6546 29.8171C20.2459 29.5854 20.9663 29.7146 21.5323 29.7146C22.0983 29.7146 22.4073 29.6894 22.7921 30.0489C23.1783 30.4084 22.7668 31.5404 22.7921 32.4674C22.8173 33.3929 23.1041 33.5013 22.6628 34.0109C21.9943 34.7819 22.0196 34.6794 21.4536 35.6821C20.9649 36.5482 20.8104 36.4799 19.4734 36.0684C18.1364 35.6569 17.5436 36.3254 17.0549 35.3746C16.5661 34.4224 16.3344 33.2399 16.3344 33.2399L16.3374 33.2384Z" fill="#FFFBF5"/>
<path d="M22.092 40.4672H24.0619C24.053 40.4509 24.0411 40.433 24.0277 40.4152C23.8212 40.133 23.8732 38.0487 24.0277 37.1485C24.1822 36.2482 24.3872 35.1683 24.0277 34.3185C23.6682 33.4703 22.9685 34.1507 22.7932 34.3185C22.4505 34.6443 22.099 35.1158 21.7385 35.7328C21.1977 36.6583 21.4042 36.8648 21.5067 37.6878C21.5067 37.6878 21.8231 39.7066 22.092 40.4672Z" fill="#FFFBF5"/>
<path d="M16.9227 40.4681H21.8518C21.8874 40.0388 21.675 39.446 21.5324 38.8726C21.4536 38.5577 21.2501 37.7926 21.2234 37.3544C21.1981 36.9176 20.7881 36.7661 20.5549 36.6339C20.1434 36.4021 19.8611 36.4794 19.2684 36.2744C18.8435 36.1258 18.5301 36.0961 18.1364 36.1199C17.7249 36.1451 17.5452 36.1199 17.2882 35.9401C16.9836 35.7277 17.0059 35.6579 16.6449 34.9879C16.3612 34.4605 16.2973 34.0758 16.1814 33.8306C16.1383 33.74 16.1294 33.5484 15.8724 33.7534C15.6615 33.9213 15.14 34.4323 15.0242 34.9106C14.8177 35.7589 15.3064 36.4541 16.1814 37.8936C16.9346 39.1326 17.0178 39.9496 16.9227 40.4666V40.4681Z" fill="#FFFBF5"/>
</g>
<path style="mix-blend-mode:multiply" d="M14.9777 25.1105C20.9588 25.1105 25.8074 20.2619 25.8074 14.2808C25.8074 8.29978 20.9588 3.45117 14.9777 3.45117C8.99662 3.45117 4.14801 8.29978 4.14801 14.2808C4.14801 20.2619 8.99662 25.1105 14.9777 25.1105Z" fill="url(#paint0_radial_291_10731)"/>
<defs>
<radialGradient id="paint0_radial_291_10731" cx="0" cy="0" r="1" gradientUnits="userSpaceOnUse" gradientTransform="translate(14.9792 14.2809) scale(10.8297 10.8297)">
<stop stop-color="#FF3030"/>
<stop offset="0.11" stop-color="#FF5959"/>
<stop offset="0.27" stop-color="#FF8B8B"/>
<stop offset="0.42" stop-color="#FFB5B5"/>
<stop offset="0.57" stop-color="#FFD5D5"/>
<stop offset="0.71" stop-color="#FFECEC"/>
<stop offset="0.85" stop-color="#FFFAFA"/>
<stop offset="0.96" stop-color="white"/>
</radialGradient>
</defs>
</svg>
