<svg width="235" height="422" viewBox="0 0 235 422" fill="none" xmlns="http://www.w3.org/2000/svg">
<path d="M114.94 420.976H27.1295C32.812 378.442 35.2019 335.389 30.9735 309.199C28.5668 294.308 18.3217 268.938 16.1658 245.974C8.71175 166.637 -3.5891 156.492 2.76186 127.712C8.99583 99.484 7.15741 93.0829 8.99585 84.0411C15.8315 50.4646 30.0877 62.4478 30.0877 87.601C30.0877 100.37 25.2576 107.857 26.812 121.762C30.1044 151.094 40.1824 160.971 46.7172 160.687C51.9484 160.453 38.1768 124.938 40.1824 100.086C42.4888 71.5899 52.9846 60.7431 49.6921 36.2083C47.1183 17.0384 61.3578 14.849 68.4107 35.6067C73.7589 51.3504 75.2464 51.3503 70.4832 78.977C66.2213 103.779 76.1322 144.626 81.7143 144.242C85.3076 143.991 88.6001 104.214 91.575 73.913C92.9956 59.4562 83.1015 47.9075 92.1266 22.3699C103.057 -8.54924 120.188 -3.6356 116.528 22.5203C114.739 35.2891 118.934 53.6568 121.575 75.7013C125.737 110.464 110.879 142.537 118.416 147.417C123.698 150.826 133.341 115.261 136.416 103.044C138.973 92.9157 135.731 76.6038 143.803 49.2278C154.834 11.8407 173.92 28.6373 167.319 49.278C162.271 65.0217 170.945 92.2472 164.945 114.342C159.062 135.969 145.307 172.854 147.43 185.406C149.202 195.902 144.338 221.356 150.773 222.024C157.207 222.693 170.277 197.523 177.714 184.169C192.422 157.696 202.968 159.801 216.037 161.59C232.182 163.796 239.168 175.311 229.708 179.122C217.04 184.219 205.642 178.821 189.881 230.765C186.605 241.562 180.488 255.35 171.564 267.801C159.296 284.899 136.583 302.447 129.313 321.35C125.118 332.263 119.352 375.166 114.923 420.976H114.94Z" fill="#DCC1B2" stroke="#E6BCA5" stroke-width="0.75" stroke-miterlimit="10"/>
<path d="M59.1287 376.69C59.0117 378.01 56.9058 394.941 53.7471 420.996H35.4964C39.1231 393.637 41.4629 375.236 41.5967 372.428C42.2819 359.375 37.0173 342.311 43.2346 337.715C49.2011 333.303 48.4657 345.955 52.7108 344.25C64.0757 339.704 70.2094 345.37 69.2234 350.233C67.5019 358.757 59.8975 367.865 59.112 376.673L59.1287 376.69Z" fill="#FFFBF5"/>
<path d="M106.6 420.983H80.0432C80.3942 409.318 80.3942 401.145 80.0432 397.652C76.8845 366.699 69.2967 351.156 73.3747 344.672C77.4527 338.187 88.7674 342.232 95.8872 338.889C107.001 333.691 111.898 323.012 118.4 326.505C130.667 333.073 115.157 359.362 111.581 380.605C110.962 384.265 109.124 399.156 106.6 421V420.983Z" fill="#FFFBF5"/>
<path d="M168.596 251.203C167.158 253.092 164.284 257.738 157.064 267.732C151.431 275.52 150.027 281.42 149.208 283.225C147.654 286.651 146.3 293.487 140.384 291.532C137.225 290.479 133.247 288.59 132.462 285.883C131.676 283.192 124.406 283.041 125.142 278.679C126.763 269.103 138.646 273.181 143.025 267.465C147.353 261.832 150.713 257.119 155.961 248.696C159.052 243.732 155.559 229.526 162.128 227.153C165.52 225.916 168.863 227.019 171.086 228.089C173.292 229.158 176.016 231.966 178.038 236.947C179.643 240.908 171.387 247.543 168.596 251.203Z" fill="#FFFBF5"/>
<path d="M123.918 260.366C123.4 266.349 128.581 277.931 121.228 279.87C116.799 281.056 112.503 279.017 110.197 277.329C106.553 274.655 105.3 279.352 102.743 276.744C94.5869 268.455 108.024 260.666 109.244 253.814C111.501 241.196 113.807 214.003 115.629 198.678C117.985 178.839 113.523 169.58 119.088 167.14C123.668 165.118 127.244 170.399 130.57 171.118C133.896 171.836 141.2 168.845 142.253 174.46C143.372 180.427 138.041 186.126 132.409 198.393C126.776 210.627 124.269 256.237 123.902 260.382L123.918 260.366Z" fill="#FFFBF5"/>
<path d="M95.1118 252.976C94.9113 258.843 98.1035 269.104 92.5715 272.33C90.6829 273.433 86.9057 271.595 83.3124 270.726C79.5186 269.823 79.4183 272.965 75.9921 270.174C71.1453 266.23 78.2484 259.043 80.4044 252.726C82.9782 245.255 86.2205 195.116 86.5213 183.951C86.772 174.158 79.8863 169.712 85.084 164.481C90.2483 159.266 93.5074 165.634 96.6327 165.684C99.7581 165.734 108.382 161.99 110.939 168.826C112.727 173.589 105.39 178.486 103.853 182.213C101.613 187.628 95.3124 247.11 95.1118 252.976Z" fill="#FFFBF5"/>
<path d="M71.0569 251.602C71.8424 257.184 75.302 259.273 71.0569 268.466C69.9539 270.872 66.4107 268.9 64.0208 270.087C61.6809 271.24 61.2297 274.315 58.2715 272.427C51.9372 268.415 56.9678 262.449 57.9038 256.165C59.0235 248.694 58.6224 207.914 57.0514 197.301C55.6809 188.009 49.564 180.321 52.4219 176.744C56.2659 171.948 58.3216 176.076 61.1795 175.658C64.0375 175.223 69.6363 171.63 73.0291 175.19C76.4218 178.733 72.043 188.56 70.4553 194.845C67.0792 208.315 70.2547 246.003 71.0402 251.585L71.0569 251.602Z" fill="#FFFBF5"/>
<path d="M47.2006 275.745C46.5655 280.675 41.5683 280.859 39.5962 280.224C31.0224 277.433 35.4012 261.923 34.4987 255.455C33.3121 246.798 29.8024 225.322 28.0141 212.035C26.7272 202.441 21.9305 198.447 23.7021 194.102C25.3734 189.99 28.5155 192.397 31.6241 190.575C34.1645 189.088 36.2703 186.447 40.1644 189.522C44.0586 192.614 39.1951 200.269 39.3288 204.23C39.5293 210.497 45.9471 248.302 47.5683 253.867C49.1895 259.416 54.7382 260.269 52.9165 266.051C51.78 269.678 48.053 268.976 47.1839 275.762L47.2006 275.745Z" fill="#FFFBF5"/>
<path d="M141.5 152.817C141.417 156.862 145.411 165.336 140.665 167.274C133.896 170.032 133.461 164.851 129.718 163.113C126.759 161.726 120.408 165.285 119.991 159.085C119.456 151.129 124.286 152.517 128.631 149.709C133.461 146.6 142.453 116.283 143.623 111.403C144.793 106.522 143.623 99.7869 146.915 98.0822C150.041 96.461 150.759 99.6031 154.436 101.391C157.027 102.662 161.69 101.776 162.275 105.001C163.077 109.397 158.13 111.653 155.756 114.244C153.367 116.851 141.584 148.739 141.484 152.817H141.5Z" fill="#FFFBF5"/>
<path d="M106.971 145.109C107.272 151.343 111.5 154.853 108.893 159.348C106.72 163.109 102.024 162.006 97.6784 161.304C93.333 160.585 88.7202 160.067 88.0851 155.989C87.1492 149.922 91.645 150.507 93.5335 142.552C95.0043 136.301 100.269 105.265 100.386 99.6326C100.52 94.017 97.7787 86.9976 100.837 84.2901C103.729 81.7497 105.183 85.0087 109.428 86.0449C112.403 86.7636 117.066 84.641 118.419 88.0171C120.241 92.5964 115.595 96.29 113.689 99.7329C111.784 103.176 106.754 140.613 106.971 145.126V145.109Z" fill="#FFFBF5"/>
<path d="M76.0413 165.118C75.4062 169.012 71.5622 168.21 66.8491 170.416C63.1555 172.137 61.5511 173.959 58.7266 170.817C54.916 166.572 59.2781 162.343 58.292 155.023C57.5065 149.274 51.8575 121.38 50.1194 116.617C48.3812 111.853 43.7182 106.839 45.4731 103.564C47.1277 100.455 49.4508 102.728 53.462 102.193C56.2698 101.809 59.5957 98.4828 61.8686 100.873C64.9438 104.115 62.1528 108.761 61.6347 112.288C61.1166 115.798 68.838 149.424 70.5093 153.151C72.8157 158.299 76.8101 160.472 76.058 165.118H76.0413Z" fill="#FFFBF5"/>
<path d="M33.503 183.978C30.4111 187.588 24.9793 188.758 22.2885 185.432C20.1325 182.774 22.8735 177.627 21.7036 172.028C20.7843 167.632 14.7342 146.423 13.0462 142.847C11.3581 139.27 8.61724 137.816 9.36933 134.925C10.1381 132 12.6117 133.187 15.1688 132.351C17.4752 131.616 18.5615 128.574 21.6701 129.644C24.7954 130.73 22.9236 135.978 22.6395 138.735C22.3554 141.493 30.6116 166.663 32.1994 169.454C34.3888 173.281 41.0238 172.128 40.7731 177.944C40.5558 182.958 35.3247 181.889 33.503 183.994V183.978Z" fill="#FFFBF5"/>
<path d="M159.256 86.5085C159.79 88.514 162.665 91.255 161.211 94.7146C159.206 99.4945 150.03 97.9402 147.423 95.3664C145.167 93.1269 147.089 89.1826 147.807 86.943C148.526 84.7202 148.693 73.3052 148.108 69.5949C147.523 65.9013 144.799 64.0294 146.704 60.9542C147.991 58.8651 150.364 60.4528 153.139 60.2857C155.495 60.1353 157.785 58.347 159.49 59.7007C162.063 61.723 159.356 65.567 159.256 68.1241C159.155 70.6645 158.437 83.3831 159.256 86.5419V86.5085Z" fill="#FFFBF5"/>
<path d="M197.169 196.544C195.631 199.135 187.008 217.753 186.122 221.53C185.553 223.903 187.81 228.165 184.35 230.99C179.57 234.884 170.762 228.249 169.476 224.104C168.372 220.527 172.584 217.485 174.59 215.547C176.612 213.608 184.35 195.291 185.804 191.079C187.258 186.901 185.236 180.6 189.849 179.848C192.723 179.396 193.308 182.789 196.317 184.109C198.874 185.246 202.3 184.661 203.336 186.967C204.907 190.477 198.707 193.937 197.186 196.544H197.169Z" fill="#FFFBF5"/>
<path d="M112.974 66.7951C113.893 69.3188 117.453 72.5945 116.517 77.1238C115.23 83.3912 105.135 82.1377 101.91 78.9956C99.102 76.2881 100.456 71.1071 100.84 68.199C101.225 65.2909 99.0519 56.5166 97.765 51.8202C96.4781 47.1238 93.2357 44.9512 94.7232 40.8565C95.726 38.0988 98.5504 39.9372 101.475 39.5027C103.965 39.135 106.105 36.6782 108.16 38.2492C111.252 40.6392 109.063 45.7701 109.397 49.0459C109.731 52.3049 111.537 62.784 112.991 66.7784L112.974 66.7951Z" fill="#FFFBF5"/>
<path d="M61.7846 96.7307C59.0269 100.759 51.3724 97.0984 49.6676 94.0232C48.1969 91.3491 50.6871 88.0901 51.7902 86.1681C52.8932 84.2293 55.0827 68.0177 55.3501 64.3575C55.6175 60.7141 53.6453 58.2907 55.9684 55.8506C57.5228 54.196 59.2609 56.2517 61.701 56.7531C63.7735 57.1876 66.1467 56.0511 67.35 57.7225C69.155 60.2461 65.9963 63.2378 65.3612 65.6277C64.7261 68.0177 61.7846 85.3157 61.8347 88.5246C61.8682 90.5302 63.7902 93.8226 61.8013 96.7307H61.7846Z" fill="#FFFBF5"/>
<path d="M9.67191 126.255C7.83347 123.681 10.9755 121.742 11.9616 119.102C12.58 117.48 14.4017 105.347 14.5354 102.472C14.6858 99.5808 12.58 96.4554 14.4853 94.5668C15.7722 93.2967 17.2764 94.968 19.3488 95.4359C21.1037 95.837 23.0925 95.0014 24.1454 96.3552C25.7332 98.4109 23.1259 100.684 22.6413 102.556C22.1733 104.428 19.5661 117.815 19.2986 120.422C19.0312 123.046 21.4212 124.65 19.8 126.923C17.5605 130.049 11.3766 128.628 9.65518 126.238L9.67191 126.255Z" fill="#FFFBF5"/>
<path d="M149.827 53.9052C148.089 51.8328 151.164 48.8579 152.217 46.5849C153.253 44.3119 155.927 35.6378 159.237 36.4735C162.947 37.4094 159.621 45.8161 159.822 48.5236C160.039 51.2479 161.376 53.6378 159.27 55.8607C157.699 57.5153 151.565 55.9943 149.827 53.9052Z" fill="#FFFBF5"/>
<path d="M96.9049 31.4637C95.0164 28.6726 99.0275 25.5306 100.599 22.9066C102.17 20.266 106.197 7.63089 110.209 9.11835C114.688 10.7729 109.089 22.7562 109.005 26.1322C108.922 29.4916 110.275 32.6169 107.367 35.0403C105.211 36.862 98.7935 34.2548 96.8882 31.4804L96.9049 31.4637Z" fill="#FFFBF5"/>
<path d="M201.142 182.716C198.585 181.914 197.683 174.042 199.271 170.85C200.875 167.641 205.588 169.396 208.613 169.245C211.638 169.095 222.619 167.023 223.103 171.284C223.638 176.048 212.691 177.201 209.7 179.039C206.708 180.878 204.569 183.819 201.142 182.733V182.716Z" fill="#FFFBF5"/>
<path d="M58.6866 52.6003C56.1462 51.4805 56.8482 46.6003 56.3635 43.6588C55.8788 40.7173 53.0042 30.2215 56.0627 29.1686C59.4888 27.982 61.695 38.5613 63.4164 41.2354C65.1379 43.9095 67.5613 45.6143 67.1769 49.124C66.8927 51.7312 61.227 53.7201 58.6866 52.5836V52.6003Z" fill="#FFFBF5"/>
<path d="M16.2822 90.2855C14.3936 88.7813 16.466 85.2214 16.9173 82.8315C17.3685 80.4415 17.9869 71.6671 20.9953 71.6504C24.3379 71.6337 23.1011 80.3078 23.8031 82.798C24.505 85.3217 26.1095 87.227 24.739 89.8342C23.7195 91.7729 18.1708 91.8063 16.2822 90.2855Z" fill="#FFFBF5"/>
<path d="M66.5882 316.422C65.7692 312.795 60.8054 311.458 59.3681 309.202C57.9308 306.946 54.8222 298.456 50.694 299.91C46.5659 301.347 41.6021 307.13 42.6383 314.784C43.6746 322.422 52.3486 331.932 57.513 328.422C60.421 326.45 67.6244 320.985 66.6049 316.439L66.5882 316.422Z" fill="#FFFBF5"/>
<path d="M74.5922 316.803C71.0323 316.402 60.1856 327.667 59.985 332.798C59.7845 337.929 69.8624 338.129 72.8206 338.129C75.7789 338.129 79.3387 338.714 83.0825 337.143C85.4056 336.157 88.7983 326.631 86.8262 323.672C84.8541 320.714 77.4502 317.121 74.5922 316.803Z" fill="#FFFBF5"/>
<path d="M72.1488 279.735C71.2964 276.309 68.0374 275.841 65.1962 275.974C62.3382 276.108 62.9399 274.019 59.848 274.52C58.043 274.821 46.5778 277.829 50.2714 286.37C53.965 294.91 56.5889 297.3 56.9901 299.49C57.4079 301.679 60.5667 311.54 67.0012 312.125C73.4357 312.71 70.2769 295.646 70.6948 293.69C71.4134 290.231 73.4859 285.15 72.1488 279.751V279.735Z" fill="#FFFBF5"/>
<path d="M94.8198 278.077C91.9786 276.64 85.7446 277.359 83.9898 274.016C82.2349 270.673 74.0622 273.899 74.6639 275.888C75.2656 277.877 77.0539 286.551 75.6332 292.099C74.2126 297.648 70.4355 315.448 76.1513 315.464C81.8672 315.481 85.0761 322.751 89.856 317.921C94.6527 313.074 102.942 301.091 101.137 298.935C99.3992 296.863 99.9842 289.008 100.736 286.35C101.689 283.024 95.9563 278.662 94.8198 278.094V278.077Z" fill="#FFFBF5"/>
<path d="M107.027 283.846C110.302 281.473 114.247 279.785 119.712 284.699C121.099 285.936 122.269 283.094 125.093 283.328C127.918 283.562 130.726 291.083 134.436 292.805C138.146 294.526 138.664 294.309 137.043 300.509C134.971 308.431 131.545 308.164 123.572 309.117C115.667 310.069 121.634 303.083 112.91 303.367C102.781 303.702 102.113 294.376 103.851 290.465C105.305 287.206 105.522 284.933 107.027 283.846Z" fill="#FFFBF5"/>
<path d="M104.97 305.581C101.461 306.3 100.842 315.542 96.146 318.734C91.4496 321.927 89.7616 324.751 91.8173 330.383C93.873 336.016 98.7699 336.216 106.659 330.199C114.547 324.183 118.157 318.032 116.235 314.606C113.611 309.91 112.291 304.077 104.954 305.581H104.97Z" fill="#FFFBF5"/>
</svg>
