<svg fill="none" height="18" width="18" viewBox="0 0 20 20" xmlns="http://www.w3.org/2000/svg"><g fill="currentColor"><path d="m6.91919.250004c-.85202-.000068-1.371-.000109-1.81868.070796-2.46038.389686-4.390023 2.31933-4.77971 4.77971-.070904.44768-.070863.96666-.070796 1.81868v6.16161c-.000068.852-.000109 1.371.070796 1.8187.389686 2.4604 2.31933 4.39 4.77971 4.7797.44768.0709.96667.0709 1.8187.0708h1.0808c1.29358 0 2.48939-.4281 3.45039-1.15.3312-.2487.3981-.7189.1493-1.0501-.2488-.3311-.7189-.398-1.0501-.1492-.71027.5335-1.59197.8493-2.54959.8493h-1c-.95767 0-1.34918-.0023-1.66485-.0523-1.81854-.288-3.2448-1.7143-3.53283-3.5328-.04999-.3157-.05232-.7072-.05232-1.6649v-5.99999c0-.95767.00233-1.34918.05232-1.66485.28803-1.81854 1.71429-3.2448 3.53283-3.53283.31567-.04999.70718-.05232 1.66485-.05232h1c.95763 0 1.83933.31582 2.54959.84931.3312.24876.8013.18195 1.0501-.14924.2488-.3312.1819-.80134-.1493-1.05011-.961-.721898-2.15681-1.149962-3.45039-1.149962z"/><path d="m15.466 5.41232c-.3246-.25734-.7963-.20285-1.0537.12172-.2573.32457-.2028.7963.1217 1.05365l1.763 1.39785c.704.55822 1.186.94181 1.5135 1.26447h-12.81049c-.41422 0-.75.33578-.75.74999 0 .4142.33578.75.75.75h12.81049c-.3275.3227-.8095.7063-1.5135 1.2645l-1.763 1.3978c-.3245.2574-.379.7291-.1217 1.0537.2574.3245.7291.379 1.0537.1217l1.7988-1.4262c.6724-.5332 1.2274-.9732 1.6227-1.367.4057-.4041.742-.8526.8333-1.4258.0194-.1221.0292-.2453.0292-.3687 0-.12338-.0098-.24655-.0292-.36866-.0913-.57317-.4276-1.02171-.8333-1.42582-.3953-.39379-.9502-.83376-1.6227-1.36694z" fill="currentColor"/></g></svg>