<svg width="19" height="19" viewBox="0 0 22 21" fill="none" xmlns="http://www.w3.org/2000/svg">
<g clip-path="url(#clip0_98_3829)">
<path d="M21.0361 12.1691L20.1624 11.45C19.564 10.9573 19.5651 10.0417 20.1625 9.55004L21.0361 8.83087C21.6577 8.31903 21.8167 7.44138 21.4141 6.74391L19.6891 3.75609C19.2864 3.05866 18.4467 2.7576 17.6927 3.04004L16.6331 3.43703C15.9073 3.70888 15.1148 3.25037 14.9876 2.48706L14.8016 1.37087C14.6692 0.576557 13.9887 0 13.1834 0H9.73334C8.928 0 8.24738 0.576557 8.11503 1.37091L7.92898 2.48706C7.80154 3.25172 7.00806 3.70843 6.2836 3.43707L5.22396 3.04004C4.46997 2.7576 3.6303 3.0587 3.22756 3.75609L1.50257 6.74387C1.09992 7.44126 1.2589 8.31895 1.88065 8.83083L2.75424 9.55C3.35274 10.0427 3.35155 10.9582 2.75424 11.4499L1.88061 12.1691C1.2589 12.681 1.09988 13.5587 1.50253 14.256L3.22756 17.2439C3.63025 17.9413 4.46976 18.2424 5.22396 17.9599L6.28356 17.5629C7.00949 17.291 7.80175 17.7498 7.92894 18.5129L8.11499 19.629C8.24738 20.4234 8.928 21 9.7333 21H13.1833C13.9886 21 14.6692 20.4234 14.8016 19.6291L14.9876 18.513C15.115 17.7485 15.9084 17.2915 16.633 17.563L17.6927 17.96C18.4469 18.2424 19.2864 17.9413 19.6891 17.2439L21.4142 14.256C21.8167 13.5587 21.6577 12.681 21.0361 12.1691ZM18.2683 16.4236L17.2086 16.0266C15.5147 15.3921 13.6661 16.4626 13.3694 18.2432L13.1834 19.3594H9.73334L9.54729 18.2432C9.24997 16.4592 7.39865 15.3933 5.70802 16.0266L4.64839 16.4236L2.92339 13.4358L3.79698 12.7166C5.19352 11.5669 5.19061 9.43068 3.79698 8.28339L2.92339 7.56422L4.64843 4.5764L5.70802 4.97339C7.40197 5.6079 9.25054 4.53739 9.54729 2.75678L9.7333 1.64062H13.1833L13.3693 2.75678C13.6667 4.54104 15.5181 5.60659 17.2086 4.97339L18.2682 4.5764L19.9936 7.56381C19.9936 7.56381 19.9935 7.56394 19.9932 7.56418L19.1196 8.28335C17.7231 9.43294 17.7259 11.5692 19.1196 12.7166L19.9932 13.4357L18.2683 16.4236ZM11.4583 6.45311C9.22688 6.45311 7.41144 8.26855 7.41144 10.5C7.41144 12.7315 9.22688 14.5469 11.4583 14.5469C13.6898 14.5469 15.5052 12.7315 15.5052 10.5C15.5052 8.26855 13.6898 6.45311 11.4583 6.45311ZM11.4583 12.9063C10.1315 12.9063 9.05207 11.8268 9.05207 10.5C9.05207 9.17319 10.1315 8.09374 11.4583 8.09374C12.7851 8.09374 13.8646 9.17319 13.8646 10.5C13.8646 11.8268 12.7851 12.9063 11.4583 12.9063Z" fill="currentColor"/>
</g>
<defs>
<clipPath id="clip0_98_3829">
<rect width="21" height="21" fill="white" transform="translate(0.958496)"/>
</clipPath>
</defs>
</svg>
