<svg width="24" height="23" viewBox="0 0 24 23" fill="none" xmlns="http://www.w3.org/2000/svg">
<path d="M12.4585 1.43758C10.9151 1.43148 9.39164 1.78589 8.00943 2.47258C7.91779 2.50956 7.83475 2.56504 7.76551 2.63556C7.69628 2.70609 7.64233 2.79013 7.60704 2.88244C7.57174 2.97475 7.55587 3.07335 7.5604 3.17207C7.56493 3.27079 7.58978 3.36752 7.63338 3.45621C7.67698 3.5449 7.7384 3.62364 7.81381 3.68752C7.88922 3.7514 7.97699 3.79905 8.07164 3.82748C8.16629 3.85591 8.26578 3.86451 8.36391 3.85275C8.46203 3.84099 8.55668 3.80913 8.64193 3.75914C9.95738 3.11005 11.4166 2.80717 12.8818 2.87916C14.3469 2.95114 15.7694 3.39561 17.0149 4.17053C18.2604 4.94545 19.2877 6.02522 19.9996 7.30775C20.7115 8.59028 21.0846 10.0332 21.0835 11.5001C21.0835 15.0076 19.2004 18.9176 16.0522 19.4063C15.7179 19.4862 15.3701 19.4916 15.0335 19.422C14.6969 19.3524 14.3797 19.2097 14.1044 19.0038C13.4789 18.3127 13.1465 17.4055 13.1772 16.4738C14.3737 16.3011 15.4679 15.7035 16.2598 14.7901C17.0517 13.8768 17.4883 12.7089 17.4897 11.5001V7.18758C17.4897 6.99695 17.414 6.81414 17.2792 6.67934C17.1444 6.54455 16.9616 6.46883 16.771 6.46883H14.6147C14.4241 6.46883 14.2413 6.54455 14.1065 6.67934C13.9717 6.81414 13.896 6.99695 13.896 7.18758C13.896 7.3782 13.9717 7.56102 14.1065 7.69581C14.2413 7.8306 14.4241 7.90633 14.6147 7.90633H16.0522V11.5001C16.0522 12.4532 15.6736 13.3673 14.9997 14.0412C14.3257 14.7152 13.4116 15.0938 12.4585 15.0938C11.5054 15.0938 10.5913 14.7152 9.91733 14.0412C9.24337 13.3673 8.86475 12.4532 8.86475 11.5001V7.90633H10.3022C10.4929 7.90633 10.6757 7.8306 10.8105 7.69581C10.9453 7.56102 11.021 7.3782 11.021 7.18758C11.021 6.99695 10.9453 6.81414 10.8105 6.67934C10.6757 6.54455 10.4929 6.46883 10.3022 6.46883H8.146C7.95537 6.46883 7.77255 6.54455 7.63776 6.67934C7.50297 6.81414 7.42725 6.99695 7.42725 7.18758V11.5001C7.42866 12.7089 7.86526 13.8768 8.65716 14.7901C9.44906 15.7035 10.5433 16.3011 11.7397 16.4738C11.8332 18.127 12.3004 19.3488 13.1341 20.0676C13.7845 20.6111 14.6165 20.8884 15.4629 20.8438C15.7272 20.8441 15.9913 20.8273 16.2535 20.7935C20.3216 20.2041 22.521 15.561 22.521 11.5001C22.521 8.83134 21.4608 6.2719 19.5738 4.38482C17.6867 2.49773 15.1272 1.43758 12.4585 1.43758Z" fill="currentColor"/>
<path d="M5.98992 15.8127C5.6816 15.8173 5.37595 15.8707 5.08429 15.9708C4.09903 14.3464 3.67766 12.4422 3.8856 10.5537C4.09355 8.66533 4.91918 6.89841 6.23429 5.52734C6.30781 5.46122 6.3669 5.38065 6.40786 5.29065C6.44882 5.20065 6.47077 5.10317 6.47233 5.00431C6.4739 4.90544 6.45505 4.80731 6.41696 4.71606C6.37888 4.62481 6.32237 4.54241 6.25098 4.47399C6.17959 4.40558 6.09485 4.35263 6.00207 4.31846C5.90928 4.28428 5.81044 4.26962 5.71173 4.27539C5.61302 4.28116 5.51656 4.30724 5.42839 4.35199C5.34022 4.39674 5.26222 4.4592 5.19929 4.53547C3.65986 6.13984 2.69516 8.20891 2.4559 10.4195C2.21664 12.6301 2.71629 14.8576 3.87679 16.7542C3.43304 17.2426 3.17079 17.8688 3.13406 18.5276C3.09734 19.1865 3.28838 19.8379 3.67511 20.3726C4.06184 20.9072 4.62073 21.2926 5.25797 21.464C5.8952 21.6353 6.57199 21.5823 7.17474 21.3137C7.77749 21.0451 8.2695 20.5774 8.5682 19.989C8.8669 19.4006 8.95409 18.7274 8.81516 18.0823C8.67622 17.4372 8.3196 16.8595 7.80516 16.4463C7.29073 16.033 6.64978 15.8093 5.98992 15.8127ZM5.98992 20.1252C5.70561 20.1252 5.42768 20.0408 5.19129 19.8829C4.95489 19.7249 4.77064 19.5004 4.66184 19.2378C4.55304 18.9751 4.52457 18.6861 4.58004 18.4072C4.6355 18.1284 4.77241 17.8722 4.97345 17.6712C5.17449 17.4701 5.43063 17.3332 5.70948 17.2778C5.98832 17.2223 6.27736 17.2508 6.54003 17.3596C6.80269 17.4684 7.0272 17.6526 7.18515 17.889C7.34311 18.1254 7.42742 18.4033 7.42742 18.6877C7.42742 19.0689 7.27597 19.4345 7.00638 19.7041C6.7368 19.9737 6.37117 20.1252 5.98992 20.1252Z" fill="currentColor"/>
</svg>
