<svg width="22" height="22" viewBox="0 0 22 22" fill="none" xmlns="http://www.w3.org/2000/svg">
<path d="M6.97455 9.96364H2.98909C2.19633 9.96364 1.43605 9.64872 0.875484 9.08815C0.314921 8.52759 0 7.7673 0 6.97455V2.98909C0 2.19633 0.314921 1.43605 0.875484 0.875484C1.43605 0.314921 2.19633 0 2.98909 0H6.97455C7.7673 0 8.52759 0.314921 9.08815 0.875484C9.64872 1.43605 9.96364 2.19633 9.96364 2.98909V6.97455C9.96364 7.7673 9.64872 8.52759 9.08815 9.08815C8.52759 9.64872 7.7673 9.96364 6.97455 9.96364ZM2.98909 1.99273C2.72484 1.99273 2.47141 2.0977 2.28456 2.28456C2.0977 2.47141 1.99273 2.72484 1.99273 2.98909V6.97455C1.99273 7.2388 2.0977 7.49223 2.28456 7.67908C2.47141 7.86594 2.72484 7.97091 2.98909 7.97091H6.97455C7.2388 7.97091 7.49223 7.86594 7.67908 7.67908C7.86594 7.49223 7.97091 7.2388 7.97091 6.97455V2.98909C7.97091 2.72484 7.86594 2.47141 7.67908 2.28456C7.49223 2.0977 7.2388 1.99273 6.97455 1.99273H2.98909ZM18.9309 9.96364H14.9455C14.1527 9.96364 13.3924 9.64872 12.8318 9.08815C12.2713 8.52759 11.9564 7.7673 11.9564 6.97455V2.98909C11.9564 2.19633 12.2713 1.43605 12.8318 0.875484C13.3924 0.314921 14.1527 0 14.9455 0H18.9309C19.7237 0 20.484 0.314921 21.0445 0.875484C21.6051 1.43605 21.92 2.19633 21.92 2.98909V6.97455C21.92 7.7673 21.6051 8.52759 21.0445 9.08815C20.484 9.64872 19.7237 9.96364 18.9309 9.96364ZM14.9455 1.99273C14.6812 1.99273 14.4278 2.0977 14.2409 2.28456C14.0541 2.47141 13.9491 2.72484 13.9491 2.98909V6.97455C13.9491 7.2388 14.0541 7.49223 14.2409 7.67908C14.4278 7.86594 14.6812 7.97091 14.9455 7.97091H18.9309C19.1952 7.97091 19.4486 7.86594 19.6354 7.67908C19.8223 7.49223 19.9273 7.2388 19.9273 6.97455V2.98909C19.9273 2.72484 19.8223 2.47141 19.6354 2.28456C19.4486 2.0977 19.1952 1.99273 18.9309 1.99273H14.9455ZM6.97455 21.92H2.98909C2.19633 21.92 1.43605 21.6051 0.875484 21.0445C0.314921 20.484 0 19.7237 0 18.9309V14.9455C0 14.1527 0.314921 13.3924 0.875484 12.8318C1.43605 12.2713 2.19633 11.9564 2.98909 11.9564H6.97455C7.7673 11.9564 8.52759 12.2713 9.08815 12.8318C9.64872 13.3924 9.96364 14.1527 9.96364 14.9455V18.9309C9.96364 19.7237 9.64872 20.484 9.08815 21.0445C8.52759 21.6051 7.7673 21.92 6.97455 21.92ZM2.98909 13.9491C2.72484 13.9491 2.47141 14.0541 2.28456 14.2409C2.0977 14.4278 1.99273 14.6812 1.99273 14.9455V18.9309C1.99273 19.1952 2.0977 19.4486 2.28456 19.6354C2.47141 19.8223 2.72484 19.9273 2.98909 19.9273H6.97455C7.2388 19.9273 7.49223 19.8223 7.67908 19.6354C7.86594 19.4486 7.97091 19.1952 7.97091 18.9309V14.9455C7.97091 14.6812 7.86594 14.4278 7.67908 14.2409C7.49223 14.0541 7.2388 13.9491 6.97455 13.9491H2.98909ZM18.9309 21.92H14.9455C14.1527 21.92 13.3924 21.6051 12.8318 21.0445C12.2713 20.484 11.9564 19.7237 11.9564 18.9309V14.9455C11.9564 14.1527 12.2713 13.3924 12.8318 12.8318C13.3924 12.2713 14.1527 11.9564 14.9455 11.9564H18.9309C19.7237 11.9564 20.484 12.2713 21.0445 12.8318C21.6051 13.3924 21.92 14.1527 21.92 14.9455V18.9309C21.92 19.7237 21.6051 20.484 21.0445 21.0445C20.484 21.6051 19.7237 21.92 18.9309 21.92ZM14.9455 13.9491C14.6812 13.9491 14.4278 14.0541 14.2409 14.2409C14.0541 14.4278 13.9491 14.6812 13.9491 14.9455V18.9309C13.9491 19.1952 14.0541 19.4486 14.2409 19.6354C14.4278 19.8223 14.6812 19.9273 14.9455 19.9273H18.9309C19.1952 19.9273 19.4486 19.8223 19.6354 19.6354C19.8223 19.4486 19.9273 19.1952 19.9273 18.9309V14.9455C19.9273 14.6812 19.8223 14.4278 19.6354 14.2409C19.4486 14.0541 19.1952 13.9491 18.9309 13.9491H14.9455Z" fill="black"/>
</svg>
