<svg width="24" height="23" viewBox="0 0 24 23" fill="none" xmlns="http://www.w3.org/2000/svg">
<g clip-path="url(#clip0_98_3856)">
<path d="M21.6744 5.26343C21.6743 5.26343 21.6743 5.26343 21.6744 5.26343C21.1954 5.19155 20.2905 5.30049 17.9709 7.06558C17.7197 7.25664 17.3905 7.31495 17.0902 7.22155L13.3628 6.06201C11.6614 5.48575 9.41226 6.31097 7.8522 7.21962C6.59365 7.95258 4.12736 9.70172 5.16435 10.7263C5.92646 11.4792 7.74748 10.348 10.0031 10.0069C10.5625 9.92234 10.8649 9.9505 11.0199 9.98878C10.4417 12.2014 4.12251 19.9809 2.60983 21.7851C2.1651 22.3161 2.65938 23.1099 3.33209 22.9447C6.55214 22.1545 9.20495 19.8454 11.1142 17.6663C12.8498 17.6317 13.4454 17.9495 13.5283 18.0828C13.7675 18.4669 13.5737 19.6007 13.4454 20.3509C13.257 21.4535 13.1081 22.3244 13.6798 22.7984C13.9837 23.0504 14.3826 23.0562 14.7356 22.8717C15.8445 22.2919 17.847 18.7274 17.6902 16.8841C17.5608 15.3628 15.3368 14.4407 13.8847 13.9766C14.3373 13.2904 14.8121 12.6683 15.1554 11.0709C16.1308 11.3027 17.5737 11.6001 18.2963 11.4918C19.0809 11.3741 20.1315 10.218 20.8746 9.26876C21.4732 8.50404 22.4775 7.09267 22.4775 6.23218C22.4775 5.72474 22.1547 5.33544 21.6744 5.26343ZM15.1074 16.0159C15.9308 16.4437 16.2417 16.8166 16.2579 17.0059C16.3403 17.9747 15.4147 19.788 14.8535 20.6453C15.0324 19.5979 15.2982 18.2057 14.7487 17.3231C14.3709 16.7161 13.5543 16.3643 12.2685 16.2593C12.5496 15.8943 12.8058 15.5452 13.0358 15.2213C13.8083 15.4419 14.5444 15.7233 15.1074 16.0159ZM18.0618 10.0729C17.7161 10.1129 16.6748 9.98101 14.7536 9.49018C14.3342 9.38291 13.9131 9.66924 13.8619 10.1022C13.7369 11.1592 13.3623 12.1698 13.0568 12.6216C12.6363 13.2437 11.681 14.7929 10.2282 16.4901C8.87526 18.0702 7.2926 19.556 5.46412 20.5635C7.24781 18.3438 10.0069 14.802 11.456 12.3662C12.3729 10.825 12.8436 9.66453 12.1604 9.01046C11.1507 8.04381 8.94538 8.71963 7.57269 9.11715C8.94844 8.10635 11.3004 6.93144 12.9267 7.43179L16.6631 8.59416C17.4066 8.82542 18.2208 8.68171 18.8413 8.20953C19.6645 7.58313 20.2783 7.19676 20.7091 6.96981C19.9543 8.28923 18.5337 9.88065 18.0618 10.0729Z" fill="black"/>
<path d="M14.8512 5.93736C16.4893 5.93736 17.822 4.60559 17.822 2.9687C17.822 1.33177 16.4893 0 14.8512 0C13.2131 0 11.8804 1.33177 11.8804 2.9687C11.8804 4.60559 13.2131 5.93736 14.8512 5.93736ZM14.8512 1.43752C15.6967 1.43752 16.3845 2.12438 16.3845 2.9687C16.3845 3.81298 15.6967 4.49984 14.8512 4.49984C14.0058 4.49984 13.3179 3.81298 13.3179 2.9687C13.3179 2.12438 14.0057 1.43752 14.8512 1.43752Z" fill="black"/>
</g>
<defs>
<clipPath id="clip0_98_3856">
<rect width="23" height="23" fill="white" transform="translate(0.958496)"/>
</clipPath>
</defs>
</svg>
