<svg width="24" height="24" viewBox="0 0 24 24" fill="none" xmlns="http://www.w3.org/2000/svg">
<path d="M5.36238 6.19494L4.12488 4.95744L3.06738 5.99994L4.82988 7.76244C4.89996 7.83195 4.98307 7.88695 5.07445 7.92427C5.16583 7.96159 5.26368 7.98051 5.36238 7.97994C5.55914 7.97911 5.74769 7.901 5.88738 7.76244L8.93238 4.76244L7.87488 3.68994L5.36238 6.19494Z" fill="black"/>
<path d="M7.49988 15.4424L5.99988 16.9424L4.49988 15.4424L3.44238 16.4999L4.94238 17.9999L3.44238 19.4999L4.49988 20.5574L5.99988 19.0574L7.49988 20.5574L8.55738 19.4999L7.05738 17.9999L8.55738 16.4999L7.49988 15.4424Z" fill="black"/>
<path d="M22.5 2.25H13.5C13.3011 2.25 13.1103 2.32902 12.9697 2.46967C12.829 2.61032 12.75 2.80109 12.75 3V6C12.75 6.19891 12.829 6.38968 12.9697 6.53033C13.1103 6.67098 13.3011 6.75 13.5 6.75H22.5C22.6989 6.75 22.8897 6.67098 23.0303 6.53033C23.171 6.38968 23.25 6.19891 23.25 6V3C23.25 2.80109 23.171 2.61032 23.0303 2.46967C22.8897 2.32902 22.6989 2.25 22.5 2.25ZM21.75 5.25H14.25V3.75H21.75V5.25Z" fill="black"/>
<path d="M16.5 8.25H23.25V9.75H16.5V8.25Z" fill="black"/>
<path d="M12.75 8.25H15V9.75H12.75V8.25Z" fill="black"/>
<path d="M22.5 14.25H13.5C13.3011 14.25 13.1103 14.329 12.9697 14.4697C12.829 14.6103 12.75 14.8011 12.75 15V18C12.75 18.1989 12.829 18.3897 12.9697 18.5303C13.1103 18.671 13.3011 18.75 13.5 18.75H22.5C22.6989 18.75 22.8897 18.671 23.0303 18.5303C23.171 18.3897 23.25 18.1989 23.25 18V15C23.25 14.8011 23.171 14.6103 23.0303 14.4697C22.8897 14.329 22.6989 14.25 22.5 14.25ZM21.75 17.25H14.25V15.75H21.75V17.25Z" fill="black"/>
<path d="M16.5 20.25H23.25V21.75H16.5V20.25Z" fill="black"/>
<path d="M12.75 20.25H15V21.75H12.75V20.25Z" fill="black"/>
</svg>
