<svg width="35" height="35" viewBox="0 0 35 35" fill="none" xmlns="http://www.w3.org/2000/svg">
<g clip-path="url(#clip0_66_10072)">
<path d="M34.6883 14.2625C34.5997 13.7922 34.218 13.4356 33.7433 13.3788C33.2675 13.3219 32.8136 13.5789 32.6167 14.0153C32.27 14.7809 31.5087 15.3136 30.6261 15.3125C29.6472 15.3147 28.8203 14.6541 28.5447 13.7473C28.3784 13.1939 27.8097 12.8658 27.2475 12.997C26.9019 13.078 26.5748 13.125 26.25 13.125C23.8405 13.1206 21.8794 11.1595 21.875 8.75C21.875 8.42516 21.922 8.09813 22.003 7.75359C22.1353 7.19141 21.8061 6.62156 21.2527 6.45531C20.3459 6.18078 19.6853 5.35391 19.6875 4.375C19.6864 3.49125 20.2191 2.73109 20.9847 2.38438C21.4211 2.1875 21.6781 1.7325 21.6213 1.25781C21.5644 0.782031 21.2078 0.400312 20.7375 0.311719C19.6941 0.115937 18.6134 0 17.5 0C7.84656 0.0021875 0.0021875 7.84656 0 17.5C0.0021875 27.1534 7.84656 34.9978 17.5 35C27.1534 34.9978 34.9978 27.1534 35 17.5C35 16.3866 34.8841 15.3059 34.6883 14.2625ZM28.3227 28.3227C25.5456 31.0975 21.7241 32.8125 17.5 32.8125C13.2759 32.8125 9.45438 31.0975 6.67734 28.3227C3.9025 25.5456 2.1875 21.7241 2.1875 17.5C2.1875 13.2759 3.9025 9.45438 6.67734 6.67734C9.45438 3.9025 13.2759 2.1875 17.5 2.1875C17.6969 2.1875 17.8894 2.20828 18.0852 2.21703C17.7198 2.85359 17.5011 3.58641 17.5 4.375C17.5022 6.00797 18.4078 7.40797 19.728 8.155C19.7072 8.34969 19.6875 8.54438 19.6875 8.75C19.6897 12.3714 22.6286 15.3103 26.25 15.3125C26.4556 15.3125 26.6503 15.2928 26.845 15.272C27.592 16.5911 28.9909 17.4978 30.625 17.5C31.4136 17.4989 32.1464 17.2802 32.783 16.9148C32.7917 17.1095 32.8125 17.3031 32.8125 17.5C32.8125 21.7241 31.0975 25.5456 28.3227 28.3227Z" fill="black"/>
<path d="M13.125 10.9375C14.3331 10.9375 15.3125 9.95812 15.3125 8.75C15.3125 7.54188 14.3331 6.5625 13.125 6.5625C11.9169 6.5625 10.9375 7.54188 10.9375 8.75C10.9375 9.95812 11.9169 10.9375 13.125 10.9375Z" fill="black"/>
<path d="M8.75 19.6875C9.95812 19.6875 10.9375 18.7081 10.9375 17.5C10.9375 16.2919 9.95812 15.3125 8.75 15.3125C7.54188 15.3125 6.5625 16.2919 6.5625 17.5C6.5625 18.7081 7.54188 19.6875 8.75 19.6875Z" fill="black"/>
<path d="M19.6875 28.4375C20.8956 28.4375 21.875 27.4581 21.875 26.25C21.875 25.0419 20.8956 24.0625 19.6875 24.0625C18.4794 24.0625 17.5 25.0419 17.5 26.25C17.5 27.4581 18.4794 28.4375 19.6875 28.4375Z" fill="black"/>
<path d="M18.5938 19.6875C19.1978 19.6875 19.6875 19.1978 19.6875 18.5938C19.6875 17.9897 19.1978 17.5 18.5938 17.5C17.9897 17.5 17.5 17.9897 17.5 18.5938C17.5 19.1978 17.9897 19.6875 18.5938 19.6875Z" fill="black"/>
<path d="M27.3438 24.0625C27.9478 24.0625 28.4375 23.5728 28.4375 22.9688C28.4375 22.3647 27.9478 21.875 27.3438 21.875C26.7397 21.875 26.25 22.3647 26.25 22.9688C26.25 23.5728 26.7397 24.0625 27.3438 24.0625Z" fill="black"/>
<path d="M12.0312 26.25C12.6353 26.25 13.125 25.7603 13.125 25.1562C13.125 24.5522 12.6353 24.0625 12.0312 24.0625C11.4272 24.0625 10.9375 24.5522 10.9375 25.1562C10.9375 25.7603 11.4272 26.25 12.0312 26.25Z" fill="black"/>
</g>
<defs>
<clipPath id="clip0_66_10072">
<rect width="35" height="35" fill="white"/>
</clipPath>
</defs>
</svg>
