<svg width="19" height="22" viewBox="0 0 19 22" fill="none" xmlns="http://www.w3.org/2000/svg">
<path d="M14.8126 12.3172C14.408 12.3573 12.9183 12.1868 12.604 12.5003L9.36621 15.2203L5.81096 12.4798C5.5124 12.2182 4.40851 12.3439 4.04316 12.3172C1.81416 12.3172 0 14.1086 0 16.3117V21.2144C0 21.6488 0.351989 22.0001 0.78569 22.0001C1.21939 22.0001 1.57138 21.6488 1.57138 21.2144V16.3117C1.57138 15.0656 2.54014 14.0481 3.77603 13.9153L4.04238 15.4034L4.40851 17.447C4.17516 17.5923 3.97088 17.784 3.80903 18.0158C3.49318 18.466 3.37297 19.0121 3.46961 19.5511C3.64875 20.5497 4.52872 21.2544 5.5179 21.2544C5.63654 21.2544 5.75754 21.2434 5.87775 21.223C6.4293 21.1279 6.90936 20.8239 7.22913 20.3674C7.54498 19.9172 7.66598 19.3711 7.56934 18.8314C7.41691 17.9828 6.75929 17.3511 5.9571 17.1791L5.41655 14.1597L8.90815 16.8514C9.04958 16.9606 9.21929 17.0148 9.38742 17.0148C9.56735 17.0148 9.74727 16.9536 9.89262 16.831L13.2766 13.9884L12.7046 17.1798C11.9008 17.3519 11.2448 17.9852 11.0924 18.8329C11.0154 19.2596 11.3006 19.6673 11.728 19.7443C12.1531 19.819 12.5624 19.5361 12.6394 19.1087C12.6881 18.84 12.9592 18.6577 13.2326 18.7088C13.3701 18.7324 13.4887 18.807 13.5665 18.9186C13.6404 19.0239 13.6686 19.1511 13.6467 19.2761C13.5697 19.7027 13.8549 20.1105 14.2823 20.1875C14.3294 20.1961 14.375 20.2 14.4213 20.2C14.7953 20.2 15.1253 19.9329 15.1937 19.5526C15.2903 19.0129 15.1701 18.4684 14.8543 18.0182C14.6916 17.7864 14.4873 17.5947 14.2532 17.4485L14.5958 15.5338L14.8888 13.8964C16.2166 13.9373 17.2852 15.0019 17.2852 16.3117V21.2144C17.2852 21.6488 17.6364 22.0001 18.0709 22.0001C18.5054 22.0001 18.8566 21.6488 18.8566 21.2144V16.3117C18.8566 14.1086 17.0416 12.3172 14.8126 12.3172ZM5.94217 19.4654C5.86439 19.577 5.74654 19.6501 5.60904 19.6744C5.33169 19.7231 5.06377 19.544 5.01585 19.2745C4.99385 19.1488 5.02135 19.0223 5.09599 18.917C5.17377 18.8054 5.29162 18.7324 5.42912 18.708C5.46055 18.7025 5.4904 18.6994 5.52104 18.6994C5.76461 18.6994 5.97989 18.8683 6.0231 19.1071C6.0451 19.2336 6.01681 19.3609 5.94217 19.4654Z" fill="black"/>
<path d="M9.22173 11.2943C12.3244 11.2943 14.8481 8.76123 14.8481 5.64675C14.8473 2.53306 12.3244 0 9.22173 0C6.11983 0 3.59619 2.53306 3.59619 5.64675C3.59619 8.76044 6.11983 11.2943 9.22173 11.2943ZM9.22173 1.57138C11.457 1.57138 13.2767 3.39968 13.2767 5.64675C13.2767 7.89383 11.4578 9.72291 9.22173 9.72291C6.98566 9.72291 5.16757 7.89461 5.16757 5.64675C5.16757 3.39889 6.98644 1.57138 9.22173 1.57138Z" fill="black"/>
</svg>
