<svg width="40" height="40" viewBox="0 0 40 40" fill="none" xmlns="http://www.w3.org/2000/svg">
<path d="M20 40C31.0457 40 40 31.0457 40 20C40 8.95431 31.0457 0 20 0C8.95431 0 0 8.95431 0 20C0 31.0457 8.95431 40 20 40Z" fill="#F5F8FC"/>
<mask id="mask0_286_6367" style="mask-type:luminance" maskUnits="userSpaceOnUse" x="0" y="0" width="40" height="40">
<path d="M20 40C31.0457 40 40 31.0457 40 20C40 8.95431 31.0457 0 20 0C8.95431 0 0 8.95431 0 20C0 31.0457 8.95431 40 20 40Z" fill="white"/>
</mask>
<g mask="url(#mask0_286_6367)">
<path d="M11.6529 6.64471C11.9584 10.0515 11.3474 13.519 11.8116 16.8946C12.2907 20.3815 14.2558 23.7259 14.6681 27.1638C14.8135 28.3874 14.5213 29.6955 14.3834 30.9369C14.1253 33.2313 14.0526 35.5346 14.1535 37.826C14.2795 40.644 14.7571 44.4185 15.2851 47.41H25.7263C26.3908 42.8716 27.0078 37.4389 26.9618 33.1557C26.9025 27.7096 25.759 26.2324 25.5454 22.8093C25.4371 21.0652 25.6878 19.2424 25.6181 17.4686C25.5439 15.5405 25.3615 13.4419 25.7649 11.5583C26.8357 6.57055 27.8027 1.42261 28.264 -3.7105C28.3767 -4.95781 28.479 -6.21106 28.5739 -7.46875H9.70557C9.83905 -6.66934 9.9666 -5.86845 10.0927 -5.06905C10.7007 -1.18473 11.3044 2.73666 11.6529 6.64323V6.64471Z" fill="#FFFBF5"/>
<path d="M11.6529 6.64471C11.9584 10.0515 11.3474 13.519 11.8116 16.8946C12.2907 20.3815 14.2558 23.7259 14.6681 27.1638C14.8135 28.3874 14.5213 29.6955 14.3834 30.9369C14.1253 33.2313 14.0526 35.5346 14.1535 37.826C14.2795 40.644 14.7571 44.4185 15.2851 47.41H25.7263C26.3908 42.8716 27.0078 37.4389 26.9618 33.1557C26.9025 27.7096 25.759 26.2324 25.5454 22.8093C25.4371 21.0652 25.6878 19.2424 25.6181 17.4686C25.5439 15.5405 25.3615 13.4419 25.7649 11.5583C26.8357 6.57055 27.8027 1.42261 28.264 -3.7105C28.3767 -4.95781 28.479 -6.21106 28.5739 -7.46875H9.70557C9.83905 -6.66934 9.9666 -5.86845 10.0927 -5.06905C10.7007 -1.18473 11.3044 2.73666 11.6529 6.64323V6.64471Z" fill="#E6BCA5"/>
<path d="M15.3519 19.3788C15.0048 19.3714 14.9455 18.8879 15.2866 18.8241C15.7731 18.7352 16.1735 18.79 16.5206 18.8034C18.5035 18.879 17.8272 19.0259 19.779 19.1356C20.6556 19.1845 22.8951 18.968 23.3712 19.0081C24.0178 19.0629 23.4676 18.9042 23.6663 19.017C23.865 19.1297 23.6885 19.278 23.3178 19.3788C22.683 19.5509 19.6737 19.103 19.337 19.0881C19.0449 19.0748 17.1539 19.4189 15.3519 19.3788Z" fill="#A20011"/>
<path d="M21.8747 11.2669C21.5499 10.1071 22.0201 3.34104 22.2455 -4.26148C22.2752 -5.28781 22.3048 -6.31562 22.3345 -7.33008H18.9722C18.95 -6.3082 18.9085 -5.26853 18.8447 -4.23034C18.379 3.37663 17.9237 10.2836 17.6374 11.2698C17.0723 13.2142 13.9919 11.9862 14.1565 16.3614C14.198 17.4916 14.6296 18.948 15.9822 18.9169C16.7742 18.8991 16.8958 18.9866 18.3938 17.8594C19.3445 17.1445 20.0742 17.3329 20.5992 17.8371C21.4342 18.638 21.4891 19.0652 22.8224 19.0622C23.874 19.0607 25.0634 17.41 24.9596 16.1449C24.6007 11.8023 22.3019 12.7841 21.8777 11.2698L21.8747 11.2669Z" fill="#FFFBF5"/>
<path d="M24.4405 19.497C23.9793 18.8889 23.0315 19.7551 21.3348 19.1336C20.6585 18.886 20.5013 19.0832 19.4972 19.0669C18.2974 19.0491 18.0052 18.9913 17.3111 19.1974C15.7167 19.6676 15.0315 18.9319 14.5021 19.451C14.0052 19.936 14.2277 21.7187 15.7167 22.4885C17.01 23.1574 17.0827 23.8337 17.277 24.9876C17.4683 26.1147 18.1891 33.7736 18.465 41.8181C18.5317 43.7803 18.5777 45.7647 18.6074 47.6854H20.9196C20.7683 37.4711 20.6615 25.6223 20.9477 24.6123C21.1776 23.8025 21.7012 23.1144 22.9322 22.5315C23.9273 22.0613 25.3615 20.7058 24.442 19.4955L24.4405 19.497Z" fill="#FFFBF5"/>
<path d="M21.5647 47.961H22.6029C22.7749 37.4071 23.0256 25.4115 23.1234 24.9695C23.291 24.2072 24.4716 22.7092 23.4824 22.3073C23.0982 22.1516 22.8817 22.8946 22.3492 23.2209C21.8391 23.5324 21.4875 23.8987 21.4875 24.2917C21.4875 24.6848 21.8138 24.9043 21.8568 25.5776C21.8806 25.9558 21.7145 37.6355 21.5647 47.961Z" fill="#FFFBF5"/>
<mask id="mask1_286_6367" style="mask-type:luminance" maskUnits="userSpaceOnUse" x="9" y="13" width="18" height="11">
<path d="M13.9237 16.4569C14.8581 16.2448 14.8625 17.8125 16.0846 18.2337C16.9271 18.5244 18.5185 18.256 19.26 18.0973C19.9349 17.9534 20.9093 17.3172 21.4862 17.3691C22.1091 17.4254 23.088 16.1588 23.659 16.2241C24.3457 16.3027 23.2096 13.7888 24.1825 13.4106C24.9686 13.1051 25.1392 13.0754 25.5915 13.3127C27.3535 14.2367 27.7495 19.969 24.8752 22.3064C21.9801 24.6601 17.3379 22.293 15.3446 21.2771C12.9745 20.0684 9.50103 17.5189 10.0201 15.7287C10.3954 14.4339 13.1199 16.6408 13.9222 16.4584L13.9237 16.4569Z" fill="white"/>
</mask>
<g mask="url(#mask1_286_6367)">
<path d="M21.8911 11.2835C21.5663 10.1237 22.0364 3.35764 22.2619 -4.24488C22.2915 -5.27121 22.3212 -6.29902 22.3508 -7.31348H18.9886C18.9663 -6.2916 18.9248 -5.25193 18.861 -4.21374C18.3953 3.39324 17.94 10.3002 17.6538 11.2865C17.0902 13.2308 14.0082 12.0028 14.1729 16.378C14.2144 17.5082 14.646 18.9646 15.9986 18.9335C16.7906 18.9157 16.9122 19.0032 18.4102 17.876C19.3608 17.1611 20.0905 17.3495 20.6156 17.8538C21.4506 18.6546 21.5055 19.0818 22.8388 19.0788C23.8903 19.0773 25.0798 17.4266 24.976 16.1615C24.6171 11.8189 22.3182 12.8007 21.894 11.2865L21.8911 11.2835Z" fill="#FFFBF5"/>
</g>
<path d="M22.1475 13.8172C21.7382 15.5035 20.6155 16.6885 19.9021 16.6959C18.987 16.7048 18.2187 15.8758 17.9162 14.7738C17.6136 13.6733 17.5587 12.9303 18.2469 12.159C18.8194 11.5168 22.6651 11.6889 22.1475 13.8172Z" fill="#FFFBF5"/>
<mask id="mask2_286_6367" style="mask-type:luminance" maskUnits="userSpaceOnUse" x="14" y="18" width="11" height="2">
<path d="M24.9834 19.4547C24.6186 19.7854 24.1914 19.5318 23.6872 19.7098C23.1829 19.8877 22.5852 19.0765 21.2103 19.3345C20.5637 19.4561 17.9549 19.0928 17.3601 19.2663C16.7654 19.4398 15.5522 19.6949 14.8507 19.6979C14.1848 19.7009 14.0898 19.4561 14.1343 19.2767C14.1788 19.0972 14.6861 18.6493 14.9857 18.5455C15.2838 18.4417 19.6575 18.0234 19.6575 18.0234L23.2244 18.3972L24.9834 19.4561V19.4547Z" fill="white"/>
</mask>
<g mask="url(#mask2_286_6367)">
<path d="M17.2784 24.9861C17.4698 26.1133 18.1906 33.7722 18.4664 41.8167C18.5332 43.7788 18.5791 45.7633 18.6088 47.6839H20.921C20.7697 37.4696 20.6629 25.6209 20.9492 24.6109C21.1791 23.8011 21.7026 23.1129 22.9336 22.53C23.9288 22.0599 25.363 20.7043 24.4434 19.4941C23.9822 18.886 23.0345 19.7521 21.3378 19.1307C20.6615 18.883 20.5042 19.0803 19.5002 19.064C18.3003 19.0462 18.0081 18.9883 17.314 19.1945C15.7197 19.6646 15.0345 18.929 14.505 19.4481C14.0081 19.9331 14.2306 21.7158 15.7197 22.4856C17.013 23.1544 17.0856 23.8307 17.2799 24.9846L17.2784 24.9861Z" fill="#FFFBF5"/>
</g>
<mask id="mask3_286_6367" style="mask-type:luminance" maskUnits="userSpaceOnUse" x="14" y="18" width="11" height="2">
<path d="M24.9834 19.4547C24.6186 19.7854 24.1914 19.5318 23.6872 19.7098C23.1829 19.8877 22.5852 19.0765 21.2103 19.3345C20.5637 19.4561 17.9549 19.0928 17.3601 19.2663C16.7654 19.4398 15.5522 19.6949 14.8507 19.6979C14.1848 19.7009 14.0898 19.4561 14.1343 19.2767C14.1788 19.0972 14.6861 18.6493 14.9857 18.5455C15.2838 18.4417 19.6575 18.0234 19.6575 18.0234L23.2244 18.3972L24.9834 19.4561V19.4547Z" fill="white"/>
</mask>
<g mask="url(#mask3_286_6367)">
<path d="M17.2787 24.9861C17.47 26.1133 18.1908 33.7722 18.4667 41.8167C18.5334 43.7788 18.5794 45.7633 18.6091 47.6839H20.9213C20.77 37.4696 20.6632 25.6209 20.9494 24.6109C21.1793 23.8011 21.7029 23.1129 22.9339 22.53C23.929 22.0599 25.3632 20.7043 24.4437 19.4941C23.9824 18.886 23.0347 19.7521 21.338 19.1307C20.6617 18.883 20.5045 19.0803 19.5004 19.064C18.3006 19.0462 18.0084 18.9883 17.3143 19.1945C15.7199 19.6646 15.0347 18.929 14.5052 19.4481C14.0084 19.9331 14.2309 21.7158 15.7199 22.4856C17.0132 23.1544 17.0859 23.8307 17.2802 24.9846L17.2787 24.9861Z" fill="#FFFBF5"/>
</g>
</g>
<path style="mix-blend-mode:multiply" d="M27.1423 25.9949C31.3646 21.7725 31.3646 14.9267 27.1423 10.7044C22.9199 6.48201 16.0741 6.48201 11.8518 10.7044C7.62944 14.9267 7.62944 21.7725 11.8518 25.9949C16.0741 30.2172 22.9199 30.2172 27.1423 25.9949Z" fill="url(#paint0_radial_286_6367)"/>
<defs>
<radialGradient id="paint0_radial_286_6367" cx="0" cy="0" r="1" gradientUnits="userSpaceOnUse" gradientTransform="translate(19.4976 18.3498) scale(10.812)">
<stop stop-color="#FF3030"/>
<stop offset="0.11" stop-color="#FF5959"/>
<stop offset="0.27" stop-color="#FF8B8B"/>
<stop offset="0.42" stop-color="#FFB5B5"/>
<stop offset="0.57" stop-color="#FFD5D5"/>
<stop offset="0.71" stop-color="#FFECEC"/>
<stop offset="0.85" stop-color="#FFFAFA"/>
<stop offset="0.96" stop-color="white"/>
</radialGradient>
</defs>
</svg>
