<svg width="20" height="20" viewBox="0 0 20 20" fill="none" xmlns="http://www.w3.org/2000/svg">
<g clip-path="url(#clip0_158_1850)">
<path d="M17.0719 17.0715C20.9773 13.166 20.9773 6.83399 17.0719 2.92852C13.1664 -0.976954 6.83438 -0.976954 2.9289 2.92852C-0.976568 6.83399 -0.976568 13.166 2.9289 17.0715C6.83438 20.977 13.1664 20.977 17.0719 17.0715Z" fill="#F8AB3D"/>
<path d="M7.05219 7.57448C7.05219 8.26082 6.72251 8.81693 6.3154 8.81693C5.90829 8.81693 5.57861 8.26082 5.57861 7.57448C5.57861 6.88814 5.90829 6.33203 6.3154 6.33203C6.72251 6.33203 7.05219 6.88814 7.05219 7.57448Z" fill="#303030"/>
<path d="M14.4213 7.57448C14.4213 8.26082 14.0917 8.81693 13.6845 8.81693C13.2774 8.81693 12.9478 8.26082 12.9478 7.57448C12.9478 6.88814 13.2774 6.33203 13.6845 6.33203C14.0917 6.33203 14.4213 6.88814 14.4213 7.57448Z" fill="#303030"/>
<path d="M10.0009 15.866C10.9981 15.866 11.8065 14.4956 11.8065 12.8051C11.8065 11.1146 10.9981 9.74414 10.0009 9.74414C9.00371 9.74414 8.19531 11.1146 8.19531 12.8051C8.19531 14.4956 9.00371 15.866 10.0009 15.866Z" fill="#303030"/>
</g>
<defs>
<clipPath id="clip0_158_1850">
<rect width="20" height="20" fill="white"/>
</clipPath>
</defs>
</svg>
