<svg width="20" height="20" viewBox="0 0 20 20" fill="none" xmlns="http://www.w3.org/2000/svg">
<g clip-path="url(#clip0_158_1887)">
<path d="M17.0719 17.0715C20.9773 13.166 20.9773 6.83399 17.0719 2.92852C13.1664 -0.976954 6.83438 -0.976954 2.9289 2.92852C-0.976568 6.83399 -0.976568 13.166 2.9289 17.0715C6.83438 20.977 13.1664 20.977 17.0719 17.0715Z" fill="#F44328"/>
<path d="M7.05219 7.57448C7.05219 8.26082 6.72251 8.81693 6.3154 8.81693C5.90829 8.81693 5.57861 8.26082 5.57861 7.57448C5.57861 6.88814 5.90829 6.33203 6.3154 6.33203C6.72251 6.33203 7.05219 6.88814 7.05219 7.57448Z" fill="#303030"/>
<path d="M14.4213 7.57448C14.4213 8.26082 14.0917 8.81693 13.6845 8.81693C13.2774 8.81693 12.9478 8.26082 12.9478 7.57448C12.9478 6.88814 13.2774 6.33203 13.6845 6.33203C14.0917 6.33203 14.4213 6.88814 14.4213 7.57448Z" fill="#303030"/>
<path d="M15.9064 5.47752C15.7985 5.44585 15.694 5.41651 15.592 5.38836C15.3667 5.325 15.1555 5.26634 14.9502 5.19477C14.644 5.09153 14.3683 4.97421 14.1078 4.83694C13.8333 4.69146 13.5846 4.53073 13.3464 4.34301C13.086 4.14122 12.8443 3.90423 12.6214 3.67897C12.6085 3.66606 12.5897 3.66254 12.5733 3.66958C12.5568 3.67662 12.5463 3.69304 12.5475 3.71182C12.5639 4.05323 12.6988 4.40637 12.9381 4.73252C13.1564 5.02818 13.4497 5.2769 13.784 5.45171C14.0996 5.61714 14.4516 5.71921 14.8059 5.74502C14.82 5.74502 14.8329 5.74736 14.847 5.74736C15.2447 5.76848 15.6025 5.70513 15.9134 5.55848C15.9299 5.55026 15.9393 5.53384 15.9381 5.51624C15.9369 5.49864 15.924 5.48339 15.9064 5.47752Z" fill="#303030"/>
<path d="M4.0933 5.47752C4.20124 5.44585 4.30565 5.41651 4.40772 5.38836C4.63298 5.325 4.84416 5.26634 5.04948 5.19477C5.35569 5.09153 5.6314 4.97421 5.89186 4.83694C6.16639 4.69146 6.41512 4.53073 6.65328 4.34301C6.91374 4.14122 7.15542 3.90423 7.37833 3.67897C7.39124 3.66606 7.41001 3.66254 7.42644 3.66958C7.44286 3.67662 7.45342 3.69304 7.45225 3.71182C7.43582 4.05323 7.3009 4.40637 7.06156 4.73252C6.84334 5.02818 6.55004 5.2769 6.21567 5.45171C5.90007 5.61714 5.5481 5.71921 5.19379 5.74502C5.17971 5.74502 5.1668 5.74736 5.15272 5.74736C4.755 5.76848 4.39717 5.70513 4.08626 5.55848C4.06983 5.55026 4.06045 5.53384 4.06162 5.51624C4.0628 5.49864 4.0757 5.48339 4.0933 5.47752Z" fill="#303030"/>
<path d="M12.1114 11.516C11.5424 11.0233 10.7716 10.7452 9.99964 10.7593C9.24056 10.7616 8.47679 11.0397 7.90191 11.5196C7.61212 11.7648 7.36926 12.0639 7.20032 12.3877C7.02199 12.7385 6.9293 13.0928 6.92578 13.4389C6.92578 13.5222 6.9774 13.5962 7.05484 13.6231C7.13344 13.6501 7.22026 13.6243 7.27071 13.5586C7.4772 13.2911 7.6743 13.0776 7.87023 12.9087C8.08141 12.7291 8.3055 12.5801 8.53662 12.464C8.9977 12.234 9.50571 12.1109 10.0078 12.1085C10.5229 12.105 11.011 12.22 11.4615 12.4546C11.9249 12.6916 12.3508 13.0635 12.7262 13.5574C12.7638 13.6067 12.8212 13.6337 12.8799 13.6337C12.901 13.6337 12.9221 13.6302 12.9433 13.6231C13.0219 13.5962 13.0747 13.5211 13.0735 13.4378C13.0629 12.7409 12.7028 12.0217 12.1103 11.5149L12.1114 11.516Z" fill="#303030"/>
<path d="M14.5656 9.45996C11.6032 12.8482 11.9317 14.7911 11.9317 14.7911C11.9317 16.2459 13.1108 17.425 14.5656 17.425C16.0204 17.425 17.1995 16.2459 17.1995 14.7911C17.1995 14.7911 17.528 12.8482 14.5656 9.45996Z" fill="#7CC4E8"/>
</g>
<defs>
<clipPath id="clip0_158_1887">
<rect width="20" height="20" fill="white"/>
</clipPath>
</defs>
</svg>
