<svg width="20" height="20" viewBox="0 0 20 20" fill="none" xmlns="http://www.w3.org/2000/svg">
<g clip-path="url(#clip0_158_1859)">
<path d="M17.0719 17.0715C20.9773 13.166 20.9773 6.83399 17.0719 2.92852C13.1664 -0.976954 6.83438 -0.976954 2.9289 2.92852C-0.976568 6.83399 -0.976568 13.166 2.9289 17.0715C6.83438 20.977 13.1664 20.977 17.0719 17.0715Z" fill="#F78B22"/>
<path d="M12.1114 14.0199C11.5424 13.5272 10.7716 13.2491 9.99964 13.2632C9.24056 13.2656 8.47679 13.5436 7.90191 14.0235C7.61212 14.2687 7.36926 14.5678 7.20032 14.8916C7.02199 15.2424 6.9293 15.5968 6.92578 15.9429C6.92578 16.0262 6.9774 16.1001 7.05484 16.1271C7.13344 16.154 7.22026 16.1282 7.27071 16.0625C7.4772 15.795 7.6743 15.5815 7.87023 15.4126C8.08141 15.2331 8.3055 15.0841 8.53662 14.9679C8.9977 14.738 9.50571 14.6148 10.0078 14.6124C10.5229 14.6089 11.011 14.7239 11.4615 14.9585C11.9249 15.1955 12.3508 15.5674 12.7262 16.0614C12.7638 16.1106 12.8212 16.1376 12.8799 16.1376C12.901 16.1376 12.9221 16.1341 12.9433 16.1271C13.0219 16.1001 13.0747 16.025 13.0735 15.9417C13.0629 15.2448 12.7028 14.5256 12.1103 14.0188L12.1114 14.0199Z" fill="#303030"/>
<path d="M17.197 11.6199C17.0656 11.5812 16.9389 11.546 16.8087 11.5096C16.5377 11.4334 16.2819 11.3618 16.0355 11.2762C15.6648 11.1506 15.3316 11.0087 15.0172 10.8432C14.6863 10.6684 14.386 10.4725 14.0974 10.2461C13.7818 10.0009 13.4896 9.71459 13.2198 9.4424C13.1916 9.41425 13.1482 9.40603 13.1118 9.42246C13.0755 9.43888 13.052 9.47643 13.0544 9.51632C13.0755 9.93985 13.2421 10.3775 13.5377 10.7822C13.8076 11.1471 14.1678 11.4533 14.5819 11.6704C14.9702 11.8745 15.4055 12 15.8419 12.0329L15.8924 12.0364C15.9534 12.0399 16.0132 12.0411 16.0719 12.0411C16.4919 12.0411 16.8732 11.9613 17.2099 11.8018C17.2463 11.7842 17.2686 11.7466 17.2651 11.7067C17.2616 11.6668 17.2346 11.6328 17.1959 11.6211L17.197 11.6199Z" fill="#303030"/>
<path d="M6.88796 9.42246C6.85159 9.40603 6.80818 9.41425 6.78003 9.4424C6.51018 9.71576 6.21805 10.002 5.90245 10.2472C5.61501 10.4737 5.31349 10.6684 4.98264 10.8444C4.66822 11.0098 4.33502 11.1518 3.96428 11.2773C3.7179 11.363 3.46214 11.4345 3.18643 11.512C3.06207 11.5472 2.93419 11.5824 2.80396 11.6211C2.76524 11.6328 2.73826 11.6668 2.73474 11.7067C2.73122 11.7466 2.75351 11.7853 2.78988 11.8018C3.1266 11.9601 3.50907 12.0411 3.92791 12.0411C3.98657 12.0411 4.04641 12.0399 4.10741 12.0364L4.15786 12.0329C4.5943 12 5.03074 11.8745 5.41791 11.6704C5.83088 11.4545 6.19224 11.1471 6.46208 10.7822C6.75773 10.3786 6.92551 9.94102 6.94545 9.51632C6.9478 9.47643 6.92433 9.43888 6.88796 9.42246Z" fill="#303030"/>
</g>
<defs>
<clipPath id="clip0_158_1859">
<rect width="20" height="20" fill="white"/>
</clipPath>
</defs>
</svg>
