<svg width="235" height="422" viewBox="0 0 235 422" fill="none" xmlns="http://www.w3.org/2000/svg">
<path d="M120.042 420.976H207.852C202.17 378.442 199.78 335.389 204.008 309.199C206.415 294.308 216.66 268.938 218.816 245.974C226.27 166.637 238.571 156.492 232.22 127.712C225.986 99.484 227.824 93.0829 225.986 84.0411C219.15 50.4646 204.894 62.4478 204.894 87.601C204.894 100.37 209.724 107.857 208.17 121.762C204.877 151.094 194.799 160.971 188.264 160.687C183.033 160.453 196.805 124.938 194.799 100.086C192.493 71.5899 181.997 60.7431 185.29 36.2083C187.863 17.0384 173.624 14.849 166.571 35.6067C161.223 51.3504 159.735 51.3503 164.499 78.977C168.76 103.779 158.85 144.626 153.267 144.242C149.674 143.991 146.382 104.214 143.407 73.913C141.986 59.4562 151.88 47.9075 142.855 22.3699C131.925 -8.54924 114.794 -3.6356 118.454 22.5203C120.242 35.2891 116.047 53.6568 113.407 75.7013C109.245 110.464 124.103 142.537 116.566 147.417C111.284 150.826 101.641 115.261 98.5655 103.044C96.0084 92.9157 99.2508 76.6038 91.1784 49.2278C80.1478 11.8407 61.0614 28.6373 67.6631 49.278C72.7104 65.0217 64.0364 92.2472 70.0364 114.342C75.9194 135.969 89.6742 172.854 87.5516 185.406C85.7801 195.902 90.6436 221.356 84.209 222.024C77.7745 222.693 64.7049 197.523 57.2676 184.169C42.5601 157.696 32.0142 159.801 18.9446 161.59C2.79975 163.796 -4.18629 175.311 5.27329 179.122C17.9418 184.219 29.3401 178.821 45.1005 230.765C48.3762 241.562 54.4932 255.35 63.418 267.801C75.6854 284.899 98.3984 302.447 105.669 321.35C109.864 332.263 115.63 375.166 120.059 420.976H120.042Z" fill="#DCC1B2" stroke="#E6BCA5" stroke-width="0.75" stroke-miterlimit="10"/>
<path d="M175.853 376.69C175.97 378.01 178.076 394.941 181.235 420.996H199.485C195.859 393.637 193.519 375.236 193.385 372.428C192.7 359.375 197.964 342.311 191.747 337.715C185.781 333.303 186.516 345.955 182.271 344.25C170.906 339.704 164.772 345.37 165.758 350.233C167.48 358.757 175.084 367.865 175.87 376.673L175.853 376.69Z" fill="#FFFBF5"/>
<path d="M128.381 420.983H154.938C154.587 409.318 154.587 401.145 154.938 397.652C158.097 366.699 165.685 351.156 161.607 344.672C157.529 338.187 146.214 342.232 139.094 338.889C127.98 333.691 123.083 323.012 116.582 326.505C104.315 333.073 119.824 359.362 123.401 380.605C124.019 384.265 125.858 399.156 128.381 421V420.983Z" fill="#FFFBF5"/>
<path d="M66.3861 251.203C67.8234 253.092 70.6981 257.738 77.9181 267.732C83.5504 275.52 84.9543 281.42 85.7732 283.225C87.3276 286.651 88.6813 293.487 94.5977 291.532C97.7565 290.479 101.734 288.59 102.52 285.883C103.305 283.192 110.575 283.041 109.84 278.679C108.219 269.103 96.3359 273.181 91.9571 267.465C87.6284 261.832 84.2691 257.119 79.0212 248.696C75.9293 243.732 79.4223 229.526 72.8541 227.153C69.4613 225.916 66.1187 227.019 63.8959 228.089C61.6897 229.158 58.9655 231.966 56.9432 236.947C55.3388 240.908 63.595 247.543 66.3861 251.203Z" fill="#FFFBF5"/>
<path d="M111.063 260.366C111.581 266.349 106.4 277.931 113.754 279.87C118.183 281.056 122.478 279.017 124.785 277.329C128.428 274.655 129.682 279.352 132.239 276.744C140.395 268.455 126.957 260.666 125.737 253.814C123.481 241.196 121.175 214.003 119.353 198.678C116.997 178.839 121.459 169.58 115.893 167.14C111.314 165.118 107.737 170.399 104.412 171.118C101.086 171.836 93.7821 168.845 92.7292 174.46C91.6094 180.427 96.9409 186.126 102.573 198.393C108.205 210.627 110.712 256.237 111.08 260.382L111.063 260.366Z" fill="#FFFBF5"/>
<path d="M139.87 252.976C140.07 258.843 136.878 269.104 142.41 272.33C144.299 273.433 148.076 271.595 151.669 270.726C155.463 269.823 155.563 272.965 158.99 270.174C163.836 266.23 156.733 259.043 154.577 252.726C152.003 245.255 148.761 195.116 148.46 183.951C148.21 174.158 155.095 169.712 149.898 164.481C144.733 159.266 141.474 165.634 138.349 165.684C135.224 165.734 126.6 161.99 124.043 168.826C122.254 173.589 129.591 178.486 131.129 182.213C133.368 187.628 139.669 247.11 139.87 252.976Z" fill="#FFFBF5"/>
<path d="M163.925 251.602C163.139 257.184 159.68 259.273 163.925 268.466C165.028 270.872 168.571 268.9 170.961 270.087C173.301 271.24 173.752 274.315 176.71 272.427C183.044 268.415 178.014 262.449 177.078 256.165C175.958 248.694 176.359 207.914 177.93 197.301C179.301 188.009 185.418 180.321 182.56 176.744C178.716 171.948 176.66 176.076 173.802 175.658C170.944 175.223 165.345 171.63 161.953 175.19C158.56 178.733 162.939 188.56 164.526 194.845C167.902 208.315 164.727 246.003 163.941 251.585L163.925 251.602Z" fill="#FFFBF5"/>
<path d="M187.781 275.745C188.416 280.675 193.413 280.859 195.385 280.224C203.959 277.433 199.581 261.923 200.483 255.455C201.67 246.798 205.179 225.322 206.968 212.035C208.255 202.441 213.051 198.447 211.28 194.102C209.608 189.99 206.466 192.397 203.358 190.575C200.817 189.088 198.711 186.447 194.817 189.522C190.923 192.614 195.787 200.269 195.653 204.23C195.452 210.497 189.035 248.302 187.413 253.867C185.792 259.416 180.243 260.269 182.065 266.051C183.202 269.678 186.929 268.976 187.798 275.762L187.781 275.745Z" fill="#FFFBF5"/>
<path d="M93.4815 152.817C93.565 156.862 89.5706 165.336 94.3171 167.274C101.086 170.032 101.52 164.851 105.264 163.113C108.222 161.726 114.573 165.285 114.991 159.085C115.526 151.129 110.696 152.517 106.351 149.709C101.52 146.6 92.5288 116.283 91.3589 111.403C90.189 106.522 91.3589 99.7869 88.0664 98.0822C84.9411 96.461 84.2224 99.6031 80.5456 101.391C77.955 102.662 73.2921 101.776 72.7071 105.001C71.9049 109.397 76.852 111.653 79.2252 114.244C81.6152 116.851 93.3979 148.739 93.4982 152.817H93.4815Z" fill="#FFFBF5"/>
<path d="M128.011 145.109C127.71 151.343 123.482 154.853 126.089 159.348C128.262 163.109 132.958 162.006 137.303 161.304C141.649 160.585 146.261 160.067 146.897 155.989C147.833 149.922 143.337 150.507 141.448 142.552C139.977 136.301 134.713 105.265 134.596 99.6326C134.462 94.017 137.203 86.9976 134.145 84.2901C131.253 81.7497 129.799 85.0087 125.554 86.0449C122.579 86.7636 117.916 84.641 116.562 88.0171C114.741 92.5964 119.387 96.29 121.292 99.7329C123.197 103.176 128.228 140.613 128.011 145.126V145.109Z" fill="#FFFBF5"/>
<path d="M158.94 165.118C159.575 169.012 163.419 168.21 168.133 170.416C171.826 172.137 173.431 173.959 176.255 170.817C180.066 166.572 175.704 162.343 176.69 155.023C177.475 149.274 183.124 121.38 184.862 116.617C186.6 111.853 191.263 106.839 189.509 103.564C187.854 100.455 185.531 102.728 181.52 102.193C178.712 101.809 175.386 98.4828 173.113 100.873C170.038 104.115 172.829 108.761 173.347 112.288C173.865 115.798 166.144 149.424 164.472 153.151C162.166 158.299 158.172 160.472 158.924 165.118H158.94Z" fill="#FFFBF5"/>
<path d="M201.479 183.978C204.571 187.588 210.002 188.758 212.693 185.432C214.849 182.774 212.108 177.627 213.278 172.028C214.197 167.632 220.248 146.423 221.936 142.847C223.624 139.27 226.364 137.816 225.612 134.925C224.844 132 222.37 133.187 219.813 132.351C217.507 131.616 216.42 128.574 213.312 129.644C210.186 130.73 212.058 135.978 212.342 138.735C212.626 141.493 204.37 166.663 202.782 169.454C200.593 173.281 193.958 172.128 194.209 177.944C194.426 182.958 199.657 181.889 201.479 183.994V183.978Z" fill="#FFFBF5"/>
<path d="M75.726 86.5085C75.1912 88.514 72.3166 91.255 73.7706 94.7146C75.7762 99.4945 84.9516 97.9402 87.5589 95.3664C89.8151 93.1269 87.8931 89.1826 87.1745 86.943C86.4558 84.7202 86.2887 73.3052 86.8736 69.5949C87.4586 65.9013 90.1828 64.0294 88.2775 60.9542C86.9906 58.8651 84.6174 60.4528 81.843 60.2857C79.4865 60.1353 77.1968 58.347 75.4921 59.7007C72.9182 61.723 75.6258 65.567 75.726 68.1241C75.8263 70.6645 76.545 83.3831 75.726 86.5419V86.5085Z" fill="#FFFBF5"/>
<path d="M37.8126 196.544C39.3502 199.135 47.9742 217.753 48.86 221.53C49.4282 223.903 47.1719 228.165 50.6315 230.99C55.4115 234.884 64.2193 228.249 65.5062 224.104C66.6092 220.527 62.3975 217.485 60.392 215.547C58.3697 213.608 50.6315 195.291 49.1775 191.079C47.7235 186.901 49.7458 180.6 45.1329 179.848C42.2583 179.396 41.6734 182.789 38.665 184.109C36.1079 185.246 32.6817 184.661 31.6455 186.967C30.0745 190.477 36.275 193.937 37.7959 196.544H37.8126Z" fill="#FFFBF5"/>
<path d="M122.008 66.7951C121.089 69.3188 117.529 72.5945 118.465 77.1238C119.752 83.3912 129.847 82.1377 133.072 78.9956C135.88 76.2881 134.526 71.1071 134.142 68.199C133.757 65.2909 135.93 56.5166 137.217 51.8202C138.504 47.1238 141.746 44.9512 140.259 40.8565C139.256 38.0988 136.431 39.9372 133.507 39.5027C131.016 39.135 128.877 36.6782 126.821 38.2492C123.73 40.6392 125.919 45.7701 125.585 49.0459C125.25 52.3049 123.445 62.784 121.991 66.7784L122.008 66.7951Z" fill="#FFFBF5"/>
<path d="M173.197 96.7307C175.955 100.759 183.609 97.0984 185.314 94.0232C186.785 91.3491 184.295 88.0901 183.192 86.1681C182.088 84.2293 179.899 68.0177 179.632 64.3575C179.364 60.7141 181.336 58.2907 179.013 55.8506C177.459 54.196 175.721 56.2517 173.281 56.7531C171.208 57.1876 168.835 56.0511 167.632 57.7225C165.827 60.2461 168.985 63.2378 169.62 65.6277C170.256 68.0177 173.197 85.3157 173.147 88.5246C173.114 90.5302 171.192 93.8226 173.18 96.7307H173.197Z" fill="#FFFBF5"/>
<path d="M225.31 126.255C227.148 123.681 224.006 121.742 223.02 119.102C222.402 117.48 220.58 105.347 220.446 102.472C220.296 99.5808 222.402 96.4554 220.496 94.5668C219.21 93.2967 217.705 94.968 215.633 95.4359C213.878 95.837 211.889 95.0014 210.836 96.3552C209.249 98.4109 211.856 100.684 212.34 102.556C212.808 104.428 215.416 117.815 215.683 120.422C215.95 123.046 213.561 124.65 215.182 126.923C217.421 130.049 223.605 128.628 225.327 126.238L225.31 126.255Z" fill="#FFFBF5"/>
<path d="M85.1545 53.9052C86.8926 51.8328 83.8174 48.8579 82.7645 46.5849C81.7283 44.3119 79.0542 35.6378 75.745 36.4735C72.0347 37.4094 75.3606 45.8161 75.1601 48.5236C74.9428 51.2479 73.6058 53.6378 75.7116 55.8607C77.2826 57.5153 83.4163 55.9943 85.1545 53.9052Z" fill="#FFFBF5"/>
<path d="M138.077 31.4637C139.965 28.6726 135.954 25.5306 134.383 22.9066C132.812 20.266 128.784 7.63089 124.773 9.11835C120.294 10.7729 125.893 22.7562 125.977 26.1322C126.06 29.4916 124.706 32.6169 127.614 35.0403C129.77 36.862 136.188 34.2548 138.093 31.4804L138.077 31.4637Z" fill="#FFFBF5"/>
<path d="M33.8393 182.716C36.3964 181.914 37.2989 174.042 35.7111 170.85C34.1067 167.641 29.3936 169.396 26.3685 169.245C23.3435 169.095 12.363 167.023 11.8783 171.284C11.3435 176.048 22.2906 177.201 25.2822 179.039C28.2738 180.878 30.4131 183.819 33.8393 182.733V182.716Z" fill="#FFFBF5"/>
<path d="M176.295 52.6003C178.835 51.4805 178.134 46.6003 178.618 43.6588C179.103 40.7173 181.978 30.2215 178.919 29.1686C175.493 27.982 173.287 38.5613 171.565 41.2354C169.844 43.9095 167.42 45.6143 167.805 49.124C168.089 51.7312 173.755 53.7201 176.295 52.5836V52.6003Z" fill="#FFFBF5"/>
<path d="M218.699 90.2855C220.588 88.7813 218.516 85.2214 218.064 82.8315C217.613 80.4415 216.995 71.6671 213.986 71.6504C210.644 71.6337 211.881 80.3078 211.179 82.798C210.477 85.3217 208.872 87.227 210.243 89.8342C211.262 91.7729 216.811 91.8063 218.699 90.2855Z" fill="#FFFBF5"/>
<path d="M168.394 316.422C169.212 312.795 174.176 311.458 175.614 309.202C177.051 306.946 180.16 298.456 184.288 299.91C188.416 301.347 193.38 307.13 192.343 314.784C191.307 322.422 182.633 331.932 177.469 328.422C174.561 326.45 167.357 320.985 168.377 316.439L168.394 316.422Z" fill="#FFFBF5"/>
<path d="M160.389 316.803C163.949 316.402 174.796 327.667 174.997 332.798C175.197 337.929 165.119 338.129 162.161 338.129C159.203 338.129 155.643 338.714 151.899 337.143C149.576 336.157 146.183 326.631 148.155 323.672C150.128 320.714 157.532 317.121 160.389 316.803Z" fill="#FFFBF5"/>
<path d="M162.833 279.735C163.685 276.309 166.944 275.841 169.786 275.974C172.643 276.108 172.042 274.019 175.134 274.52C176.939 274.821 188.404 277.829 184.71 286.37C181.017 294.91 178.393 297.3 177.992 299.49C177.574 301.679 174.415 311.54 167.981 312.125C161.546 312.71 164.705 295.646 164.287 293.69C163.568 290.231 161.496 285.15 162.833 279.751V279.735Z" fill="#FFFBF5"/>
<path d="M140.162 278.077C143.003 276.64 149.237 277.359 150.992 274.016C152.747 270.673 160.919 273.899 160.318 275.888C159.716 277.877 157.928 286.551 159.348 292.099C160.769 297.648 164.546 315.448 158.83 315.464C153.114 315.481 149.906 322.751 145.126 317.921C140.329 313.074 132.039 301.091 133.844 298.935C135.582 296.863 134.998 289.008 134.245 286.35C133.293 283.024 139.025 278.662 140.162 278.094V278.077Z" fill="#FFFBF5"/>
<path d="M127.955 283.846C124.679 281.473 120.735 279.785 115.27 284.699C113.883 285.936 112.713 283.094 109.888 283.328C107.064 283.562 104.256 291.083 100.546 292.805C96.8355 294.526 96.3174 294.309 97.9385 300.509C100.011 308.431 103.437 308.164 111.409 309.117C119.315 310.069 113.348 303.083 122.072 303.367C132.2 303.702 132.869 294.376 131.131 290.465C129.677 287.206 129.459 284.933 127.955 283.846Z" fill="#FFFBF5"/>
<path d="M130.011 305.581C133.521 306.3 134.139 315.542 138.836 318.734C143.532 321.927 145.22 324.751 143.164 330.383C141.109 336.016 136.212 336.216 128.323 330.199C120.435 324.183 116.825 318.032 118.747 314.606C121.371 309.91 122.691 304.077 130.028 305.581H130.011Z" fill="#FFFBF5"/>
</svg>
