<svg width="40" height="40" viewBox="0 0 40 40" fill="none" xmlns="http://www.w3.org/2000/svg">
<mask id="mask0_291_9864" style="mask-type:luminance" maskUnits="userSpaceOnUse" x="0" y="0" width="41" height="40">
<path d="M20.0003 40C31.046 40 40.0003 31.0457 40.0003 20C40.0003 8.9543 31.046 0 20.0003 0C8.95461 0 0.000305176 8.9543 0.000305176 20C0.000305176 31.0457 8.95461 40 20.0003 40Z" fill="white"/>
</mask>
<g mask="url(#mask0_291_9864)">
<path d="M-2.56805 -2.57031L-2.49983 42.591H15.0219V42.5776H30.6036V42.591H42.5903V-2.57031H-2.56805Z" fill="#F5F8FC"/>
<path d="M28.8673 14.7555C28.2429 12.292 26.346 11.2968 25.1373 10.7555C21.7394 9.23376 21.4977 9.23673 17.428 7.34722C10.4083 4.08879 2.98674 2.53892 -2.92947 1.99609L-9.77411 3.30125L-6.2057 21.6372C-3.90685 21.5956 -1.61541 21.3287 0.251844 21.127C11.7461 19.8782 18.5581 19.3057 18.0954 20.6123C16.369 25.4829 12.4624 27.9953 17.4131 44.0769L29.2559 41.8166C28.897 30.6338 29.0676 26.1592 29.204 23.8767C29.3464 21.477 29.3301 21.2827 29.2559 18.5938C29.2055 16.8051 29.3508 16.645 28.8703 14.754L28.8673 14.7555Z" fill="#E6BCA5"/>
<path d="M27.4246 18.7683C26.6534 17.7494 25.8659 17.5254 24.9152 18.04C24.3026 18.3723 23.0835 18.6214 22.7023 18.6051C21.9222 18.571 21.0264 18.5755 20.9167 19.3749C20.6363 21.4423 21.9 22.4004 22.3716 23.0782C22.9634 23.9296 23.1132 26.3604 23.2303 27.4728C23.3342 28.4546 23.5181 33.7197 24.1083 42.7979L28.224 42.0119C27.8562 35.1346 27.4928 25.8472 28.1499 23.3749C28.8544 20.7245 27.8117 19.2785 27.4246 18.7668V18.7683Z" fill="#FFFBF5"/>
<path d="M22.3495 43.1348L23.4886 42.9168C22.7351 33.5419 22.0484 24.9294 22.047 24.5912C22.0455 23.8452 22.2872 23.9802 22.2249 23.5515C22.1523 23.0517 21.6569 22.7417 21.3959 22.3991C20.7848 21.5983 20.5267 21.1133 20.2627 21.5152C19.6324 22.4703 20.3814 23.1867 20.6202 24.0143C20.7314 24.3969 21.5308 33.4262 22.3495 43.1363V43.1348Z" fill="#FFFBF5"/>
<path d="M25.4702 13.8583C25.1113 12.8379 25.0386 12.344 24.042 11.6885C23.7617 11.5031 23.3998 11.1234 20.3178 11.0136C18.3838 10.9454 4.32228 8.20756 -9.17865 6.42188L-8.39704 10.5168C0.669329 11.6351 15.3538 13.8479 18.6374 15.0611C19.8595 15.5135 21.0208 16.8765 21.0861 17.3169C21.3442 19.0403 25.9819 18.2246 26.1124 15.9436C26.1688 14.9425 25.6793 14.456 25.4702 13.8612V13.8583Z" fill="#FFFBF5" stroke="#E6BCA5" stroke-width="0.12" stroke-miterlimit="10"/>
<path d="M26.9548 13.3048C26.7501 13.2722 26.3482 13.2307 26.2073 13.3686C25.8261 13.7409 26.4846 14.5492 26.6537 15.1943C26.8495 15.9433 26.756 16.2281 26.8421 16.3526C27.0497 16.6522 27.3641 17.5911 27.686 17.5154C27.8743 17.4709 28.475 17.2751 28.653 16.9147C28.8131 16.5914 28.6886 15.6941 28.6144 15.2714C28.5136 14.6975 28.3697 14.1176 27.8921 13.6341C27.6163 13.3552 27.1283 13.33 26.9548 13.3033V13.3048Z" fill="#FFFBF5" stroke="#E6BCA5" stroke-width="0.12" stroke-miterlimit="10"/>
</g>
<path style="mix-blend-mode:multiply" d="M24.8048 28.585C30.7761 28.585 35.6168 23.7443 35.6168 17.773C35.6168 11.8016 30.7761 6.96094 24.8048 6.96094C18.8334 6.96094 13.9927 11.8016 13.9927 17.773C13.9927 23.7443 18.8334 28.585 24.8048 28.585Z" fill="url(#paint0_radial_291_9864)"/>
<defs>
<radialGradient id="paint0_radial_291_9864" cx="0" cy="0" r="1" gradientUnits="userSpaceOnUse" gradientTransform="translate(24.8048 17.773) scale(10.812)">
<stop stop-color="#FF3030"/>
<stop offset="0.11" stop-color="#FF5959"/>
<stop offset="0.27" stop-color="#FF8B8B"/>
<stop offset="0.42" stop-color="#FFB5B5"/>
<stop offset="0.57" stop-color="#FFD5D5"/>
<stop offset="0.71" stop-color="#FFECEC"/>
<stop offset="0.85" stop-color="#FFFAFA"/>
<stop offset="0.96" stop-color="white"/>
</radialGradient>
</defs>
</svg>
