<svg width="18" height="24" viewBox="0 0 18 24" fill="none" xmlns="http://www.w3.org/2000/svg">
<path d="M15.4261 3.43185H13.7121C13.7121 2.97726 13.5315 2.5413 13.2101 2.21986C12.8886 1.89842 12.4527 1.71783 11.9981 1.71783H10.9954C10.8187 1.21564 10.4905 0.780665 10.0561 0.472961C9.62166 0.165258 9.10243 0 8.57006 0C8.0377 0 7.51846 0.165258 7.08403 0.472961C6.6496 0.780665 6.3214 1.21564 6.14474 1.71783H5.14204C4.68745 1.71783 4.25149 1.89842 3.93005 2.21986C3.60861 2.5413 3.42803 2.97726 3.42803 3.43185H1.71401C1.25943 3.43185 0.823462 3.61243 0.502023 3.93387C0.180583 4.25531 0 4.69128 0 5.14586V22.286C0 22.7406 0.180583 23.1765 0.502023 23.498C0.823462 23.8194 1.25943 24 1.71401 24H15.4261C15.8807 24 16.3167 23.8194 16.6381 23.498C16.9595 23.1765 17.1401 22.7406 17.1401 22.286V5.14586C17.1401 4.69128 16.9595 4.25531 16.6381 3.93387C16.3167 3.61243 15.8807 3.43185 15.4261 3.43185ZM5.14204 3.43185H6.85605C7.08334 3.43185 7.30133 3.34156 7.46205 3.18084C7.62277 3.02012 7.71306 2.80213 7.71306 2.57484C7.71306 2.34755 7.80335 2.12957 7.96407 1.96885C8.12479 1.80813 8.34277 1.71783 8.57006 1.71783C8.79736 1.71783 9.01534 1.80813 9.17606 1.96885C9.33678 2.12957 9.42707 2.34755 9.42707 2.57484C9.42707 2.80213 9.51736 3.02012 9.67808 3.18084C9.8388 3.34156 10.0568 3.43185 10.2841 3.43185H11.9981V5.14586H5.14204V3.43185ZM15.4261 22.286H1.71401V5.14586H3.42803C3.42803 5.60044 3.60861 6.03641 3.93005 6.35785C4.25149 6.67929 4.68745 6.85987 5.14204 6.85987H11.9981C12.4527 6.85987 12.8886 6.67929 13.2101 6.35785C13.5315 6.03641 13.7121 5.60044 13.7121 5.14586H15.4261V22.286Z" fill="black"/>
<path d="M7.71304 12.0022V12.8593C7.71304 13.0865 7.80333 13.3045 7.96405 13.4652C8.12477 13.626 8.34275 13.7163 8.57004 13.7163C8.79733 13.7163 9.01532 13.626 9.17604 13.4652C9.33676 13.3045 9.42705 13.0865 9.42705 12.8593V12.0022H10.2841C10.5113 12.0022 10.7293 11.912 10.8901 11.7512C11.0508 11.5905 11.1411 11.3725 11.1411 11.1452C11.1411 10.9179 11.0508 10.7 10.8901 10.5392C10.7293 10.3785 10.5113 10.2882 10.2841 10.2882H9.42705V9.43123C9.42705 9.20393 9.33676 8.98595 9.17604 8.82523C9.01532 8.66451 8.79733 8.57422 8.57004 8.57422C8.34275 8.57422 8.12477 8.66451 7.96405 8.82523C7.80333 8.98595 7.71304 9.20393 7.71304 9.43123V10.2882H6.85603C6.62874 10.2882 6.41075 10.3785 6.25003 10.5392C6.08932 10.7 5.99902 10.9179 5.99902 11.1452C5.99902 11.3725 6.08932 11.5905 6.25003 11.7512C6.41075 11.912 6.62874 12.0022 6.85603 12.0022H7.71304Z" fill="black"/>
<path d="M4.28572 15.4302C4.11622 15.4302 3.95052 15.4804 3.80959 15.5746C3.66866 15.6688 3.55881 15.8026 3.49395 15.9592C3.42908 16.1158 3.41211 16.2881 3.44518 16.4544C3.47825 16.6206 3.55987 16.7733 3.67972 16.8932C3.79958 17.013 3.95228 17.0947 4.11852 17.1277C4.28477 17.1608 4.45708 17.1438 4.61368 17.079C4.77028 17.0141 4.90412 16.9042 4.99829 16.7633C5.09246 16.6224 5.14272 16.4567 5.14272 16.2872C5.14272 16.0599 5.05243 15.8419 4.89171 15.6812C4.73099 15.5205 4.51301 15.4302 4.28572 15.4302Z" fill="black"/>
<path d="M4.28572 18.8579C4.11622 18.8579 3.95052 18.9082 3.80959 19.0023C3.66866 19.0965 3.55881 19.2304 3.49395 19.387C3.42908 19.5436 3.41211 19.7159 3.44518 19.8821C3.47825 20.0484 3.55987 20.2011 3.67972 20.3209C3.79958 20.4408 3.95228 20.5224 4.11852 20.5555C4.28477 20.5885 4.45708 20.5716 4.61368 20.5067C4.77028 20.4418 4.90412 20.332 4.99829 20.191C5.09246 20.0501 5.14272 19.8844 5.14272 19.7149C5.14272 19.4876 5.05243 19.2696 4.89171 19.1089C4.73099 18.9482 4.51301 18.8579 4.28572 18.8579Z" fill="black"/>
<path d="M12.855 15.4302H7.71296C7.48567 15.4302 7.26769 15.5205 7.10697 15.6812C6.94625 15.8419 6.85596 16.0599 6.85596 16.2872C6.85596 16.5145 6.94625 16.7325 7.10697 16.8932C7.26769 17.0539 7.48567 17.1442 7.71296 17.1442H12.855C13.0823 17.1442 13.3003 17.0539 13.461 16.8932C13.6217 16.7325 13.712 16.5145 13.712 16.2872C13.712 16.0599 13.6217 15.8419 13.461 15.6812C13.3003 15.5205 13.0823 15.4302 12.855 15.4302Z" fill="black"/>
<path d="M12.855 18.8579H7.71296C7.48567 18.8579 7.26769 18.9482 7.10697 19.1089C6.94625 19.2696 6.85596 19.4876 6.85596 19.7149C6.85596 19.9422 6.94625 20.1602 7.10697 20.3209C7.26769 20.4816 7.48567 20.5719 7.71296 20.5719H12.855C13.0823 20.5719 13.3003 20.4816 13.461 20.3209C13.6217 20.1602 13.712 19.9422 13.712 19.7149C13.712 19.4876 13.6217 19.2696 13.461 19.1089C13.3003 18.9482 13.0823 18.8579 12.855 18.8579Z" fill="black"/>
</svg>
