<svg width="40" height="40" viewBox="0 0 40 40" fill="none" xmlns="http://www.w3.org/2000/svg">
<g opacity="0.8">
<mask id="mask0_291_10349" style="mask-type:luminance" maskUnits="userSpaceOnUse" x="0" y="0" width="40" height="40">
<path d="M20 40C31.0457 40 40 31.0457 40 20C40 8.95431 31.0457 0 20 0C8.95431 0 0 8.95431 0 20C0 31.0457 8.95431 40 20 40Z" fill="white"/>
</mask>
<g mask="url(#mask0_291_10349)">
<path d="M38.9323 -0.986328H1.18773C0.206258 -0.986328 -0.589386 -0.190685 -0.589386 0.790792V39.1988C-0.589386 40.1803 0.206258 40.9759 1.18773 40.9759H38.9323C39.9137 40.9759 40.7094 40.1803 40.7094 39.1988V0.790792C40.7094 -0.190685 39.9137 -0.986328 38.9323 -0.986328Z" fill="#F5F8FC"/>
<path d="M29.6157 17.8896C29.4809 17.7311 29.3403 17.5653 29.204 17.3964L29.0604 17.2172C28.308 16.2813 27.8104 15.6637 27.7557 15.1943C27.7305 14.9766 27.7172 14.6715 27.7009 14.319C27.6564 13.3165 27.5942 11.9451 27.1959 11.0743C26.6124 9.8022 24.9212 8.34941 22.8893 7.37643C20.4591 6.21242 17.9015 5.87329 15.6875 6.41975C13.0589 7.06988 11.027 8.54637 9.80823 10.6937C8.57609 12.8663 8.31249 15.4979 9.06628 18.1043C9.86302 20.8544 10.8093 21.8763 11.6461 22.7767C12.2192 23.3957 12.7153 23.9288 13.0559 24.9255C13.6394 26.63 13.555 29.6008 11.9911 32.0932C11.7808 32.4294 11.5276 32.7966 11.2358 33.2202C9.9815 35.0403 8.12885 37.7326 7.11145 41.8141C7.62978 41.7711 8.15551 41.7578 8.69012 41.7785C10.3488 41.7844 11.9437 42.0258 13.4765 42.5027C14.9663 41.9577 16.5376 41.7148 18.1903 41.7785C19.4713 41.7829 20.7138 41.9281 21.9193 42.2139C21.9726 42.2139 22.0244 42.2154 22.0763 42.2169C23.1529 42.2198 24.2029 42.325 25.2247 42.5264C26.2955 42.2761 27.4047 42.1724 28.5539 42.2169C28.816 42.2169 29.0766 42.2272 29.3373 42.2391C27.7586 39.7215 26.0807 37.3579 24.93 35.7378C24.114 34.5886 23.5246 33.7593 23.4239 33.5164C22.9782 32.4383 22.7723 30.0125 23.187 29.4882C23.3825 29.2394 24.2281 29.2024 25.1226 29.1639C26.1103 29.121 27.2314 29.0721 27.9171 28.73C29.321 28.0325 29.2203 26.402 29.1833 25.7889C29.1788 25.7133 29.1744 25.6541 29.1744 25.6112C29.1744 25.4053 29.3284 25.2158 29.4795 25.0321C29.5905 24.8959 29.6957 24.767 29.7445 24.6278C29.8586 24.3035 29.7979 24.0429 29.5802 23.8874C29.6957 23.8029 29.786 23.6859 29.8304 23.5571C29.8808 23.4105 29.8689 23.2594 29.7964 23.1336C29.7194 22.9988 29.6276 22.9366 29.5476 22.8818C29.3684 22.7589 29.1833 22.6315 29.1611 21.4409C29.6883 21.3002 30.5161 20.9596 30.6775 20.1984C30.8567 19.3513 30.2821 18.673 29.6157 17.8881V17.8896Z" fill="#E6BCA5"/>
<g opacity="0.69">
<path d="M18.5529 21.7793C17.6821 18.0296 15.5451 18.2339 15.948 22.2206V22.2236C15.9672 22.4042 16.1168 22.542 16.296 22.5405C16.9032 22.539 17.5785 22.5716 18.3071 22.6545C18.5203 22.6782 18.698 22.4857 18.6566 22.271C18.624 22.1051 18.5899 21.9407 18.5514 21.7793H18.5529Z" fill="#FFFBF5"/>
</g>
<path d="M15.8059 36.8532C14.8714 36.4475 14.011 36.1616 13.272 35.9765C13.1772 35.9528 13.078 36.0032 13.0395 36.0965C13.0143 36.1572 12.9892 36.2179 12.964 36.2801C12.9166 36.3971 12.9832 36.5274 13.1047 36.5585C13.9162 36.7599 14.7633 37.0665 15.5719 37.4204C15.7289 37.4886 15.9081 37.4086 15.9688 37.2472C15.9688 37.2457 15.9688 37.2427 15.9703 37.2412C16.028 37.0887 15.954 36.9184 15.8059 36.8547V36.8532Z" fill="#FFFBF5" stroke="#E6BCA5" stroke-width="0.69" stroke-miterlimit="10"/>
<path d="M14.9721 39.1478C14.0332 38.7213 13.1624 38.4118 12.4042 38.2059C12.3049 38.1793 12.2013 38.2341 12.1657 38.3318C12.1435 38.394 12.1198 38.4547 12.0976 38.5169C12.0561 38.6295 12.1213 38.7539 12.2353 38.785C13.0647 39.013 13.9206 39.3418 14.7292 39.7106C14.8877 39.7831 15.0743 39.7017 15.132 39.5358C15.132 39.5343 15.132 39.5314 15.1335 39.5299C15.1854 39.3788 15.1158 39.2145 14.9721 39.1493V39.1478Z" fill="#FFFBF5" stroke="#E6BCA5" stroke-width="0.69" stroke-miterlimit="10"/>
<path d="M16.6842 34.5811C15.6623 34.2805 14.7264 34.0909 13.9193 33.9902C13.8571 34.1413 13.7919 34.2953 13.7267 34.4523C14.6538 34.5604 15.6312 34.7811 16.5494 35.0521C16.6708 35.0876 16.7997 35.0224 16.8426 34.901C16.8426 34.8995 16.8426 34.898 16.8441 34.8966C16.89 34.7633 16.816 34.6196 16.6842 34.5811Z" fill="#FFFBF5" stroke="#E6BCA5" stroke-width="0.69" stroke-miterlimit="10"/>
<path d="M17.3506 32.489C16.4042 32.2106 15.5334 32.03 14.7708 31.9248C14.71 32.0744 14.6478 32.2284 14.5842 32.3869C15.452 32.5009 16.3583 32.7097 17.2143 32.9615C17.3506 33.0014 17.4912 32.9155 17.5179 32.7749C17.5179 32.7734 17.5179 32.7719 17.5179 32.7704C17.5401 32.6475 17.469 32.5246 17.3506 32.4905V32.489Z" fill="#FFFBF5" stroke="#E6BCA5" stroke-width="0.69" stroke-miterlimit="10"/>
<path d="M17.8363 30.6965C17.0366 30.4581 16.2872 30.2893 15.6134 30.1782C15.5186 30.1634 15.4268 30.2182 15.3942 30.3085C15.3853 30.3322 15.3764 30.3559 15.3676 30.3811C15.3231 30.5025 15.3987 30.6328 15.5245 30.6536C16.2517 30.7765 16.9936 30.9572 17.6985 31.1674C17.8318 31.2074 17.9681 31.126 18.0007 30.9897C18.0007 30.9883 18.0007 30.9868 18.0007 30.9853C18.0303 30.8609 17.9562 30.7335 17.8348 30.6965H17.8363Z" fill="#FFFBF5" stroke="#E6BCA5" stroke-width="0.69" stroke-miterlimit="10"/>
<path d="M18.205 29.0818C17.389 28.8419 16.6293 28.6716 15.9451 28.5635C15.9066 28.716 15.8637 28.8715 15.8163 29.0329C16.5671 29.1544 17.3357 29.338 18.0673 29.5542C18.1976 29.5927 18.3324 29.5142 18.3665 29.3824C18.3665 29.381 18.3665 29.3795 18.3665 29.378C18.399 29.2506 18.3265 29.1203 18.2021 29.0833L18.205 29.0818Z" fill="#FFFBF5" stroke="#E6BCA5" stroke-width="0.69" stroke-miterlimit="10"/>
<path d="M18.4079 27.411C17.7075 27.2451 17.0514 27.1296 16.4516 27.0556C16.3213 27.0393 16.2043 27.1326 16.188 27.2658C16.188 27.2673 16.188 27.2688 16.188 27.2703C16.1732 27.4006 16.265 27.5206 16.3939 27.5369C17.0277 27.6183 17.6719 27.7412 18.2954 27.8908C18.4257 27.9219 18.556 27.8405 18.5857 27.7072C18.5857 27.7057 18.5857 27.7042 18.5857 27.7027C18.6138 27.5724 18.5353 27.4421 18.4065 27.4125L18.4079 27.411Z" fill="#FFFBF5" stroke="#E6BCA5" stroke-width="0.69" stroke-miterlimit="10"/>
<path d="M18.519 25.825C17.7726 25.6887 17.081 25.6073 16.4605 25.5688C16.342 25.5614 16.2443 25.6576 16.2472 25.7776C16.2472 25.8027 16.2472 25.8279 16.2487 25.8531C16.2502 25.9582 16.3331 26.0441 16.4368 26.0501C17.0958 26.0945 17.7741 26.1863 18.4346 26.3077C18.5679 26.3314 18.6937 26.2411 18.7145 26.1063C18.7145 26.1049 18.7145 26.1034 18.7145 26.1019C18.7352 25.9701 18.6478 25.8472 18.519 25.825Z" fill="#FFFBF5" stroke="#E6BCA5" stroke-width="0.69" stroke-miterlimit="10"/>
<path d="M18.519 24.3082C17.7341 24.1675 17.0085 24.0861 16.3628 24.052C16.2399 24.0461 16.1406 24.1512 16.151 24.2741C16.154 24.2993 16.1555 24.3245 16.1569 24.3497C16.1658 24.4504 16.2458 24.5289 16.345 24.5333C17.0307 24.5733 17.7401 24.6651 18.4302 24.791C18.5694 24.8162 18.6982 24.7169 18.713 24.5733C18.713 24.5718 18.713 24.5703 18.713 24.5688C18.7249 24.443 18.639 24.3289 18.5175 24.3067L18.519 24.3082Z" fill="#FFFBF5" stroke="#E6BCA5" stroke-width="0.69" stroke-miterlimit="10"/>
<path d="M18.3383 22.6577C17.5593 22.5688 16.8411 22.5348 16.2013 22.5407C16.0828 22.5407 15.991 22.6458 16.0029 22.7658L16.0103 22.8413C16.0206 22.9465 16.108 23.0235 16.2117 23.0235C16.8751 23.0205 17.6038 23.0649 18.2835 23.1405C18.4183 23.1553 18.5382 23.0546 18.5471 22.9168C18.5471 22.9154 18.5471 22.9124 18.5471 22.9109C18.5545 22.7836 18.4642 22.671 18.3383 22.6562V22.6577Z" fill="#FFFBF5" stroke="#E6BCA5" stroke-width="0.69" stroke-miterlimit="10"/>
<path d="M18.5901 23.1824C18.0214 23.1084 17.4349 23.0565 16.8559 23.0343C16.8026 22.6833 16.4768 22.4656 16.1924 22.4123C15.5245 22.2894 15.4046 23.2372 14.9558 23.4815C14.2909 23.8429 14.513 24.1569 14.9662 23.9717C15.5675 23.7259 15.8148 23.5141 16.0828 23.5467C16.0962 23.677 16.108 23.8044 16.1199 23.9288C16.1258 23.9939 16.1776 24.0443 16.2428 24.0473C16.9284 24.0769 17.7059 24.1613 18.5545 24.3153C18.7441 24.3494 18.9144 24.1924 18.8966 23.9969C18.8803 23.8088 18.8625 23.6222 18.8403 23.4386C18.824 23.3053 18.7204 23.2002 18.5901 23.1824Z" fill="#FFFBF5" stroke="#E6BCA5" stroke-width="0.69" stroke-miterlimit="10"/>
<path d="M18.6553 24.8338C18.1281 24.7316 17.5861 24.6487 17.0485 24.5924C17.0426 24.2563 16.7715 23.9941 16.5124 23.892C15.8785 23.6417 15.5838 24.551 15.0981 24.7035C14.3784 24.9301 14.5383 25.2811 15.0166 25.1863C15.6653 25.0574 15.9467 24.8931 16.2073 24.9893C16.2162 25.1285 16.2251 25.2648 16.2325 25.3966C16.2369 25.4884 16.308 25.561 16.3983 25.5654C17.0381 25.6024 17.7519 25.6839 18.525 25.826C18.7516 25.8675 18.9618 25.6913 18.9604 25.4573C18.9604 25.3699 18.9604 25.2825 18.9574 25.1967C18.9544 25.0189 18.8286 24.8679 18.6568 24.8353L18.6553 24.8338Z" fill="#FFFBF5" stroke="#E6BCA5" stroke-width="0.69" stroke-miterlimit="10"/>
<path d="M18.6997 26.3593C18.171 26.2556 17.6246 26.1682 17.084 26.109C17.0707 25.8261 16.8737 25.5788 16.6649 25.4515C16.0814 25.0975 15.6401 25.9431 15.1381 26.0113C14.3902 26.112 14.4909 26.4852 14.9781 26.4733C15.6934 26.4555 15.9896 26.3237 16.2428 26.5207C16.2399 26.5977 16.2384 26.6762 16.234 26.7532C16.2251 26.9057 16.3332 27.039 16.4828 27.0583C17.0529 27.1294 17.6734 27.239 18.3354 27.393C18.6197 27.4596 18.8922 27.2493 18.913 26.9546C18.9189 26.8554 18.9263 26.7576 18.9307 26.6599C18.9381 26.5163 18.8404 26.3874 18.7012 26.3608L18.6997 26.3593Z" fill="#FFFBF5" stroke="#E6BCA5" stroke-width="0.69" stroke-miterlimit="10"/>
<path d="M18.3813 27.9089C17.9444 27.8038 17.4957 27.709 17.0485 27.6335C17.0707 27.3329 16.8767 27.0544 16.6634 26.9093C16.0977 26.5258 15.6164 27.3477 15.1099 27.3906C14.3591 27.4543 14.4405 27.8305 14.9278 27.8438C15.5616 27.8616 15.8711 27.7712 16.1021 27.8971C16.0933 27.9238 16.0844 27.9489 16.0785 27.9771C16.074 28.0008 16.0696 28.023 16.0651 28.0467C16.0088 28.3266 16.1851 28.6005 16.462 28.6539C16.9774 28.7531 17.5283 28.8849 18.1073 29.0522C18.3991 29.1366 18.6997 28.9397 18.7412 28.6346C18.7486 28.5813 18.756 28.5265 18.7634 28.4732C18.7974 28.214 18.6331 27.9711 18.3828 27.9104L18.3813 27.9089Z" fill="#FFFBF5" stroke="#E6BCA5" stroke-width="0.69" stroke-miterlimit="10"/>
<path d="M18.1533 29.5776C17.7075 29.4444 17.2484 29.3244 16.7864 29.2207C16.779 28.9216 16.6042 28.6417 16.4028 28.4773C15.7867 27.9797 15.1559 28.8861 14.5679 28.889C13.6971 28.892 13.7564 29.3363 14.3162 29.3985C15.0329 29.4769 15.3987 29.4059 15.6535 29.5628C15.6253 29.6487 15.5957 29.7361 15.5661 29.8264C15.5083 29.9968 15.612 30.1789 15.7867 30.21C16.4176 30.3211 17.1077 30.481 17.8438 30.7002C18.1148 30.7802 18.3961 30.6113 18.4524 30.3314C18.4657 30.2692 18.4776 30.2056 18.4894 30.1434C18.5383 29.896 18.3917 29.6517 18.1547 29.5806L18.1533 29.5776Z" fill="#FFFBF5" stroke="#E6BCA5" stroke-width="0.69" stroke-miterlimit="10"/>
<path d="M17.7652 31.1878C17.2987 31.0471 16.816 30.9212 16.3317 30.8146C16.2902 30.5406 16.117 30.2903 15.9185 30.1378C15.2432 29.6165 14.5501 30.5658 13.9044 30.5673C12.9463 30.5702 13.0114 31.0352 13.6275 31.1004C14.365 31.1774 14.7634 31.1167 15.0418 31.244C15.0063 31.3373 14.9692 31.4306 14.9307 31.5269C14.8508 31.7283 14.9752 31.9534 15.1854 31.9875C15.8578 32.0985 16.6012 32.2659 17.398 32.5013C17.6734 32.5828 17.9622 32.4155 18.0348 32.1341C18.0629 32.0275 18.0896 31.9208 18.1162 31.8157C18.1843 31.5447 18.0288 31.2677 17.7652 31.1878Z" fill="#FFFBF5" stroke="#E6BCA5" stroke-width="0.69" stroke-miterlimit="10"/>
<path d="M17.1758 32.9486C16.7419 32.8228 16.2947 32.7087 15.8474 32.611C15.7941 32.3341 15.6105 32.0853 15.4046 31.9298C14.6701 31.3789 13.9163 32.3829 13.2158 32.3844C12.1747 32.3874 12.2458 32.879 12.9152 32.9472C13.6008 33.0168 14.017 32.9797 14.3117 33.0523C14.2613 33.1737 14.211 33.2967 14.1577 33.4225C14.0392 33.7069 14.2154 34.0282 14.5161 34.0786C15.1795 34.1882 15.9141 34.3541 16.6989 34.5851C17.0085 34.6769 17.3328 34.4992 17.4335 34.1882C17.4853 34.0297 17.5342 33.8713 17.5831 33.7158C17.6838 33.3885 17.5001 33.0449 17.1758 32.9501V32.9486Z" fill="#FFFBF5" stroke="#E6BCA5" stroke-width="0.69" stroke-miterlimit="10"/>
<path d="M16.4799 35.0315C15.9334 34.873 15.3692 34.7323 14.8064 34.6227C14.762 34.3325 14.5695 34.0659 14.3622 33.8897C13.7091 33.3417 12.6487 34.0318 12.0134 34.3339C11.147 34.7471 11.2344 35.3439 12.0267 34.9959C12.8161 34.6479 13.1893 34.796 13.4736 35.0581C13.4321 35.1573 13.3907 35.2566 13.3477 35.3587C13.2218 35.6564 13.3833 36 13.6898 36.0874C14.3325 36.2695 15.0523 36.5227 15.8224 36.8574C16.1274 36.9907 16.4814 36.8397 16.6028 36.5257L16.6146 36.4931C16.7035 36.2651 16.7879 36.037 16.8709 35.8119C16.9908 35.4861 16.8087 35.1262 16.4799 35.03V35.0315Z" fill="#FFFBF5" stroke="#E6BCA5" stroke-width="0.69" stroke-miterlimit="10"/>
<path d="M15.6562 37.4537C15.1645 37.236 14.6566 37.0361 14.1516 36.8658C14.1545 36.4896 13.9161 36.1342 13.6555 35.9106C12.9431 35.3019 11.7895 36.0676 11.0979 36.4037C10.1545 36.8613 10.2508 37.5263 11.1127 37.1383C11.908 36.7799 12.3167 36.8954 12.6188 37.1457C12.567 37.276 12.5166 37.4078 12.4648 37.5396C12.3389 37.8654 12.5107 38.2312 12.8409 38.3319C13.4896 38.5304 14.2049 38.7984 14.9661 39.1435C15.28 39.2856 15.6458 39.1272 15.7628 38.7984C15.8324 38.6 15.9035 38.4045 15.9731 38.2105C16.0812 37.9143 15.9435 37.5826 15.6577 37.4567L15.6562 37.4537Z" fill="#FFFBF5" stroke="#E6BCA5" stroke-width="0.69" stroke-miterlimit="10"/>
<path d="M14.8212 39.7495C14.3814 39.5466 13.9252 39.3541 13.4662 39.1838C13.5195 38.6432 13.1033 38.2063 12.702 37.9961C11.8179 37.5325 10.8108 38.6462 10.1755 39.1823C9.31214 39.9139 9.57279 40.5936 10.3695 39.9598C10.993 39.4637 11.4106 39.3985 11.7498 39.5036C11.6639 39.7569 11.5765 40.0116 11.4936 40.2693C11.3766 40.6351 11.5854 41.0246 11.9512 41.1223C12.585 41.2926 13.287 41.5266 14.0348 41.8317C14.3962 41.9798 14.802 41.7813 14.9145 41.4022C14.9989 41.1179 15.0848 40.8365 15.1722 40.5581C15.2729 40.2367 15.1233 39.8887 14.8212 39.7495Z" fill="#FFFBF5" stroke="#E6BCA5" stroke-width="0.69" stroke-miterlimit="10"/>
<path d="M27.3853 15.3501C27.064 14.072 27.2373 12.0639 26.8478 11.3501C26.5619 10.8243 23.7482 8.04758 20.1214 7.17383C20.5316 8.62514 21.589 12.3082 21.9666 13.6588C22.2421 13.2234 23.4016 13.1005 23.8977 13.647C24.1021 13.8721 24.151 14.3016 24.0888 14.7725C24.4146 14.7725 25.2395 14.9265 25.4838 15.1235C25.7963 14.4082 26.3102 13.8573 26.5605 14.1431C26.71 14.3149 26.7945 14.7177 26.833 15.1694C26.8937 15.9054 26.83 16.7658 26.7293 16.9613C26.716 16.9732 26.7041 16.985 26.6893 16.9998C26.6167 17.0724 26.519 17.1316 26.4094 17.1731C26.4094 17.1731 26.4064 17.1746 26.4035 17.1746C26.0525 17.3064 25.5742 17.2545 25.3579 16.8428C25.2987 16.7303 25.2602 16.6044 25.2395 16.4696C24.1999 17.5507 23.1795 18.8836 23.1795 18.8836C23.1795 18.8836 23.0507 19.7736 22.9277 20.7229C22.8211 21.5522 22.7204 22.4274 22.716 22.7947C23.9185 23.2316 27.1143 23.4197 28.847 22.8599C28.7374 22.1238 28.5997 22.1327 28.5893 21.878C28.579 21.6233 28.7952 21.6514 28.9077 21.3108C28.4457 21.3952 28.1821 20.9806 28.1554 20.3912C28.1288 19.8032 28.4975 18.7251 29.1506 17.8706C28.4827 17.2249 27.9303 16.4578 27.3868 15.3501H27.3853Z" fill="#FFFBF5"/>
<path d="M27.4297 15.3344C27.2846 14.7554 27.2416 14.0312 27.2002 13.3307C27.1513 12.5044 27.1054 11.7254 26.8892 11.3285C26.5589 10.7213 23.683 7.98457 20.1332 7.13008L20.0562 7.1123L20.0784 7.18931C20.2531 7.80538 20.5434 8.82426 20.8485 9.89498C21.2705 11.3715 21.7059 12.8968 21.9236 13.6743L21.9517 13.7735L22.0065 13.6862C22.1221 13.504 22.4168 13.3707 22.7751 13.3381C23.1232 13.307 23.5941 13.3811 23.8651 13.6802C24.0443 13.8772 24.1095 14.2741 24.0443 14.7672L24.0369 14.8206H24.0902C24.4086 14.8206 25.2246 14.9746 25.4571 15.1612L25.503 15.1982L25.5267 15.1434C25.7696 14.5866 26.1221 14.1556 26.3664 14.1171C26.4316 14.1068 26.4834 14.126 26.5278 14.1764C26.6537 14.3215 26.747 14.6754 26.7885 15.176C26.8477 15.9002 26.7855 16.7399 26.6922 16.9353C26.6804 16.9457 26.67 16.9575 26.6582 16.9694C26.59 17.036 26.5012 17.0923 26.3975 17.1308L26.3886 17.1338C26.0569 17.2582 25.6052 17.2152 25.3994 16.8243C25.3446 16.7206 25.3061 16.5992 25.2853 16.4659L25.2705 16.3741L25.2068 16.4407C24.1776 17.5114 23.1528 18.8457 23.1424 18.8591L23.135 18.8694V18.8813C23.132 18.8902 23.0032 19.7817 22.8818 20.7206C22.7426 21.8106 22.673 22.4903 22.67 22.7969V22.8309L22.7011 22.8428C23.3705 23.0856 24.6915 23.2545 26.0302 23.2545C27.061 23.2545 28.1021 23.1538 28.8618 22.9079L28.8988 22.8961L28.8929 22.8561C28.8277 22.4163 28.7522 22.24 28.6974 22.1127C28.6619 22.0297 28.6382 21.9749 28.6352 21.8787C28.6308 21.7676 28.6752 21.7217 28.7418 21.6551C28.8099 21.5869 28.8929 21.5025 28.9506 21.3293L28.9758 21.2537L28.8988 21.2671C28.7433 21.2952 28.6085 21.2641 28.4975 21.1738C28.3227 21.0316 28.2176 20.7547 28.2013 20.3918C28.1761 19.8439 28.5138 18.7835 29.1861 17.9024L29.2113 17.8683L29.1817 17.8387C28.4945 17.1752 27.954 16.4022 27.4282 15.3359L27.4297 15.3344ZM28.1095 20.3948C28.1272 20.7843 28.2442 21.0864 28.4412 21.2463C28.5537 21.3381 28.687 21.3796 28.8366 21.3678C28.7892 21.4744 28.7315 21.5321 28.6781 21.5855C28.6056 21.658 28.5375 21.7276 28.5434 21.8802C28.5478 21.9927 28.5774 22.0608 28.613 22.1467C28.6633 22.2667 28.7329 22.4296 28.7951 22.828C27.0728 23.367 23.951 23.1775 22.7633 22.7613C22.7707 22.4429 22.8403 21.778 22.9736 20.7295C23.0876 19.8513 23.2076 19.0146 23.2239 18.9035C23.3172 18.7835 24.2531 17.5736 25.2113 16.5681C25.235 16.6777 25.272 16.7769 25.3179 16.8672C25.5475 17.3056 26.0465 17.3589 26.4138 17.2226H26.4271L26.433 17.2152C26.5456 17.1723 26.6448 17.1101 26.7204 17.0346C26.7337 17.0212 26.747 17.0094 26.7589 16.9975L26.7677 16.9857C26.8803 16.768 26.9351 15.8676 26.8773 15.1686C26.8462 14.8013 26.7722 14.32 26.5945 14.1142C26.5308 14.0401 26.4449 14.0105 26.3501 14.0253C26.0821 14.0682 25.7222 14.4874 25.4645 15.0545C25.1802 14.8768 24.4738 14.7421 24.1406 14.7287C24.1983 14.2252 24.1258 13.8313 23.9318 13.618C23.6815 13.3426 23.2461 13.2034 22.7648 13.2448C22.4271 13.2745 22.1398 13.3929 21.9858 13.5588C21.7607 12.7576 21.3416 11.2885 20.9358 9.86684C20.6426 8.83907 20.3627 7.86018 20.1865 7.23818C23.8473 8.14896 26.5723 10.942 26.8062 11.3715C27.0121 11.7491 27.058 12.5192 27.1054 13.3337C27.1469 14.0401 27.1898 14.7717 27.3394 15.3611L27.3423 15.37C27.8666 16.4348 28.4057 17.2078 29.0869 17.8742C28.4175 18.7672 28.0828 19.8335 28.108 20.3918L28.1095 20.3948Z" fill="#E6BCA5"/>
<path d="M21.9667 13.659C21.9667 13.659 21.9593 13.6694 21.9563 13.6739C21.9326 13.7153 21.9119 13.779 21.8956 13.8605C21.7504 14.5728 21.9222 16.6224 22.759 16.7512C22.7619 16.7512 22.7649 16.7512 22.7678 16.7512C22.8671 16.7646 22.9663 16.7483 23.0611 16.7068C23.4283 16.5883 23.6964 16.1174 23.8711 15.6242C23.8711 15.6198 23.8726 15.6183 23.8741 15.6139C23.9778 15.3429 24.0518 15.0496 24.0888 14.7727C24.151 14.3018 24.1022 13.8738 23.8978 13.6472C23.4017 13.1007 22.2421 13.2236 21.9667 13.659Z" fill="#FFFBF5"/>
<path d="M22.7663 13.2445C22.3798 13.2786 22.0599 13.4281 21.9311 13.631C21.9266 13.637 21.9207 13.6444 21.9177 13.6518C21.8926 13.6977 21.8703 13.7643 21.8511 13.8517C21.7415 14.3952 21.8126 15.7932 22.2613 16.4478C22.4005 16.6521 22.5664 16.7691 22.7619 16.7988C22.787 16.8017 22.8122 16.8047 22.8374 16.8047C22.9174 16.8047 22.9973 16.7869 23.0743 16.7528C23.4905 16.6196 23.76 16.0746 23.9125 15.6407L23.9155 15.6318C24.0207 15.3563 24.0962 15.0616 24.1332 14.7802C24.2028 14.2515 24.1302 13.8384 23.9303 13.6177C23.68 13.3423 23.2446 13.203 22.7633 13.2445H22.7663ZM24.0444 14.7669C24.0073 15.0409 23.9348 15.3282 23.8341 15.5933C23.8296 15.6007 23.8281 15.6081 23.8281 15.6081C23.683 16.0213 23.4283 16.5396 23.0432 16.664C22.9529 16.704 22.8626 16.7173 22.7678 16.704C22.6078 16.6788 22.4627 16.5736 22.3383 16.393C21.9044 15.7591 21.8348 14.3982 21.9429 13.8695C21.9592 13.791 21.977 13.7332 21.9977 13.6977C21.9992 13.6947 22.0021 13.6903 22.0066 13.6843C22.1221 13.5022 22.4168 13.3689 22.7752 13.3363C22.8226 13.3319 22.8729 13.3304 22.9233 13.3304C23.2476 13.3304 23.6312 13.4207 23.8652 13.6799C24.0444 13.8769 24.1095 14.2738 24.0444 14.7669Z" fill="#E6BCA5"/>
<path d="M26.1561 23.386C26.1517 23.5474 26.1472 23.6985 26.1502 23.7503C26.1561 23.854 26.1828 23.9547 26.4508 23.9547C26.4627 23.9547 26.4745 23.9547 26.4878 23.9547C26.7944 23.9458 26.8003 23.7932 26.8062 23.6688C26.8092 23.58 26.8151 23.3638 26.8181 23.1846C26.6019 23.1964 26.3812 23.2038 26.1606 23.2053C26.1591 23.2631 26.1576 23.3253 26.1561 23.386Z" fill="#FFFBF5"/>
<path d="M25.4527 23.3177C25.4482 23.4777 25.4438 23.6302 25.4468 23.6806C25.4527 23.7842 25.4793 23.8864 25.7459 23.8864C25.7578 23.8864 25.7711 23.8864 25.7844 23.8864C26.091 23.8775 26.0969 23.725 26.1028 23.6006C26.1058 23.5265 26.1102 23.3636 26.1132 23.2067C25.8925 23.2081 25.6719 23.2052 25.4556 23.1963C25.4556 23.2363 25.4542 23.2777 25.4527 23.3177Z" fill="#FFFBF5"/>
<path d="M24.6649 23.2274C24.6589 23.3933 24.656 23.5502 24.6589 23.6036C24.6649 23.7072 24.696 23.8094 24.9966 23.8094C25.0099 23.8094 25.0232 23.8094 25.0381 23.8094C25.3816 23.799 25.389 23.648 25.3964 23.5221C25.4009 23.4599 25.4038 23.3296 25.4068 23.1948C25.155 23.1859 24.9077 23.1711 24.6678 23.1504C24.6678 23.1756 24.6678 23.2022 24.6663 23.2289L24.6649 23.2274Z" fill="#FFFBF5"/>
<path d="M23.8148 23.1545C23.8103 23.3189 23.8044 23.4877 23.8089 23.5425C23.8148 23.6417 23.8488 23.7469 24.1761 23.7469C24.1909 23.7469 24.2057 23.7469 24.222 23.7469C24.5967 23.7365 24.6041 23.584 24.6115 23.4596C24.6145 23.4003 24.6189 23.2759 24.6219 23.1441C24.339 23.1189 24.068 23.0864 23.8192 23.0479C23.8192 23.0834 23.8177 23.1189 23.8163 23.1545H23.8148Z" fill="#FFFBF5"/>
<path d="M26.8611 23.3866C26.8581 23.5524 26.8537 23.7094 26.8566 23.7627C26.8611 23.8664 26.8877 23.9686 27.1321 23.9686C27.1424 23.9686 27.1543 23.9686 27.1647 23.9686C27.4446 23.9582 27.452 23.8071 27.4564 23.6813C27.4608 23.5806 27.4668 23.3184 27.4683 23.1318C27.2713 23.154 27.0684 23.1718 26.864 23.1822C26.8626 23.2473 26.8611 23.317 26.8596 23.388L26.8611 23.3866Z" fill="#FFFBF5"/>
<path d="M27.5364 23.1255C27.5364 23.1907 27.5335 23.2632 27.532 23.3358C27.5276 23.5031 27.5231 23.6586 27.5261 23.7119C27.532 23.8156 27.5572 23.9178 27.8075 23.9178C27.8178 23.9178 27.8311 23.9178 27.8415 23.9178C28.1288 23.9089 28.1347 23.7564 28.1407 23.632C28.1451 23.5313 28.1436 23.2351 28.1436 23.0352C27.9496 23.0722 27.7453 23.1033 27.535 23.127L27.5364 23.1255Z" fill="#FFFBF5"/>
<path d="M28.2014 23.2542C28.1984 23.42 28.194 23.577 28.1969 23.6303C28.2029 23.734 28.228 23.8347 28.4783 23.8347H28.5124C28.7997 23.8243 28.8071 23.6718 28.8115 23.5474C28.8145 23.4408 28.8145 23.1105 28.8145 22.9136V22.8691C28.6264 22.9284 28.422 22.9802 28.2058 23.0217C28.2043 23.0928 28.2029 23.1742 28.1999 23.2542H28.2014Z" fill="#FFFBF5"/>
<path d="M26.513 24.0107H26.4775C26.2094 24.0107 26.1827 24.1114 26.1768 24.2151C26.1739 24.2669 26.1768 24.418 26.1827 24.5779C26.1842 24.6757 26.1872 24.7749 26.1887 24.8564C26.4078 24.8741 26.6285 24.8875 26.8462 24.8978C26.8462 24.7083 26.8373 24.4062 26.8329 24.2966C26.8269 24.1736 26.821 24.0211 26.5145 24.0107H26.513Z" fill="#FFFBF5"/>
<path d="M25.811 23.9414H25.774C25.506 23.9414 25.4793 24.0421 25.4734 24.1473C25.4704 24.2006 25.4734 24.3575 25.4793 24.5234C25.4808 24.6152 25.4838 24.7085 25.4852 24.787C25.6985 24.8137 25.9206 24.8359 26.1428 24.8551C26.1428 24.6685 26.1339 24.3442 26.1294 24.2287C26.1235 24.1058 26.1161 23.9533 25.811 23.9429V23.9414Z" fill="#FFFBF5"/>
<path d="M25.0662 23.8638C25.0514 23.8638 25.038 23.8638 25.0247 23.8638C24.7226 23.8638 24.693 23.966 24.687 24.0682C24.6841 24.1215 24.687 24.2784 24.693 24.4443C24.6945 24.5213 24.6974 24.5983 24.6989 24.6665C24.927 24.7079 25.1772 24.7464 25.4394 24.7775C25.4394 24.588 25.4305 24.2607 25.4231 24.1466C25.4171 24.0252 25.4083 23.8727 25.0662 23.8623V23.8638Z" fill="#FFFBF5"/>
<path d="M24.2531 23.8037C24.2368 23.8037 24.222 23.8037 24.2087 23.8037C23.8829 23.8037 23.8488 23.9044 23.8414 24.0096C23.8385 24.0629 23.8429 24.2199 23.8488 24.3857C23.8488 24.4124 23.8503 24.439 23.8518 24.4657C24.0562 24.5353 24.3346 24.6019 24.6589 24.6627C24.6574 24.4716 24.65 24.1932 24.6426 24.0925C24.6367 23.9696 24.6278 23.817 24.2531 23.8067V23.8037Z" fill="#FFFBF5"/>
<path d="M27.1854 24.0449C27.175 24.0449 27.1617 24.0449 27.1513 24.0449C26.9055 24.0449 26.8803 24.1456 26.8744 24.2508C26.8714 24.3041 26.8744 24.4611 26.8803 24.6269C26.8818 24.7232 26.8848 24.8224 26.8862 24.9009C27.0936 24.9083 27.2965 24.9113 27.4905 24.9098C27.4905 24.7232 27.4831 24.4388 27.4786 24.3307C27.4727 24.2093 27.4668 24.0568 27.1854 24.0464V24.0449Z" fill="#FFFBF5"/>
<path d="M27.834 23.9932H27.8014C27.5571 23.9932 27.5319 24.0939 27.526 24.1975C27.523 24.2523 27.526 24.4241 27.5319 24.5885C27.5349 24.704 27.5378 24.824 27.5378 24.9084C27.7466 24.9054 27.9451 24.8965 28.1302 24.8817C28.1302 24.6818 28.1302 24.3812 28.1272 24.2775C28.1213 24.1546 28.1154 24.0035 27.8355 23.9932H27.834Z" fill="#FFFBF5"/>
<path d="M28.4827 23.8994C28.4709 23.8994 28.459 23.8994 28.4472 23.8994C28.1984 23.8994 28.1717 24.0001 28.1673 24.1053C28.1643 24.1601 28.1673 24.3333 28.1702 24.5184C28.1717 24.6517 28.1732 24.7865 28.1732 24.8798C28.4027 24.8591 28.6086 24.828 28.7819 24.7835C28.7819 24.5836 28.7819 24.2874 28.7789 24.1852C28.773 24.0638 28.7671 23.9113 28.4827 23.9009V23.8994Z" fill="#FFFBF5"/>
<path d="M21.8957 13.8604C19.9305 13.9285 16.9508 15.5501 16.5199 17.9092C16.5036 17.9951 16.4903 18.0795 16.4799 18.1625C16.1763 20.4401 17.5284 21.8885 19.4966 21.9803C19.9956 21.6056 20.391 19.0925 21.4218 19.091C21.5017 19.091 21.5743 19.1029 21.6424 19.1265C21.986 18.5979 22.4999 17.422 22.7665 16.7526C22.7635 16.7526 22.7605 16.7526 22.7576 16.7526C21.9209 16.6238 21.7491 14.5742 21.8942 13.8618L21.8957 13.8604Z" fill="#FFFBF5"/>
<path d="M22.337 16.3938C21.903 15.7599 21.8334 14.3989 21.9416 13.8703L21.9534 13.8125H21.8942C20.8664 13.8495 19.6372 14.2879 18.6065 14.9869C17.4291 15.7866 16.6709 16.8203 16.4739 17.9014C16.4577 17.9917 16.4443 18.0776 16.4325 18.1576C16.2859 19.2564 16.5139 20.2086 17.09 20.9106C17.6439 21.5844 18.4969 21.9813 19.4936 22.0287H19.5099L19.5232 22.0198C19.7172 21.8732 19.8875 21.4452 20.0845 20.9476C20.4043 20.142 20.8012 19.1409 21.4217 19.1394C21.4943 19.1394 21.5639 19.1513 21.6276 19.172L21.6617 19.1838L21.6809 19.1542C22.0467 18.5885 22.5798 17.349 22.8094 16.7714L22.8331 16.7062H22.7649C22.605 16.6811 22.4599 16.5759 22.3355 16.3952L22.337 16.3938ZM21.6232 19.0713C21.5595 19.0535 21.4913 19.0446 21.4217 19.0446C20.739 19.0446 20.3288 20.0798 20 20.9121C19.8209 21.3653 19.6505 21.7932 19.4817 21.9339C18.5191 21.8851 17.6942 21.5 17.1611 20.8499C16.6013 20.1687 16.3821 19.2416 16.5243 18.1694C16.5347 18.0909 16.548 18.0065 16.5643 17.9176C16.9893 15.5896 19.9497 14.005 21.8394 13.9102C21.7446 14.4893 21.8275 15.8147 22.26 16.4471C22.3873 16.6322 22.5339 16.7462 22.7028 16.7877C22.4673 17.3712 21.9727 18.5174 21.6217 19.0713H21.6232Z" fill="#E6BCA5"/>
<path d="M19.4089 7.02757C18.0212 6.79951 16.5344 6.87355 15.0401 7.46593C11.6103 8.82542 10.0183 11.9028 10.1278 14.9002C11.6369 16.3678 14.4581 17.5614 16.4796 18.1612C16.4899 18.0783 16.5047 17.9924 16.5196 17.908C16.9505 15.5489 19.9301 13.9272 21.8953 13.8591C21.9116 13.7791 21.9324 13.7155 21.9561 13.6725C21.959 13.6681 21.962 13.6621 21.9664 13.6577C21.5888 12.3056 20.5314 8.62401 20.1212 7.1727C19.8872 7.11643 19.6488 7.06755 19.4089 7.02905V7.02757Z" fill="#FFFBF5"/>
<path d="M20.9358 9.86532C20.6292 8.7946 20.3389 7.77572 20.1657 7.15965L20.1583 7.133L20.1316 7.12707C19.8902 7.06932 19.6503 7.02044 19.4163 6.98194C17.8776 6.7287 16.3997 6.87827 15.0239 7.42326C11.2327 8.92492 9.98573 12.2718 10.082 14.902V14.9212L10.0968 14.9346C11.0846 15.8957 13.2764 17.2596 16.4678 18.2074L16.5196 18.2222L16.527 18.1689C16.5374 18.0904 16.5507 18.006 16.567 17.9171C16.9965 15.5654 20.0131 13.9719 21.8998 13.9068H21.9354L21.9428 13.8698C21.9591 13.7913 21.9768 13.7335 21.9976 13.698C21.9991 13.695 22.002 13.6906 22.005 13.6876L22.0198 13.6684L22.0139 13.6447C21.7962 12.8672 21.3608 11.3403 20.9387 9.86384L20.9358 9.86532ZM21.8584 13.815C20.838 13.8594 19.6251 14.2948 18.6062 14.9864C17.4289 15.7861 16.6707 16.8198 16.4737 17.9009C16.4604 17.9705 16.45 18.0386 16.4396 18.1037C13.3075 17.1663 11.1527 15.829 10.1709 14.8812C10.082 12.2852 11.3186 8.99305 15.055 7.51211C16.4145 6.97305 17.8761 6.82644 19.4 7.07672C19.6236 7.11374 19.8532 7.15965 20.0827 7.21445C20.2575 7.83348 20.5448 8.83755 20.8454 9.89345C21.263 11.3566 21.6955 12.8686 21.9146 13.6521C21.8924 13.6906 21.8732 13.7454 21.8569 13.8164L21.8584 13.815Z" fill="#E6BCA5"/>
<path d="M16.4797 18.1624C14.4582 17.5626 11.637 16.369 10.128 14.9014C10.1798 16.3408 10.6256 17.764 11.449 18.9665C13.9043 22.5563 18.6522 22.3194 19.409 22.0261C19.4341 22.0173 19.4549 22.0069 19.4697 21.998C19.4786 21.9921 19.4875 21.9862 19.4963 21.9802C17.5267 21.8869 16.1761 20.4401 16.4797 18.1624Z" fill="#FFFBF5"/>
<path d="M17.161 20.8491C16.6012 20.1678 16.382 19.2408 16.5242 18.1686L16.5301 18.1286L16.4916 18.1168C13.3165 17.1734 11.1395 15.8198 10.1591 14.8661L10.0777 14.7861L10.0821 14.9016C10.1369 16.3855 10.596 17.7998 11.412 18.992C12.7271 20.9142 14.6641 21.6873 16.0577 21.9968C16.8085 22.1641 17.5149 22.2234 18.091 22.2234C18.7382 22.2234 19.2225 22.1493 19.4268 22.0694C19.4535 22.059 19.4772 22.0486 19.495 22.0383C19.5053 22.0323 19.5142 22.0264 19.5246 22.019L19.6342 21.9405L19.4994 21.9346C18.5294 21.8887 17.6986 21.5036 17.1625 20.8506L17.161 20.8491ZM16.0755 21.9065C14.6982 21.5999 12.7848 20.8372 11.4861 18.9402C10.7012 17.7939 10.251 16.4389 10.1784 15.0142C11.1988 15.965 13.3446 17.2756 16.4279 18.1967C16.2917 19.2778 16.5212 20.2152 17.0899 20.9098C17.6068 21.5392 18.3843 21.9272 19.2965 22.0146C18.8182 22.1464 17.5386 22.2323 16.074 21.9079L16.0755 21.9065Z" fill="#E6BCA5"/>
<path d="M23.683 36.4722C23.4475 36.4159 23.2105 36.564 23.1543 36.8039C23.0506 37.2497 22.0095 37.5903 19.9703 37.2808C16.9951 36.8291 14.5071 35.4489 14.5589 34.6359C14.5737 34.39 14.3901 34.1782 14.1487 34.162C13.9073 34.1471 13.6985 34.3337 13.6822 34.5796C13.6304 35.3941 14.3546 36.2012 15.7763 36.9121C16.9136 37.4822 18.4331 37.9487 19.8414 38.1634C20.4057 38.2493 20.921 38.2908 21.3816 38.2908C22.8788 38.2908 23.8133 37.848 24.0088 37.0098C24.065 36.7699 23.9184 36.53 23.683 36.4722Z" fill="#FFFBF5" stroke="#E6BCA5" stroke-width="0.69" stroke-miterlimit="10"/>
<path d="M25.115 39.2796C24.8825 39.2085 24.6381 39.3418 24.567 39.5773C24.0783 41.2108 20.8351 40.4955 19.8517 40.2363C18.3175 39.8335 16.6515 39.1345 15.3941 38.3703C14.0435 37.5484 13.6096 36.9116 13.654 36.7043C13.7044 36.4629 13.5533 36.2259 13.3164 36.1741C13.0794 36.1223 12.8455 36.2763 12.7951 36.5162C12.6322 37.2878 13.3549 38.1689 14.9425 39.136C16.2679 39.9431 18.0213 40.6776 19.6311 41.1012C20.6722 41.3751 21.5978 41.5099 22.3901 41.5099C24.0176 41.5099 25.078 40.9397 25.4082 39.8379C25.4793 39.6025 25.3475 39.3522 25.115 39.2811V39.2796Z" fill="#FFFBF5" stroke="#E6BCA5" stroke-width="0.69" stroke-miterlimit="10"/>
<path d="M15.0107 42.0568C15.4476 41.9606 15.8919 41.8895 16.3421 41.8421C13.7282 40.2797 12.8515 39.1912 12.8545 38.9336C12.8885 38.6892 12.7227 38.4626 12.4828 38.4286C12.2428 38.393 12.0192 38.5618 11.9852 38.8062C11.9378 39.1364 12.0799 39.5037 12.4191 39.9258C12.9181 40.5463 13.8645 41.3075 15.0092 42.0568H15.0107Z" fill="#FFFBF5" stroke="#E6BCA5" stroke-width="0.69" stroke-miterlimit="10"/>
<path d="M28.8039 24.7777C27.5066 25.1184 24.1997 24.7333 23.5896 24.3498C22.8535 23.8862 22.8772 22.5712 23.0579 21.576C23.2371 20.5808 23.0209 20.0136 22.744 19.9425C22.2197 19.8092 22.4567 20.8888 21.7428 21.0265C21.029 21.1643 20.3271 18.7 19.6769 19.2909C19.166 19.7559 20.2175 20.5675 20.3671 21.5108C20.5166 22.4542 20.1686 24.2402 21.0305 25.4042C21.8273 26.4808 23.3748 26.269 24.8025 26.703C26.2301 27.1384 27.52 27.7722 28.2619 27.1813C28.7654 26.78 28.4944 26.0395 28.5255 25.7507C28.5566 25.4619 28.7506 25.0384 28.8025 24.7777H28.8039Z" fill="#FFFBF5"/>
<path d="M23.6148 24.3083C22.8018 23.7959 22.9869 22.2321 23.1039 21.5819C23.2846 20.5779 23.0654 19.9736 22.7559 19.8952C22.4627 19.8211 22.3723 20.0818 22.2835 20.3335C22.1887 20.6045 22.0806 20.9111 21.7355 20.9777C21.4319 21.037 21.1061 20.5408 20.7907 20.061C20.4975 19.6138 20.2205 19.1902 19.9303 19.1532C19.8296 19.1399 19.7348 19.1739 19.6474 19.2539C19.3231 19.5501 19.566 19.9588 19.8473 20.4312C20.0413 20.7585 20.262 21.1288 20.3242 21.5153C20.3671 21.7878 20.3686 22.1417 20.3701 22.5164C20.3731 23.442 20.3775 24.5942 20.9965 25.4294C21.5489 26.1758 22.4553 26.315 23.4134 26.4646C23.8666 26.5342 24.336 26.6067 24.7922 26.7459C25.0647 26.8289 25.3342 26.9192 25.5934 27.0081C26.3042 27.248 26.9543 27.4672 27.4919 27.4672C27.7985 27.4672 28.0695 27.3961 28.2931 27.2169C28.69 26.9 28.6307 26.3816 28.5908 26.0366C28.5774 25.9211 28.5656 25.8218 28.573 25.7537C28.5893 25.5923 28.6604 25.3865 28.7285 25.1865C28.7788 25.0384 28.8262 24.8992 28.8499 24.7852L28.8647 24.7111L28.7937 24.7304C27.4949 25.0725 24.2102 24.6815 23.6148 24.3083ZM28.6411 25.1569C28.5715 25.3613 28.4989 25.5731 28.4812 25.7448C28.4723 25.8233 28.4841 25.927 28.4989 26.0484C28.5375 26.3905 28.5908 26.86 28.2353 27.1443C27.6548 27.6064 26.7129 27.288 25.62 26.9207C25.3594 26.8333 25.0898 26.7415 24.8159 26.6586C24.3538 26.5179 23.8814 26.4453 23.4253 26.3742C22.4849 26.2291 21.5978 26.0914 21.0676 25.3761C20.4664 24.566 20.4634 23.4316 20.459 22.5194C20.459 22.1417 20.456 21.7833 20.4116 21.5034C20.3464 21.0992 20.1213 20.72 19.9229 20.3853C19.6519 19.9292 19.4386 19.5693 19.7066 19.325C19.7659 19.2717 19.8251 19.245 19.8873 19.245C19.8977 19.245 19.9066 19.245 19.9169 19.2465C20.1657 19.2791 20.4427 19.7026 20.7122 20.1129C21.0439 20.6178 21.386 21.1406 21.7503 21.0695C22.1472 20.9925 22.2687 20.6445 22.3679 20.3646C22.4656 20.0877 22.5308 19.9337 22.7322 19.9855C22.9943 20.0521 23.1809 20.6282 23.0121 21.5656C22.8921 22.2335 22.7041 23.8448 23.5645 24.3883C23.8621 24.5764 24.8144 24.7748 25.9325 24.8815C27.1024 24.9925 28.142 24.9777 28.7403 24.8415C28.7152 24.9348 28.6781 25.0444 28.6396 25.1584L28.6411 25.1569Z" fill="#E6BCA5"/>
<path d="M26.7294 16.9618C26.7161 16.9736 26.7042 16.9855 26.6894 17.0003C26.6168 17.0729 26.5191 17.1321 26.4095 17.1736C26.4095 17.1736 26.4065 17.175 26.4036 17.175C26.0526 17.3068 25.5743 17.255 25.358 16.8433C25.2988 16.7308 25.2603 16.6049 25.2396 16.4701C25.1877 16.1458 25.2396 15.7726 25.3654 15.4364C25.3995 15.3298 25.4395 15.2246 25.4839 15.1225C25.2381 14.927 24.4147 14.7715 24.0889 14.7715C24.0519 15.0484 23.9778 15.3416 23.8741 15.6127C23.8727 15.6171 23.8712 15.6186 23.8712 15.623C23.6964 16.1162 23.4284 16.5871 23.0611 16.7056C22.9663 16.747 22.8671 16.7648 22.7679 16.75C22.4998 17.4194 21.986 18.5953 21.6439 19.1239C22.214 19.3179 22.4465 20.2539 22.9293 20.7204C23.1574 20.9396 23.4387 21.0536 23.8386 20.9381C25.1892 20.5442 24.4102 19.3757 24.8708 18.7122C25.3314 18.0488 26.4761 17.7526 26.8938 17.2506C26.9338 17.1884 26.9782 17.1143 26.99 17.0225C27.0211 16.8004 26.9204 16.7841 26.7294 16.9603V16.9618Z" fill="#FFFBF5"/>
<path d="M26.9781 16.8078C26.9144 16.7737 26.8226 16.8122 26.6982 16.9277C26.6849 16.9411 26.6716 16.9529 26.6582 16.9662C26.5901 17.0329 26.5013 17.0892 26.3976 17.1277L26.3887 17.1306C26.057 17.255 25.6053 17.2121 25.3994 16.8211C25.3446 16.7174 25.3061 16.596 25.2854 16.4612C25.2365 16.1591 25.281 15.7904 25.4098 15.4498C25.4409 15.3505 25.4794 15.2498 25.5268 15.1402L25.5416 15.1077L25.5135 15.0855C25.2573 14.8811 24.4131 14.7256 24.0888 14.7256H24.0488L24.0429 14.7656C24.0059 15.0395 23.9333 15.3268 23.8326 15.5919C23.8282 15.5993 23.8267 15.6067 23.8267 15.6067C23.6816 16.0199 23.4268 16.5382 23.0418 16.6626C22.9515 16.7026 22.8611 16.7174 22.7737 16.7041L22.7382 16.6997L22.7249 16.7337C22.4953 17.3083 21.9666 18.5405 21.6038 19.1003L21.5712 19.1506L21.6275 19.1699C21.9503 19.2795 22.1621 19.6438 22.3857 20.0288C22.5383 20.2909 22.6953 20.5619 22.8952 20.7559C23.0862 20.9411 23.298 21.0314 23.5364 21.0314C23.6356 21.0314 23.7393 21.0151 23.8489 20.984C24.736 20.7263 24.7389 20.1206 24.7419 19.5875C24.7434 19.272 24.7449 18.9729 24.9063 18.7404C25.1536 18.3835 25.6023 18.1362 26.0377 17.8977C26.3946 17.7008 26.7338 17.5142 26.9248 17.2846L26.9307 17.2772C26.9737 17.2106 27.0211 17.1306 27.0344 17.0299C27.0403 16.9855 27.0596 16.8507 26.9766 16.8063L26.9781 16.8078ZM26.9441 17.0181C26.9337 17.0995 26.8937 17.1662 26.8582 17.2224C26.676 17.4416 26.3458 17.6238 25.9963 17.8163C25.552 18.0606 25.0929 18.3139 24.8337 18.6886C24.656 18.9448 24.6545 19.272 24.653 19.589C24.6501 20.1384 24.6471 20.6567 23.8267 20.8966C23.4861 20.9959 23.2106 20.9307 22.9618 20.6908C22.7708 20.5071 22.6168 20.2406 22.4687 19.9844C22.2584 19.6216 22.0407 19.2469 21.7149 19.1047C22.0718 18.5316 22.5694 17.3765 22.7989 16.8033C22.8922 16.8107 22.987 16.793 23.0759 16.753C23.492 16.6197 23.7615 16.0747 23.9141 15.6408L23.917 15.6319C24.0162 15.3698 24.0903 15.0899 24.1288 14.8218C24.4576 14.8322 25.1729 14.9714 25.4276 15.1402C25.3861 15.2395 25.3506 15.3313 25.3224 15.4216C25.1877 15.78 25.1418 16.1562 25.1951 16.479C25.2173 16.6241 25.2588 16.7545 25.3195 16.867C25.549 17.3054 26.0481 17.3587 26.4154 17.2224H26.4287L26.4346 17.215C26.5472 17.1721 26.6464 17.1099 26.7219 17.0344C26.7352 17.021 26.7486 17.0092 26.7604 16.9973C26.8937 16.8744 26.9337 16.8907 26.9352 16.8907C26.9411 16.8937 26.9574 16.9248 26.9441 17.0181Z" fill="#E6BCA5"/>
<path d="M25.7223 42.4237C26.1133 42.3497 26.5087 42.2949 26.91 42.2593C25.4631 38.948 23.8904 36.1253 23.5098 35.9668C23.0981 35.7965 22.4035 36.0601 22.6523 36.4467C23.0285 37.0301 24.3317 39.1064 25.7223 42.4237Z" fill="#FFFBF5" stroke="#E6BCA5" stroke-width="0.69" stroke-miterlimit="10"/>
<path d="M22.2064 35.2472C21.6732 35.1465 19.8695 34.4076 18.5811 34.0373C17.2926 33.6671 14.7114 33.559 14.353 33.4301C14.0983 33.3398 13.4704 33.2065 13.7043 33.556C13.8273 33.7382 13.845 33.9011 14.2478 34.064C15.2475 34.4653 16.795 34.2491 18.4093 34.6623C20.022 35.0755 21.4126 36.044 21.9339 36.4483C22.1279 36.5993 23.0461 37.0747 23.4844 36.2706C23.9213 35.4664 22.7158 35.3435 22.2034 35.2472H22.2064Z" fill="#FFFBF5" stroke="#E6BCA5" stroke-width="0.69" stroke-miterlimit="10"/>
</g>
<path style="mix-blend-mode:multiply" d="M16.1866 37.8225C22.1491 37.8225 26.9826 32.9889 26.9826 27.0265C26.9826 21.064 22.1491 16.2305 16.1866 16.2305C10.2242 16.2305 5.39062 21.064 5.39062 27.0265C5.39062 32.9889 10.2242 37.8225 16.1866 37.8225Z" fill="url(#paint0_radial_291_10349)"/>
</g>
<defs>
<radialGradient id="paint0_radial_291_10349" cx="0" cy="0" r="1" gradientUnits="userSpaceOnUse" gradientTransform="translate(16.1866 27.0265) scale(10.796)">
<stop stop-color="#FF3030"/>
<stop offset="0.11" stop-color="#FF5959"/>
<stop offset="0.27" stop-color="#FF8B8B"/>
<stop offset="0.42" stop-color="#FFB5B5"/>
<stop offset="0.57" stop-color="#FFD5D5"/>
<stop offset="0.71" stop-color="#FFECEC"/>
<stop offset="0.85" stop-color="#FFFAFA"/>
<stop offset="0.96" stop-color="white"/>
</radialGradient>
</defs>
</svg>
