<svg width="18" height="24" viewBox="0 0 18 24" fill="none" xmlns="http://www.w3.org/2000/svg">
<path d="M8.8 24C8.63 24 8.465 23.945 8.32 23.84C8.235 23.775 6.21 22.25 4.17 19.65C2.965 18.115 2.005 16.525 1.315 14.915C0.44 12.89 0 10.83 0 8.8C0 3.95 3.95 0 8.8 0C13.65 0 17.6 3.95 17.6 8.8C17.6 10.83 17.16 12.89 16.285 14.915C15.595 16.52 14.635 18.115 13.43 19.65C11.39 22.25 9.365 23.775 9.28 23.84C9.135 23.945 8.97 24 8.8 24ZM8.8 1.6C4.83 1.6 1.6 4.83 1.6 8.8C1.6 12.905 3.67 16.41 5.405 18.63C6.745 20.345 8.105 21.58 8.8 22.17C9.495 21.58 10.855 20.345 12.195 18.63C13.93 16.41 16 12.905 16 8.8C16 4.83 12.77 1.6 8.8 1.6Z" fill="black"/>
<path d="M8.79951 13.5995C6.15451 13.5995 3.99951 11.4445 3.99951 8.79951C3.99951 6.15451 6.15451 3.99951 8.79951 3.99951C11.4445 3.99951 13.5995 6.15451 13.5995 8.79951C13.5995 11.4445 11.4445 13.5995 8.79951 13.5995ZM8.79951 5.59951C7.03451 5.59951 5.59951 7.03451 5.59951 8.79951C5.59951 10.5645 7.03451 11.9995 8.79951 11.9995C10.5645 11.9995 11.9995 10.5645 11.9995 8.79951C11.9995 7.03451 10.5645 5.59951 8.79951 5.59951Z" fill="black"/>
</svg>
