<svg width="26" height="26" viewBox="0 0 26 26" fill="none" xmlns="http://www.w3.org/2000/svg">
<path d="M19.4467 6.5539C19.1011 6.20829 19.1011 5.64965 19.4467 5.30403L20.3306 4.4201C20.6763 4.07448 21.2349 4.07448 21.5805 4.4201C21.9261 4.76572 21.9261 5.32436 21.5805 5.66998L20.6966 6.5539C20.351 6.89952 19.7923 6.89952 19.4467 6.5539Z" fill="black"/>
<path d="M20.9554 16.9777V13.8839H21.8393C22.3272 13.8839 22.7232 13.4888 22.7232 13V10.5144C24.3054 9.59599 25.375 7.88647 25.375 5.92857C25.375 3.00365 22.9963 0.625 20.0714 0.625C17.1465 0.625 14.7679 3.00365 14.7679 5.92857C14.7679 7.88647 15.8374 9.59599 17.4196 10.5144V13C17.4196 13.4888 17.8156 13.8839 18.3036 13.8839H19.1875V16.9777C19.1875 18.6837 17.7997 20.0714 16.0938 20.0714C14.3878 20.0714 13 18.6837 13 16.9777V6.8125C13 4.37551 11.0173 2.39286 8.58036 2.39286C6.14337 2.39286 4.16071 4.37551 4.16071 6.8125V11.2321H3.27679C2.78886 11.2321 2.39286 11.6273 2.39286 12.1161V14.4311C1.28353 15.6863 0.625 17.4303 0.625 19.1875C0.625 22.6569 2.56611 25.375 5.04464 25.375C7.52318 25.375 9.46429 22.6569 9.46429 19.1875C9.46429 17.4303 8.80576 15.6863 7.69643 14.4311V12.1161C7.69643 11.6273 7.30043 11.2321 6.8125 11.2321H5.92857V6.8125C5.92857 5.35048 7.11834 4.16071 8.58036 4.16071C10.0424 4.16071 11.2321 5.35048 11.2321 6.8125V16.9777C11.2321 19.6578 13.4128 21.8393 16.0938 21.8393C18.7747 21.8393 20.9554 19.6578 20.9554 16.9777ZM20.0714 2.39286C22.0214 2.39286 23.6071 3.97863 23.6071 5.92857C23.6071 7.87852 22.0214 9.46429 20.0714 9.46429C18.1215 9.46429 16.5357 7.87852 16.5357 5.92857C16.5357 3.97863 18.1215 2.39286 20.0714 2.39286ZM20.0714 11.2321C20.3728 11.2321 20.6672 11.2012 20.9554 11.1526V12.1161H19.1875V11.1526C19.4757 11.2012 19.77 11.2321 20.0714 11.2321ZM4.16071 13H5.92857V13.8839H4.16071V13ZM5.04464 23.6071C3.60738 23.6071 2.39286 21.5829 2.39286 19.1875C2.39286 17.6795 3.01426 16.4217 3.6666 15.6518H6.4218C7.07503 16.4217 7.69643 17.6795 7.69643 19.1875C7.69643 21.5829 6.48191 23.6071 5.04464 23.6071Z" fill="black"/>
</svg>
