<svg width="27" height="24" viewBox="0 0 27 24" fill="none" xmlns="http://www.w3.org/2000/svg">
<path d="M26.5261 6.1223C26.0894 4.40982 25.1587 2.93319 23.8345 1.85201C22.5445 0.798843 20.964 0.21875 19.3847 0.21875C18.174 0.21875 17.0188 0.544803 15.9516 1.18771C15.1089 1.69559 14.3509 2.3863 13.6886 3.24844C12.1826 1.28552 10.1943 0.21875 7.99511 0.21875C6.41626 0.21875 4.83661 0.798843 3.5468 1.85201C2.22299 2.93319 1.29244 4.40982 0.855765 6.1221C0.381089 7.9842 0.289074 10.9601 2.54804 14.5625C4.63897 17.8968 8.26336 20.9863 13.3208 23.7449C13.4354 23.8073 13.5618 23.8388 13.6884 23.8388C13.8151 23.8388 13.9415 23.8075 14.0561 23.7449C19.1149 20.9861 22.7405 17.8966 24.8322 14.5625C27.0922 10.9601 27.0008 7.9844 26.5261 6.1223ZM13.6884 22.1939C7.69367 18.8575 4.72719 15.5486 3.31736 12.7968H5.46431C5.75535 12.7968 6.0212 12.6323 6.15122 12.3723L7.10957 10.4556L9.71299 15.6626C9.84301 15.9229 10.1091 16.0873 10.3999 16.0873C10.6907 16.0873 10.9568 15.9229 11.0868 15.6626L13.6902 10.4556L14.6486 12.3723C14.7788 12.6325 15.0446 12.7968 15.3355 12.7968H21.16C21.5841 12.7968 21.928 12.4529 21.928 12.0289C21.928 11.6048 21.5841 11.2609 21.16 11.2609H15.8102L14.3773 8.39487C14.2471 8.13462 13.9813 7.9704 13.6902 7.9704C13.3994 7.9704 13.1335 8.13462 13.0035 8.39487L10.3999 13.6019L7.79648 8.39487C7.66626 8.13462 7.40042 7.9704 7.10957 7.9704C6.81852 7.9704 6.55268 8.13462 6.42266 8.39487L4.98963 11.2609H2.66146C1.90033 9.03557 2.13377 7.32669 2.3442 6.50176C3.05692 3.70691 5.38049 1.7548 7.99511 1.7548C9.97263 1.7548 11.7613 2.91018 13.0315 5.00772C13.1705 5.23756 13.4196 5.37798 13.6882 5.37798H13.6884C13.9569 5.37798 14.2061 5.23776 14.3453 5.00792C15.6165 2.91018 17.4062 1.7548 19.3847 1.7548C22.0004 1.7548 24.3249 3.70691 25.0377 6.50176C25.5319 8.44047 26.1544 15.2576 13.6884 22.1939Z" fill="black"/>
</svg>
