<svg width="39" height="39" viewBox="0 0 39 39" fill="none" xmlns="http://www.w3.org/2000/svg">
<path fill-rule="evenodd" clip-rule="evenodd" d="M22.4753 9.39951C21.7674 5.82165 18.6088 3.12012 14.8242 3.12012C10.5194 3.12012 7.02424 6.6153 7.02424 10.9201H7.02346C5.78248 10.9201 4.59259 11.4131 3.71509 12.2906C2.8372 13.1681 2.34424 14.3584 2.34424 15.5993V15.6009C2.34424 16.8419 2.8372 18.0322 3.71509 18.9097C4.59259 19.7872 5.78248 20.2801 7.02346 20.2801H21.824C23.2716 20.2801 24.6604 19.7049 25.6842 18.6811C26.7079 17.6574 27.2832 16.269 27.2832 14.8209V14.8193C27.2832 13.3713 26.7079 11.9829 25.6842 10.9591C24.8153 10.0902 23.6831 9.5442 22.4753 9.39951Z" fill="#AFC3D1"/>
<path fill-rule="evenodd" clip-rule="evenodd" d="M30.5554 29.9929L27.4354 34.6729C27.1967 35.0309 27.2934 35.5157 27.6518 35.7543C28.0098 35.993 28.4946 35.8963 28.7333 35.5379L31.8533 30.8579C32.092 30.4999 31.9952 30.0151 31.6368 29.7764C31.2788 29.5377 30.794 29.6345 30.5554 29.9929Z" fill="#69D7F7"/>
<path fill-rule="evenodd" clip-rule="evenodd" d="M25.8577 29.9964L24.3261 32.2936C24.0876 32.6515 24.1845 33.1358 24.5423 33.3743C24.9002 33.613 25.3843 33.5161 25.623 33.1582L27.1544 30.8608C27.3931 30.503 27.2962 30.0189 26.9383 29.7802C26.5805 29.5417 26.0964 29.6386 25.8577 29.9964Z" fill="#69D7F7"/>
<path fill-rule="evenodd" clip-rule="evenodd" d="M10.2753 29.9826L7.15533 34.6626C6.91665 35.0206 7.01337 35.5054 7.37178 35.7441C7.7298 35.9828 8.21458 35.8861 8.45326 35.5276L11.5733 30.8476C11.8119 30.4896 11.7152 30.0049 11.3568 29.7662C10.9988 29.5275 10.514 29.6242 10.2753 29.9826Z" fill="#69D7F7"/>
<path fill-rule="evenodd" clip-rule="evenodd" d="M14.9342 30.009L13.384 32.3344C13.1451 32.6927 13.242 33.1777 13.6003 33.4166C13.9586 33.6555 14.4436 33.5586 14.6825 33.2002L16.2328 30.8748C16.4717 30.5165 16.3747 30.0315 16.0164 29.7926C15.6581 29.5538 15.1731 29.6507 14.9342 30.009Z" fill="#69D7F7"/>
<path fill-rule="evenodd" clip-rule="evenodd" d="M20.4152 29.9929L17.2952 34.6729C17.0565 35.0309 17.1533 35.5157 17.5117 35.7543C17.8697 35.993 18.3545 35.8963 18.5931 35.5379L21.7131 30.8579C21.9518 30.4999 21.8551 30.0151 21.4967 29.7764C21.1387 29.5377 20.6539 29.6345 20.4152 29.9929Z" fill="#69D7F7"/>
<path fill-rule="evenodd" clip-rule="evenodd" d="M11.7691 17.1602H10.9236C9.4759 17.1602 8.0871 17.7355 7.06335 18.7593C6.0396 19.783 5.46436 21.1714 5.46436 22.6195V22.621C5.46436 24.0691 6.0396 25.4575 7.06335 26.4812C8.0871 27.505 9.4759 28.0802 10.9236 28.0802H29.6451C33.5217 28.0802 36.6643 24.9376 36.6643 21.061C36.6643 21.0606 36.6643 21.0599 36.6643 21.0595C36.6643 17.6532 34.2382 14.8144 31.0199 14.1748C30.1666 9.66562 26.2018 6.25 21.445 6.25C16.0669 6.25 11.7001 10.6168 11.7001 15.9953C11.7001 16.3892 11.7235 16.778 11.7691 17.1602Z" fill="#D9E2E9"/>
</svg>
