<svg width="22" height="22" viewBox="0 0 22 22" fill="none" xmlns="http://www.w3.org/2000/svg">
<path fill-rule="evenodd" clip-rule="evenodd" d="M22 14.0698V3.83721C22 2.81907 21.5958 1.84391 20.8765 1.12353C20.1561 0.404186 19.1809 0 18.1628 0C14.299 0 7.70102 0 3.83721 0C1.71805 0 0 1.71805 0 3.83721V18.1628C0 19.1809 0.404186 20.1561 1.12353 20.8765C1.84391 21.5958 2.81907 22 3.83721 22H14.0698C14.4934 22 14.8372 21.6562 14.8372 21.2326C14.8372 20.8089 14.4934 20.4651 14.0698 20.4651C14.0698 20.4651 7.76549 20.4651 3.83721 20.4651C3.22633 20.4651 2.64102 20.2226 2.20921 19.7908C1.7774 19.359 1.53488 18.7737 1.53488 18.1628V3.83721C1.53488 2.5653 2.5653 1.53488 3.83721 1.53488H18.1628C18.7737 1.53488 19.359 1.7774 19.7908 2.20921C20.2226 2.64102 20.4651 3.22633 20.4651 3.83721V14.0698C20.4651 14.4934 20.8089 14.8372 21.2326 14.8372C21.6562 14.8372 22 14.4934 22 14.0698Z" fill="black"/>
<path fill-rule="evenodd" clip-rule="evenodd" d="M16.9944 13.015C16.887 12.9075 16.7509 12.8349 16.6025 12.8052L12.9843 12.0807C12.7325 12.0306 12.4726 12.1094 12.2915 12.2915C12.1094 12.4726 12.0306 12.7325 12.0807 12.9843L12.8052 16.6025C12.8349 16.7509 12.9075 16.887 13.015 16.9944C13.015 16.9944 15.2989 19.2783 16.7099 20.6894C17.1418 21.1212 17.7271 21.3637 18.3379 21.3637C18.9478 21.3637 19.5341 21.1212 19.9659 20.6894C20.2023 20.452 20.452 20.2023 20.6894 19.9659C21.1212 19.5341 21.3637 18.9478 21.3637 18.3379C21.3637 17.7271 21.1212 17.1418 20.6894 16.7099C19.2783 15.2989 16.9944 13.015 16.9944 13.015ZM16.0735 14.2644L19.6037 17.7946C19.748 17.9389 19.8288 18.1343 19.8288 18.3379C19.8288 18.5405 19.748 18.736 19.6037 18.8803L18.8803 19.6037C18.736 19.748 18.5405 19.8288 18.3379 19.8288C18.1343 19.8288 17.9389 19.748 17.7946 19.6037L14.2644 16.0735L13.8121 13.8121L16.0735 14.2644Z" fill="black"/>
<path fill-rule="evenodd" clip-rule="evenodd" d="M4.8607 13.8137H9.97698C10.4006 13.8137 10.7444 13.4699 10.7444 13.0463C10.7444 12.6226 10.4006 12.2788 9.97698 12.2788H4.8607C4.43708 12.2788 4.09326 12.6226 4.09326 13.0463C4.09326 13.4699 4.43708 13.8137 4.8607 13.8137Z" fill="black"/>
<path fill-rule="evenodd" clip-rule="evenodd" d="M4.8607 9.72092H10.4886C10.9122 9.72092 11.2561 9.37711 11.2561 8.95348C11.2561 8.52985 10.9122 8.18604 10.4886 8.18604H4.8607C4.43708 8.18604 4.09326 8.52985 4.09326 8.95348C4.09326 9.37711 4.43708 9.72092 4.8607 9.72092Z" fill="black"/>
<path fill-rule="evenodd" clip-rule="evenodd" d="M13.5589 9.72092H16.1171C16.5407 9.72092 16.8845 9.37711 16.8845 8.95348C16.8845 8.52985 16.5407 8.18604 16.1171 8.18604H13.5589C13.1353 8.18604 12.7915 8.52985 12.7915 8.95348C12.7915 9.37711 13.1353 9.72092 13.5589 9.72092Z" fill="black"/>
<path fill-rule="evenodd" clip-rule="evenodd" d="M4.8607 5.62815H16.1165C16.5401 5.62815 16.884 5.28433 16.884 4.8607C16.884 4.43708 16.5401 4.09326 16.1165 4.09326H4.8607C4.43708 4.09326 4.09326 4.43708 4.09326 4.8607C4.09326 5.28433 4.43708 5.62815 4.8607 5.62815Z" fill="black"/>
</svg>
