<svg width="17" height="14" viewBox="0 0 17 14" fill="none" xmlns="http://www.w3.org/2000/svg">
<path fill-rule="evenodd" clip-rule="evenodd" d="M8.68638 0C11.7688 0 14.3725 1.82213 16.3977 5.10662C17.0311 6.13375 17.0311 7.40625 16.3977 8.43341C14.3725 11.7179 11.7688 13.54 8.68638 13.54C5.60397 13.54 3.00024 11.7179 0.975006 8.43341C0.341665 7.40625 0.341665 6.13375 0.975006 5.10662C3.00025 1.82214 5.60397 0 8.68638 0ZM8.68638 1.2527C6.09411 1.2527 3.82329 2.87393 2.04111 5.76417C1.65626 6.38837 1.65626 7.15208 2.0411 7.77627C3.82323 10.6665 6.09409 12.2878 8.68638 12.2878C11.2787 12.2878 13.5495 10.6665 15.3316 7.77628C15.7165 7.15209 15.7165 6.38836 15.3316 5.76417C13.5494 2.87389 11.2787 1.2527 8.68638 1.2527ZM8.68637 3.51073C10.4864 3.51073 11.9456 4.96998 11.9456 6.77001C11.9456 8.57003 10.4864 10.0293 8.68637 10.0293C6.88634 10.0293 5.42709 8.57004 5.42709 6.77001C5.42709 4.96996 6.88632 3.51073 8.68637 3.51073ZM8.68637 4.76343C7.57802 4.76343 6.67956 5.66188 6.67956 6.77024C6.67956 7.8786 7.57802 8.77705 8.68637 8.77705C9.79473 8.77705 10.6932 7.8786 10.6932 6.77024C10.6932 5.66188 9.79473 4.76343 8.68637 4.76343Z" fill="black"/>
</svg>
